M48
; DRILL file {KiCad (5.1.5-0-10_14)} date Sonntag, 25. April 2021 um 17:10:38
; FORMAT={-:-/ absolute / metric / decimal}
; #@! TF.CreationDate,2021-04-25T17:10:38+02:00
; #@! TF.GenerationSoftware,Kicad,Pcbnew,(5.1.5-0-10_14)
; #@! TF.FileFunction,Plated,1,2,PTH
FMAT,2
METRIC
T1C0.300
T2C0.800
T3C1.000
%
G90
G05
T1
X99.695Y-118.745
X100.33Y-38.735
X102.25Y-115.57
X102.387Y-112.213
X103.2Y-107.8
X104.0Y-68.6
X104.0Y-102.6
X104.029Y-67.4
X104.4Y-99.6
X104.775Y-111.76
X105.4Y-96.6
X105.41Y-50.72
X105.41Y-58.42
X107.2Y-103.0
X107.315Y-105.664
X107.6Y-97.4
X107.6Y-93.2
X107.6Y-96.6
X107.6Y-98.2
X108.0Y-103.0
X108.0Y-109.0
X108.2Y-93.8
X108.8Y-94.4
X108.82Y-103.065
X109.4Y-94.995
X109.6Y-103.0
X109.6Y-111.6
X109.6Y-111.6
X109.605Y-69.395
X109.8Y-48.6
X109.8Y-106.6
X109.855Y-66.495
X110.4Y-111.6
X110.4Y-111.6
X110.6Y-106.0
X110.8Y-48.4
X111.2Y-107.6
X111.76Y-114.3
X112.0Y-104.8
X114.6Y-112.6
X114.8Y-101.2
X116.2Y-107.4
X116.4Y-119.6
X117.0Y-48.0
T2
X99.06Y-50.8
X99.06Y-53.34
X99.06Y-55.88
X99.06Y-58.42
X99.06Y-60.96
X99.06Y-63.5
X99.06Y-66.04
X99.06Y-68.58
X99.06Y-71.12
X99.06Y-73.66
X99.06Y-76.2
X99.06Y-78.74
X99.06Y-81.28
X99.06Y-83.82
X99.06Y-86.36
X99.06Y-88.9
X99.06Y-91.44
X99.06Y-93.98
X99.06Y-96.52
X99.06Y-99.06
X114.3Y-50.8
X114.3Y-53.34
X114.3Y-55.88
X114.3Y-58.42
X114.3Y-60.96
X114.3Y-63.5
X114.3Y-66.04
X114.3Y-68.58
X114.3Y-71.12
X114.3Y-73.66
X114.3Y-76.2
X114.3Y-78.74
X114.3Y-81.28
X114.3Y-83.82
X114.3Y-86.36
X114.3Y-88.9
X114.3Y-91.44
X114.3Y-93.98
X114.3Y-96.52
X114.3Y-99.06
X101.6Y-50.8
X101.6Y-53.34
X101.6Y-55.88
X101.6Y-58.42
X101.6Y-60.96
X101.6Y-63.5
X101.6Y-66.04
X101.6Y-68.58
X101.6Y-71.12
X101.6Y-73.66
X101.6Y-76.2
X101.6Y-78.74
X101.6Y-81.28
X101.6Y-83.82
X101.6Y-86.36
X101.6Y-88.9
X101.6Y-91.44
X101.6Y-93.98
X101.6Y-96.52
X101.6Y-99.06
X116.84Y-50.8
X116.84Y-53.34
X116.84Y-55.88
X116.84Y-58.42
X116.84Y-60.96
X116.84Y-63.5
X116.84Y-66.04
X116.84Y-68.58
X116.84Y-71.12
X116.84Y-73.66
X116.84Y-76.2
X116.84Y-78.74
X116.84Y-81.28
X116.84Y-83.82
X116.84Y-86.36
X116.84Y-88.9
X116.84Y-91.44
X116.84Y-93.98
X116.84Y-96.52
X116.84Y-99.06
T3
X99.06Y-46.99
X101.6Y-46.99
X99.568Y-102.616
X102.108Y-102.616
X108.204Y-116.205
X108.204Y-118.745
X110.744Y-116.205
X110.744Y-118.745
X113.284Y-116.205
X113.284Y-118.745
X113.03Y-38.1
X113.03Y-40.64
X113.03Y-43.18
X113.03Y-45.72
X115.57Y-38.1
X115.57Y-40.64
X115.57Y-43.18
X115.57Y-45.72
T0
M30
