G04 #@! TF.GenerationSoftware,KiCad,Pcbnew,(5.1.5-0-10_14)*
G04 #@! TF.CreationDate,2021-04-25T17:09:50+02:00*
G04 #@! TF.ProjectId,6526KernalSwitcher,36353236-4b65-4726-9e61-6c5377697463,3.0*
G04 #@! TF.SameCoordinates,Original*
G04 #@! TF.FileFunction,Soldermask,Top*
G04 #@! TF.FilePolarity,Negative*
%FSLAX46Y46*%
G04 Gerber Fmt 4.6, Leading zero omitted, Abs format (unit mm)*
G04 Created by KiCad (PCBNEW (5.1.5-0-10_14)) date 2021-04-25 17:09:50*
%MOMM*%
%LPD*%
G04 APERTURE LIST*
%ADD10C,0.100000*%
G04 APERTURE END LIST*
D10*
G36*
X113397512Y-117848927D02*
G01*
X113546812Y-117878624D01*
X113710784Y-117946544D01*
X113858354Y-118045147D01*
X113983853Y-118170646D01*
X114082456Y-118318216D01*
X114150376Y-118482188D01*
X114185000Y-118656259D01*
X114185000Y-118833741D01*
X114150376Y-119007812D01*
X114082456Y-119171784D01*
X113983853Y-119319354D01*
X113858354Y-119444853D01*
X113710784Y-119543456D01*
X113546812Y-119611376D01*
X113397512Y-119641073D01*
X113372742Y-119646000D01*
X113195258Y-119646000D01*
X113170488Y-119641073D01*
X113021188Y-119611376D01*
X112857216Y-119543456D01*
X112709646Y-119444853D01*
X112584147Y-119319354D01*
X112485544Y-119171784D01*
X112417624Y-119007812D01*
X112383000Y-118833741D01*
X112383000Y-118656259D01*
X112417624Y-118482188D01*
X112485544Y-118318216D01*
X112584147Y-118170646D01*
X112709646Y-118045147D01*
X112857216Y-117946544D01*
X113021188Y-117878624D01*
X113170488Y-117848927D01*
X113195258Y-117844000D01*
X113372742Y-117844000D01*
X113397512Y-117848927D01*
G37*
G36*
X110857512Y-117848927D02*
G01*
X111006812Y-117878624D01*
X111170784Y-117946544D01*
X111318354Y-118045147D01*
X111443853Y-118170646D01*
X111542456Y-118318216D01*
X111610376Y-118482188D01*
X111645000Y-118656259D01*
X111645000Y-118833741D01*
X111610376Y-119007812D01*
X111542456Y-119171784D01*
X111443853Y-119319354D01*
X111318354Y-119444853D01*
X111170784Y-119543456D01*
X111006812Y-119611376D01*
X110857512Y-119641073D01*
X110832742Y-119646000D01*
X110655258Y-119646000D01*
X110630488Y-119641073D01*
X110481188Y-119611376D01*
X110317216Y-119543456D01*
X110169646Y-119444853D01*
X110044147Y-119319354D01*
X109945544Y-119171784D01*
X109877624Y-119007812D01*
X109843000Y-118833741D01*
X109843000Y-118656259D01*
X109877624Y-118482188D01*
X109945544Y-118318216D01*
X110044147Y-118170646D01*
X110169646Y-118045147D01*
X110317216Y-117946544D01*
X110481188Y-117878624D01*
X110630488Y-117848927D01*
X110655258Y-117844000D01*
X110832742Y-117844000D01*
X110857512Y-117848927D01*
G37*
G36*
X108317512Y-117848927D02*
G01*
X108466812Y-117878624D01*
X108630784Y-117946544D01*
X108778354Y-118045147D01*
X108903853Y-118170646D01*
X109002456Y-118318216D01*
X109070376Y-118482188D01*
X109105000Y-118656259D01*
X109105000Y-118833741D01*
X109070376Y-119007812D01*
X109002456Y-119171784D01*
X108903853Y-119319354D01*
X108778354Y-119444853D01*
X108630784Y-119543456D01*
X108466812Y-119611376D01*
X108317512Y-119641073D01*
X108292742Y-119646000D01*
X108115258Y-119646000D01*
X108090488Y-119641073D01*
X107941188Y-119611376D01*
X107777216Y-119543456D01*
X107629646Y-119444853D01*
X107504147Y-119319354D01*
X107405544Y-119171784D01*
X107337624Y-119007812D01*
X107303000Y-118833741D01*
X107303000Y-118656259D01*
X107337624Y-118482188D01*
X107405544Y-118318216D01*
X107504147Y-118170646D01*
X107629646Y-118045147D01*
X107777216Y-117946544D01*
X107941188Y-117878624D01*
X108090488Y-117848927D01*
X108115258Y-117844000D01*
X108292742Y-117844000D01*
X108317512Y-117848927D01*
G37*
G36*
X108317512Y-115308927D02*
G01*
X108466812Y-115338624D01*
X108630784Y-115406544D01*
X108778354Y-115505147D01*
X108903853Y-115630646D01*
X109002456Y-115778216D01*
X109070376Y-115942188D01*
X109105000Y-116116259D01*
X109105000Y-116293741D01*
X109070376Y-116467812D01*
X109002456Y-116631784D01*
X108903853Y-116779354D01*
X108778354Y-116904853D01*
X108630784Y-117003456D01*
X108466812Y-117071376D01*
X108317512Y-117101073D01*
X108292742Y-117106000D01*
X108115258Y-117106000D01*
X108090488Y-117101073D01*
X107941188Y-117071376D01*
X107777216Y-117003456D01*
X107629646Y-116904853D01*
X107504147Y-116779354D01*
X107405544Y-116631784D01*
X107337624Y-116467812D01*
X107303000Y-116293741D01*
X107303000Y-116116259D01*
X107337624Y-115942188D01*
X107405544Y-115778216D01*
X107504147Y-115630646D01*
X107629646Y-115505147D01*
X107777216Y-115406544D01*
X107941188Y-115338624D01*
X108090488Y-115308927D01*
X108115258Y-115304000D01*
X108292742Y-115304000D01*
X108317512Y-115308927D01*
G37*
G36*
X114185000Y-117106000D02*
G01*
X112383000Y-117106000D01*
X112383000Y-115304000D01*
X114185000Y-115304000D01*
X114185000Y-117106000D01*
G37*
G36*
X110857512Y-115308927D02*
G01*
X111006812Y-115338624D01*
X111170784Y-115406544D01*
X111318354Y-115505147D01*
X111443853Y-115630646D01*
X111542456Y-115778216D01*
X111610376Y-115942188D01*
X111645000Y-116116259D01*
X111645000Y-116293741D01*
X111610376Y-116467812D01*
X111542456Y-116631784D01*
X111443853Y-116779354D01*
X111318354Y-116904853D01*
X111170784Y-117003456D01*
X111006812Y-117071376D01*
X110857512Y-117101073D01*
X110832742Y-117106000D01*
X110655258Y-117106000D01*
X110630488Y-117101073D01*
X110481188Y-117071376D01*
X110317216Y-117003456D01*
X110169646Y-116904853D01*
X110044147Y-116779354D01*
X109945544Y-116631784D01*
X109877624Y-116467812D01*
X109843000Y-116293741D01*
X109843000Y-116116259D01*
X109877624Y-115942188D01*
X109945544Y-115778216D01*
X110044147Y-115630646D01*
X110169646Y-115505147D01*
X110317216Y-115406544D01*
X110481188Y-115338624D01*
X110630488Y-115308927D01*
X110655258Y-115304000D01*
X110832742Y-115304000D01*
X110857512Y-115308927D01*
G37*
G36*
X101459999Y-114769737D02*
G01*
X101469608Y-114772652D01*
X101478472Y-114777390D01*
X101486237Y-114783763D01*
X101496448Y-114796206D01*
X101503378Y-114806575D01*
X101520705Y-114823902D01*
X101541080Y-114837515D01*
X101563720Y-114846891D01*
X101587753Y-114851671D01*
X101612257Y-114851670D01*
X101636290Y-114846888D01*
X101658929Y-114837510D01*
X101679302Y-114823895D01*
X101696629Y-114806568D01*
X101703558Y-114796198D01*
X101713763Y-114783763D01*
X101721528Y-114777390D01*
X101730392Y-114772652D01*
X101740001Y-114769737D01*
X101756140Y-114768148D01*
X102243861Y-114768148D01*
X102262199Y-114769954D01*
X102274450Y-114770556D01*
X102292869Y-114770556D01*
X102315149Y-114772750D01*
X102399233Y-114789476D01*
X102420660Y-114795976D01*
X102499858Y-114828780D01*
X102505303Y-114831691D01*
X102505309Y-114831693D01*
X102514169Y-114836429D01*
X102514173Y-114836432D01*
X102519614Y-114839340D01*
X102590899Y-114886971D01*
X102608204Y-114901172D01*
X102668828Y-114961796D01*
X102683029Y-114979101D01*
X102730660Y-115050386D01*
X102733568Y-115055827D01*
X102733571Y-115055831D01*
X102738307Y-115064691D01*
X102738309Y-115064697D01*
X102741220Y-115070142D01*
X102774024Y-115149340D01*
X102780524Y-115170767D01*
X102797250Y-115254851D01*
X102799444Y-115277131D01*
X102799444Y-115295550D01*
X102800046Y-115307801D01*
X102801852Y-115326139D01*
X102801852Y-115813862D01*
X102800046Y-115832199D01*
X102799444Y-115844450D01*
X102799444Y-115862869D01*
X102797250Y-115885149D01*
X102780524Y-115969233D01*
X102774024Y-115990660D01*
X102741220Y-116069858D01*
X102738309Y-116075303D01*
X102738307Y-116075309D01*
X102733571Y-116084169D01*
X102733568Y-116084173D01*
X102730660Y-116089614D01*
X102683029Y-116160899D01*
X102668828Y-116178204D01*
X102608204Y-116238828D01*
X102590899Y-116253029D01*
X102519614Y-116300660D01*
X102514173Y-116303568D01*
X102514169Y-116303571D01*
X102505309Y-116308307D01*
X102505303Y-116308309D01*
X102499858Y-116311220D01*
X102420660Y-116344024D01*
X102399233Y-116350524D01*
X102315149Y-116367250D01*
X102292869Y-116369444D01*
X102274450Y-116369444D01*
X102262199Y-116370046D01*
X102243862Y-116371852D01*
X101756140Y-116371852D01*
X101740001Y-116370263D01*
X101730392Y-116367348D01*
X101721528Y-116362610D01*
X101713763Y-116356237D01*
X101703552Y-116343794D01*
X101696622Y-116333425D01*
X101679295Y-116316098D01*
X101658920Y-116302485D01*
X101636280Y-116293109D01*
X101612247Y-116288329D01*
X101587743Y-116288330D01*
X101563710Y-116293112D01*
X101541071Y-116302490D01*
X101520698Y-116316105D01*
X101503371Y-116333432D01*
X101496442Y-116343802D01*
X101486237Y-116356237D01*
X101478472Y-116362610D01*
X101469608Y-116367348D01*
X101459999Y-116370263D01*
X101443860Y-116371852D01*
X100956138Y-116371852D01*
X100937801Y-116370046D01*
X100925550Y-116369444D01*
X100907131Y-116369444D01*
X100884851Y-116367250D01*
X100800767Y-116350524D01*
X100779340Y-116344024D01*
X100700142Y-116311220D01*
X100694697Y-116308309D01*
X100694691Y-116308307D01*
X100685831Y-116303571D01*
X100685827Y-116303568D01*
X100680386Y-116300660D01*
X100609101Y-116253029D01*
X100591796Y-116238828D01*
X100531172Y-116178204D01*
X100516971Y-116160899D01*
X100469340Y-116089614D01*
X100466432Y-116084173D01*
X100466429Y-116084169D01*
X100461693Y-116075309D01*
X100461691Y-116075303D01*
X100458780Y-116069858D01*
X100425976Y-115990660D01*
X100419476Y-115969233D01*
X100402750Y-115885149D01*
X100400556Y-115862869D01*
X100400556Y-115844450D01*
X100399954Y-115832199D01*
X100398148Y-115813862D01*
X100398148Y-115326138D01*
X100399954Y-115307801D01*
X100400556Y-115295550D01*
X100400556Y-115277131D01*
X100402750Y-115254851D01*
X100419476Y-115170767D01*
X100425976Y-115149340D01*
X100458780Y-115070142D01*
X100461691Y-115064697D01*
X100461693Y-115064691D01*
X100466429Y-115055831D01*
X100466432Y-115055827D01*
X100469340Y-115050386D01*
X100516971Y-114979101D01*
X100531172Y-114961796D01*
X100591796Y-114901172D01*
X100609101Y-114886971D01*
X100680386Y-114839340D01*
X100685827Y-114836432D01*
X100685831Y-114836429D01*
X100694691Y-114831693D01*
X100694697Y-114831691D01*
X100700142Y-114828780D01*
X100779340Y-114795976D01*
X100800767Y-114789476D01*
X100884851Y-114772750D01*
X100907131Y-114770556D01*
X100925550Y-114770556D01*
X100937801Y-114769954D01*
X100956139Y-114768148D01*
X101443860Y-114768148D01*
X101459999Y-114769737D01*
G37*
G36*
X100543000Y-112969000D02*
G01*
X98941000Y-112969000D01*
X98941000Y-111567000D01*
X100543000Y-111567000D01*
X100543000Y-112969000D01*
G37*
G36*
X103243000Y-112969000D02*
G01*
X101641000Y-112969000D01*
X101641000Y-111567000D01*
X103243000Y-111567000D01*
X103243000Y-112969000D01*
G37*
G36*
X116881000Y-112541000D02*
G01*
X115529000Y-112541000D01*
X115529000Y-110939000D01*
X116881000Y-110939000D01*
X116881000Y-112541000D01*
G37*
G36*
X112346000Y-112416000D02*
G01*
X106094000Y-112416000D01*
X106094000Y-110714000D01*
X112346000Y-110714000D01*
X112346000Y-112416000D01*
G37*
G36*
X114321000Y-110441000D02*
G01*
X112619000Y-110441000D01*
X112619000Y-104189000D01*
X114321000Y-104189000D01*
X114321000Y-110441000D01*
G37*
G36*
X105821000Y-110441000D02*
G01*
X104119000Y-110441000D01*
X104119000Y-104189000D01*
X105821000Y-104189000D01*
X105821000Y-110441000D01*
G37*
G36*
X116881000Y-110041000D02*
G01*
X115529000Y-110041000D01*
X115529000Y-108439000D01*
X116881000Y-108439000D01*
X116881000Y-110041000D01*
G37*
G36*
X103016000Y-109896000D02*
G01*
X101414000Y-109896000D01*
X101414000Y-108544000D01*
X103016000Y-108544000D01*
X103016000Y-109896000D01*
G37*
G36*
X100516000Y-109896000D02*
G01*
X98914000Y-109896000D01*
X98914000Y-108544000D01*
X100516000Y-108544000D01*
X100516000Y-109896000D01*
G37*
G36*
X103016000Y-106848000D02*
G01*
X101414000Y-106848000D01*
X101414000Y-105496000D01*
X103016000Y-105496000D01*
X103016000Y-106848000D01*
G37*
G36*
X100516000Y-106848000D02*
G01*
X98914000Y-106848000D01*
X98914000Y-105496000D01*
X100516000Y-105496000D01*
X100516000Y-106848000D01*
G37*
G36*
X116881000Y-106191000D02*
G01*
X115529000Y-106191000D01*
X115529000Y-104589000D01*
X116881000Y-104589000D01*
X116881000Y-106191000D01*
G37*
G36*
X112346000Y-103916000D02*
G01*
X106094000Y-103916000D01*
X106094000Y-102214000D01*
X112346000Y-102214000D01*
X112346000Y-103916000D01*
G37*
G36*
X116881000Y-103691000D02*
G01*
X115529000Y-103691000D01*
X115529000Y-102089000D01*
X116881000Y-102089000D01*
X116881000Y-103691000D01*
G37*
G36*
X103009000Y-103517000D02*
G01*
X101207000Y-103517000D01*
X101207000Y-101715000D01*
X103009000Y-101715000D01*
X103009000Y-103517000D01*
G37*
G36*
X99681512Y-101719927D02*
G01*
X99830812Y-101749624D01*
X99994784Y-101817544D01*
X100142354Y-101916147D01*
X100267853Y-102041646D01*
X100366456Y-102189216D01*
X100434376Y-102353188D01*
X100469000Y-102527259D01*
X100469000Y-102704741D01*
X100434376Y-102878812D01*
X100366456Y-103042784D01*
X100267853Y-103190354D01*
X100142354Y-103315853D01*
X99994784Y-103414456D01*
X99830812Y-103482376D01*
X99681512Y-103512073D01*
X99656742Y-103517000D01*
X99479258Y-103517000D01*
X99454488Y-103512073D01*
X99305188Y-103482376D01*
X99141216Y-103414456D01*
X98993646Y-103315853D01*
X98868147Y-103190354D01*
X98769544Y-103042784D01*
X98701624Y-102878812D01*
X98667000Y-102704741D01*
X98667000Y-102527259D01*
X98701624Y-102353188D01*
X98769544Y-102189216D01*
X98868147Y-102041646D01*
X98993646Y-101916147D01*
X99141216Y-101817544D01*
X99305188Y-101749624D01*
X99454488Y-101719927D01*
X99479258Y-101715000D01*
X99656742Y-101715000D01*
X99681512Y-101719927D01*
G37*
G36*
X117088228Y-98241703D02*
G01*
X117243100Y-98305853D01*
X117382481Y-98398985D01*
X117501015Y-98517519D01*
X117594147Y-98656900D01*
X117658297Y-98811772D01*
X117691000Y-98976184D01*
X117691000Y-99143816D01*
X117658297Y-99308228D01*
X117594147Y-99463100D01*
X117501015Y-99602481D01*
X117382481Y-99721015D01*
X117243100Y-99814147D01*
X117088228Y-99878297D01*
X116923816Y-99911000D01*
X116756184Y-99911000D01*
X116591772Y-99878297D01*
X116436900Y-99814147D01*
X116297519Y-99721015D01*
X116178985Y-99602481D01*
X116085853Y-99463100D01*
X116021703Y-99308228D01*
X115989000Y-99143816D01*
X115989000Y-98976184D01*
X116021703Y-98811772D01*
X116085853Y-98656900D01*
X116178985Y-98517519D01*
X116297519Y-98398985D01*
X116436900Y-98305853D01*
X116591772Y-98241703D01*
X116756184Y-98209000D01*
X116923816Y-98209000D01*
X117088228Y-98241703D01*
G37*
G36*
X99308228Y-98241703D02*
G01*
X99463100Y-98305853D01*
X99602481Y-98398985D01*
X99721015Y-98517519D01*
X99814147Y-98656900D01*
X99878297Y-98811772D01*
X99911000Y-98976184D01*
X99911000Y-99143816D01*
X99878297Y-99308228D01*
X99814147Y-99463100D01*
X99721015Y-99602481D01*
X99602481Y-99721015D01*
X99463100Y-99814147D01*
X99308228Y-99878297D01*
X99143816Y-99911000D01*
X98976184Y-99911000D01*
X98811772Y-99878297D01*
X98656900Y-99814147D01*
X98517519Y-99721015D01*
X98398985Y-99602481D01*
X98305853Y-99463100D01*
X98241703Y-99308228D01*
X98209000Y-99143816D01*
X98209000Y-98976184D01*
X98241703Y-98811772D01*
X98305853Y-98656900D01*
X98398985Y-98517519D01*
X98517519Y-98398985D01*
X98656900Y-98305853D01*
X98811772Y-98241703D01*
X98976184Y-98209000D01*
X99143816Y-98209000D01*
X99308228Y-98241703D01*
G37*
G36*
X114548228Y-98241703D02*
G01*
X114703100Y-98305853D01*
X114842481Y-98398985D01*
X114961015Y-98517519D01*
X115054147Y-98656900D01*
X115118297Y-98811772D01*
X115151000Y-98976184D01*
X115151000Y-99143816D01*
X115118297Y-99308228D01*
X115054147Y-99463100D01*
X114961015Y-99602481D01*
X114842481Y-99721015D01*
X114703100Y-99814147D01*
X114548228Y-99878297D01*
X114383816Y-99911000D01*
X114216184Y-99911000D01*
X114051772Y-99878297D01*
X113896900Y-99814147D01*
X113757519Y-99721015D01*
X113638985Y-99602481D01*
X113545853Y-99463100D01*
X113481703Y-99308228D01*
X113449000Y-99143816D01*
X113449000Y-98976184D01*
X113481703Y-98811772D01*
X113545853Y-98656900D01*
X113638985Y-98517519D01*
X113757519Y-98398985D01*
X113896900Y-98305853D01*
X114051772Y-98241703D01*
X114216184Y-98209000D01*
X114383816Y-98209000D01*
X114548228Y-98241703D01*
G37*
G36*
X101848228Y-98241703D02*
G01*
X102003100Y-98305853D01*
X102142481Y-98398985D01*
X102261015Y-98517519D01*
X102354147Y-98656900D01*
X102418297Y-98811772D01*
X102451000Y-98976184D01*
X102451000Y-99143816D01*
X102418297Y-99308228D01*
X102354147Y-99463100D01*
X102261015Y-99602481D01*
X102142481Y-99721015D01*
X102003100Y-99814147D01*
X101848228Y-99878297D01*
X101683816Y-99911000D01*
X101516184Y-99911000D01*
X101351772Y-99878297D01*
X101196900Y-99814147D01*
X101057519Y-99721015D01*
X100938985Y-99602481D01*
X100845853Y-99463100D01*
X100781703Y-99308228D01*
X100749000Y-99143816D01*
X100749000Y-98976184D01*
X100781703Y-98811772D01*
X100845853Y-98656900D01*
X100938985Y-98517519D01*
X101057519Y-98398985D01*
X101196900Y-98305853D01*
X101351772Y-98241703D01*
X101516184Y-98209000D01*
X101683816Y-98209000D01*
X101848228Y-98241703D01*
G37*
G36*
X114548228Y-95701703D02*
G01*
X114703100Y-95765853D01*
X114842481Y-95858985D01*
X114961015Y-95977519D01*
X115054147Y-96116900D01*
X115118297Y-96271772D01*
X115151000Y-96436184D01*
X115151000Y-96603816D01*
X115118297Y-96768228D01*
X115054147Y-96923100D01*
X114961015Y-97062481D01*
X114842481Y-97181015D01*
X114703100Y-97274147D01*
X114548228Y-97338297D01*
X114383816Y-97371000D01*
X114216184Y-97371000D01*
X114051772Y-97338297D01*
X113896900Y-97274147D01*
X113757519Y-97181015D01*
X113638985Y-97062481D01*
X113545853Y-96923100D01*
X113481703Y-96768228D01*
X113449000Y-96603816D01*
X113449000Y-96436184D01*
X113481703Y-96271772D01*
X113545853Y-96116900D01*
X113638985Y-95977519D01*
X113757519Y-95858985D01*
X113896900Y-95765853D01*
X114051772Y-95701703D01*
X114216184Y-95669000D01*
X114383816Y-95669000D01*
X114548228Y-95701703D01*
G37*
G36*
X117088228Y-95701703D02*
G01*
X117243100Y-95765853D01*
X117382481Y-95858985D01*
X117501015Y-95977519D01*
X117594147Y-96116900D01*
X117658297Y-96271772D01*
X117691000Y-96436184D01*
X117691000Y-96603816D01*
X117658297Y-96768228D01*
X117594147Y-96923100D01*
X117501015Y-97062481D01*
X117382481Y-97181015D01*
X117243100Y-97274147D01*
X117088228Y-97338297D01*
X116923816Y-97371000D01*
X116756184Y-97371000D01*
X116591772Y-97338297D01*
X116436900Y-97274147D01*
X116297519Y-97181015D01*
X116178985Y-97062481D01*
X116085853Y-96923100D01*
X116021703Y-96768228D01*
X115989000Y-96603816D01*
X115989000Y-96436184D01*
X116021703Y-96271772D01*
X116085853Y-96116900D01*
X116178985Y-95977519D01*
X116297519Y-95858985D01*
X116436900Y-95765853D01*
X116591772Y-95701703D01*
X116756184Y-95669000D01*
X116923816Y-95669000D01*
X117088228Y-95701703D01*
G37*
G36*
X101848228Y-95701703D02*
G01*
X102003100Y-95765853D01*
X102142481Y-95858985D01*
X102261015Y-95977519D01*
X102354147Y-96116900D01*
X102418297Y-96271772D01*
X102451000Y-96436184D01*
X102451000Y-96603816D01*
X102418297Y-96768228D01*
X102354147Y-96923100D01*
X102261015Y-97062481D01*
X102142481Y-97181015D01*
X102003100Y-97274147D01*
X101848228Y-97338297D01*
X101683816Y-97371000D01*
X101516184Y-97371000D01*
X101351772Y-97338297D01*
X101196900Y-97274147D01*
X101057519Y-97181015D01*
X100938985Y-97062481D01*
X100845853Y-96923100D01*
X100781703Y-96768228D01*
X100749000Y-96603816D01*
X100749000Y-96436184D01*
X100781703Y-96271772D01*
X100845853Y-96116900D01*
X100938985Y-95977519D01*
X101057519Y-95858985D01*
X101196900Y-95765853D01*
X101351772Y-95701703D01*
X101516184Y-95669000D01*
X101683816Y-95669000D01*
X101848228Y-95701703D01*
G37*
G36*
X99308228Y-95701703D02*
G01*
X99463100Y-95765853D01*
X99602481Y-95858985D01*
X99721015Y-95977519D01*
X99814147Y-96116900D01*
X99878297Y-96271772D01*
X99911000Y-96436184D01*
X99911000Y-96603816D01*
X99878297Y-96768228D01*
X99814147Y-96923100D01*
X99721015Y-97062481D01*
X99602481Y-97181015D01*
X99463100Y-97274147D01*
X99308228Y-97338297D01*
X99143816Y-97371000D01*
X98976184Y-97371000D01*
X98811772Y-97338297D01*
X98656900Y-97274147D01*
X98517519Y-97181015D01*
X98398985Y-97062481D01*
X98305853Y-96923100D01*
X98241703Y-96768228D01*
X98209000Y-96603816D01*
X98209000Y-96436184D01*
X98241703Y-96271772D01*
X98305853Y-96116900D01*
X98398985Y-95977519D01*
X98517519Y-95858985D01*
X98656900Y-95765853D01*
X98811772Y-95701703D01*
X98976184Y-95669000D01*
X99143816Y-95669000D01*
X99308228Y-95701703D01*
G37*
G36*
X101848228Y-93161703D02*
G01*
X102003100Y-93225853D01*
X102142481Y-93318985D01*
X102261015Y-93437519D01*
X102354147Y-93576900D01*
X102418297Y-93731772D01*
X102451000Y-93896184D01*
X102451000Y-94063816D01*
X102418297Y-94228228D01*
X102354147Y-94383100D01*
X102261015Y-94522481D01*
X102142481Y-94641015D01*
X102003100Y-94734147D01*
X101848228Y-94798297D01*
X101683816Y-94831000D01*
X101516184Y-94831000D01*
X101351772Y-94798297D01*
X101196900Y-94734147D01*
X101057519Y-94641015D01*
X100938985Y-94522481D01*
X100845853Y-94383100D01*
X100781703Y-94228228D01*
X100749000Y-94063816D01*
X100749000Y-93896184D01*
X100781703Y-93731772D01*
X100845853Y-93576900D01*
X100938985Y-93437519D01*
X101057519Y-93318985D01*
X101196900Y-93225853D01*
X101351772Y-93161703D01*
X101516184Y-93129000D01*
X101683816Y-93129000D01*
X101848228Y-93161703D01*
G37*
G36*
X99308228Y-93161703D02*
G01*
X99463100Y-93225853D01*
X99602481Y-93318985D01*
X99721015Y-93437519D01*
X99814147Y-93576900D01*
X99878297Y-93731772D01*
X99911000Y-93896184D01*
X99911000Y-94063816D01*
X99878297Y-94228228D01*
X99814147Y-94383100D01*
X99721015Y-94522481D01*
X99602481Y-94641015D01*
X99463100Y-94734147D01*
X99308228Y-94798297D01*
X99143816Y-94831000D01*
X98976184Y-94831000D01*
X98811772Y-94798297D01*
X98656900Y-94734147D01*
X98517519Y-94641015D01*
X98398985Y-94522481D01*
X98305853Y-94383100D01*
X98241703Y-94228228D01*
X98209000Y-94063816D01*
X98209000Y-93896184D01*
X98241703Y-93731772D01*
X98305853Y-93576900D01*
X98398985Y-93437519D01*
X98517519Y-93318985D01*
X98656900Y-93225853D01*
X98811772Y-93161703D01*
X98976184Y-93129000D01*
X99143816Y-93129000D01*
X99308228Y-93161703D01*
G37*
G36*
X117088228Y-93161703D02*
G01*
X117243100Y-93225853D01*
X117382481Y-93318985D01*
X117501015Y-93437519D01*
X117594147Y-93576900D01*
X117658297Y-93731772D01*
X117691000Y-93896184D01*
X117691000Y-94063816D01*
X117658297Y-94228228D01*
X117594147Y-94383100D01*
X117501015Y-94522481D01*
X117382481Y-94641015D01*
X117243100Y-94734147D01*
X117088228Y-94798297D01*
X116923816Y-94831000D01*
X116756184Y-94831000D01*
X116591772Y-94798297D01*
X116436900Y-94734147D01*
X116297519Y-94641015D01*
X116178985Y-94522481D01*
X116085853Y-94383100D01*
X116021703Y-94228228D01*
X115989000Y-94063816D01*
X115989000Y-93896184D01*
X116021703Y-93731772D01*
X116085853Y-93576900D01*
X116178985Y-93437519D01*
X116297519Y-93318985D01*
X116436900Y-93225853D01*
X116591772Y-93161703D01*
X116756184Y-93129000D01*
X116923816Y-93129000D01*
X117088228Y-93161703D01*
G37*
G36*
X114548228Y-93161703D02*
G01*
X114703100Y-93225853D01*
X114842481Y-93318985D01*
X114961015Y-93437519D01*
X115054147Y-93576900D01*
X115118297Y-93731772D01*
X115151000Y-93896184D01*
X115151000Y-94063816D01*
X115118297Y-94228228D01*
X115054147Y-94383100D01*
X114961015Y-94522481D01*
X114842481Y-94641015D01*
X114703100Y-94734147D01*
X114548228Y-94798297D01*
X114383816Y-94831000D01*
X114216184Y-94831000D01*
X114051772Y-94798297D01*
X113896900Y-94734147D01*
X113757519Y-94641015D01*
X113638985Y-94522481D01*
X113545853Y-94383100D01*
X113481703Y-94228228D01*
X113449000Y-94063816D01*
X113449000Y-93896184D01*
X113481703Y-93731772D01*
X113545853Y-93576900D01*
X113638985Y-93437519D01*
X113757519Y-93318985D01*
X113896900Y-93225853D01*
X114051772Y-93161703D01*
X114216184Y-93129000D01*
X114383816Y-93129000D01*
X114548228Y-93161703D01*
G37*
G36*
X117088228Y-90621703D02*
G01*
X117243100Y-90685853D01*
X117382481Y-90778985D01*
X117501015Y-90897519D01*
X117594147Y-91036900D01*
X117658297Y-91191772D01*
X117691000Y-91356184D01*
X117691000Y-91523816D01*
X117658297Y-91688228D01*
X117594147Y-91843100D01*
X117501015Y-91982481D01*
X117382481Y-92101015D01*
X117243100Y-92194147D01*
X117088228Y-92258297D01*
X116923816Y-92291000D01*
X116756184Y-92291000D01*
X116591772Y-92258297D01*
X116436900Y-92194147D01*
X116297519Y-92101015D01*
X116178985Y-91982481D01*
X116085853Y-91843100D01*
X116021703Y-91688228D01*
X115989000Y-91523816D01*
X115989000Y-91356184D01*
X116021703Y-91191772D01*
X116085853Y-91036900D01*
X116178985Y-90897519D01*
X116297519Y-90778985D01*
X116436900Y-90685853D01*
X116591772Y-90621703D01*
X116756184Y-90589000D01*
X116923816Y-90589000D01*
X117088228Y-90621703D01*
G37*
G36*
X114548228Y-90621703D02*
G01*
X114703100Y-90685853D01*
X114842481Y-90778985D01*
X114961015Y-90897519D01*
X115054147Y-91036900D01*
X115118297Y-91191772D01*
X115151000Y-91356184D01*
X115151000Y-91523816D01*
X115118297Y-91688228D01*
X115054147Y-91843100D01*
X114961015Y-91982481D01*
X114842481Y-92101015D01*
X114703100Y-92194147D01*
X114548228Y-92258297D01*
X114383816Y-92291000D01*
X114216184Y-92291000D01*
X114051772Y-92258297D01*
X113896900Y-92194147D01*
X113757519Y-92101015D01*
X113638985Y-91982481D01*
X113545853Y-91843100D01*
X113481703Y-91688228D01*
X113449000Y-91523816D01*
X113449000Y-91356184D01*
X113481703Y-91191772D01*
X113545853Y-91036900D01*
X113638985Y-90897519D01*
X113757519Y-90778985D01*
X113896900Y-90685853D01*
X114051772Y-90621703D01*
X114216184Y-90589000D01*
X114383816Y-90589000D01*
X114548228Y-90621703D01*
G37*
G36*
X101848228Y-90621703D02*
G01*
X102003100Y-90685853D01*
X102142481Y-90778985D01*
X102261015Y-90897519D01*
X102354147Y-91036900D01*
X102418297Y-91191772D01*
X102451000Y-91356184D01*
X102451000Y-91523816D01*
X102418297Y-91688228D01*
X102354147Y-91843100D01*
X102261015Y-91982481D01*
X102142481Y-92101015D01*
X102003100Y-92194147D01*
X101848228Y-92258297D01*
X101683816Y-92291000D01*
X101516184Y-92291000D01*
X101351772Y-92258297D01*
X101196900Y-92194147D01*
X101057519Y-92101015D01*
X100938985Y-91982481D01*
X100845853Y-91843100D01*
X100781703Y-91688228D01*
X100749000Y-91523816D01*
X100749000Y-91356184D01*
X100781703Y-91191772D01*
X100845853Y-91036900D01*
X100938985Y-90897519D01*
X101057519Y-90778985D01*
X101196900Y-90685853D01*
X101351772Y-90621703D01*
X101516184Y-90589000D01*
X101683816Y-90589000D01*
X101848228Y-90621703D01*
G37*
G36*
X99308228Y-90621703D02*
G01*
X99463100Y-90685853D01*
X99602481Y-90778985D01*
X99721015Y-90897519D01*
X99814147Y-91036900D01*
X99878297Y-91191772D01*
X99911000Y-91356184D01*
X99911000Y-91523816D01*
X99878297Y-91688228D01*
X99814147Y-91843100D01*
X99721015Y-91982481D01*
X99602481Y-92101015D01*
X99463100Y-92194147D01*
X99308228Y-92258297D01*
X99143816Y-92291000D01*
X98976184Y-92291000D01*
X98811772Y-92258297D01*
X98656900Y-92194147D01*
X98517519Y-92101015D01*
X98398985Y-91982481D01*
X98305853Y-91843100D01*
X98241703Y-91688228D01*
X98209000Y-91523816D01*
X98209000Y-91356184D01*
X98241703Y-91191772D01*
X98305853Y-91036900D01*
X98398985Y-90897519D01*
X98517519Y-90778985D01*
X98656900Y-90685853D01*
X98811772Y-90621703D01*
X98976184Y-90589000D01*
X99143816Y-90589000D01*
X99308228Y-90621703D01*
G37*
G36*
X117088228Y-88081703D02*
G01*
X117243100Y-88145853D01*
X117382481Y-88238985D01*
X117501015Y-88357519D01*
X117594147Y-88496900D01*
X117658297Y-88651772D01*
X117691000Y-88816184D01*
X117691000Y-88983816D01*
X117658297Y-89148228D01*
X117594147Y-89303100D01*
X117501015Y-89442481D01*
X117382481Y-89561015D01*
X117243100Y-89654147D01*
X117088228Y-89718297D01*
X116923816Y-89751000D01*
X116756184Y-89751000D01*
X116591772Y-89718297D01*
X116436900Y-89654147D01*
X116297519Y-89561015D01*
X116178985Y-89442481D01*
X116085853Y-89303100D01*
X116021703Y-89148228D01*
X115989000Y-88983816D01*
X115989000Y-88816184D01*
X116021703Y-88651772D01*
X116085853Y-88496900D01*
X116178985Y-88357519D01*
X116297519Y-88238985D01*
X116436900Y-88145853D01*
X116591772Y-88081703D01*
X116756184Y-88049000D01*
X116923816Y-88049000D01*
X117088228Y-88081703D01*
G37*
G36*
X101848228Y-88081703D02*
G01*
X102003100Y-88145853D01*
X102142481Y-88238985D01*
X102261015Y-88357519D01*
X102354147Y-88496900D01*
X102418297Y-88651772D01*
X102451000Y-88816184D01*
X102451000Y-88983816D01*
X102418297Y-89148228D01*
X102354147Y-89303100D01*
X102261015Y-89442481D01*
X102142481Y-89561015D01*
X102003100Y-89654147D01*
X101848228Y-89718297D01*
X101683816Y-89751000D01*
X101516184Y-89751000D01*
X101351772Y-89718297D01*
X101196900Y-89654147D01*
X101057519Y-89561015D01*
X100938985Y-89442481D01*
X100845853Y-89303100D01*
X100781703Y-89148228D01*
X100749000Y-88983816D01*
X100749000Y-88816184D01*
X100781703Y-88651772D01*
X100845853Y-88496900D01*
X100938985Y-88357519D01*
X101057519Y-88238985D01*
X101196900Y-88145853D01*
X101351772Y-88081703D01*
X101516184Y-88049000D01*
X101683816Y-88049000D01*
X101848228Y-88081703D01*
G37*
G36*
X99308228Y-88081703D02*
G01*
X99463100Y-88145853D01*
X99602481Y-88238985D01*
X99721015Y-88357519D01*
X99814147Y-88496900D01*
X99878297Y-88651772D01*
X99911000Y-88816184D01*
X99911000Y-88983816D01*
X99878297Y-89148228D01*
X99814147Y-89303100D01*
X99721015Y-89442481D01*
X99602481Y-89561015D01*
X99463100Y-89654147D01*
X99308228Y-89718297D01*
X99143816Y-89751000D01*
X98976184Y-89751000D01*
X98811772Y-89718297D01*
X98656900Y-89654147D01*
X98517519Y-89561015D01*
X98398985Y-89442481D01*
X98305853Y-89303100D01*
X98241703Y-89148228D01*
X98209000Y-88983816D01*
X98209000Y-88816184D01*
X98241703Y-88651772D01*
X98305853Y-88496900D01*
X98398985Y-88357519D01*
X98517519Y-88238985D01*
X98656900Y-88145853D01*
X98811772Y-88081703D01*
X98976184Y-88049000D01*
X99143816Y-88049000D01*
X99308228Y-88081703D01*
G37*
G36*
X114548228Y-88081703D02*
G01*
X114703100Y-88145853D01*
X114842481Y-88238985D01*
X114961015Y-88357519D01*
X115054147Y-88496900D01*
X115118297Y-88651772D01*
X115151000Y-88816184D01*
X115151000Y-88983816D01*
X115118297Y-89148228D01*
X115054147Y-89303100D01*
X114961015Y-89442481D01*
X114842481Y-89561015D01*
X114703100Y-89654147D01*
X114548228Y-89718297D01*
X114383816Y-89751000D01*
X114216184Y-89751000D01*
X114051772Y-89718297D01*
X113896900Y-89654147D01*
X113757519Y-89561015D01*
X113638985Y-89442481D01*
X113545853Y-89303100D01*
X113481703Y-89148228D01*
X113449000Y-88983816D01*
X113449000Y-88816184D01*
X113481703Y-88651772D01*
X113545853Y-88496900D01*
X113638985Y-88357519D01*
X113757519Y-88238985D01*
X113896900Y-88145853D01*
X114051772Y-88081703D01*
X114216184Y-88049000D01*
X114383816Y-88049000D01*
X114548228Y-88081703D01*
G37*
G36*
X101848228Y-85541703D02*
G01*
X102003100Y-85605853D01*
X102142481Y-85698985D01*
X102261015Y-85817519D01*
X102354147Y-85956900D01*
X102418297Y-86111772D01*
X102451000Y-86276184D01*
X102451000Y-86443816D01*
X102418297Y-86608228D01*
X102354147Y-86763100D01*
X102261015Y-86902481D01*
X102142481Y-87021015D01*
X102003100Y-87114147D01*
X101848228Y-87178297D01*
X101683816Y-87211000D01*
X101516184Y-87211000D01*
X101351772Y-87178297D01*
X101196900Y-87114147D01*
X101057519Y-87021015D01*
X100938985Y-86902481D01*
X100845853Y-86763100D01*
X100781703Y-86608228D01*
X100749000Y-86443816D01*
X100749000Y-86276184D01*
X100781703Y-86111772D01*
X100845853Y-85956900D01*
X100938985Y-85817519D01*
X101057519Y-85698985D01*
X101196900Y-85605853D01*
X101351772Y-85541703D01*
X101516184Y-85509000D01*
X101683816Y-85509000D01*
X101848228Y-85541703D01*
G37*
G36*
X99308228Y-85541703D02*
G01*
X99463100Y-85605853D01*
X99602481Y-85698985D01*
X99721015Y-85817519D01*
X99814147Y-85956900D01*
X99878297Y-86111772D01*
X99911000Y-86276184D01*
X99911000Y-86443816D01*
X99878297Y-86608228D01*
X99814147Y-86763100D01*
X99721015Y-86902481D01*
X99602481Y-87021015D01*
X99463100Y-87114147D01*
X99308228Y-87178297D01*
X99143816Y-87211000D01*
X98976184Y-87211000D01*
X98811772Y-87178297D01*
X98656900Y-87114147D01*
X98517519Y-87021015D01*
X98398985Y-86902481D01*
X98305853Y-86763100D01*
X98241703Y-86608228D01*
X98209000Y-86443816D01*
X98209000Y-86276184D01*
X98241703Y-86111772D01*
X98305853Y-85956900D01*
X98398985Y-85817519D01*
X98517519Y-85698985D01*
X98656900Y-85605853D01*
X98811772Y-85541703D01*
X98976184Y-85509000D01*
X99143816Y-85509000D01*
X99308228Y-85541703D01*
G37*
G36*
X117088228Y-85541703D02*
G01*
X117243100Y-85605853D01*
X117382481Y-85698985D01*
X117501015Y-85817519D01*
X117594147Y-85956900D01*
X117658297Y-86111772D01*
X117691000Y-86276184D01*
X117691000Y-86443816D01*
X117658297Y-86608228D01*
X117594147Y-86763100D01*
X117501015Y-86902481D01*
X117382481Y-87021015D01*
X117243100Y-87114147D01*
X117088228Y-87178297D01*
X116923816Y-87211000D01*
X116756184Y-87211000D01*
X116591772Y-87178297D01*
X116436900Y-87114147D01*
X116297519Y-87021015D01*
X116178985Y-86902481D01*
X116085853Y-86763100D01*
X116021703Y-86608228D01*
X115989000Y-86443816D01*
X115989000Y-86276184D01*
X116021703Y-86111772D01*
X116085853Y-85956900D01*
X116178985Y-85817519D01*
X116297519Y-85698985D01*
X116436900Y-85605853D01*
X116591772Y-85541703D01*
X116756184Y-85509000D01*
X116923816Y-85509000D01*
X117088228Y-85541703D01*
G37*
G36*
X114548228Y-85541703D02*
G01*
X114703100Y-85605853D01*
X114842481Y-85698985D01*
X114961015Y-85817519D01*
X115054147Y-85956900D01*
X115118297Y-86111772D01*
X115151000Y-86276184D01*
X115151000Y-86443816D01*
X115118297Y-86608228D01*
X115054147Y-86763100D01*
X114961015Y-86902481D01*
X114842481Y-87021015D01*
X114703100Y-87114147D01*
X114548228Y-87178297D01*
X114383816Y-87211000D01*
X114216184Y-87211000D01*
X114051772Y-87178297D01*
X113896900Y-87114147D01*
X113757519Y-87021015D01*
X113638985Y-86902481D01*
X113545853Y-86763100D01*
X113481703Y-86608228D01*
X113449000Y-86443816D01*
X113449000Y-86276184D01*
X113481703Y-86111772D01*
X113545853Y-85956900D01*
X113638985Y-85817519D01*
X113757519Y-85698985D01*
X113896900Y-85605853D01*
X114051772Y-85541703D01*
X114216184Y-85509000D01*
X114383816Y-85509000D01*
X114548228Y-85541703D01*
G37*
G36*
X117088228Y-83001703D02*
G01*
X117243100Y-83065853D01*
X117382481Y-83158985D01*
X117501015Y-83277519D01*
X117594147Y-83416900D01*
X117658297Y-83571772D01*
X117691000Y-83736184D01*
X117691000Y-83903816D01*
X117658297Y-84068228D01*
X117594147Y-84223100D01*
X117501015Y-84362481D01*
X117382481Y-84481015D01*
X117243100Y-84574147D01*
X117088228Y-84638297D01*
X116923816Y-84671000D01*
X116756184Y-84671000D01*
X116591772Y-84638297D01*
X116436900Y-84574147D01*
X116297519Y-84481015D01*
X116178985Y-84362481D01*
X116085853Y-84223100D01*
X116021703Y-84068228D01*
X115989000Y-83903816D01*
X115989000Y-83736184D01*
X116021703Y-83571772D01*
X116085853Y-83416900D01*
X116178985Y-83277519D01*
X116297519Y-83158985D01*
X116436900Y-83065853D01*
X116591772Y-83001703D01*
X116756184Y-82969000D01*
X116923816Y-82969000D01*
X117088228Y-83001703D01*
G37*
G36*
X99308228Y-83001703D02*
G01*
X99463100Y-83065853D01*
X99602481Y-83158985D01*
X99721015Y-83277519D01*
X99814147Y-83416900D01*
X99878297Y-83571772D01*
X99911000Y-83736184D01*
X99911000Y-83903816D01*
X99878297Y-84068228D01*
X99814147Y-84223100D01*
X99721015Y-84362481D01*
X99602481Y-84481015D01*
X99463100Y-84574147D01*
X99308228Y-84638297D01*
X99143816Y-84671000D01*
X98976184Y-84671000D01*
X98811772Y-84638297D01*
X98656900Y-84574147D01*
X98517519Y-84481015D01*
X98398985Y-84362481D01*
X98305853Y-84223100D01*
X98241703Y-84068228D01*
X98209000Y-83903816D01*
X98209000Y-83736184D01*
X98241703Y-83571772D01*
X98305853Y-83416900D01*
X98398985Y-83277519D01*
X98517519Y-83158985D01*
X98656900Y-83065853D01*
X98811772Y-83001703D01*
X98976184Y-82969000D01*
X99143816Y-82969000D01*
X99308228Y-83001703D01*
G37*
G36*
X101848228Y-83001703D02*
G01*
X102003100Y-83065853D01*
X102142481Y-83158985D01*
X102261015Y-83277519D01*
X102354147Y-83416900D01*
X102418297Y-83571772D01*
X102451000Y-83736184D01*
X102451000Y-83903816D01*
X102418297Y-84068228D01*
X102354147Y-84223100D01*
X102261015Y-84362481D01*
X102142481Y-84481015D01*
X102003100Y-84574147D01*
X101848228Y-84638297D01*
X101683816Y-84671000D01*
X101516184Y-84671000D01*
X101351772Y-84638297D01*
X101196900Y-84574147D01*
X101057519Y-84481015D01*
X100938985Y-84362481D01*
X100845853Y-84223100D01*
X100781703Y-84068228D01*
X100749000Y-83903816D01*
X100749000Y-83736184D01*
X100781703Y-83571772D01*
X100845853Y-83416900D01*
X100938985Y-83277519D01*
X101057519Y-83158985D01*
X101196900Y-83065853D01*
X101351772Y-83001703D01*
X101516184Y-82969000D01*
X101683816Y-82969000D01*
X101848228Y-83001703D01*
G37*
G36*
X114548228Y-83001703D02*
G01*
X114703100Y-83065853D01*
X114842481Y-83158985D01*
X114961015Y-83277519D01*
X115054147Y-83416900D01*
X115118297Y-83571772D01*
X115151000Y-83736184D01*
X115151000Y-83903816D01*
X115118297Y-84068228D01*
X115054147Y-84223100D01*
X114961015Y-84362481D01*
X114842481Y-84481015D01*
X114703100Y-84574147D01*
X114548228Y-84638297D01*
X114383816Y-84671000D01*
X114216184Y-84671000D01*
X114051772Y-84638297D01*
X113896900Y-84574147D01*
X113757519Y-84481015D01*
X113638985Y-84362481D01*
X113545853Y-84223100D01*
X113481703Y-84068228D01*
X113449000Y-83903816D01*
X113449000Y-83736184D01*
X113481703Y-83571772D01*
X113545853Y-83416900D01*
X113638985Y-83277519D01*
X113757519Y-83158985D01*
X113896900Y-83065853D01*
X114051772Y-83001703D01*
X114216184Y-82969000D01*
X114383816Y-82969000D01*
X114548228Y-83001703D01*
G37*
G36*
X114548228Y-80461703D02*
G01*
X114703100Y-80525853D01*
X114842481Y-80618985D01*
X114961015Y-80737519D01*
X115054147Y-80876900D01*
X115118297Y-81031772D01*
X115151000Y-81196184D01*
X115151000Y-81363816D01*
X115118297Y-81528228D01*
X115054147Y-81683100D01*
X114961015Y-81822481D01*
X114842481Y-81941015D01*
X114703100Y-82034147D01*
X114548228Y-82098297D01*
X114383816Y-82131000D01*
X114216184Y-82131000D01*
X114051772Y-82098297D01*
X113896900Y-82034147D01*
X113757519Y-81941015D01*
X113638985Y-81822481D01*
X113545853Y-81683100D01*
X113481703Y-81528228D01*
X113449000Y-81363816D01*
X113449000Y-81196184D01*
X113481703Y-81031772D01*
X113545853Y-80876900D01*
X113638985Y-80737519D01*
X113757519Y-80618985D01*
X113896900Y-80525853D01*
X114051772Y-80461703D01*
X114216184Y-80429000D01*
X114383816Y-80429000D01*
X114548228Y-80461703D01*
G37*
G36*
X99308228Y-80461703D02*
G01*
X99463100Y-80525853D01*
X99602481Y-80618985D01*
X99721015Y-80737519D01*
X99814147Y-80876900D01*
X99878297Y-81031772D01*
X99911000Y-81196184D01*
X99911000Y-81363816D01*
X99878297Y-81528228D01*
X99814147Y-81683100D01*
X99721015Y-81822481D01*
X99602481Y-81941015D01*
X99463100Y-82034147D01*
X99308228Y-82098297D01*
X99143816Y-82131000D01*
X98976184Y-82131000D01*
X98811772Y-82098297D01*
X98656900Y-82034147D01*
X98517519Y-81941015D01*
X98398985Y-81822481D01*
X98305853Y-81683100D01*
X98241703Y-81528228D01*
X98209000Y-81363816D01*
X98209000Y-81196184D01*
X98241703Y-81031772D01*
X98305853Y-80876900D01*
X98398985Y-80737519D01*
X98517519Y-80618985D01*
X98656900Y-80525853D01*
X98811772Y-80461703D01*
X98976184Y-80429000D01*
X99143816Y-80429000D01*
X99308228Y-80461703D01*
G37*
G36*
X117088228Y-80461703D02*
G01*
X117243100Y-80525853D01*
X117382481Y-80618985D01*
X117501015Y-80737519D01*
X117594147Y-80876900D01*
X117658297Y-81031772D01*
X117691000Y-81196184D01*
X117691000Y-81363816D01*
X117658297Y-81528228D01*
X117594147Y-81683100D01*
X117501015Y-81822481D01*
X117382481Y-81941015D01*
X117243100Y-82034147D01*
X117088228Y-82098297D01*
X116923816Y-82131000D01*
X116756184Y-82131000D01*
X116591772Y-82098297D01*
X116436900Y-82034147D01*
X116297519Y-81941015D01*
X116178985Y-81822481D01*
X116085853Y-81683100D01*
X116021703Y-81528228D01*
X115989000Y-81363816D01*
X115989000Y-81196184D01*
X116021703Y-81031772D01*
X116085853Y-80876900D01*
X116178985Y-80737519D01*
X116297519Y-80618985D01*
X116436900Y-80525853D01*
X116591772Y-80461703D01*
X116756184Y-80429000D01*
X116923816Y-80429000D01*
X117088228Y-80461703D01*
G37*
G36*
X101848228Y-80461703D02*
G01*
X102003100Y-80525853D01*
X102142481Y-80618985D01*
X102261015Y-80737519D01*
X102354147Y-80876900D01*
X102418297Y-81031772D01*
X102451000Y-81196184D01*
X102451000Y-81363816D01*
X102418297Y-81528228D01*
X102354147Y-81683100D01*
X102261015Y-81822481D01*
X102142481Y-81941015D01*
X102003100Y-82034147D01*
X101848228Y-82098297D01*
X101683816Y-82131000D01*
X101516184Y-82131000D01*
X101351772Y-82098297D01*
X101196900Y-82034147D01*
X101057519Y-81941015D01*
X100938985Y-81822481D01*
X100845853Y-81683100D01*
X100781703Y-81528228D01*
X100749000Y-81363816D01*
X100749000Y-81196184D01*
X100781703Y-81031772D01*
X100845853Y-80876900D01*
X100938985Y-80737519D01*
X101057519Y-80618985D01*
X101196900Y-80525853D01*
X101351772Y-80461703D01*
X101516184Y-80429000D01*
X101683816Y-80429000D01*
X101848228Y-80461703D01*
G37*
G36*
X99308228Y-77921703D02*
G01*
X99463100Y-77985853D01*
X99602481Y-78078985D01*
X99721015Y-78197519D01*
X99814147Y-78336900D01*
X99878297Y-78491772D01*
X99911000Y-78656184D01*
X99911000Y-78823816D01*
X99878297Y-78988228D01*
X99814147Y-79143100D01*
X99721015Y-79282481D01*
X99602481Y-79401015D01*
X99463100Y-79494147D01*
X99308228Y-79558297D01*
X99143816Y-79591000D01*
X98976184Y-79591000D01*
X98811772Y-79558297D01*
X98656900Y-79494147D01*
X98517519Y-79401015D01*
X98398985Y-79282481D01*
X98305853Y-79143100D01*
X98241703Y-78988228D01*
X98209000Y-78823816D01*
X98209000Y-78656184D01*
X98241703Y-78491772D01*
X98305853Y-78336900D01*
X98398985Y-78197519D01*
X98517519Y-78078985D01*
X98656900Y-77985853D01*
X98811772Y-77921703D01*
X98976184Y-77889000D01*
X99143816Y-77889000D01*
X99308228Y-77921703D01*
G37*
G36*
X101848228Y-77921703D02*
G01*
X102003100Y-77985853D01*
X102142481Y-78078985D01*
X102261015Y-78197519D01*
X102354147Y-78336900D01*
X102418297Y-78491772D01*
X102451000Y-78656184D01*
X102451000Y-78823816D01*
X102418297Y-78988228D01*
X102354147Y-79143100D01*
X102261015Y-79282481D01*
X102142481Y-79401015D01*
X102003100Y-79494147D01*
X101848228Y-79558297D01*
X101683816Y-79591000D01*
X101516184Y-79591000D01*
X101351772Y-79558297D01*
X101196900Y-79494147D01*
X101057519Y-79401015D01*
X100938985Y-79282481D01*
X100845853Y-79143100D01*
X100781703Y-78988228D01*
X100749000Y-78823816D01*
X100749000Y-78656184D01*
X100781703Y-78491772D01*
X100845853Y-78336900D01*
X100938985Y-78197519D01*
X101057519Y-78078985D01*
X101196900Y-77985853D01*
X101351772Y-77921703D01*
X101516184Y-77889000D01*
X101683816Y-77889000D01*
X101848228Y-77921703D01*
G37*
G36*
X114548228Y-77921703D02*
G01*
X114703100Y-77985853D01*
X114842481Y-78078985D01*
X114961015Y-78197519D01*
X115054147Y-78336900D01*
X115118297Y-78491772D01*
X115151000Y-78656184D01*
X115151000Y-78823816D01*
X115118297Y-78988228D01*
X115054147Y-79143100D01*
X114961015Y-79282481D01*
X114842481Y-79401015D01*
X114703100Y-79494147D01*
X114548228Y-79558297D01*
X114383816Y-79591000D01*
X114216184Y-79591000D01*
X114051772Y-79558297D01*
X113896900Y-79494147D01*
X113757519Y-79401015D01*
X113638985Y-79282481D01*
X113545853Y-79143100D01*
X113481703Y-78988228D01*
X113449000Y-78823816D01*
X113449000Y-78656184D01*
X113481703Y-78491772D01*
X113545853Y-78336900D01*
X113638985Y-78197519D01*
X113757519Y-78078985D01*
X113896900Y-77985853D01*
X114051772Y-77921703D01*
X114216184Y-77889000D01*
X114383816Y-77889000D01*
X114548228Y-77921703D01*
G37*
G36*
X117088228Y-77921703D02*
G01*
X117243100Y-77985853D01*
X117382481Y-78078985D01*
X117501015Y-78197519D01*
X117594147Y-78336900D01*
X117658297Y-78491772D01*
X117691000Y-78656184D01*
X117691000Y-78823816D01*
X117658297Y-78988228D01*
X117594147Y-79143100D01*
X117501015Y-79282481D01*
X117382481Y-79401015D01*
X117243100Y-79494147D01*
X117088228Y-79558297D01*
X116923816Y-79591000D01*
X116756184Y-79591000D01*
X116591772Y-79558297D01*
X116436900Y-79494147D01*
X116297519Y-79401015D01*
X116178985Y-79282481D01*
X116085853Y-79143100D01*
X116021703Y-78988228D01*
X115989000Y-78823816D01*
X115989000Y-78656184D01*
X116021703Y-78491772D01*
X116085853Y-78336900D01*
X116178985Y-78197519D01*
X116297519Y-78078985D01*
X116436900Y-77985853D01*
X116591772Y-77921703D01*
X116756184Y-77889000D01*
X116923816Y-77889000D01*
X117088228Y-77921703D01*
G37*
G36*
X99308228Y-75381703D02*
G01*
X99463100Y-75445853D01*
X99602481Y-75538985D01*
X99721015Y-75657519D01*
X99814147Y-75796900D01*
X99878297Y-75951772D01*
X99911000Y-76116184D01*
X99911000Y-76283816D01*
X99878297Y-76448228D01*
X99814147Y-76603100D01*
X99721015Y-76742481D01*
X99602481Y-76861015D01*
X99463100Y-76954147D01*
X99308228Y-77018297D01*
X99143816Y-77051000D01*
X98976184Y-77051000D01*
X98811772Y-77018297D01*
X98656900Y-76954147D01*
X98517519Y-76861015D01*
X98398985Y-76742481D01*
X98305853Y-76603100D01*
X98241703Y-76448228D01*
X98209000Y-76283816D01*
X98209000Y-76116184D01*
X98241703Y-75951772D01*
X98305853Y-75796900D01*
X98398985Y-75657519D01*
X98517519Y-75538985D01*
X98656900Y-75445853D01*
X98811772Y-75381703D01*
X98976184Y-75349000D01*
X99143816Y-75349000D01*
X99308228Y-75381703D01*
G37*
G36*
X117088228Y-75381703D02*
G01*
X117243100Y-75445853D01*
X117382481Y-75538985D01*
X117501015Y-75657519D01*
X117594147Y-75796900D01*
X117658297Y-75951772D01*
X117691000Y-76116184D01*
X117691000Y-76283816D01*
X117658297Y-76448228D01*
X117594147Y-76603100D01*
X117501015Y-76742481D01*
X117382481Y-76861015D01*
X117243100Y-76954147D01*
X117088228Y-77018297D01*
X116923816Y-77051000D01*
X116756184Y-77051000D01*
X116591772Y-77018297D01*
X116436900Y-76954147D01*
X116297519Y-76861015D01*
X116178985Y-76742481D01*
X116085853Y-76603100D01*
X116021703Y-76448228D01*
X115989000Y-76283816D01*
X115989000Y-76116184D01*
X116021703Y-75951772D01*
X116085853Y-75796900D01*
X116178985Y-75657519D01*
X116297519Y-75538985D01*
X116436900Y-75445853D01*
X116591772Y-75381703D01*
X116756184Y-75349000D01*
X116923816Y-75349000D01*
X117088228Y-75381703D01*
G37*
G36*
X101848228Y-75381703D02*
G01*
X102003100Y-75445853D01*
X102142481Y-75538985D01*
X102261015Y-75657519D01*
X102354147Y-75796900D01*
X102418297Y-75951772D01*
X102451000Y-76116184D01*
X102451000Y-76283816D01*
X102418297Y-76448228D01*
X102354147Y-76603100D01*
X102261015Y-76742481D01*
X102142481Y-76861015D01*
X102003100Y-76954147D01*
X101848228Y-77018297D01*
X101683816Y-77051000D01*
X101516184Y-77051000D01*
X101351772Y-77018297D01*
X101196900Y-76954147D01*
X101057519Y-76861015D01*
X100938985Y-76742481D01*
X100845853Y-76603100D01*
X100781703Y-76448228D01*
X100749000Y-76283816D01*
X100749000Y-76116184D01*
X100781703Y-75951772D01*
X100845853Y-75796900D01*
X100938985Y-75657519D01*
X101057519Y-75538985D01*
X101196900Y-75445853D01*
X101351772Y-75381703D01*
X101516184Y-75349000D01*
X101683816Y-75349000D01*
X101848228Y-75381703D01*
G37*
G36*
X114548228Y-75381703D02*
G01*
X114703100Y-75445853D01*
X114842481Y-75538985D01*
X114961015Y-75657519D01*
X115054147Y-75796900D01*
X115118297Y-75951772D01*
X115151000Y-76116184D01*
X115151000Y-76283816D01*
X115118297Y-76448228D01*
X115054147Y-76603100D01*
X114961015Y-76742481D01*
X114842481Y-76861015D01*
X114703100Y-76954147D01*
X114548228Y-77018297D01*
X114383816Y-77051000D01*
X114216184Y-77051000D01*
X114051772Y-77018297D01*
X113896900Y-76954147D01*
X113757519Y-76861015D01*
X113638985Y-76742481D01*
X113545853Y-76603100D01*
X113481703Y-76448228D01*
X113449000Y-76283816D01*
X113449000Y-76116184D01*
X113481703Y-75951772D01*
X113545853Y-75796900D01*
X113638985Y-75657519D01*
X113757519Y-75538985D01*
X113896900Y-75445853D01*
X114051772Y-75381703D01*
X114216184Y-75349000D01*
X114383816Y-75349000D01*
X114548228Y-75381703D01*
G37*
G36*
X114548228Y-72841703D02*
G01*
X114703100Y-72905853D01*
X114842481Y-72998985D01*
X114961015Y-73117519D01*
X115054147Y-73256900D01*
X115118297Y-73411772D01*
X115151000Y-73576184D01*
X115151000Y-73743816D01*
X115118297Y-73908228D01*
X115054147Y-74063100D01*
X114961015Y-74202481D01*
X114842481Y-74321015D01*
X114703100Y-74414147D01*
X114548228Y-74478297D01*
X114383816Y-74511000D01*
X114216184Y-74511000D01*
X114051772Y-74478297D01*
X113896900Y-74414147D01*
X113757519Y-74321015D01*
X113638985Y-74202481D01*
X113545853Y-74063100D01*
X113481703Y-73908228D01*
X113449000Y-73743816D01*
X113449000Y-73576184D01*
X113481703Y-73411772D01*
X113545853Y-73256900D01*
X113638985Y-73117519D01*
X113757519Y-72998985D01*
X113896900Y-72905853D01*
X114051772Y-72841703D01*
X114216184Y-72809000D01*
X114383816Y-72809000D01*
X114548228Y-72841703D01*
G37*
G36*
X101848228Y-72841703D02*
G01*
X102003100Y-72905853D01*
X102142481Y-72998985D01*
X102261015Y-73117519D01*
X102354147Y-73256900D01*
X102418297Y-73411772D01*
X102451000Y-73576184D01*
X102451000Y-73743816D01*
X102418297Y-73908228D01*
X102354147Y-74063100D01*
X102261015Y-74202481D01*
X102142481Y-74321015D01*
X102003100Y-74414147D01*
X101848228Y-74478297D01*
X101683816Y-74511000D01*
X101516184Y-74511000D01*
X101351772Y-74478297D01*
X101196900Y-74414147D01*
X101057519Y-74321015D01*
X100938985Y-74202481D01*
X100845853Y-74063100D01*
X100781703Y-73908228D01*
X100749000Y-73743816D01*
X100749000Y-73576184D01*
X100781703Y-73411772D01*
X100845853Y-73256900D01*
X100938985Y-73117519D01*
X101057519Y-72998985D01*
X101196900Y-72905853D01*
X101351772Y-72841703D01*
X101516184Y-72809000D01*
X101683816Y-72809000D01*
X101848228Y-72841703D01*
G37*
G36*
X117088228Y-72841703D02*
G01*
X117243100Y-72905853D01*
X117382481Y-72998985D01*
X117501015Y-73117519D01*
X117594147Y-73256900D01*
X117658297Y-73411772D01*
X117691000Y-73576184D01*
X117691000Y-73743816D01*
X117658297Y-73908228D01*
X117594147Y-74063100D01*
X117501015Y-74202481D01*
X117382481Y-74321015D01*
X117243100Y-74414147D01*
X117088228Y-74478297D01*
X116923816Y-74511000D01*
X116756184Y-74511000D01*
X116591772Y-74478297D01*
X116436900Y-74414147D01*
X116297519Y-74321015D01*
X116178985Y-74202481D01*
X116085853Y-74063100D01*
X116021703Y-73908228D01*
X115989000Y-73743816D01*
X115989000Y-73576184D01*
X116021703Y-73411772D01*
X116085853Y-73256900D01*
X116178985Y-73117519D01*
X116297519Y-72998985D01*
X116436900Y-72905853D01*
X116591772Y-72841703D01*
X116756184Y-72809000D01*
X116923816Y-72809000D01*
X117088228Y-72841703D01*
G37*
G36*
X99308228Y-72841703D02*
G01*
X99463100Y-72905853D01*
X99602481Y-72998985D01*
X99721015Y-73117519D01*
X99814147Y-73256900D01*
X99878297Y-73411772D01*
X99911000Y-73576184D01*
X99911000Y-73743816D01*
X99878297Y-73908228D01*
X99814147Y-74063100D01*
X99721015Y-74202481D01*
X99602481Y-74321015D01*
X99463100Y-74414147D01*
X99308228Y-74478297D01*
X99143816Y-74511000D01*
X98976184Y-74511000D01*
X98811772Y-74478297D01*
X98656900Y-74414147D01*
X98517519Y-74321015D01*
X98398985Y-74202481D01*
X98305853Y-74063100D01*
X98241703Y-73908228D01*
X98209000Y-73743816D01*
X98209000Y-73576184D01*
X98241703Y-73411772D01*
X98305853Y-73256900D01*
X98398985Y-73117519D01*
X98517519Y-72998985D01*
X98656900Y-72905853D01*
X98811772Y-72841703D01*
X98976184Y-72809000D01*
X99143816Y-72809000D01*
X99308228Y-72841703D01*
G37*
G36*
X101848228Y-70301703D02*
G01*
X102003100Y-70365853D01*
X102142481Y-70458985D01*
X102261015Y-70577519D01*
X102354147Y-70716900D01*
X102418297Y-70871772D01*
X102451000Y-71036184D01*
X102451000Y-71203816D01*
X102418297Y-71368228D01*
X102354147Y-71523100D01*
X102261015Y-71662481D01*
X102142481Y-71781015D01*
X102003100Y-71874147D01*
X101848228Y-71938297D01*
X101683816Y-71971000D01*
X101516184Y-71971000D01*
X101351772Y-71938297D01*
X101196900Y-71874147D01*
X101057519Y-71781015D01*
X100938985Y-71662481D01*
X100845853Y-71523100D01*
X100781703Y-71368228D01*
X100749000Y-71203816D01*
X100749000Y-71036184D01*
X100781703Y-70871772D01*
X100845853Y-70716900D01*
X100938985Y-70577519D01*
X101057519Y-70458985D01*
X101196900Y-70365853D01*
X101351772Y-70301703D01*
X101516184Y-70269000D01*
X101683816Y-70269000D01*
X101848228Y-70301703D01*
G37*
G36*
X117088228Y-70301703D02*
G01*
X117243100Y-70365853D01*
X117382481Y-70458985D01*
X117501015Y-70577519D01*
X117594147Y-70716900D01*
X117658297Y-70871772D01*
X117691000Y-71036184D01*
X117691000Y-71203816D01*
X117658297Y-71368228D01*
X117594147Y-71523100D01*
X117501015Y-71662481D01*
X117382481Y-71781015D01*
X117243100Y-71874147D01*
X117088228Y-71938297D01*
X116923816Y-71971000D01*
X116756184Y-71971000D01*
X116591772Y-71938297D01*
X116436900Y-71874147D01*
X116297519Y-71781015D01*
X116178985Y-71662481D01*
X116085853Y-71523100D01*
X116021703Y-71368228D01*
X115989000Y-71203816D01*
X115989000Y-71036184D01*
X116021703Y-70871772D01*
X116085853Y-70716900D01*
X116178985Y-70577519D01*
X116297519Y-70458985D01*
X116436900Y-70365853D01*
X116591772Y-70301703D01*
X116756184Y-70269000D01*
X116923816Y-70269000D01*
X117088228Y-70301703D01*
G37*
G36*
X114548228Y-70301703D02*
G01*
X114703100Y-70365853D01*
X114842481Y-70458985D01*
X114961015Y-70577519D01*
X115054147Y-70716900D01*
X115118297Y-70871772D01*
X115151000Y-71036184D01*
X115151000Y-71203816D01*
X115118297Y-71368228D01*
X115054147Y-71523100D01*
X114961015Y-71662481D01*
X114842481Y-71781015D01*
X114703100Y-71874147D01*
X114548228Y-71938297D01*
X114383816Y-71971000D01*
X114216184Y-71971000D01*
X114051772Y-71938297D01*
X113896900Y-71874147D01*
X113757519Y-71781015D01*
X113638985Y-71662481D01*
X113545853Y-71523100D01*
X113481703Y-71368228D01*
X113449000Y-71203816D01*
X113449000Y-71036184D01*
X113481703Y-70871772D01*
X113545853Y-70716900D01*
X113638985Y-70577519D01*
X113757519Y-70458985D01*
X113896900Y-70365853D01*
X114051772Y-70301703D01*
X114216184Y-70269000D01*
X114383816Y-70269000D01*
X114548228Y-70301703D01*
G37*
G36*
X99308228Y-70301703D02*
G01*
X99463100Y-70365853D01*
X99602481Y-70458985D01*
X99721015Y-70577519D01*
X99814147Y-70716900D01*
X99878297Y-70871772D01*
X99911000Y-71036184D01*
X99911000Y-71203816D01*
X99878297Y-71368228D01*
X99814147Y-71523100D01*
X99721015Y-71662481D01*
X99602481Y-71781015D01*
X99463100Y-71874147D01*
X99308228Y-71938297D01*
X99143816Y-71971000D01*
X98976184Y-71971000D01*
X98811772Y-71938297D01*
X98656900Y-71874147D01*
X98517519Y-71781015D01*
X98398985Y-71662481D01*
X98305853Y-71523100D01*
X98241703Y-71368228D01*
X98209000Y-71203816D01*
X98209000Y-71036184D01*
X98241703Y-70871772D01*
X98305853Y-70716900D01*
X98398985Y-70577519D01*
X98517519Y-70458985D01*
X98656900Y-70365853D01*
X98811772Y-70301703D01*
X98976184Y-70269000D01*
X99143816Y-70269000D01*
X99308228Y-70301703D01*
G37*
G36*
X110656000Y-70546000D02*
G01*
X109054000Y-70546000D01*
X109054000Y-68244000D01*
X110656000Y-68244000D01*
X110656000Y-70546000D01*
G37*
G36*
X117088228Y-67761703D02*
G01*
X117243100Y-67825853D01*
X117382481Y-67918985D01*
X117501015Y-68037519D01*
X117594147Y-68176900D01*
X117658297Y-68331772D01*
X117691000Y-68496184D01*
X117691000Y-68663816D01*
X117658297Y-68828228D01*
X117594147Y-68983100D01*
X117501015Y-69122481D01*
X117382481Y-69241015D01*
X117243100Y-69334147D01*
X117088228Y-69398297D01*
X116923816Y-69431000D01*
X116756184Y-69431000D01*
X116591772Y-69398297D01*
X116436900Y-69334147D01*
X116297519Y-69241015D01*
X116178985Y-69122481D01*
X116085853Y-68983100D01*
X116021703Y-68828228D01*
X115989000Y-68663816D01*
X115989000Y-68496184D01*
X116021703Y-68331772D01*
X116085853Y-68176900D01*
X116178985Y-68037519D01*
X116297519Y-67918985D01*
X116436900Y-67825853D01*
X116591772Y-67761703D01*
X116756184Y-67729000D01*
X116923816Y-67729000D01*
X117088228Y-67761703D01*
G37*
G36*
X114548228Y-67761703D02*
G01*
X114703100Y-67825853D01*
X114842481Y-67918985D01*
X114961015Y-68037519D01*
X115054147Y-68176900D01*
X115118297Y-68331772D01*
X115151000Y-68496184D01*
X115151000Y-68663816D01*
X115118297Y-68828228D01*
X115054147Y-68983100D01*
X114961015Y-69122481D01*
X114842481Y-69241015D01*
X114703100Y-69334147D01*
X114548228Y-69398297D01*
X114383816Y-69431000D01*
X114216184Y-69431000D01*
X114051772Y-69398297D01*
X113896900Y-69334147D01*
X113757519Y-69241015D01*
X113638985Y-69122481D01*
X113545853Y-68983100D01*
X113481703Y-68828228D01*
X113449000Y-68663816D01*
X113449000Y-68496184D01*
X113481703Y-68331772D01*
X113545853Y-68176900D01*
X113638985Y-68037519D01*
X113757519Y-67918985D01*
X113896900Y-67825853D01*
X114051772Y-67761703D01*
X114216184Y-67729000D01*
X114383816Y-67729000D01*
X114548228Y-67761703D01*
G37*
G36*
X99308228Y-67761703D02*
G01*
X99463100Y-67825853D01*
X99602481Y-67918985D01*
X99721015Y-68037519D01*
X99814147Y-68176900D01*
X99878297Y-68331772D01*
X99911000Y-68496184D01*
X99911000Y-68663816D01*
X99878297Y-68828228D01*
X99814147Y-68983100D01*
X99721015Y-69122481D01*
X99602481Y-69241015D01*
X99463100Y-69334147D01*
X99308228Y-69398297D01*
X99143816Y-69431000D01*
X98976184Y-69431000D01*
X98811772Y-69398297D01*
X98656900Y-69334147D01*
X98517519Y-69241015D01*
X98398985Y-69122481D01*
X98305853Y-68983100D01*
X98241703Y-68828228D01*
X98209000Y-68663816D01*
X98209000Y-68496184D01*
X98241703Y-68331772D01*
X98305853Y-68176900D01*
X98398985Y-68037519D01*
X98517519Y-67918985D01*
X98656900Y-67825853D01*
X98811772Y-67761703D01*
X98976184Y-67729000D01*
X99143816Y-67729000D01*
X99308228Y-67761703D01*
G37*
G36*
X101848228Y-67761703D02*
G01*
X102003100Y-67825853D01*
X102142481Y-67918985D01*
X102261015Y-68037519D01*
X102354147Y-68176900D01*
X102418297Y-68331772D01*
X102451000Y-68496184D01*
X102451000Y-68663816D01*
X102418297Y-68828228D01*
X102354147Y-68983100D01*
X102261015Y-69122481D01*
X102142481Y-69241015D01*
X102003100Y-69334147D01*
X101848228Y-69398297D01*
X101683816Y-69431000D01*
X101516184Y-69431000D01*
X101351772Y-69398297D01*
X101196900Y-69334147D01*
X101057519Y-69241015D01*
X100938985Y-69122481D01*
X100845853Y-68983100D01*
X100781703Y-68828228D01*
X100749000Y-68663816D01*
X100749000Y-68496184D01*
X100781703Y-68331772D01*
X100845853Y-68176900D01*
X100938985Y-68037519D01*
X101057519Y-67918985D01*
X101196900Y-67825853D01*
X101351772Y-67761703D01*
X101516184Y-67729000D01*
X101683816Y-67729000D01*
X101848228Y-67761703D01*
G37*
G36*
X110656000Y-67646000D02*
G01*
X109054000Y-67646000D01*
X109054000Y-65344000D01*
X110656000Y-65344000D01*
X110656000Y-67646000D01*
G37*
G36*
X114548228Y-65221703D02*
G01*
X114703100Y-65285853D01*
X114842481Y-65378985D01*
X114961015Y-65497519D01*
X115054147Y-65636900D01*
X115118297Y-65791772D01*
X115151000Y-65956184D01*
X115151000Y-66123816D01*
X115118297Y-66288228D01*
X115054147Y-66443100D01*
X114961015Y-66582481D01*
X114842481Y-66701015D01*
X114703100Y-66794147D01*
X114548228Y-66858297D01*
X114383816Y-66891000D01*
X114216184Y-66891000D01*
X114051772Y-66858297D01*
X113896900Y-66794147D01*
X113757519Y-66701015D01*
X113638985Y-66582481D01*
X113545853Y-66443100D01*
X113481703Y-66288228D01*
X113449000Y-66123816D01*
X113449000Y-65956184D01*
X113481703Y-65791772D01*
X113545853Y-65636900D01*
X113638985Y-65497519D01*
X113757519Y-65378985D01*
X113896900Y-65285853D01*
X114051772Y-65221703D01*
X114216184Y-65189000D01*
X114383816Y-65189000D01*
X114548228Y-65221703D01*
G37*
G36*
X99308228Y-65221703D02*
G01*
X99463100Y-65285853D01*
X99602481Y-65378985D01*
X99721015Y-65497519D01*
X99814147Y-65636900D01*
X99878297Y-65791772D01*
X99911000Y-65956184D01*
X99911000Y-66123816D01*
X99878297Y-66288228D01*
X99814147Y-66443100D01*
X99721015Y-66582481D01*
X99602481Y-66701015D01*
X99463100Y-66794147D01*
X99308228Y-66858297D01*
X99143816Y-66891000D01*
X98976184Y-66891000D01*
X98811772Y-66858297D01*
X98656900Y-66794147D01*
X98517519Y-66701015D01*
X98398985Y-66582481D01*
X98305853Y-66443100D01*
X98241703Y-66288228D01*
X98209000Y-66123816D01*
X98209000Y-65956184D01*
X98241703Y-65791772D01*
X98305853Y-65636900D01*
X98398985Y-65497519D01*
X98517519Y-65378985D01*
X98656900Y-65285853D01*
X98811772Y-65221703D01*
X98976184Y-65189000D01*
X99143816Y-65189000D01*
X99308228Y-65221703D01*
G37*
G36*
X101848228Y-65221703D02*
G01*
X102003100Y-65285853D01*
X102142481Y-65378985D01*
X102261015Y-65497519D01*
X102354147Y-65636900D01*
X102418297Y-65791772D01*
X102451000Y-65956184D01*
X102451000Y-66123816D01*
X102418297Y-66288228D01*
X102354147Y-66443100D01*
X102261015Y-66582481D01*
X102142481Y-66701015D01*
X102003100Y-66794147D01*
X101848228Y-66858297D01*
X101683816Y-66891000D01*
X101516184Y-66891000D01*
X101351772Y-66858297D01*
X101196900Y-66794147D01*
X101057519Y-66701015D01*
X100938985Y-66582481D01*
X100845853Y-66443100D01*
X100781703Y-66288228D01*
X100749000Y-66123816D01*
X100749000Y-65956184D01*
X100781703Y-65791772D01*
X100845853Y-65636900D01*
X100938985Y-65497519D01*
X101057519Y-65378985D01*
X101196900Y-65285853D01*
X101351772Y-65221703D01*
X101516184Y-65189000D01*
X101683816Y-65189000D01*
X101848228Y-65221703D01*
G37*
G36*
X117088228Y-65221703D02*
G01*
X117243100Y-65285853D01*
X117382481Y-65378985D01*
X117501015Y-65497519D01*
X117594147Y-65636900D01*
X117658297Y-65791772D01*
X117691000Y-65956184D01*
X117691000Y-66123816D01*
X117658297Y-66288228D01*
X117594147Y-66443100D01*
X117501015Y-66582481D01*
X117382481Y-66701015D01*
X117243100Y-66794147D01*
X117088228Y-66858297D01*
X116923816Y-66891000D01*
X116756184Y-66891000D01*
X116591772Y-66858297D01*
X116436900Y-66794147D01*
X116297519Y-66701015D01*
X116178985Y-66582481D01*
X116085853Y-66443100D01*
X116021703Y-66288228D01*
X115989000Y-66123816D01*
X115989000Y-65956184D01*
X116021703Y-65791772D01*
X116085853Y-65636900D01*
X116178985Y-65497519D01*
X116297519Y-65378985D01*
X116436900Y-65285853D01*
X116591772Y-65221703D01*
X116756184Y-65189000D01*
X116923816Y-65189000D01*
X117088228Y-65221703D01*
G37*
G36*
X114548228Y-62681703D02*
G01*
X114703100Y-62745853D01*
X114842481Y-62838985D01*
X114961015Y-62957519D01*
X115054147Y-63096900D01*
X115118297Y-63251772D01*
X115151000Y-63416184D01*
X115151000Y-63583816D01*
X115118297Y-63748228D01*
X115054147Y-63903100D01*
X114961015Y-64042481D01*
X114842481Y-64161015D01*
X114703100Y-64254147D01*
X114548228Y-64318297D01*
X114383816Y-64351000D01*
X114216184Y-64351000D01*
X114051772Y-64318297D01*
X113896900Y-64254147D01*
X113757519Y-64161015D01*
X113638985Y-64042481D01*
X113545853Y-63903100D01*
X113481703Y-63748228D01*
X113449000Y-63583816D01*
X113449000Y-63416184D01*
X113481703Y-63251772D01*
X113545853Y-63096900D01*
X113638985Y-62957519D01*
X113757519Y-62838985D01*
X113896900Y-62745853D01*
X114051772Y-62681703D01*
X114216184Y-62649000D01*
X114383816Y-62649000D01*
X114548228Y-62681703D01*
G37*
G36*
X99308228Y-62681703D02*
G01*
X99463100Y-62745853D01*
X99602481Y-62838985D01*
X99721015Y-62957519D01*
X99814147Y-63096900D01*
X99878297Y-63251772D01*
X99911000Y-63416184D01*
X99911000Y-63583816D01*
X99878297Y-63748228D01*
X99814147Y-63903100D01*
X99721015Y-64042481D01*
X99602481Y-64161015D01*
X99463100Y-64254147D01*
X99308228Y-64318297D01*
X99143816Y-64351000D01*
X98976184Y-64351000D01*
X98811772Y-64318297D01*
X98656900Y-64254147D01*
X98517519Y-64161015D01*
X98398985Y-64042481D01*
X98305853Y-63903100D01*
X98241703Y-63748228D01*
X98209000Y-63583816D01*
X98209000Y-63416184D01*
X98241703Y-63251772D01*
X98305853Y-63096900D01*
X98398985Y-62957519D01*
X98517519Y-62838985D01*
X98656900Y-62745853D01*
X98811772Y-62681703D01*
X98976184Y-62649000D01*
X99143816Y-62649000D01*
X99308228Y-62681703D01*
G37*
G36*
X101848228Y-62681703D02*
G01*
X102003100Y-62745853D01*
X102142481Y-62838985D01*
X102261015Y-62957519D01*
X102354147Y-63096900D01*
X102418297Y-63251772D01*
X102451000Y-63416184D01*
X102451000Y-63583816D01*
X102418297Y-63748228D01*
X102354147Y-63903100D01*
X102261015Y-64042481D01*
X102142481Y-64161015D01*
X102003100Y-64254147D01*
X101848228Y-64318297D01*
X101683816Y-64351000D01*
X101516184Y-64351000D01*
X101351772Y-64318297D01*
X101196900Y-64254147D01*
X101057519Y-64161015D01*
X100938985Y-64042481D01*
X100845853Y-63903100D01*
X100781703Y-63748228D01*
X100749000Y-63583816D01*
X100749000Y-63416184D01*
X100781703Y-63251772D01*
X100845853Y-63096900D01*
X100938985Y-62957519D01*
X101057519Y-62838985D01*
X101196900Y-62745853D01*
X101351772Y-62681703D01*
X101516184Y-62649000D01*
X101683816Y-62649000D01*
X101848228Y-62681703D01*
G37*
G36*
X117088228Y-62681703D02*
G01*
X117243100Y-62745853D01*
X117382481Y-62838985D01*
X117501015Y-62957519D01*
X117594147Y-63096900D01*
X117658297Y-63251772D01*
X117691000Y-63416184D01*
X117691000Y-63583816D01*
X117658297Y-63748228D01*
X117594147Y-63903100D01*
X117501015Y-64042481D01*
X117382481Y-64161015D01*
X117243100Y-64254147D01*
X117088228Y-64318297D01*
X116923816Y-64351000D01*
X116756184Y-64351000D01*
X116591772Y-64318297D01*
X116436900Y-64254147D01*
X116297519Y-64161015D01*
X116178985Y-64042481D01*
X116085853Y-63903100D01*
X116021703Y-63748228D01*
X115989000Y-63583816D01*
X115989000Y-63416184D01*
X116021703Y-63251772D01*
X116085853Y-63096900D01*
X116178985Y-62957519D01*
X116297519Y-62838985D01*
X116436900Y-62745853D01*
X116591772Y-62681703D01*
X116756184Y-62649000D01*
X116923816Y-62649000D01*
X117088228Y-62681703D01*
G37*
G36*
X110556000Y-63111000D02*
G01*
X109154000Y-63111000D01*
X109154000Y-61509000D01*
X110556000Y-61509000D01*
X110556000Y-63111000D01*
G37*
G36*
X117088228Y-60141703D02*
G01*
X117243100Y-60205853D01*
X117382481Y-60298985D01*
X117501015Y-60417519D01*
X117594147Y-60556900D01*
X117658297Y-60711772D01*
X117691000Y-60876184D01*
X117691000Y-61043816D01*
X117658297Y-61208228D01*
X117594147Y-61363100D01*
X117501015Y-61502481D01*
X117382481Y-61621015D01*
X117243100Y-61714147D01*
X117088228Y-61778297D01*
X116923816Y-61811000D01*
X116756184Y-61811000D01*
X116591772Y-61778297D01*
X116436900Y-61714147D01*
X116297519Y-61621015D01*
X116178985Y-61502481D01*
X116085853Y-61363100D01*
X116021703Y-61208228D01*
X115989000Y-61043816D01*
X115989000Y-60876184D01*
X116021703Y-60711772D01*
X116085853Y-60556900D01*
X116178985Y-60417519D01*
X116297519Y-60298985D01*
X116436900Y-60205853D01*
X116591772Y-60141703D01*
X116756184Y-60109000D01*
X116923816Y-60109000D01*
X117088228Y-60141703D01*
G37*
G36*
X99308228Y-60141703D02*
G01*
X99463100Y-60205853D01*
X99602481Y-60298985D01*
X99721015Y-60417519D01*
X99814147Y-60556900D01*
X99878297Y-60711772D01*
X99911000Y-60876184D01*
X99911000Y-61043816D01*
X99878297Y-61208228D01*
X99814147Y-61363100D01*
X99721015Y-61502481D01*
X99602481Y-61621015D01*
X99463100Y-61714147D01*
X99308228Y-61778297D01*
X99143816Y-61811000D01*
X98976184Y-61811000D01*
X98811772Y-61778297D01*
X98656900Y-61714147D01*
X98517519Y-61621015D01*
X98398985Y-61502481D01*
X98305853Y-61363100D01*
X98241703Y-61208228D01*
X98209000Y-61043816D01*
X98209000Y-60876184D01*
X98241703Y-60711772D01*
X98305853Y-60556900D01*
X98398985Y-60417519D01*
X98517519Y-60298985D01*
X98656900Y-60205853D01*
X98811772Y-60141703D01*
X98976184Y-60109000D01*
X99143816Y-60109000D01*
X99308228Y-60141703D01*
G37*
G36*
X114548228Y-60141703D02*
G01*
X114703100Y-60205853D01*
X114842481Y-60298985D01*
X114961015Y-60417519D01*
X115054147Y-60556900D01*
X115118297Y-60711772D01*
X115151000Y-60876184D01*
X115151000Y-61043816D01*
X115118297Y-61208228D01*
X115054147Y-61363100D01*
X114961015Y-61502481D01*
X114842481Y-61621015D01*
X114703100Y-61714147D01*
X114548228Y-61778297D01*
X114383816Y-61811000D01*
X114216184Y-61811000D01*
X114051772Y-61778297D01*
X113896900Y-61714147D01*
X113757519Y-61621015D01*
X113638985Y-61502481D01*
X113545853Y-61363100D01*
X113481703Y-61208228D01*
X113449000Y-61043816D01*
X113449000Y-60876184D01*
X113481703Y-60711772D01*
X113545853Y-60556900D01*
X113638985Y-60417519D01*
X113757519Y-60298985D01*
X113896900Y-60205853D01*
X114051772Y-60141703D01*
X114216184Y-60109000D01*
X114383816Y-60109000D01*
X114548228Y-60141703D01*
G37*
G36*
X101848228Y-60141703D02*
G01*
X102003100Y-60205853D01*
X102142481Y-60298985D01*
X102261015Y-60417519D01*
X102354147Y-60556900D01*
X102418297Y-60711772D01*
X102451000Y-60876184D01*
X102451000Y-61043816D01*
X102418297Y-61208228D01*
X102354147Y-61363100D01*
X102261015Y-61502481D01*
X102142481Y-61621015D01*
X102003100Y-61714147D01*
X101848228Y-61778297D01*
X101683816Y-61811000D01*
X101516184Y-61811000D01*
X101351772Y-61778297D01*
X101196900Y-61714147D01*
X101057519Y-61621015D01*
X100938985Y-61502481D01*
X100845853Y-61363100D01*
X100781703Y-61208228D01*
X100749000Y-61043816D01*
X100749000Y-60876184D01*
X100781703Y-60711772D01*
X100845853Y-60556900D01*
X100938985Y-60417519D01*
X101057519Y-60298985D01*
X101196900Y-60205853D01*
X101351772Y-60141703D01*
X101516184Y-60109000D01*
X101683816Y-60109000D01*
X101848228Y-60141703D01*
G37*
G36*
X110556000Y-60411000D02*
G01*
X109154000Y-60411000D01*
X109154000Y-58809000D01*
X110556000Y-58809000D01*
X110556000Y-60411000D01*
G37*
G36*
X114548228Y-57601703D02*
G01*
X114703100Y-57665853D01*
X114842481Y-57758985D01*
X114961015Y-57877519D01*
X115054147Y-58016900D01*
X115118297Y-58171772D01*
X115151000Y-58336184D01*
X115151000Y-58503816D01*
X115118297Y-58668228D01*
X115054147Y-58823100D01*
X114961015Y-58962481D01*
X114842481Y-59081015D01*
X114703100Y-59174147D01*
X114548228Y-59238297D01*
X114383816Y-59271000D01*
X114216184Y-59271000D01*
X114051772Y-59238297D01*
X113896900Y-59174147D01*
X113757519Y-59081015D01*
X113638985Y-58962481D01*
X113545853Y-58823100D01*
X113481703Y-58668228D01*
X113449000Y-58503816D01*
X113449000Y-58336184D01*
X113481703Y-58171772D01*
X113545853Y-58016900D01*
X113638985Y-57877519D01*
X113757519Y-57758985D01*
X113896900Y-57665853D01*
X114051772Y-57601703D01*
X114216184Y-57569000D01*
X114383816Y-57569000D01*
X114548228Y-57601703D01*
G37*
G36*
X101848228Y-57601703D02*
G01*
X102003100Y-57665853D01*
X102142481Y-57758985D01*
X102261015Y-57877519D01*
X102354147Y-58016900D01*
X102418297Y-58171772D01*
X102451000Y-58336184D01*
X102451000Y-58503816D01*
X102418297Y-58668228D01*
X102354147Y-58823100D01*
X102261015Y-58962481D01*
X102142481Y-59081015D01*
X102003100Y-59174147D01*
X101848228Y-59238297D01*
X101683816Y-59271000D01*
X101516184Y-59271000D01*
X101351772Y-59238297D01*
X101196900Y-59174147D01*
X101057519Y-59081015D01*
X100938985Y-58962481D01*
X100845853Y-58823100D01*
X100781703Y-58668228D01*
X100749000Y-58503816D01*
X100749000Y-58336184D01*
X100781703Y-58171772D01*
X100845853Y-58016900D01*
X100938985Y-57877519D01*
X101057519Y-57758985D01*
X101196900Y-57665853D01*
X101351772Y-57601703D01*
X101516184Y-57569000D01*
X101683816Y-57569000D01*
X101848228Y-57601703D01*
G37*
G36*
X99308228Y-57601703D02*
G01*
X99463100Y-57665853D01*
X99602481Y-57758985D01*
X99721015Y-57877519D01*
X99814147Y-58016900D01*
X99878297Y-58171772D01*
X99911000Y-58336184D01*
X99911000Y-58503816D01*
X99878297Y-58668228D01*
X99814147Y-58823100D01*
X99721015Y-58962481D01*
X99602481Y-59081015D01*
X99463100Y-59174147D01*
X99308228Y-59238297D01*
X99143816Y-59271000D01*
X98976184Y-59271000D01*
X98811772Y-59238297D01*
X98656900Y-59174147D01*
X98517519Y-59081015D01*
X98398985Y-58962481D01*
X98305853Y-58823100D01*
X98241703Y-58668228D01*
X98209000Y-58503816D01*
X98209000Y-58336184D01*
X98241703Y-58171772D01*
X98305853Y-58016900D01*
X98398985Y-57877519D01*
X98517519Y-57758985D01*
X98656900Y-57665853D01*
X98811772Y-57601703D01*
X98976184Y-57569000D01*
X99143816Y-57569000D01*
X99308228Y-57601703D01*
G37*
G36*
X117088228Y-57601703D02*
G01*
X117243100Y-57665853D01*
X117382481Y-57758985D01*
X117501015Y-57877519D01*
X117594147Y-58016900D01*
X117658297Y-58171772D01*
X117691000Y-58336184D01*
X117691000Y-58503816D01*
X117658297Y-58668228D01*
X117594147Y-58823100D01*
X117501015Y-58962481D01*
X117382481Y-59081015D01*
X117243100Y-59174147D01*
X117088228Y-59238297D01*
X116923816Y-59271000D01*
X116756184Y-59271000D01*
X116591772Y-59238297D01*
X116436900Y-59174147D01*
X116297519Y-59081015D01*
X116178985Y-58962481D01*
X116085853Y-58823100D01*
X116021703Y-58668228D01*
X115989000Y-58503816D01*
X115989000Y-58336184D01*
X116021703Y-58171772D01*
X116085853Y-58016900D01*
X116178985Y-57877519D01*
X116297519Y-57758985D01*
X116436900Y-57665853D01*
X116591772Y-57601703D01*
X116756184Y-57569000D01*
X116923816Y-57569000D01*
X117088228Y-57601703D01*
G37*
G36*
X101848228Y-55061703D02*
G01*
X102003100Y-55125853D01*
X102142481Y-55218985D01*
X102261015Y-55337519D01*
X102354147Y-55476900D01*
X102418297Y-55631772D01*
X102451000Y-55796184D01*
X102451000Y-55963816D01*
X102418297Y-56128228D01*
X102354147Y-56283100D01*
X102261015Y-56422481D01*
X102142481Y-56541015D01*
X102003100Y-56634147D01*
X101848228Y-56698297D01*
X101683816Y-56731000D01*
X101516184Y-56731000D01*
X101351772Y-56698297D01*
X101196900Y-56634147D01*
X101057519Y-56541015D01*
X100938985Y-56422481D01*
X100845853Y-56283100D01*
X100781703Y-56128228D01*
X100749000Y-55963816D01*
X100749000Y-55796184D01*
X100781703Y-55631772D01*
X100845853Y-55476900D01*
X100938985Y-55337519D01*
X101057519Y-55218985D01*
X101196900Y-55125853D01*
X101351772Y-55061703D01*
X101516184Y-55029000D01*
X101683816Y-55029000D01*
X101848228Y-55061703D01*
G37*
G36*
X114548228Y-55061703D02*
G01*
X114703100Y-55125853D01*
X114842481Y-55218985D01*
X114961015Y-55337519D01*
X115054147Y-55476900D01*
X115118297Y-55631772D01*
X115151000Y-55796184D01*
X115151000Y-55963816D01*
X115118297Y-56128228D01*
X115054147Y-56283100D01*
X114961015Y-56422481D01*
X114842481Y-56541015D01*
X114703100Y-56634147D01*
X114548228Y-56698297D01*
X114383816Y-56731000D01*
X114216184Y-56731000D01*
X114051772Y-56698297D01*
X113896900Y-56634147D01*
X113757519Y-56541015D01*
X113638985Y-56422481D01*
X113545853Y-56283100D01*
X113481703Y-56128228D01*
X113449000Y-55963816D01*
X113449000Y-55796184D01*
X113481703Y-55631772D01*
X113545853Y-55476900D01*
X113638985Y-55337519D01*
X113757519Y-55218985D01*
X113896900Y-55125853D01*
X114051772Y-55061703D01*
X114216184Y-55029000D01*
X114383816Y-55029000D01*
X114548228Y-55061703D01*
G37*
G36*
X117088228Y-55061703D02*
G01*
X117243100Y-55125853D01*
X117382481Y-55218985D01*
X117501015Y-55337519D01*
X117594147Y-55476900D01*
X117658297Y-55631772D01*
X117691000Y-55796184D01*
X117691000Y-55963816D01*
X117658297Y-56128228D01*
X117594147Y-56283100D01*
X117501015Y-56422481D01*
X117382481Y-56541015D01*
X117243100Y-56634147D01*
X117088228Y-56698297D01*
X116923816Y-56731000D01*
X116756184Y-56731000D01*
X116591772Y-56698297D01*
X116436900Y-56634147D01*
X116297519Y-56541015D01*
X116178985Y-56422481D01*
X116085853Y-56283100D01*
X116021703Y-56128228D01*
X115989000Y-55963816D01*
X115989000Y-55796184D01*
X116021703Y-55631772D01*
X116085853Y-55476900D01*
X116178985Y-55337519D01*
X116297519Y-55218985D01*
X116436900Y-55125853D01*
X116591772Y-55061703D01*
X116756184Y-55029000D01*
X116923816Y-55029000D01*
X117088228Y-55061703D01*
G37*
G36*
X99308228Y-55061703D02*
G01*
X99463100Y-55125853D01*
X99602481Y-55218985D01*
X99721015Y-55337519D01*
X99814147Y-55476900D01*
X99878297Y-55631772D01*
X99911000Y-55796184D01*
X99911000Y-55963816D01*
X99878297Y-56128228D01*
X99814147Y-56283100D01*
X99721015Y-56422481D01*
X99602481Y-56541015D01*
X99463100Y-56634147D01*
X99308228Y-56698297D01*
X99143816Y-56731000D01*
X98976184Y-56731000D01*
X98811772Y-56698297D01*
X98656900Y-56634147D01*
X98517519Y-56541015D01*
X98398985Y-56422481D01*
X98305853Y-56283100D01*
X98241703Y-56128228D01*
X98209000Y-55963816D01*
X98209000Y-55796184D01*
X98241703Y-55631772D01*
X98305853Y-55476900D01*
X98398985Y-55337519D01*
X98517519Y-55218985D01*
X98656900Y-55125853D01*
X98811772Y-55061703D01*
X98976184Y-55029000D01*
X99143816Y-55029000D01*
X99308228Y-55061703D01*
G37*
G36*
X110531000Y-56661000D02*
G01*
X109179000Y-56661000D01*
X109179000Y-55059000D01*
X110531000Y-55059000D01*
X110531000Y-56661000D01*
G37*
G36*
X101848228Y-52521703D02*
G01*
X102003100Y-52585853D01*
X102142481Y-52678985D01*
X102261015Y-52797519D01*
X102354147Y-52936900D01*
X102418297Y-53091772D01*
X102451000Y-53256184D01*
X102451000Y-53423816D01*
X102418297Y-53588228D01*
X102354147Y-53743100D01*
X102261015Y-53882481D01*
X102142481Y-54001015D01*
X102003100Y-54094147D01*
X101848228Y-54158297D01*
X101683816Y-54191000D01*
X101516184Y-54191000D01*
X101351772Y-54158297D01*
X101196900Y-54094147D01*
X101057519Y-54001015D01*
X100938985Y-53882481D01*
X100845853Y-53743100D01*
X100781703Y-53588228D01*
X100749000Y-53423816D01*
X100749000Y-53256184D01*
X100781703Y-53091772D01*
X100845853Y-52936900D01*
X100938985Y-52797519D01*
X101057519Y-52678985D01*
X101196900Y-52585853D01*
X101351772Y-52521703D01*
X101516184Y-52489000D01*
X101683816Y-52489000D01*
X101848228Y-52521703D01*
G37*
G36*
X99308228Y-52521703D02*
G01*
X99463100Y-52585853D01*
X99602481Y-52678985D01*
X99721015Y-52797519D01*
X99814147Y-52936900D01*
X99878297Y-53091772D01*
X99911000Y-53256184D01*
X99911000Y-53423816D01*
X99878297Y-53588228D01*
X99814147Y-53743100D01*
X99721015Y-53882481D01*
X99602481Y-54001015D01*
X99463100Y-54094147D01*
X99308228Y-54158297D01*
X99143816Y-54191000D01*
X98976184Y-54191000D01*
X98811772Y-54158297D01*
X98656900Y-54094147D01*
X98517519Y-54001015D01*
X98398985Y-53882481D01*
X98305853Y-53743100D01*
X98241703Y-53588228D01*
X98209000Y-53423816D01*
X98209000Y-53256184D01*
X98241703Y-53091772D01*
X98305853Y-52936900D01*
X98398985Y-52797519D01*
X98517519Y-52678985D01*
X98656900Y-52585853D01*
X98811772Y-52521703D01*
X98976184Y-52489000D01*
X99143816Y-52489000D01*
X99308228Y-52521703D01*
G37*
G36*
X114548228Y-52521703D02*
G01*
X114703100Y-52585853D01*
X114842481Y-52678985D01*
X114961015Y-52797519D01*
X115054147Y-52936900D01*
X115118297Y-53091772D01*
X115151000Y-53256184D01*
X115151000Y-53423816D01*
X115118297Y-53588228D01*
X115054147Y-53743100D01*
X114961015Y-53882481D01*
X114842481Y-54001015D01*
X114703100Y-54094147D01*
X114548228Y-54158297D01*
X114383816Y-54191000D01*
X114216184Y-54191000D01*
X114051772Y-54158297D01*
X113896900Y-54094147D01*
X113757519Y-54001015D01*
X113638985Y-53882481D01*
X113545853Y-53743100D01*
X113481703Y-53588228D01*
X113449000Y-53423816D01*
X113449000Y-53256184D01*
X113481703Y-53091772D01*
X113545853Y-52936900D01*
X113638985Y-52797519D01*
X113757519Y-52678985D01*
X113896900Y-52585853D01*
X114051772Y-52521703D01*
X114216184Y-52489000D01*
X114383816Y-52489000D01*
X114548228Y-52521703D01*
G37*
G36*
X117088228Y-52521703D02*
G01*
X117243100Y-52585853D01*
X117382481Y-52678985D01*
X117501015Y-52797519D01*
X117594147Y-52936900D01*
X117658297Y-53091772D01*
X117691000Y-53256184D01*
X117691000Y-53423816D01*
X117658297Y-53588228D01*
X117594147Y-53743100D01*
X117501015Y-53882481D01*
X117382481Y-54001015D01*
X117243100Y-54094147D01*
X117088228Y-54158297D01*
X116923816Y-54191000D01*
X116756184Y-54191000D01*
X116591772Y-54158297D01*
X116436900Y-54094147D01*
X116297519Y-54001015D01*
X116178985Y-53882481D01*
X116085853Y-53743100D01*
X116021703Y-53588228D01*
X115989000Y-53423816D01*
X115989000Y-53256184D01*
X116021703Y-53091772D01*
X116085853Y-52936900D01*
X116178985Y-52797519D01*
X116297519Y-52678985D01*
X116436900Y-52585853D01*
X116591772Y-52521703D01*
X116756184Y-52489000D01*
X116923816Y-52489000D01*
X117088228Y-52521703D01*
G37*
G36*
X110531000Y-54161000D02*
G01*
X109179000Y-54161000D01*
X109179000Y-52559000D01*
X110531000Y-52559000D01*
X110531000Y-54161000D01*
G37*
G36*
X114548228Y-49981703D02*
G01*
X114703100Y-50045853D01*
X114842481Y-50138985D01*
X114961015Y-50257519D01*
X115054147Y-50396900D01*
X115118297Y-50551772D01*
X115151000Y-50716184D01*
X115151000Y-50883816D01*
X115118297Y-51048228D01*
X115054147Y-51203100D01*
X114961015Y-51342481D01*
X114842481Y-51461015D01*
X114703100Y-51554147D01*
X114548228Y-51618297D01*
X114383816Y-51651000D01*
X114216184Y-51651000D01*
X114051772Y-51618297D01*
X113896900Y-51554147D01*
X113757519Y-51461015D01*
X113638985Y-51342481D01*
X113545853Y-51203100D01*
X113481703Y-51048228D01*
X113449000Y-50883816D01*
X113449000Y-50716184D01*
X113481703Y-50551772D01*
X113545853Y-50396900D01*
X113638985Y-50257519D01*
X113757519Y-50138985D01*
X113896900Y-50045853D01*
X114051772Y-49981703D01*
X114216184Y-49949000D01*
X114383816Y-49949000D01*
X114548228Y-49981703D01*
G37*
G36*
X99911000Y-51651000D02*
G01*
X98209000Y-51651000D01*
X98209000Y-49949000D01*
X99911000Y-49949000D01*
X99911000Y-51651000D01*
G37*
G36*
X102451000Y-51651000D02*
G01*
X100749000Y-51651000D01*
X100749000Y-49949000D01*
X102451000Y-49949000D01*
X102451000Y-51651000D01*
G37*
G36*
X117088228Y-49981703D02*
G01*
X117243100Y-50045853D01*
X117382481Y-50138985D01*
X117501015Y-50257519D01*
X117594147Y-50396900D01*
X117658297Y-50551772D01*
X117691000Y-50716184D01*
X117691000Y-50883816D01*
X117658297Y-51048228D01*
X117594147Y-51203100D01*
X117501015Y-51342481D01*
X117382481Y-51461015D01*
X117243100Y-51554147D01*
X117088228Y-51618297D01*
X116923816Y-51651000D01*
X116756184Y-51651000D01*
X116591772Y-51618297D01*
X116436900Y-51554147D01*
X116297519Y-51461015D01*
X116178985Y-51342481D01*
X116085853Y-51203100D01*
X116021703Y-51048228D01*
X115989000Y-50883816D01*
X115989000Y-50716184D01*
X116021703Y-50551772D01*
X116085853Y-50396900D01*
X116178985Y-50257519D01*
X116297519Y-50138985D01*
X116436900Y-50045853D01*
X116591772Y-49981703D01*
X116756184Y-49949000D01*
X116923816Y-49949000D01*
X117088228Y-49981703D01*
G37*
G36*
X101713512Y-46093927D02*
G01*
X101862812Y-46123624D01*
X102026784Y-46191544D01*
X102174354Y-46290147D01*
X102299853Y-46415646D01*
X102398456Y-46563216D01*
X102466376Y-46727188D01*
X102501000Y-46901259D01*
X102501000Y-47078741D01*
X102466376Y-47252812D01*
X102398456Y-47416784D01*
X102299853Y-47564354D01*
X102174354Y-47689853D01*
X102026784Y-47788456D01*
X101862812Y-47856376D01*
X101713512Y-47886073D01*
X101688742Y-47891000D01*
X101511258Y-47891000D01*
X101486488Y-47886073D01*
X101337188Y-47856376D01*
X101173216Y-47788456D01*
X101025646Y-47689853D01*
X100900147Y-47564354D01*
X100801544Y-47416784D01*
X100733624Y-47252812D01*
X100699000Y-47078741D01*
X100699000Y-46901259D01*
X100733624Y-46727188D01*
X100801544Y-46563216D01*
X100900147Y-46415646D01*
X101025646Y-46290147D01*
X101173216Y-46191544D01*
X101337188Y-46123624D01*
X101486488Y-46093927D01*
X101511258Y-46089000D01*
X101688742Y-46089000D01*
X101713512Y-46093927D01*
G37*
G36*
X99961000Y-47891000D02*
G01*
X98159000Y-47891000D01*
X98159000Y-46089000D01*
X99961000Y-46089000D01*
X99961000Y-47891000D01*
G37*
G36*
X115683512Y-44823927D02*
G01*
X115832812Y-44853624D01*
X115996784Y-44921544D01*
X116144354Y-45020147D01*
X116269853Y-45145646D01*
X116368456Y-45293216D01*
X116436376Y-45457188D01*
X116471000Y-45631259D01*
X116471000Y-45808741D01*
X116436376Y-45982812D01*
X116368456Y-46146784D01*
X116269853Y-46294354D01*
X116144354Y-46419853D01*
X115996784Y-46518456D01*
X115832812Y-46586376D01*
X115683512Y-46616073D01*
X115658742Y-46621000D01*
X115481258Y-46621000D01*
X115456488Y-46616073D01*
X115307188Y-46586376D01*
X115143216Y-46518456D01*
X114995646Y-46419853D01*
X114870147Y-46294354D01*
X114771544Y-46146784D01*
X114703624Y-45982812D01*
X114669000Y-45808741D01*
X114669000Y-45631259D01*
X114703624Y-45457188D01*
X114771544Y-45293216D01*
X114870147Y-45145646D01*
X114995646Y-45020147D01*
X115143216Y-44921544D01*
X115307188Y-44853624D01*
X115456488Y-44823927D01*
X115481258Y-44819000D01*
X115658742Y-44819000D01*
X115683512Y-44823927D01*
G37*
G36*
X113143512Y-44823927D02*
G01*
X113292812Y-44853624D01*
X113456784Y-44921544D01*
X113604354Y-45020147D01*
X113729853Y-45145646D01*
X113828456Y-45293216D01*
X113896376Y-45457188D01*
X113931000Y-45631259D01*
X113931000Y-45808741D01*
X113896376Y-45982812D01*
X113828456Y-46146784D01*
X113729853Y-46294354D01*
X113604354Y-46419853D01*
X113456784Y-46518456D01*
X113292812Y-46586376D01*
X113143512Y-46616073D01*
X113118742Y-46621000D01*
X112941258Y-46621000D01*
X112916488Y-46616073D01*
X112767188Y-46586376D01*
X112603216Y-46518456D01*
X112455646Y-46419853D01*
X112330147Y-46294354D01*
X112231544Y-46146784D01*
X112163624Y-45982812D01*
X112129000Y-45808741D01*
X112129000Y-45631259D01*
X112163624Y-45457188D01*
X112231544Y-45293216D01*
X112330147Y-45145646D01*
X112455646Y-45020147D01*
X112603216Y-44921544D01*
X112767188Y-44853624D01*
X112916488Y-44823927D01*
X112941258Y-44819000D01*
X113118742Y-44819000D01*
X113143512Y-44823927D01*
G37*
G36*
X115683512Y-42283927D02*
G01*
X115832812Y-42313624D01*
X115996784Y-42381544D01*
X116144354Y-42480147D01*
X116269853Y-42605646D01*
X116368456Y-42753216D01*
X116436376Y-42917188D01*
X116471000Y-43091259D01*
X116471000Y-43268741D01*
X116436376Y-43442812D01*
X116368456Y-43606784D01*
X116269853Y-43754354D01*
X116144354Y-43879853D01*
X115996784Y-43978456D01*
X115832812Y-44046376D01*
X115683512Y-44076073D01*
X115658742Y-44081000D01*
X115481258Y-44081000D01*
X115456488Y-44076073D01*
X115307188Y-44046376D01*
X115143216Y-43978456D01*
X114995646Y-43879853D01*
X114870147Y-43754354D01*
X114771544Y-43606784D01*
X114703624Y-43442812D01*
X114669000Y-43268741D01*
X114669000Y-43091259D01*
X114703624Y-42917188D01*
X114771544Y-42753216D01*
X114870147Y-42605646D01*
X114995646Y-42480147D01*
X115143216Y-42381544D01*
X115307188Y-42313624D01*
X115456488Y-42283927D01*
X115481258Y-42279000D01*
X115658742Y-42279000D01*
X115683512Y-42283927D01*
G37*
G36*
X113143512Y-42283927D02*
G01*
X113292812Y-42313624D01*
X113456784Y-42381544D01*
X113604354Y-42480147D01*
X113729853Y-42605646D01*
X113828456Y-42753216D01*
X113896376Y-42917188D01*
X113931000Y-43091259D01*
X113931000Y-43268741D01*
X113896376Y-43442812D01*
X113828456Y-43606784D01*
X113729853Y-43754354D01*
X113604354Y-43879853D01*
X113456784Y-43978456D01*
X113292812Y-44046376D01*
X113143512Y-44076073D01*
X113118742Y-44081000D01*
X112941258Y-44081000D01*
X112916488Y-44076073D01*
X112767188Y-44046376D01*
X112603216Y-43978456D01*
X112455646Y-43879853D01*
X112330147Y-43754354D01*
X112231544Y-43606784D01*
X112163624Y-43442812D01*
X112129000Y-43268741D01*
X112129000Y-43091259D01*
X112163624Y-42917188D01*
X112231544Y-42753216D01*
X112330147Y-42605646D01*
X112455646Y-42480147D01*
X112603216Y-42381544D01*
X112767188Y-42313624D01*
X112916488Y-42283927D01*
X112941258Y-42279000D01*
X113118742Y-42279000D01*
X113143512Y-42283927D01*
G37*
G36*
X115683512Y-39743927D02*
G01*
X115832812Y-39773624D01*
X115996784Y-39841544D01*
X116144354Y-39940147D01*
X116269853Y-40065646D01*
X116368456Y-40213216D01*
X116436376Y-40377188D01*
X116471000Y-40551259D01*
X116471000Y-40728741D01*
X116436376Y-40902812D01*
X116368456Y-41066784D01*
X116269853Y-41214354D01*
X116144354Y-41339853D01*
X115996784Y-41438456D01*
X115832812Y-41506376D01*
X115683512Y-41536073D01*
X115658742Y-41541000D01*
X115481258Y-41541000D01*
X115456488Y-41536073D01*
X115307188Y-41506376D01*
X115143216Y-41438456D01*
X114995646Y-41339853D01*
X114870147Y-41214354D01*
X114771544Y-41066784D01*
X114703624Y-40902812D01*
X114669000Y-40728741D01*
X114669000Y-40551259D01*
X114703624Y-40377188D01*
X114771544Y-40213216D01*
X114870147Y-40065646D01*
X114995646Y-39940147D01*
X115143216Y-39841544D01*
X115307188Y-39773624D01*
X115456488Y-39743927D01*
X115481258Y-39739000D01*
X115658742Y-39739000D01*
X115683512Y-39743927D01*
G37*
G36*
X113143512Y-39743927D02*
G01*
X113292812Y-39773624D01*
X113456784Y-39841544D01*
X113604354Y-39940147D01*
X113729853Y-40065646D01*
X113828456Y-40213216D01*
X113896376Y-40377188D01*
X113931000Y-40551259D01*
X113931000Y-40728741D01*
X113896376Y-40902812D01*
X113828456Y-41066784D01*
X113729853Y-41214354D01*
X113604354Y-41339853D01*
X113456784Y-41438456D01*
X113292812Y-41506376D01*
X113143512Y-41536073D01*
X113118742Y-41541000D01*
X112941258Y-41541000D01*
X112916488Y-41536073D01*
X112767188Y-41506376D01*
X112603216Y-41438456D01*
X112455646Y-41339853D01*
X112330147Y-41214354D01*
X112231544Y-41066784D01*
X112163624Y-40902812D01*
X112129000Y-40728741D01*
X112129000Y-40551259D01*
X112163624Y-40377188D01*
X112231544Y-40213216D01*
X112330147Y-40065646D01*
X112455646Y-39940147D01*
X112603216Y-39841544D01*
X112767188Y-39773624D01*
X112916488Y-39743927D01*
X112941258Y-39739000D01*
X113118742Y-39739000D01*
X113143512Y-39743927D01*
G37*
G36*
X115683512Y-37203927D02*
G01*
X115832812Y-37233624D01*
X115996784Y-37301544D01*
X116144354Y-37400147D01*
X116269853Y-37525646D01*
X116368456Y-37673216D01*
X116436376Y-37837188D01*
X116471000Y-38011259D01*
X116471000Y-38188741D01*
X116436376Y-38362812D01*
X116368456Y-38526784D01*
X116269853Y-38674354D01*
X116144354Y-38799853D01*
X115996784Y-38898456D01*
X115832812Y-38966376D01*
X115683512Y-38996073D01*
X115658742Y-39001000D01*
X115481258Y-39001000D01*
X115456488Y-38996073D01*
X115307188Y-38966376D01*
X115143216Y-38898456D01*
X114995646Y-38799853D01*
X114870147Y-38674354D01*
X114771544Y-38526784D01*
X114703624Y-38362812D01*
X114669000Y-38188741D01*
X114669000Y-38011259D01*
X114703624Y-37837188D01*
X114771544Y-37673216D01*
X114870147Y-37525646D01*
X114995646Y-37400147D01*
X115143216Y-37301544D01*
X115307188Y-37233624D01*
X115456488Y-37203927D01*
X115481258Y-37199000D01*
X115658742Y-37199000D01*
X115683512Y-37203927D01*
G37*
G36*
X113931000Y-39001000D02*
G01*
X112129000Y-39001000D01*
X112129000Y-37199000D01*
X113931000Y-37199000D01*
X113931000Y-39001000D01*
G37*
M02*
