G04 #@! TF.GenerationSoftware,KiCad,Pcbnew,(5.1.5-0-10_14)*
G04 #@! TF.CreationDate,2021-04-25T17:09:50+02:00*
G04 #@! TF.ProjectId,6526KernalSwitcher,36353236-4b65-4726-9e61-6c5377697463,3.0*
G04 #@! TF.SameCoordinates,Original*
G04 #@! TF.FileFunction,Legend,Top*
G04 #@! TF.FilePolarity,Positive*
%FSLAX46Y46*%
G04 Gerber Fmt 4.6, Leading zero omitted, Abs format (unit mm)*
G04 Created by KiCad (PCBNEW (5.1.5-0-10_14)) date 2021-04-25 17:09:50*
%MOMM*%
%LPD*%
G04 APERTURE LIST*
%ADD10C,0.120000*%
%ADD11C,0.500000*%
%ADD12C,0.150000*%
%ADD13R,1.602000X1.402000*%
%ADD14O,1.702000X1.702000*%
%ADD15R,1.702000X1.702000*%
%ADD16R,0.652000X1.702000*%
%ADD17R,1.702000X0.652000*%
%ADD18R,1.352000X1.602000*%
%ADD19C,0.100000*%
%ADD20R,1.602000X1.352000*%
%ADD21R,1.402000X1.602000*%
%ADD22O,1.802000X1.802000*%
%ADD23R,1.802000X1.802000*%
%ADD24R,1.602000X2.302000*%
%ADD25C,1.702000*%
G04 APERTURE END LIST*
D10*
X103400000Y-119000000D02*
X106400000Y-119000000D01*
X115600000Y-116200000D02*
X117200000Y-116200000D01*
X115428571Y-116561904D02*
X114971428Y-116561904D01*
X115200000Y-116561904D02*
X115200000Y-115761904D01*
X115123809Y-115876190D01*
X115047619Y-115952380D01*
X114971428Y-115990476D01*
X98468000Y-43009523D02*
X98468000Y-42209523D01*
X99561904Y-42361904D02*
X99180952Y-42628571D01*
X99561904Y-42819047D02*
X98761904Y-42819047D01*
X98761904Y-42514285D01*
X98800000Y-42438095D01*
X98838095Y-42400000D01*
X98914285Y-42361904D01*
X99028571Y-42361904D01*
X99104761Y-42400000D01*
X99142857Y-42438095D01*
X99180952Y-42514285D01*
X99180952Y-42819047D01*
X98468000Y-42209523D02*
X98468000Y-41485714D01*
X99142857Y-42019047D02*
X99142857Y-41752380D01*
X99561904Y-41638095D02*
X99561904Y-42019047D01*
X98761904Y-42019047D01*
X98761904Y-41638095D01*
X98468000Y-41485714D02*
X98468000Y-40723809D01*
X99523809Y-41333333D02*
X99561904Y-41219047D01*
X99561904Y-41028571D01*
X99523809Y-40952380D01*
X99485714Y-40914285D01*
X99409523Y-40876190D01*
X99333333Y-40876190D01*
X99257142Y-40914285D01*
X99219047Y-40952380D01*
X99180952Y-41028571D01*
X99142857Y-41180952D01*
X99104761Y-41257142D01*
X99066666Y-41295238D01*
X98990476Y-41333333D01*
X98914285Y-41333333D01*
X98838095Y-41295238D01*
X98800000Y-41257142D01*
X98761904Y-41180952D01*
X98761904Y-40990476D01*
X98800000Y-40876190D01*
X98468000Y-40723809D02*
X98468000Y-40000000D01*
X99142857Y-40533333D02*
X99142857Y-40266666D01*
X99561904Y-40152380D02*
X99561904Y-40533333D01*
X98761904Y-40533333D01*
X98761904Y-40152380D01*
X98468000Y-40000000D02*
X98468000Y-39390476D01*
X98761904Y-39923809D02*
X98761904Y-39466666D01*
X99561904Y-39695238D02*
X98761904Y-39695238D01*
X98468000Y-39390476D02*
X98468000Y-38780952D01*
X98468000Y-38780952D02*
X98468000Y-38095238D01*
X99523809Y-38285714D02*
X99561904Y-38361904D01*
X99561904Y-38514285D01*
X99523809Y-38590476D01*
X99447619Y-38628571D01*
X99142857Y-38628571D01*
X99066666Y-38590476D01*
X99028571Y-38514285D01*
X99028571Y-38361904D01*
X99066666Y-38285714D01*
X99142857Y-38247619D01*
X99219047Y-38247619D01*
X99295238Y-38628571D01*
X98468000Y-38095238D02*
X98468000Y-37447619D01*
X99561904Y-37980952D02*
X99028571Y-37561904D01*
X99028571Y-37980952D02*
X99561904Y-37561904D01*
X98468000Y-37447619D02*
X98468000Y-36990476D01*
X99028571Y-37371428D02*
X99028571Y-37066666D01*
X98761904Y-37257142D02*
X99447619Y-37257142D01*
X99523809Y-37219047D01*
X99561904Y-37142857D01*
X99561904Y-37066666D01*
X101200000Y-38809523D02*
X101161904Y-38885714D01*
X101161904Y-39000000D01*
X101200000Y-39114285D01*
X101276190Y-39190476D01*
X101352380Y-39228571D01*
X101504761Y-39266666D01*
X101619047Y-39266666D01*
X101771428Y-39228571D01*
X101847619Y-39190476D01*
X101923809Y-39114285D01*
X101961904Y-39000000D01*
X101961904Y-38923809D01*
X101923809Y-38809523D01*
X101885714Y-38771428D01*
X101619047Y-38771428D01*
X101619047Y-38923809D01*
X101961904Y-38428571D02*
X101161904Y-38428571D01*
X101961904Y-37971428D01*
X101161904Y-37971428D01*
X101961904Y-37590476D02*
X101161904Y-37590476D01*
X101161904Y-37400000D01*
X101200000Y-37285714D01*
X101276190Y-37209523D01*
X101352380Y-37171428D01*
X101504761Y-37133333D01*
X101619047Y-37133333D01*
X101771428Y-37171428D01*
X101847619Y-37209523D01*
X101923809Y-37285714D01*
X101961904Y-37400000D01*
X101961904Y-37590476D01*
X109447619Y-38533333D02*
X109828571Y-38533333D01*
X109371428Y-38761904D02*
X109638095Y-37961904D01*
X109904761Y-38761904D01*
X110590476Y-38761904D02*
X110133333Y-38761904D01*
X110361904Y-38761904D02*
X110361904Y-37961904D01*
X110285714Y-38076190D01*
X110209523Y-38152380D01*
X110133333Y-38190476D01*
X111276190Y-37961904D02*
X111123809Y-37961904D01*
X111047619Y-38000000D01*
X111009523Y-38038095D01*
X110933333Y-38152380D01*
X110895238Y-38304761D01*
X110895238Y-38609523D01*
X110933333Y-38685714D01*
X110971428Y-38723809D01*
X111047619Y-38761904D01*
X111200000Y-38761904D01*
X111276190Y-38723809D01*
X111314285Y-38685714D01*
X111352380Y-38609523D01*
X111352380Y-38419047D01*
X111314285Y-38342857D01*
X111276190Y-38304761D01*
X111200000Y-38266666D01*
X111047619Y-38266666D01*
X110971428Y-38304761D01*
X110933333Y-38342857D01*
X110895238Y-38419047D01*
X108190476Y-42400000D02*
X108114285Y-42361904D01*
X108000000Y-42361904D01*
X107885714Y-42400000D01*
X107809523Y-42476190D01*
X107771428Y-42552380D01*
X107733333Y-42704761D01*
X107733333Y-42819047D01*
X107771428Y-42971428D01*
X107809523Y-43047619D01*
X107885714Y-43123809D01*
X108000000Y-43161904D01*
X108076190Y-43161904D01*
X108190476Y-43123809D01*
X108228571Y-43085714D01*
X108228571Y-42819047D01*
X108076190Y-42819047D01*
X108571428Y-43161904D02*
X108571428Y-42361904D01*
X109028571Y-43161904D01*
X109028571Y-42361904D01*
X109409523Y-43161904D02*
X109409523Y-42361904D01*
X109600000Y-42361904D01*
X109714285Y-42400000D01*
X109790476Y-42476190D01*
X109828571Y-42552380D01*
X109866666Y-42704761D01*
X109866666Y-42819047D01*
X109828571Y-42971428D01*
X109790476Y-43047619D01*
X109714285Y-43123809D01*
X109600000Y-43161904D01*
X109409523Y-43161904D01*
X109590476Y-71761904D02*
X109590476Y-70961904D01*
X110047619Y-71761904D02*
X109704761Y-71304761D01*
X110047619Y-70961904D02*
X109590476Y-71419047D01*
X109609523Y-64933333D02*
X109990476Y-64933333D01*
X109533333Y-65161904D02*
X109800000Y-64361904D01*
X110066666Y-65161904D01*
D11*
X105000000Y-102800000D02*
G75*
G03X105000000Y-102800000I-200000J0D01*
G01*
D10*
X118028571Y-116561904D02*
X117571428Y-116561904D01*
X117800000Y-116561904D02*
X117800000Y-115761904D01*
X117723809Y-115876190D01*
X117647619Y-115952380D01*
X117571428Y-115990476D01*
X102933333Y-36668000D02*
X103733333Y-36668000D01*
X103580952Y-37685714D02*
X103542857Y-37723809D01*
X103428571Y-37761904D01*
X103352380Y-37761904D01*
X103238095Y-37723809D01*
X103161904Y-37647619D01*
X103123809Y-37571428D01*
X103085714Y-37419047D01*
X103085714Y-37304761D01*
X103123809Y-37152380D01*
X103161904Y-37076190D01*
X103238095Y-37000000D01*
X103352380Y-36961904D01*
X103428571Y-36961904D01*
X103542857Y-37000000D01*
X103580952Y-37038095D01*
X103733333Y-36668000D02*
X104495238Y-36668000D01*
X104266666Y-36961904D02*
X104114285Y-36961904D01*
X104038095Y-37000000D01*
X104000000Y-37038095D01*
X103923809Y-37152380D01*
X103885714Y-37304761D01*
X103885714Y-37609523D01*
X103923809Y-37685714D01*
X103961904Y-37723809D01*
X104038095Y-37761904D01*
X104190476Y-37761904D01*
X104266666Y-37723809D01*
X104304761Y-37685714D01*
X104342857Y-37609523D01*
X104342857Y-37419047D01*
X104304761Y-37342857D01*
X104266666Y-37304761D01*
X104190476Y-37266666D01*
X104038095Y-37266666D01*
X103961904Y-37304761D01*
X103923809Y-37342857D01*
X103885714Y-37419047D01*
X104495238Y-36668000D02*
X105257142Y-36668000D01*
X105028571Y-37228571D02*
X105028571Y-37761904D01*
X104838095Y-36923809D02*
X104647619Y-37495238D01*
X105142857Y-37495238D01*
X105257142Y-36668000D02*
X106247619Y-36668000D01*
X105447619Y-37457142D02*
X106057142Y-37457142D01*
X106247619Y-36668000D02*
X107047619Y-36668000D01*
X106895238Y-37761904D02*
X106628571Y-37380952D01*
X106438095Y-37761904D02*
X106438095Y-36961904D01*
X106742857Y-36961904D01*
X106819047Y-37000000D01*
X106857142Y-37038095D01*
X106895238Y-37114285D01*
X106895238Y-37228571D01*
X106857142Y-37304761D01*
X106819047Y-37342857D01*
X106742857Y-37380952D01*
X106438095Y-37380952D01*
X107047619Y-36668000D02*
X107771428Y-36668000D01*
X107238095Y-37342857D02*
X107504761Y-37342857D01*
X107619047Y-37761904D02*
X107238095Y-37761904D01*
X107238095Y-36961904D01*
X107619047Y-36961904D01*
X107771428Y-36668000D02*
X108533333Y-36668000D01*
X107923809Y-37723809D02*
X108038095Y-37761904D01*
X108228571Y-37761904D01*
X108304761Y-37723809D01*
X108342857Y-37685714D01*
X108380952Y-37609523D01*
X108380952Y-37533333D01*
X108342857Y-37457142D01*
X108304761Y-37419047D01*
X108228571Y-37380952D01*
X108076190Y-37342857D01*
X108000000Y-37304761D01*
X107961904Y-37266666D01*
X107923809Y-37190476D01*
X107923809Y-37114285D01*
X107961904Y-37038095D01*
X108000000Y-37000000D01*
X108076190Y-36961904D01*
X108266666Y-36961904D01*
X108380952Y-37000000D01*
X108533333Y-36668000D02*
X109257142Y-36668000D01*
X108723809Y-37342857D02*
X108990476Y-37342857D01*
X109104761Y-37761904D02*
X108723809Y-37761904D01*
X108723809Y-36961904D01*
X109104761Y-36961904D01*
X109257142Y-36668000D02*
X109866666Y-36668000D01*
X109333333Y-36961904D02*
X109790476Y-36961904D01*
X109561904Y-37761904D02*
X109561904Y-36961904D01*
X109447619Y-41333333D02*
X109828571Y-41333333D01*
X109371428Y-41561904D02*
X109638095Y-40761904D01*
X109904761Y-41561904D01*
X110590476Y-41561904D02*
X110133333Y-41561904D01*
X110361904Y-41561904D02*
X110361904Y-40761904D01*
X110285714Y-40876190D01*
X110209523Y-40952380D01*
X110133333Y-40990476D01*
X111314285Y-40761904D02*
X110933333Y-40761904D01*
X110895238Y-41142857D01*
X110933333Y-41104761D01*
X111009523Y-41066666D01*
X111200000Y-41066666D01*
X111276190Y-41104761D01*
X111314285Y-41142857D01*
X111352380Y-41219047D01*
X111352380Y-41409523D01*
X111314285Y-41485714D01*
X111276190Y-41523809D01*
X111200000Y-41561904D01*
X111009523Y-41561904D01*
X110933333Y-41523809D01*
X110895238Y-41485714D01*
X109447619Y-43933333D02*
X109828571Y-43933333D01*
X109371428Y-44161904D02*
X109638095Y-43361904D01*
X109904761Y-44161904D01*
X110590476Y-44161904D02*
X110133333Y-44161904D01*
X110361904Y-44161904D02*
X110361904Y-43361904D01*
X110285714Y-43476190D01*
X110209523Y-43552380D01*
X110133333Y-43590476D01*
X111276190Y-43628571D02*
X111276190Y-44161904D01*
X111085714Y-43323809D02*
X110895238Y-43895238D01*
X111390476Y-43895238D01*
X109447619Y-46933333D02*
X109828571Y-46933333D01*
X109371428Y-47161904D02*
X109638095Y-46361904D01*
X109904761Y-47161904D01*
X110590476Y-47161904D02*
X110133333Y-47161904D01*
X110361904Y-47161904D02*
X110361904Y-46361904D01*
X110285714Y-46476190D01*
X110209523Y-46552380D01*
X110133333Y-46590476D01*
X110857142Y-46361904D02*
X111352380Y-46361904D01*
X111085714Y-46666666D01*
X111200000Y-46666666D01*
X111276190Y-46704761D01*
X111314285Y-46742857D01*
X111352380Y-46819047D01*
X111352380Y-47009523D01*
X111314285Y-47085714D01*
X111276190Y-47123809D01*
X111200000Y-47161904D01*
X110971428Y-47161904D01*
X110895238Y-47123809D01*
X110857142Y-47085714D01*
X105980952Y-39468000D02*
X106704761Y-39468000D01*
X106171428Y-40142857D02*
X106438095Y-40142857D01*
X106552380Y-40561904D02*
X106171428Y-40561904D01*
X106171428Y-39761904D01*
X106552380Y-39761904D01*
X106704761Y-39468000D02*
X107466666Y-39468000D01*
X106819047Y-39761904D02*
X107352380Y-40561904D01*
X107352380Y-39761904D02*
X106819047Y-40561904D01*
X107466666Y-39468000D02*
X108266666Y-39468000D01*
X108114285Y-40561904D02*
X107847619Y-40180952D01*
X107657142Y-40561904D02*
X107657142Y-39761904D01*
X107961904Y-39761904D01*
X108038095Y-39800000D01*
X108076190Y-39838095D01*
X108114285Y-39914285D01*
X108114285Y-40028571D01*
X108076190Y-40104761D01*
X108038095Y-40142857D01*
X107961904Y-40180952D01*
X107657142Y-40180952D01*
X108266666Y-39468000D02*
X109104761Y-39468000D01*
X108609523Y-39761904D02*
X108761904Y-39761904D01*
X108838095Y-39800000D01*
X108914285Y-39876190D01*
X108952380Y-40028571D01*
X108952380Y-40295238D01*
X108914285Y-40447619D01*
X108838095Y-40523809D01*
X108761904Y-40561904D01*
X108609523Y-40561904D01*
X108533333Y-40523809D01*
X108457142Y-40447619D01*
X108419047Y-40295238D01*
X108419047Y-40028571D01*
X108457142Y-39876190D01*
X108533333Y-39800000D01*
X108609523Y-39761904D01*
X109104761Y-39468000D02*
X110019047Y-39468000D01*
X109295238Y-40561904D02*
X109295238Y-39761904D01*
X109561904Y-40333333D01*
X109828571Y-39761904D01*
X109828571Y-40561904D01*
X104771428Y-45068000D02*
X105571428Y-45068000D01*
X105419047Y-46161904D02*
X105152380Y-45780952D01*
X104961904Y-46161904D02*
X104961904Y-45361904D01*
X105266666Y-45361904D01*
X105342857Y-45400000D01*
X105380952Y-45438095D01*
X105419047Y-45514285D01*
X105419047Y-45628571D01*
X105380952Y-45704761D01*
X105342857Y-45742857D01*
X105266666Y-45780952D01*
X104961904Y-45780952D01*
X105571428Y-45068000D02*
X106295238Y-45068000D01*
X105761904Y-45742857D02*
X106028571Y-45742857D01*
X106142857Y-46161904D02*
X105761904Y-46161904D01*
X105761904Y-45361904D01*
X106142857Y-45361904D01*
X106295238Y-45068000D02*
X107057142Y-45068000D01*
X106447619Y-46123809D02*
X106561904Y-46161904D01*
X106752380Y-46161904D01*
X106828571Y-46123809D01*
X106866666Y-46085714D01*
X106904761Y-46009523D01*
X106904761Y-45933333D01*
X106866666Y-45857142D01*
X106828571Y-45819047D01*
X106752380Y-45780952D01*
X106600000Y-45742857D01*
X106523809Y-45704761D01*
X106485714Y-45666666D01*
X106447619Y-45590476D01*
X106447619Y-45514285D01*
X106485714Y-45438095D01*
X106523809Y-45400000D01*
X106600000Y-45361904D01*
X106790476Y-45361904D01*
X106904761Y-45400000D01*
X107057142Y-45068000D02*
X107666666Y-45068000D01*
X107133333Y-45361904D02*
X107590476Y-45361904D01*
X107361904Y-46161904D02*
X107361904Y-45361904D01*
X107666666Y-45068000D02*
X108504761Y-45068000D01*
X108009523Y-45361904D02*
X108161904Y-45361904D01*
X108238095Y-45400000D01*
X108314285Y-45476190D01*
X108352380Y-45628571D01*
X108352380Y-45895238D01*
X108314285Y-46047619D01*
X108238095Y-46123809D01*
X108161904Y-46161904D01*
X108009523Y-46161904D01*
X107933333Y-46123809D01*
X107857142Y-46047619D01*
X107819047Y-45895238D01*
X107819047Y-45628571D01*
X107857142Y-45476190D01*
X107933333Y-45400000D01*
X108009523Y-45361904D01*
X108504761Y-45068000D02*
X109304761Y-45068000D01*
X109152380Y-46161904D02*
X108885714Y-45780952D01*
X108695238Y-46161904D02*
X108695238Y-45361904D01*
X109000000Y-45361904D01*
X109076190Y-45400000D01*
X109114285Y-45438095D01*
X109152380Y-45514285D01*
X109152380Y-45628571D01*
X109114285Y-45704761D01*
X109076190Y-45742857D01*
X109000000Y-45780952D01*
X108695238Y-45780952D01*
X109304761Y-45068000D02*
X110028571Y-45068000D01*
X109495238Y-45742857D02*
X109761904Y-45742857D01*
X109876190Y-46161904D02*
X109495238Y-46161904D01*
X109495238Y-45361904D01*
X109876190Y-45361904D01*
X101692000Y-113148000D02*
X100492000Y-113148000D01*
X100492000Y-111388000D02*
X101692000Y-111388000D01*
X115680000Y-49470000D02*
X110220000Y-49470000D01*
X115680000Y-100390000D02*
X115680000Y-49470000D01*
X102760000Y-100390000D02*
X115680000Y-100390000D01*
X102760000Y-49470000D02*
X102760000Y-100390000D01*
X108220000Y-49470000D02*
X102760000Y-49470000D01*
X110220000Y-49470000D02*
G75*
G02X108220000Y-49470000I-1000000J0D01*
G01*
D12*
X105595000Y-103915000D02*
X104170000Y-103915000D01*
X112845000Y-103690000D02*
X112520000Y-103690000D01*
X112845000Y-110940000D02*
X112520000Y-110940000D01*
X105595000Y-110940000D02*
X105920000Y-110940000D01*
X105595000Y-103690000D02*
X105920000Y-103690000D01*
X105595000Y-110940000D02*
X105595000Y-110615000D01*
X112845000Y-110940000D02*
X112845000Y-110615000D01*
X112845000Y-103690000D02*
X112845000Y-104015000D01*
X105595000Y-103690000D02*
X105595000Y-103915000D01*
D10*
X109005000Y-54110000D02*
X109005000Y-55110000D01*
X110705000Y-55110000D02*
X110705000Y-54110000D01*
X117055000Y-110990000D02*
X117055000Y-109990000D01*
X115355000Y-109990000D02*
X115355000Y-110990000D01*
X102300000Y-114570000D02*
G75*
G02X103000000Y-115270000I0J-700000D01*
G01*
X103000000Y-115870000D02*
G75*
G02X102300000Y-116570000I-700000J0D01*
G01*
X100900000Y-116570000D02*
G75*
G02X100200000Y-115870000I0J700000D01*
G01*
X100200000Y-115270000D02*
G75*
G02X100900000Y-114570000I700000J0D01*
G01*
X100200000Y-115870000D02*
X100200000Y-115270000D01*
X102300000Y-116570000D02*
X100900000Y-116570000D01*
X103000000Y-115270000D02*
X103000000Y-115870000D01*
X100900000Y-114570000D02*
X102300000Y-114570000D01*
X115355000Y-103640000D02*
X115355000Y-104640000D01*
X117055000Y-104640000D02*
X117055000Y-103640000D01*
X101465000Y-105322000D02*
X100465000Y-105322000D01*
X100465000Y-107022000D02*
X101465000Y-107022000D01*
X100465000Y-110070000D02*
X101465000Y-110070000D01*
X101465000Y-108370000D02*
X100465000Y-108370000D01*
X110735000Y-60360000D02*
X110735000Y-61560000D01*
X108975000Y-61560000D02*
X108975000Y-60360000D01*
X114614000Y-114875000D02*
X114614000Y-116205000D01*
X113284000Y-114875000D02*
X114614000Y-114875000D01*
X114614000Y-117475000D02*
X114614000Y-120075000D01*
X112014000Y-117475000D02*
X114614000Y-117475000D01*
X112014000Y-114875000D02*
X112014000Y-117475000D01*
X114614000Y-120075000D02*
X106874000Y-120075000D01*
X112014000Y-114875000D02*
X106874000Y-114875000D01*
X106874000Y-114875000D02*
X106874000Y-120075000D01*
X103438000Y-101286000D02*
X103438000Y-102616000D01*
X102108000Y-101286000D02*
X103438000Y-101286000D01*
X100838000Y-101286000D02*
X100838000Y-103946000D01*
X100838000Y-103946000D02*
X98238000Y-103946000D01*
X100838000Y-101286000D02*
X98238000Y-101286000D01*
X98238000Y-101286000D02*
X98238000Y-103946000D01*
X110755000Y-70645000D02*
X110755000Y-66845000D01*
X108955000Y-70645000D02*
X110755000Y-70645000D01*
X108955000Y-66845000D02*
X108955000Y-70645000D01*
X100704714Y-111105904D02*
X100438047Y-110724952D01*
X100247571Y-111105904D02*
X100247571Y-110305904D01*
X100552333Y-110305904D01*
X100628523Y-110344000D01*
X100666619Y-110382095D01*
X100704714Y-110458285D01*
X100704714Y-110572571D01*
X100666619Y-110648761D01*
X100628523Y-110686857D01*
X100552333Y-110724952D01*
X100247571Y-110724952D01*
X101466619Y-111105904D02*
X101009476Y-111105904D01*
X101238047Y-111105904D02*
X101238047Y-110305904D01*
X101161857Y-110420190D01*
X101085666Y-110496380D01*
X101009476Y-110534476D01*
X101961857Y-110305904D02*
X102038047Y-110305904D01*
X102114238Y-110344000D01*
X102152333Y-110382095D01*
X102190428Y-110458285D01*
X102228523Y-110610666D01*
X102228523Y-110801142D01*
X102190428Y-110953523D01*
X102152333Y-111029714D01*
X102114238Y-111067809D01*
X102038047Y-111105904D01*
X101961857Y-111105904D01*
X101885666Y-111067809D01*
X101847571Y-111029714D01*
X101809476Y-110953523D01*
X101771380Y-110801142D01*
X101771380Y-110610666D01*
X101809476Y-110458285D01*
X101847571Y-110382095D01*
X101885666Y-110344000D01*
X101961857Y-110305904D01*
D12*
X109478571Y-90257142D02*
X107978571Y-90257142D01*
X109050000Y-89757142D01*
X107978571Y-89257142D01*
X109478571Y-89257142D01*
X107978571Y-88257142D02*
X107978571Y-87971428D01*
X108050000Y-87828571D01*
X108192857Y-87685714D01*
X108478571Y-87614285D01*
X108978571Y-87614285D01*
X109264285Y-87685714D01*
X109407142Y-87828571D01*
X109478571Y-87971428D01*
X109478571Y-88257142D01*
X109407142Y-88400000D01*
X109264285Y-88542857D01*
X108978571Y-88614285D01*
X108478571Y-88614285D01*
X108192857Y-88542857D01*
X108050000Y-88400000D01*
X107978571Y-88257142D01*
X109407142Y-87042857D02*
X109478571Y-86828571D01*
X109478571Y-86471428D01*
X109407142Y-86328571D01*
X109335714Y-86257142D01*
X109192857Y-86185714D01*
X109050000Y-86185714D01*
X108907142Y-86257142D01*
X108835714Y-86328571D01*
X108764285Y-86471428D01*
X108692857Y-86757142D01*
X108621428Y-86900000D01*
X108550000Y-86971428D01*
X108407142Y-87042857D01*
X108264285Y-87042857D01*
X108121428Y-86971428D01*
X108050000Y-86900000D01*
X107978571Y-86757142D01*
X107978571Y-86400000D01*
X108050000Y-86185714D01*
X107978571Y-84900000D02*
X107978571Y-85185714D01*
X108050000Y-85328571D01*
X108121428Y-85400000D01*
X108335714Y-85542857D01*
X108621428Y-85614285D01*
X109192857Y-85614285D01*
X109335714Y-85542857D01*
X109407142Y-85471428D01*
X109478571Y-85328571D01*
X109478571Y-85042857D01*
X109407142Y-84900000D01*
X109335714Y-84828571D01*
X109192857Y-84757142D01*
X108835714Y-84757142D01*
X108692857Y-84828571D01*
X108621428Y-84900000D01*
X108550000Y-85042857D01*
X108550000Y-85328571D01*
X108621428Y-85471428D01*
X108692857Y-85542857D01*
X108835714Y-85614285D01*
X107978571Y-83400000D02*
X107978571Y-84114285D01*
X108692857Y-84185714D01*
X108621428Y-84114285D01*
X108550000Y-83971428D01*
X108550000Y-83614285D01*
X108621428Y-83471428D01*
X108692857Y-83400000D01*
X108835714Y-83328571D01*
X109192857Y-83328571D01*
X109335714Y-83400000D01*
X109407142Y-83471428D01*
X109478571Y-83614285D01*
X109478571Y-83971428D01*
X109407142Y-84114285D01*
X109335714Y-84185714D01*
X108121428Y-82757142D02*
X108050000Y-82685714D01*
X107978571Y-82542857D01*
X107978571Y-82185714D01*
X108050000Y-82042857D01*
X108121428Y-81971428D01*
X108264285Y-81900000D01*
X108407142Y-81900000D01*
X108621428Y-81971428D01*
X109478571Y-82828571D01*
X109478571Y-81900000D01*
X107978571Y-80614285D02*
X107978571Y-80900000D01*
X108050000Y-81042857D01*
X108121428Y-81114285D01*
X108335714Y-81257142D01*
X108621428Y-81328571D01*
X109192857Y-81328571D01*
X109335714Y-81257142D01*
X109407142Y-81185714D01*
X109478571Y-81042857D01*
X109478571Y-80757142D01*
X109407142Y-80614285D01*
X109335714Y-80542857D01*
X109192857Y-80471428D01*
X108835714Y-80471428D01*
X108692857Y-80542857D01*
X108621428Y-80614285D01*
X108550000Y-80757142D01*
X108550000Y-81042857D01*
X108621428Y-81185714D01*
X108692857Y-81257142D01*
X108835714Y-81328571D01*
D10*
X108610476Y-106749904D02*
X108610476Y-107397523D01*
X108648571Y-107473714D01*
X108686666Y-107511809D01*
X108762857Y-107549904D01*
X108915238Y-107549904D01*
X108991428Y-107511809D01*
X109029523Y-107473714D01*
X109067619Y-107397523D01*
X109067619Y-106749904D01*
X109867619Y-107549904D02*
X109410476Y-107549904D01*
X109639047Y-107549904D02*
X109639047Y-106749904D01*
X109562857Y-106864190D01*
X109486666Y-106940380D01*
X109410476Y-106978476D01*
X108685714Y-54733333D02*
X108723809Y-54771428D01*
X108761904Y-54885714D01*
X108761904Y-54961904D01*
X108723809Y-55076190D01*
X108647619Y-55152380D01*
X108571428Y-55190476D01*
X108419047Y-55228571D01*
X108304761Y-55228571D01*
X108152380Y-55190476D01*
X108076190Y-55152380D01*
X108000000Y-55076190D01*
X107961904Y-54961904D01*
X107961904Y-54885714D01*
X108000000Y-54771428D01*
X108038095Y-54733333D01*
X107961904Y-54466666D02*
X107961904Y-53933333D01*
X108761904Y-54276190D01*
X111761904Y-55838095D02*
X111761904Y-56295238D01*
X111761904Y-56066666D02*
X110961904Y-56066666D01*
X111076190Y-56142857D01*
X111152380Y-56219047D01*
X111190476Y-56295238D01*
X110961904Y-55342857D02*
X110961904Y-55266666D01*
X111000000Y-55190476D01*
X111038095Y-55152380D01*
X111114285Y-55114285D01*
X111266666Y-55076190D01*
X111457142Y-55076190D01*
X111609523Y-55114285D01*
X111685714Y-55152380D01*
X111723809Y-55190476D01*
X111761904Y-55266666D01*
X111761904Y-55342857D01*
X111723809Y-55419047D01*
X111685714Y-55457142D01*
X111609523Y-55495238D01*
X111457142Y-55533333D01*
X111266666Y-55533333D01*
X111114285Y-55495238D01*
X111038095Y-55457142D01*
X111000000Y-55419047D01*
X110961904Y-55342857D01*
X110961904Y-54580952D02*
X110961904Y-54504761D01*
X111000000Y-54428571D01*
X111038095Y-54390476D01*
X111114285Y-54352380D01*
X111266666Y-54314285D01*
X111457142Y-54314285D01*
X111609523Y-54352380D01*
X111685714Y-54390476D01*
X111723809Y-54428571D01*
X111761904Y-54504761D01*
X111761904Y-54580952D01*
X111723809Y-54657142D01*
X111685714Y-54695238D01*
X111609523Y-54733333D01*
X111457142Y-54771428D01*
X111266666Y-54771428D01*
X111114285Y-54733333D01*
X111038095Y-54695238D01*
X111000000Y-54657142D01*
X110961904Y-54580952D01*
X111228571Y-53971428D02*
X111761904Y-53971428D01*
X111304761Y-53971428D02*
X111266666Y-53933333D01*
X111228571Y-53857142D01*
X111228571Y-53742857D01*
X111266666Y-53666666D01*
X111342857Y-53628571D01*
X111761904Y-53628571D01*
X111342857Y-52980952D02*
X111342857Y-53247619D01*
X111761904Y-53247619D02*
X110961904Y-53247619D01*
X110961904Y-52866666D01*
X116071666Y-107981714D02*
X116033571Y-108019809D01*
X115919285Y-108057904D01*
X115843095Y-108057904D01*
X115728809Y-108019809D01*
X115652619Y-107943619D01*
X115614523Y-107867428D01*
X115576428Y-107715047D01*
X115576428Y-107600761D01*
X115614523Y-107448380D01*
X115652619Y-107372190D01*
X115728809Y-107296000D01*
X115843095Y-107257904D01*
X115919285Y-107257904D01*
X116033571Y-107296000D01*
X116071666Y-107334095D01*
X116757380Y-107257904D02*
X116605000Y-107257904D01*
X116528809Y-107296000D01*
X116490714Y-107334095D01*
X116414523Y-107448380D01*
X116376428Y-107600761D01*
X116376428Y-107905523D01*
X116414523Y-107981714D01*
X116452619Y-108019809D01*
X116528809Y-108057904D01*
X116681190Y-108057904D01*
X116757380Y-108019809D01*
X116795476Y-107981714D01*
X116833571Y-107905523D01*
X116833571Y-107715047D01*
X116795476Y-107638857D01*
X116757380Y-107600761D01*
X116681190Y-107562666D01*
X116528809Y-107562666D01*
X116452619Y-107600761D01*
X116414523Y-107638857D01*
X116376428Y-107715047D01*
X98333333Y-115131904D02*
X98333333Y-115703333D01*
X98295238Y-115817619D01*
X98219047Y-115893809D01*
X98104761Y-115931904D01*
X98028571Y-115931904D01*
X98714285Y-115931904D02*
X98714285Y-115131904D01*
X99019047Y-115131904D01*
X99095238Y-115170000D01*
X99133333Y-115208095D01*
X99171428Y-115284285D01*
X99171428Y-115398571D01*
X99133333Y-115474761D01*
X99095238Y-115512857D01*
X99019047Y-115550952D01*
X98714285Y-115550952D01*
X99933333Y-115931904D02*
X99476190Y-115931904D01*
X99704761Y-115931904D02*
X99704761Y-115131904D01*
X99628571Y-115246190D01*
X99552380Y-115322380D01*
X99476190Y-115360476D01*
X116071666Y-101685714D02*
X116033571Y-101723809D01*
X115919285Y-101761904D01*
X115843095Y-101761904D01*
X115728809Y-101723809D01*
X115652619Y-101647619D01*
X115614523Y-101571428D01*
X115576428Y-101419047D01*
X115576428Y-101304761D01*
X115614523Y-101152380D01*
X115652619Y-101076190D01*
X115728809Y-101000000D01*
X115843095Y-100961904D01*
X115919285Y-100961904D01*
X116033571Y-101000000D01*
X116071666Y-101038095D01*
X116833571Y-101761904D02*
X116376428Y-101761904D01*
X116605000Y-101761904D02*
X116605000Y-100961904D01*
X116528809Y-101076190D01*
X116452619Y-101152380D01*
X116376428Y-101190476D01*
X100958666Y-105187714D02*
X100920571Y-105225809D01*
X100806285Y-105263904D01*
X100730095Y-105263904D01*
X100615809Y-105225809D01*
X100539619Y-105149619D01*
X100501523Y-105073428D01*
X100463428Y-104921047D01*
X100463428Y-104806761D01*
X100501523Y-104654380D01*
X100539619Y-104578190D01*
X100615809Y-104502000D01*
X100730095Y-104463904D01*
X100806285Y-104463904D01*
X100920571Y-104502000D01*
X100958666Y-104540095D01*
X101263428Y-104540095D02*
X101301523Y-104502000D01*
X101377714Y-104463904D01*
X101568190Y-104463904D01*
X101644380Y-104502000D01*
X101682476Y-104540095D01*
X101720571Y-104616285D01*
X101720571Y-104692476D01*
X101682476Y-104806761D01*
X101225333Y-105263904D01*
X101720571Y-105263904D01*
X100958666Y-108108714D02*
X100920571Y-108146809D01*
X100806285Y-108184904D01*
X100730095Y-108184904D01*
X100615809Y-108146809D01*
X100539619Y-108070619D01*
X100501523Y-107994428D01*
X100463428Y-107842047D01*
X100463428Y-107727761D01*
X100501523Y-107575380D01*
X100539619Y-107499190D01*
X100615809Y-107423000D01*
X100730095Y-107384904D01*
X100806285Y-107384904D01*
X100920571Y-107423000D01*
X100958666Y-107461095D01*
X101225333Y-107384904D02*
X101720571Y-107384904D01*
X101453904Y-107689666D01*
X101568190Y-107689666D01*
X101644380Y-107727761D01*
X101682476Y-107765857D01*
X101720571Y-107842047D01*
X101720571Y-108032523D01*
X101682476Y-108108714D01*
X101644380Y-108146809D01*
X101568190Y-108184904D01*
X101339619Y-108184904D01*
X101263428Y-108146809D01*
X101225333Y-108108714D01*
X108761904Y-61093333D02*
X108380952Y-61360000D01*
X108761904Y-61550476D02*
X107961904Y-61550476D01*
X107961904Y-61245714D01*
X108000000Y-61169523D01*
X108038095Y-61131428D01*
X108114285Y-61093333D01*
X108228571Y-61093333D01*
X108304761Y-61131428D01*
X108342857Y-61169523D01*
X108380952Y-61245714D01*
X108380952Y-61550476D01*
X108761904Y-60331428D02*
X108761904Y-60788571D01*
X108761904Y-60560000D02*
X107961904Y-60560000D01*
X108076190Y-60636190D01*
X108152380Y-60712380D01*
X108190476Y-60788571D01*
X111761904Y-61512380D02*
X111761904Y-61969523D01*
X111761904Y-61740952D02*
X110961904Y-61740952D01*
X111076190Y-61817142D01*
X111152380Y-61893333D01*
X111190476Y-61969523D01*
X110961904Y-61017142D02*
X110961904Y-60940952D01*
X111000000Y-60864761D01*
X111038095Y-60826666D01*
X111114285Y-60788571D01*
X111266666Y-60750476D01*
X111457142Y-60750476D01*
X111609523Y-60788571D01*
X111685714Y-60826666D01*
X111723809Y-60864761D01*
X111761904Y-60940952D01*
X111761904Y-61017142D01*
X111723809Y-61093333D01*
X111685714Y-61131428D01*
X111609523Y-61169523D01*
X111457142Y-61207619D01*
X111266666Y-61207619D01*
X111114285Y-61169523D01*
X111038095Y-61131428D01*
X111000000Y-61093333D01*
X110961904Y-61017142D01*
X111761904Y-60407619D02*
X110961904Y-60407619D01*
X111761904Y-59950476D02*
X111304761Y-60293333D01*
X110961904Y-59950476D02*
X111419047Y-60407619D01*
X102133333Y-117961904D02*
X102133333Y-118533333D01*
X102095238Y-118647619D01*
X102019047Y-118723809D01*
X101904761Y-118761904D01*
X101828571Y-118761904D01*
X102476190Y-118038095D02*
X102514285Y-118000000D01*
X102590476Y-117961904D01*
X102780952Y-117961904D01*
X102857142Y-118000000D01*
X102895238Y-118038095D01*
X102933333Y-118114285D01*
X102933333Y-118190476D01*
X102895238Y-118304761D01*
X102438095Y-118761904D01*
X102933333Y-118761904D01*
X100619047Y-119961904D02*
X100619047Y-119161904D01*
X101457142Y-119885714D02*
X101419047Y-119923809D01*
X101304761Y-119961904D01*
X101228571Y-119961904D01*
X101114285Y-119923809D01*
X101038095Y-119847619D01*
X101000000Y-119771428D01*
X100961904Y-119619047D01*
X100961904Y-119504761D01*
X101000000Y-119352380D01*
X101038095Y-119276190D01*
X101114285Y-119200000D01*
X101228571Y-119161904D01*
X101304761Y-119161904D01*
X101419047Y-119200000D01*
X101457142Y-119238095D01*
X101761904Y-119923809D02*
X101876190Y-119961904D01*
X102066666Y-119961904D01*
X102142857Y-119923809D01*
X102180952Y-119885714D01*
X102219047Y-119809523D01*
X102219047Y-119733333D01*
X102180952Y-119657142D01*
X102142857Y-119619047D01*
X102066666Y-119580952D01*
X101914285Y-119542857D01*
X101838095Y-119504761D01*
X101800000Y-119466666D01*
X101761904Y-119390476D01*
X101761904Y-119314285D01*
X101800000Y-119238095D01*
X101838095Y-119200000D01*
X101914285Y-119161904D01*
X102104761Y-119161904D01*
X102219047Y-119200000D01*
X102561904Y-119961904D02*
X102561904Y-119161904D01*
X102866666Y-119161904D01*
X102942857Y-119200000D01*
X102980952Y-119238095D01*
X103019047Y-119314285D01*
X103019047Y-119428571D01*
X102980952Y-119504761D01*
X102942857Y-119542857D01*
X102866666Y-119580952D01*
X102561904Y-119580952D01*
X104133333Y-100961904D02*
X104133333Y-101533333D01*
X104095238Y-101647619D01*
X104019047Y-101723809D01*
X103904761Y-101761904D01*
X103828571Y-101761904D01*
X104857142Y-100961904D02*
X104704761Y-100961904D01*
X104628571Y-101000000D01*
X104590476Y-101038095D01*
X104514285Y-101152380D01*
X104476190Y-101304761D01*
X104476190Y-101609523D01*
X104514285Y-101685714D01*
X104552380Y-101723809D01*
X104628571Y-101761904D01*
X104780952Y-101761904D01*
X104857142Y-101723809D01*
X104895238Y-101685714D01*
X104933333Y-101609523D01*
X104933333Y-101419047D01*
X104895238Y-101342857D01*
X104857142Y-101304761D01*
X104780952Y-101266666D01*
X104628571Y-101266666D01*
X104552380Y-101304761D01*
X104514285Y-101342857D01*
X104476190Y-101419047D01*
X100219047Y-100428571D02*
X100219047Y-101228571D01*
X100219047Y-100466666D02*
X100295238Y-100428571D01*
X100447619Y-100428571D01*
X100523809Y-100466666D01*
X100561904Y-100504761D01*
X100600000Y-100580952D01*
X100600000Y-100809523D01*
X100561904Y-100885714D01*
X100523809Y-100923809D01*
X100447619Y-100961904D01*
X100295238Y-100961904D01*
X100219047Y-100923809D01*
X100942857Y-100961904D02*
X100942857Y-100428571D01*
X100942857Y-100580952D02*
X100980952Y-100504761D01*
X101019047Y-100466666D01*
X101095238Y-100428571D01*
X101171428Y-100428571D01*
X101780952Y-100428571D02*
X101780952Y-101076190D01*
X101742857Y-101152380D01*
X101704761Y-101190476D01*
X101628571Y-101228571D01*
X101514285Y-101228571D01*
X101438095Y-101190476D01*
X101780952Y-100923809D02*
X101704761Y-100961904D01*
X101552380Y-100961904D01*
X101476190Y-100923809D01*
X101438095Y-100885714D01*
X101400000Y-100809523D01*
X101400000Y-100580952D01*
X101438095Y-100504761D01*
X101476190Y-100466666D01*
X101552380Y-100428571D01*
X101704761Y-100428571D01*
X101780952Y-100466666D01*
D12*
X108707380Y-68683095D02*
X107707380Y-68683095D01*
X107707380Y-68445000D01*
X107755000Y-68302142D01*
X107850238Y-68206904D01*
X107945476Y-68159285D01*
X108135952Y-68111666D01*
X108278809Y-68111666D01*
X108469285Y-68159285D01*
X108564523Y-68206904D01*
X108659761Y-68302142D01*
X108707380Y-68445000D01*
X108707380Y-68683095D01*
X108707380Y-67159285D02*
X108707380Y-67730714D01*
X108707380Y-67445000D02*
X107707380Y-67445000D01*
X107850238Y-67540238D01*
X107945476Y-67635476D01*
X107993095Y-67730714D01*
D10*
X111761904Y-69914285D02*
X111761904Y-70371428D01*
X111761904Y-70142857D02*
X110961904Y-70142857D01*
X111076190Y-70219047D01*
X111152380Y-70295238D01*
X111190476Y-70371428D01*
X111761904Y-69571428D02*
X110961904Y-69571428D01*
X111761904Y-69114285D01*
X110961904Y-69114285D01*
X111228571Y-68390476D02*
X111761904Y-68390476D01*
X110923809Y-68580952D02*
X111495238Y-68771428D01*
X111495238Y-68276190D01*
X111761904Y-67552380D02*
X111761904Y-68009523D01*
X111761904Y-67780952D02*
X110961904Y-67780952D01*
X111076190Y-67857142D01*
X111152380Y-67933333D01*
X111190476Y-68009523D01*
X111228571Y-66866666D02*
X111761904Y-66866666D01*
X110923809Y-67057142D02*
X111495238Y-67247619D01*
X111495238Y-66752380D01*
X111304761Y-66333333D02*
X111266666Y-66409523D01*
X111228571Y-66447619D01*
X111152380Y-66485714D01*
X111114285Y-66485714D01*
X111038095Y-66447619D01*
X111000000Y-66409523D01*
X110961904Y-66333333D01*
X110961904Y-66180952D01*
X111000000Y-66104761D01*
X111038095Y-66066666D01*
X111114285Y-66028571D01*
X111152380Y-66028571D01*
X111228571Y-66066666D01*
X111266666Y-66104761D01*
X111304761Y-66180952D01*
X111304761Y-66333333D01*
X111342857Y-66409523D01*
X111380952Y-66447619D01*
X111457142Y-66485714D01*
X111609523Y-66485714D01*
X111685714Y-66447619D01*
X111723809Y-66409523D01*
X111761904Y-66333333D01*
X111761904Y-66180952D01*
X111723809Y-66104761D01*
X111685714Y-66066666D01*
X111609523Y-66028571D01*
X111457142Y-66028571D01*
X111380952Y-66066666D01*
X111342857Y-66104761D01*
X111304761Y-66180952D01*
X103133333Y-46561904D02*
X103133333Y-47133333D01*
X103095238Y-47247619D01*
X103019047Y-47323809D01*
X102904761Y-47361904D01*
X102828571Y-47361904D01*
X103438095Y-46561904D02*
X103933333Y-46561904D01*
X103666666Y-46866666D01*
X103780952Y-46866666D01*
X103857142Y-46904761D01*
X103895238Y-46942857D01*
X103933333Y-47019047D01*
X103933333Y-47209523D01*
X103895238Y-47285714D01*
X103857142Y-47323809D01*
X103780952Y-47361904D01*
X103552380Y-47361904D01*
X103476190Y-47323809D01*
X103438095Y-47285714D01*
X99209523Y-48961904D02*
X98942857Y-48580952D01*
X98752380Y-48961904D02*
X98752380Y-48161904D01*
X99057142Y-48161904D01*
X99133333Y-48200000D01*
X99171428Y-48238095D01*
X99209523Y-48314285D01*
X99209523Y-48428571D01*
X99171428Y-48504761D01*
X99133333Y-48542857D01*
X99057142Y-48580952D01*
X98752380Y-48580952D01*
X99857142Y-48923809D02*
X99780952Y-48961904D01*
X99628571Y-48961904D01*
X99552380Y-48923809D01*
X99514285Y-48847619D01*
X99514285Y-48542857D01*
X99552380Y-48466666D01*
X99628571Y-48428571D01*
X99780952Y-48428571D01*
X99857142Y-48466666D01*
X99895238Y-48542857D01*
X99895238Y-48619047D01*
X99514285Y-48695238D01*
X100200000Y-48923809D02*
X100276190Y-48961904D01*
X100428571Y-48961904D01*
X100504761Y-48923809D01*
X100542857Y-48847619D01*
X100542857Y-48809523D01*
X100504761Y-48733333D01*
X100428571Y-48695238D01*
X100314285Y-48695238D01*
X100238095Y-48657142D01*
X100200000Y-48580952D01*
X100200000Y-48542857D01*
X100238095Y-48466666D01*
X100314285Y-48428571D01*
X100428571Y-48428571D01*
X100504761Y-48466666D01*
X101190476Y-48923809D02*
X101114285Y-48961904D01*
X100961904Y-48961904D01*
X100885714Y-48923809D01*
X100847619Y-48847619D01*
X100847619Y-48542857D01*
X100885714Y-48466666D01*
X100961904Y-48428571D01*
X101114285Y-48428571D01*
X101190476Y-48466666D01*
X101228571Y-48542857D01*
X101228571Y-48619047D01*
X100847619Y-48695238D01*
X101457142Y-48428571D02*
X101761904Y-48428571D01*
X101571428Y-48161904D02*
X101571428Y-48847619D01*
X101609523Y-48923809D01*
X101685714Y-48961904D01*
X101761904Y-48961904D01*
X112733333Y-47361904D02*
X112733333Y-47933333D01*
X112695238Y-48047619D01*
X112619047Y-48123809D01*
X112504761Y-48161904D01*
X112428571Y-48161904D01*
X113457142Y-47628571D02*
X113457142Y-48161904D01*
X113266666Y-47323809D02*
X113076190Y-47895238D01*
X113571428Y-47895238D01*
X114704761Y-48123809D02*
X114628571Y-48161904D01*
X114476190Y-48161904D01*
X114400000Y-48123809D01*
X114361904Y-48085714D01*
X114323809Y-48009523D01*
X114323809Y-47780952D01*
X114361904Y-47704761D01*
X114400000Y-47666666D01*
X114476190Y-47628571D01*
X114628571Y-47628571D01*
X114704761Y-47666666D01*
X114933333Y-47628571D02*
X115238095Y-47628571D01*
X115047619Y-47361904D02*
X115047619Y-48047619D01*
X115085714Y-48123809D01*
X115161904Y-48161904D01*
X115238095Y-48161904D01*
X115504761Y-48161904D02*
X115504761Y-47628571D01*
X115504761Y-47780952D02*
X115542857Y-47704761D01*
X115580952Y-47666666D01*
X115657142Y-47628571D01*
X115733333Y-47628571D01*
X116114285Y-48161904D02*
X116038095Y-48123809D01*
X116000000Y-48047619D01*
X116000000Y-47361904D01*
%LPC*%
D13*
X99742000Y-112268000D03*
X102442000Y-112268000D03*
D14*
X116840000Y-50800000D03*
X101600000Y-99060000D03*
X116840000Y-53340000D03*
X101600000Y-96520000D03*
X116840000Y-55880000D03*
X101600000Y-93980000D03*
X116840000Y-58420000D03*
X101600000Y-91440000D03*
X116840000Y-60960000D03*
X101600000Y-88900000D03*
X116840000Y-63500000D03*
X101600000Y-86360000D03*
X116840000Y-66040000D03*
X101600000Y-83820000D03*
X116840000Y-68580000D03*
X101600000Y-81280000D03*
X116840000Y-71120000D03*
X101600000Y-78740000D03*
X116840000Y-73660000D03*
X101600000Y-76200000D03*
X116840000Y-76200000D03*
X101600000Y-73660000D03*
X116840000Y-78740000D03*
X101600000Y-71120000D03*
X116840000Y-81280000D03*
X101600000Y-68580000D03*
X116840000Y-83820000D03*
X101600000Y-66040000D03*
X116840000Y-86360000D03*
X101600000Y-63500000D03*
X116840000Y-88900000D03*
X101600000Y-60960000D03*
X116840000Y-91440000D03*
X101600000Y-58420000D03*
X116840000Y-93980000D03*
X101600000Y-55880000D03*
X116840000Y-96520000D03*
X101600000Y-53340000D03*
X116840000Y-99060000D03*
D15*
X101600000Y-50800000D03*
D16*
X106420000Y-103065000D03*
X107220000Y-103065000D03*
X108020000Y-103065000D03*
X108820000Y-103065000D03*
X109620000Y-103065000D03*
X110420000Y-103065000D03*
X111220000Y-103065000D03*
X112020000Y-103065000D03*
D17*
X113470000Y-104515000D03*
X113470000Y-105315000D03*
X113470000Y-106115000D03*
X113470000Y-106915000D03*
X113470000Y-107715000D03*
X113470000Y-108515000D03*
X113470000Y-109315000D03*
X113470000Y-110115000D03*
D16*
X112020000Y-111565000D03*
X111220000Y-111565000D03*
X110420000Y-111565000D03*
X109620000Y-111565000D03*
X108820000Y-111565000D03*
X108020000Y-111565000D03*
X107220000Y-111565000D03*
X106420000Y-111565000D03*
D17*
X104970000Y-110115000D03*
X104970000Y-109315000D03*
X104970000Y-108515000D03*
X104970000Y-107715000D03*
X104970000Y-106915000D03*
X104970000Y-106115000D03*
X104970000Y-105315000D03*
X104970000Y-104515000D03*
D18*
X109855000Y-55860000D03*
X109855000Y-53360000D03*
X116205000Y-109240000D03*
X116205000Y-111740000D03*
D19*
G36*
X101459950Y-114769980D02*
G01*
X101469517Y-114772882D01*
X101478334Y-114777595D01*
X101486062Y-114783938D01*
X101492405Y-114791666D01*
X101497118Y-114800483D01*
X101500020Y-114810050D01*
X101501000Y-114820000D01*
X101501000Y-116320000D01*
X101500020Y-116329950D01*
X101497118Y-116339517D01*
X101492405Y-116348334D01*
X101486062Y-116356062D01*
X101478334Y-116362405D01*
X101469517Y-116367118D01*
X101459950Y-116370020D01*
X101450000Y-116371000D01*
X100950000Y-116371000D01*
X100943888Y-116370398D01*
X100925466Y-116370398D01*
X100920467Y-116370152D01*
X100871636Y-116365342D01*
X100866686Y-116364608D01*
X100818561Y-116355036D01*
X100813705Y-116353820D01*
X100766750Y-116339576D01*
X100762039Y-116337890D01*
X100716706Y-116319113D01*
X100712180Y-116316973D01*
X100668907Y-116293842D01*
X100664616Y-116291269D01*
X100623817Y-116264009D01*
X100619796Y-116261027D01*
X100581867Y-116229899D01*
X100578159Y-116226538D01*
X100543462Y-116191841D01*
X100540101Y-116188133D01*
X100508973Y-116150204D01*
X100505991Y-116146183D01*
X100478731Y-116105384D01*
X100476158Y-116101093D01*
X100453027Y-116057820D01*
X100450887Y-116053294D01*
X100432110Y-116007961D01*
X100430424Y-116003250D01*
X100416180Y-115956295D01*
X100414964Y-115951439D01*
X100405392Y-115903314D01*
X100404658Y-115898364D01*
X100399848Y-115849533D01*
X100399602Y-115844534D01*
X100399602Y-115826112D01*
X100399000Y-115820000D01*
X100399000Y-115320000D01*
X100399602Y-115313888D01*
X100399602Y-115295466D01*
X100399848Y-115290467D01*
X100404658Y-115241636D01*
X100405392Y-115236686D01*
X100414964Y-115188561D01*
X100416180Y-115183705D01*
X100430424Y-115136750D01*
X100432110Y-115132039D01*
X100450887Y-115086706D01*
X100453027Y-115082180D01*
X100476158Y-115038907D01*
X100478731Y-115034616D01*
X100505991Y-114993817D01*
X100508973Y-114989796D01*
X100540101Y-114951867D01*
X100543462Y-114948159D01*
X100578159Y-114913462D01*
X100581867Y-114910101D01*
X100619796Y-114878973D01*
X100623817Y-114875991D01*
X100664616Y-114848731D01*
X100668907Y-114846158D01*
X100712180Y-114823027D01*
X100716706Y-114820887D01*
X100762039Y-114802110D01*
X100766750Y-114800424D01*
X100813705Y-114786180D01*
X100818561Y-114784964D01*
X100866686Y-114775392D01*
X100871636Y-114774658D01*
X100920467Y-114769848D01*
X100925466Y-114769602D01*
X100943888Y-114769602D01*
X100950000Y-114769000D01*
X101450000Y-114769000D01*
X101459950Y-114769980D01*
G37*
G36*
X102256112Y-114769602D02*
G01*
X102274534Y-114769602D01*
X102279533Y-114769848D01*
X102328364Y-114774658D01*
X102333314Y-114775392D01*
X102381439Y-114784964D01*
X102386295Y-114786180D01*
X102433250Y-114800424D01*
X102437961Y-114802110D01*
X102483294Y-114820887D01*
X102487820Y-114823027D01*
X102531093Y-114846158D01*
X102535384Y-114848731D01*
X102576183Y-114875991D01*
X102580204Y-114878973D01*
X102618133Y-114910101D01*
X102621841Y-114913462D01*
X102656538Y-114948159D01*
X102659899Y-114951867D01*
X102691027Y-114989796D01*
X102694009Y-114993817D01*
X102721269Y-115034616D01*
X102723842Y-115038907D01*
X102746973Y-115082180D01*
X102749113Y-115086706D01*
X102767890Y-115132039D01*
X102769576Y-115136750D01*
X102783820Y-115183705D01*
X102785036Y-115188561D01*
X102794608Y-115236686D01*
X102795342Y-115241636D01*
X102800152Y-115290467D01*
X102800398Y-115295466D01*
X102800398Y-115313888D01*
X102801000Y-115320000D01*
X102801000Y-115820000D01*
X102800398Y-115826112D01*
X102800398Y-115844534D01*
X102800152Y-115849533D01*
X102795342Y-115898364D01*
X102794608Y-115903314D01*
X102785036Y-115951439D01*
X102783820Y-115956295D01*
X102769576Y-116003250D01*
X102767890Y-116007961D01*
X102749113Y-116053294D01*
X102746973Y-116057820D01*
X102723842Y-116101093D01*
X102721269Y-116105384D01*
X102694009Y-116146183D01*
X102691027Y-116150204D01*
X102659899Y-116188133D01*
X102656538Y-116191841D01*
X102621841Y-116226538D01*
X102618133Y-116229899D01*
X102580204Y-116261027D01*
X102576183Y-116264009D01*
X102535384Y-116291269D01*
X102531093Y-116293842D01*
X102487820Y-116316973D01*
X102483294Y-116319113D01*
X102437961Y-116337890D01*
X102433250Y-116339576D01*
X102386295Y-116353820D01*
X102381439Y-116355036D01*
X102333314Y-116364608D01*
X102328364Y-116365342D01*
X102279533Y-116370152D01*
X102274534Y-116370398D01*
X102256112Y-116370398D01*
X102250000Y-116371000D01*
X101750000Y-116371000D01*
X101740050Y-116370020D01*
X101730483Y-116367118D01*
X101721666Y-116362405D01*
X101713938Y-116356062D01*
X101707595Y-116348334D01*
X101702882Y-116339517D01*
X101699980Y-116329950D01*
X101699000Y-116320000D01*
X101699000Y-114820000D01*
X101699980Y-114810050D01*
X101702882Y-114800483D01*
X101707595Y-114791666D01*
X101713938Y-114783938D01*
X101721666Y-114777595D01*
X101730483Y-114772882D01*
X101740050Y-114769980D01*
X101750000Y-114769000D01*
X102250000Y-114769000D01*
X102256112Y-114769602D01*
G37*
D18*
X116205000Y-105390000D03*
X116205000Y-102890000D03*
D20*
X99715000Y-106172000D03*
X102215000Y-106172000D03*
X102215000Y-109220000D03*
X99715000Y-109220000D03*
D21*
X109855000Y-62310000D03*
X109855000Y-59610000D03*
D22*
X108204000Y-118745000D03*
X108204000Y-116205000D03*
X110744000Y-118745000D03*
X110744000Y-116205000D03*
X113284000Y-118745000D03*
D23*
X113284000Y-116205000D03*
D22*
X99568000Y-102616000D03*
D23*
X102108000Y-102616000D03*
D24*
X109855000Y-66495000D03*
X109855000Y-69395000D03*
D23*
X99060000Y-46990000D03*
D22*
X101600000Y-46990000D03*
D23*
X113030000Y-38100000D03*
D22*
X115570000Y-38100000D03*
X113030000Y-40640000D03*
X115570000Y-40640000D03*
X113030000Y-43180000D03*
X115570000Y-43180000D03*
X113030000Y-45720000D03*
X115570000Y-45720000D03*
D25*
X114300000Y-50800000D03*
X99060000Y-99060000D03*
X114300000Y-53340000D03*
X99060000Y-96520000D03*
X114300000Y-55880000D03*
X99060000Y-93980000D03*
X114300000Y-58420000D03*
X99060000Y-91440000D03*
X114300000Y-60960000D03*
X99060000Y-88900000D03*
X114300000Y-63500000D03*
X99060000Y-86360000D03*
X114300000Y-66040000D03*
X99060000Y-83820000D03*
X114300000Y-68580000D03*
X99060000Y-81280000D03*
X114300000Y-71120000D03*
X99060000Y-78740000D03*
X114300000Y-73660000D03*
X99060000Y-76200000D03*
X114300000Y-76200000D03*
X99060000Y-73660000D03*
X114300000Y-78740000D03*
X99060000Y-71120000D03*
X114300000Y-81280000D03*
X99060000Y-68580000D03*
X114300000Y-83820000D03*
X99060000Y-66040000D03*
X114300000Y-86360000D03*
X99060000Y-63500000D03*
X114300000Y-88900000D03*
X99060000Y-60960000D03*
X114300000Y-91440000D03*
X99060000Y-58420000D03*
X114300000Y-93980000D03*
X99060000Y-55880000D03*
X114300000Y-96520000D03*
X99060000Y-53340000D03*
X114300000Y-99060000D03*
D15*
X99060000Y-50800000D03*
M02*
