G04 #@! TF.GenerationSoftware,KiCad,Pcbnew,(5.1.5-0-10_14)*
G04 #@! TF.CreationDate,2021-04-25T17:09:50+02:00*
G04 #@! TF.ProjectId,6526KernalSwitcher,36353236-4b65-4726-9e61-6c5377697463,3.0*
G04 #@! TF.SameCoordinates,Original*
G04 #@! TF.FileFunction,Copper,L1,Top*
G04 #@! TF.FilePolarity,Positive*
%FSLAX46Y46*%
G04 Gerber Fmt 4.6, Leading zero omitted, Abs format (unit mm)*
G04 Created by KiCad (PCBNEW (5.1.5-0-10_14)) date 2021-04-25 17:09:50*
%MOMM*%
%LPD*%
G04 APERTURE LIST*
%ADD10R,1.500000X1.300000*%
%ADD11O,1.600000X1.600000*%
%ADD12R,1.600000X1.600000*%
%ADD13R,0.550000X1.600000*%
%ADD14R,1.600000X0.550000*%
%ADD15R,1.250000X1.500000*%
%ADD16C,0.100000*%
%ADD17R,1.500000X1.250000*%
%ADD18R,1.300000X1.500000*%
%ADD19O,1.700000X1.700000*%
%ADD20R,1.700000X1.700000*%
%ADD21R,1.500000X2.200000*%
%ADD22C,1.600000*%
%ADD23C,0.350000*%
%ADD24C,1.500000*%
%ADD25C,1.270000*%
%ADD26C,0.508000*%
%ADD27C,0.254000*%
%ADD28C,0.250000*%
%ADD29C,0.539000*%
G04 APERTURE END LIST*
D10*
X99742000Y-112268000D03*
X102442000Y-112268000D03*
D11*
X116840000Y-50800000D03*
X101600000Y-99060000D03*
X116840000Y-53340000D03*
X101600000Y-96520000D03*
X116840000Y-55880000D03*
X101600000Y-93980000D03*
X116840000Y-58420000D03*
X101600000Y-91440000D03*
X116840000Y-60960000D03*
X101600000Y-88900000D03*
X116840000Y-63500000D03*
X101600000Y-86360000D03*
X116840000Y-66040000D03*
X101600000Y-83820000D03*
X116840000Y-68580000D03*
X101600000Y-81280000D03*
X116840000Y-71120000D03*
X101600000Y-78740000D03*
X116840000Y-73660000D03*
X101600000Y-76200000D03*
X116840000Y-76200000D03*
X101600000Y-73660000D03*
X116840000Y-78740000D03*
X101600000Y-71120000D03*
X116840000Y-81280000D03*
X101600000Y-68580000D03*
X116840000Y-83820000D03*
X101600000Y-66040000D03*
X116840000Y-86360000D03*
X101600000Y-63500000D03*
X116840000Y-88900000D03*
X101600000Y-60960000D03*
X116840000Y-91440000D03*
X101600000Y-58420000D03*
X116840000Y-93980000D03*
X101600000Y-55880000D03*
X116840000Y-96520000D03*
X101600000Y-53340000D03*
X116840000Y-99060000D03*
D12*
X101600000Y-50800000D03*
D13*
X106420000Y-103065000D03*
X107220000Y-103065000D03*
X108020000Y-103065000D03*
X108820000Y-103065000D03*
X109620000Y-103065000D03*
X110420000Y-103065000D03*
X111220000Y-103065000D03*
X112020000Y-103065000D03*
D14*
X113470000Y-104515000D03*
X113470000Y-105315000D03*
X113470000Y-106115000D03*
X113470000Y-106915000D03*
X113470000Y-107715000D03*
X113470000Y-108515000D03*
X113470000Y-109315000D03*
X113470000Y-110115000D03*
D13*
X112020000Y-111565000D03*
X111220000Y-111565000D03*
X110420000Y-111565000D03*
X109620000Y-111565000D03*
X108820000Y-111565000D03*
X108020000Y-111565000D03*
X107220000Y-111565000D03*
X106420000Y-111565000D03*
D14*
X104970000Y-110115000D03*
X104970000Y-109315000D03*
X104970000Y-108515000D03*
X104970000Y-107715000D03*
X104970000Y-106915000D03*
X104970000Y-106115000D03*
X104970000Y-105315000D03*
X104970000Y-104515000D03*
D15*
X109855000Y-55860000D03*
X109855000Y-53360000D03*
X116205000Y-109240000D03*
X116205000Y-111740000D03*
G04 #@! TA.AperFunction,SMDPad,CuDef*
D16*
G36*
X101450000Y-116320000D02*
G01*
X100950000Y-116320000D01*
X100950000Y-116319398D01*
X100925466Y-116319398D01*
X100876635Y-116314588D01*
X100828510Y-116305016D01*
X100781555Y-116290772D01*
X100736222Y-116271995D01*
X100692949Y-116248864D01*
X100652150Y-116221604D01*
X100614221Y-116190476D01*
X100579524Y-116155779D01*
X100548396Y-116117850D01*
X100521136Y-116077051D01*
X100498005Y-116033778D01*
X100479228Y-115988445D01*
X100464984Y-115941490D01*
X100455412Y-115893365D01*
X100450602Y-115844534D01*
X100450602Y-115820000D01*
X100450000Y-115820000D01*
X100450000Y-115320000D01*
X100450602Y-115320000D01*
X100450602Y-115295466D01*
X100455412Y-115246635D01*
X100464984Y-115198510D01*
X100479228Y-115151555D01*
X100498005Y-115106222D01*
X100521136Y-115062949D01*
X100548396Y-115022150D01*
X100579524Y-114984221D01*
X100614221Y-114949524D01*
X100652150Y-114918396D01*
X100692949Y-114891136D01*
X100736222Y-114868005D01*
X100781555Y-114849228D01*
X100828510Y-114834984D01*
X100876635Y-114825412D01*
X100925466Y-114820602D01*
X100950000Y-114820602D01*
X100950000Y-114820000D01*
X101450000Y-114820000D01*
X101450000Y-116320000D01*
G37*
G04 #@! TD.AperFunction*
G04 #@! TA.AperFunction,SMDPad,CuDef*
G36*
X102250000Y-114820602D02*
G01*
X102274534Y-114820602D01*
X102323365Y-114825412D01*
X102371490Y-114834984D01*
X102418445Y-114849228D01*
X102463778Y-114868005D01*
X102507051Y-114891136D01*
X102547850Y-114918396D01*
X102585779Y-114949524D01*
X102620476Y-114984221D01*
X102651604Y-115022150D01*
X102678864Y-115062949D01*
X102701995Y-115106222D01*
X102720772Y-115151555D01*
X102735016Y-115198510D01*
X102744588Y-115246635D01*
X102749398Y-115295466D01*
X102749398Y-115320000D01*
X102750000Y-115320000D01*
X102750000Y-115820000D01*
X102749398Y-115820000D01*
X102749398Y-115844534D01*
X102744588Y-115893365D01*
X102735016Y-115941490D01*
X102720772Y-115988445D01*
X102701995Y-116033778D01*
X102678864Y-116077051D01*
X102651604Y-116117850D01*
X102620476Y-116155779D01*
X102585779Y-116190476D01*
X102547850Y-116221604D01*
X102507051Y-116248864D01*
X102463778Y-116271995D01*
X102418445Y-116290772D01*
X102371490Y-116305016D01*
X102323365Y-116314588D01*
X102274534Y-116319398D01*
X102250000Y-116319398D01*
X102250000Y-116320000D01*
X101750000Y-116320000D01*
X101750000Y-114820000D01*
X102250000Y-114820000D01*
X102250000Y-114820602D01*
G37*
G04 #@! TD.AperFunction*
D15*
X116205000Y-105390000D03*
X116205000Y-102890000D03*
D17*
X99715000Y-106172000D03*
X102215000Y-106172000D03*
X102215000Y-109220000D03*
X99715000Y-109220000D03*
D18*
X109855000Y-62310000D03*
X109855000Y-59610000D03*
D19*
X108204000Y-118745000D03*
X108204000Y-116205000D03*
X110744000Y-118745000D03*
X110744000Y-116205000D03*
X113284000Y-118745000D03*
D20*
X113284000Y-116205000D03*
D19*
X99568000Y-102616000D03*
D20*
X102108000Y-102616000D03*
D21*
X109855000Y-66495000D03*
X109855000Y-69395000D03*
D20*
X99060000Y-46990000D03*
D19*
X101600000Y-46990000D03*
D20*
X113030000Y-38100000D03*
D19*
X115570000Y-38100000D03*
X113030000Y-40640000D03*
X115570000Y-40640000D03*
X113030000Y-43180000D03*
X115570000Y-43180000D03*
X113030000Y-45720000D03*
X115570000Y-45720000D03*
D22*
X114300000Y-50800000D03*
X99060000Y-99060000D03*
X114300000Y-53340000D03*
X99060000Y-96520000D03*
X114300000Y-55880000D03*
X99060000Y-93980000D03*
X114300000Y-58420000D03*
X99060000Y-91440000D03*
X114300000Y-60960000D03*
X99060000Y-88900000D03*
X114300000Y-63500000D03*
X99060000Y-86360000D03*
X114300000Y-66040000D03*
X99060000Y-83820000D03*
X114300000Y-68580000D03*
X99060000Y-81280000D03*
X114300000Y-71120000D03*
X99060000Y-78740000D03*
X114300000Y-73660000D03*
X99060000Y-76200000D03*
X114300000Y-76200000D03*
X99060000Y-73660000D03*
X114300000Y-78740000D03*
X99060000Y-71120000D03*
X114300000Y-81280000D03*
X99060000Y-68580000D03*
X114300000Y-83820000D03*
X99060000Y-66040000D03*
X114300000Y-86360000D03*
X99060000Y-63500000D03*
X114300000Y-88900000D03*
X99060000Y-60960000D03*
X114300000Y-91440000D03*
X99060000Y-58420000D03*
X114300000Y-93980000D03*
X99060000Y-55880000D03*
X114300000Y-96520000D03*
X99060000Y-53340000D03*
X114300000Y-99060000D03*
D12*
X99060000Y-50800000D03*
D23*
X116200000Y-107400000D03*
X111200000Y-107600000D03*
X103200000Y-107800000D03*
X107315000Y-105664000D03*
X114800000Y-101200000D03*
X105400000Y-96600000D03*
X104000000Y-102600000D03*
X104775000Y-111760000D03*
X111760000Y-114300000D03*
X116400000Y-119600000D03*
X99695000Y-118745000D03*
X114600000Y-112600000D03*
X109800000Y-48600000D03*
X105410000Y-58420000D03*
X117000000Y-48000000D03*
X100330000Y-38735000D03*
X102250000Y-115570000D03*
X109600000Y-111600000D03*
X109600000Y-111600000D03*
X107600000Y-96600000D03*
X107600000Y-93200000D03*
X107200000Y-103000000D03*
X104000000Y-68600000D03*
X108000000Y-103000000D03*
X104029000Y-67400000D03*
X108820000Y-103064986D03*
X109855000Y-66495000D03*
X109600000Y-103000000D03*
X110800000Y-48400000D03*
X109800000Y-106600000D03*
X110600000Y-106000002D03*
X112000000Y-104800000D03*
X108000000Y-109000000D03*
X108200000Y-93800000D03*
X107599998Y-97400000D03*
X109605000Y-69395000D03*
X104400000Y-99600000D03*
X109400000Y-94995000D03*
X102387000Y-112213000D03*
X105410000Y-50720000D03*
X110400000Y-111600000D03*
X110400000Y-111600000D03*
X108800000Y-94400000D03*
X107600000Y-98200000D03*
D24*
X101600000Y-50800000D02*
X101650002Y-50800000D01*
D25*
X99060000Y-50800000D02*
X101600000Y-50800000D01*
X99060000Y-99060000D02*
X101600000Y-99060000D01*
D26*
X99568000Y-99568000D02*
X99060000Y-99060000D01*
X99568000Y-102616000D02*
X99568000Y-99568000D01*
D27*
X103430000Y-115570000D02*
X102250000Y-115570000D01*
X105800000Y-113200000D02*
X103430000Y-115570000D01*
X108239000Y-113200000D02*
X105800000Y-113200000D01*
X108820000Y-112619000D02*
X108239000Y-113200000D01*
X108820000Y-111565000D02*
X108820000Y-112619000D01*
D25*
X114300000Y-66040000D02*
X116840000Y-66040000D01*
D28*
X107600000Y-96600000D02*
X107600000Y-93200000D01*
D25*
X99060000Y-81280000D02*
X101600000Y-81280000D01*
D27*
X103124000Y-100124000D02*
X103124000Y-82804000D01*
X104970000Y-101970000D02*
X103124000Y-100124000D01*
X103124000Y-82804000D02*
X101600000Y-81280000D01*
X104970000Y-104515000D02*
X104970000Y-101970000D01*
D25*
X99060000Y-55880000D02*
X101600000Y-55880000D01*
D27*
X106172000Y-82042000D02*
X106172000Y-80772000D01*
X114808000Y-105031000D02*
X114808000Y-102870000D01*
X114524000Y-105315000D02*
X114808000Y-105031000D01*
X113470000Y-105315000D02*
X114524000Y-105315000D01*
X112769000Y-100831000D02*
X112769000Y-90569000D01*
X114808000Y-102870000D02*
X112769000Y-100831000D01*
X106172000Y-83972000D02*
X107400000Y-85200000D01*
X107400000Y-85200000D02*
X106200000Y-84000000D01*
X106172000Y-83372000D02*
X106172000Y-83972000D01*
X112769000Y-90569000D02*
X107400000Y-85200000D01*
X106172000Y-80772000D02*
X106172000Y-83372000D01*
X106172000Y-63372000D02*
X106172000Y-64372000D01*
X106172000Y-64372000D02*
X106172000Y-80772000D01*
X103560000Y-60760000D02*
X106172000Y-63372000D01*
X103560000Y-57840000D02*
X103560000Y-60760000D01*
X101600000Y-55880000D02*
X103560000Y-57840000D01*
D25*
X99060000Y-58420000D02*
X101600000Y-58420000D01*
D27*
X112188000Y-101012000D02*
X113470000Y-102294000D01*
X113470000Y-102294000D02*
X113470000Y-104515000D01*
X112188000Y-90788000D02*
X112188000Y-101012000D01*
X105664000Y-84264000D02*
X112188000Y-90788000D01*
X105664000Y-63864000D02*
X105664000Y-84264000D01*
X103000000Y-61200000D02*
X105664000Y-63864000D01*
X103000000Y-59800000D02*
X103000000Y-61200000D01*
X101620000Y-58420000D02*
X103000000Y-59800000D01*
X101600000Y-58420000D02*
X101620000Y-58420000D01*
D29*
X101860000Y-60700000D02*
X101600000Y-60960000D01*
D25*
X99060000Y-60960000D02*
X101600000Y-60960000D01*
D27*
X111507000Y-90893000D02*
X105200000Y-84586000D01*
X105200000Y-64400000D02*
X101760000Y-60960000D01*
X105200000Y-84586000D02*
X105200000Y-64400000D01*
X111507000Y-101093000D02*
X111507000Y-90893000D01*
X101760000Y-60960000D02*
X101600000Y-60960000D01*
X112020000Y-101606000D02*
X111507000Y-101093000D01*
X112020000Y-103065000D02*
X112020000Y-101606000D01*
D25*
X99060000Y-63500000D02*
X101600000Y-63500000D01*
D27*
X104648000Y-83058000D02*
X104648000Y-82296000D01*
X111220000Y-103065000D02*
X111220000Y-101568000D01*
X103378000Y-63500000D02*
X101600000Y-63500000D01*
X104648000Y-64770000D02*
X103378000Y-63500000D01*
X104648000Y-82296000D02*
X104648000Y-64770000D01*
X110926000Y-91126000D02*
X104600000Y-84800000D01*
X110926000Y-101274000D02*
X110926000Y-91126000D01*
X104600000Y-84800000D02*
X104648000Y-82296000D01*
X111220000Y-101568000D02*
X110926000Y-101274000D01*
D25*
X99060000Y-71120000D02*
X101600000Y-71120000D01*
D27*
X104140000Y-84982066D02*
X104140000Y-73660000D01*
X104140000Y-73660000D02*
X101600000Y-71120000D01*
X110420000Y-91262066D02*
X104140000Y-84982066D01*
X110420000Y-103065000D02*
X110420000Y-91262066D01*
D25*
X99060000Y-73660000D02*
X101600000Y-73660000D01*
D27*
X103632000Y-75692000D02*
X102870000Y-74930000D01*
X102870000Y-74930000D02*
X101600000Y-73660000D01*
X103632000Y-99832000D02*
X103632000Y-75692000D01*
X106420000Y-102620000D02*
X103632000Y-99832000D01*
X106420000Y-103065000D02*
X106420000Y-102620000D01*
D25*
X114300000Y-50800000D02*
X116840000Y-50800000D01*
X114300000Y-53340000D02*
X116840000Y-53340000D01*
X99060000Y-96520000D02*
X101600000Y-96520000D01*
X114300000Y-55880000D02*
X116840000Y-55880000D01*
X99060000Y-93980000D02*
X101600000Y-93980000D01*
X114300000Y-58420000D02*
X116840000Y-58420000D01*
X99060000Y-91440000D02*
X101600000Y-91440000D01*
X114300000Y-60960000D02*
X116840000Y-60960000D01*
X99060000Y-88900000D02*
X101600000Y-88900000D01*
X114300000Y-63500000D02*
X116840000Y-63500000D01*
X99060000Y-86360000D02*
X101600000Y-86360000D01*
X99060000Y-83820000D02*
X101600000Y-83820000D01*
X114300000Y-68580000D02*
X116840000Y-68580000D01*
X114300000Y-71120000D02*
X116840000Y-71120000D01*
X99060000Y-78740000D02*
X101600000Y-78740000D01*
X114300000Y-73660000D02*
X116840000Y-73660000D01*
X99060000Y-76200000D02*
X101600000Y-76200000D01*
X114300000Y-76200000D02*
X116840000Y-76200000D01*
X114300000Y-78740000D02*
X116840000Y-78740000D01*
X114300000Y-81280000D02*
X116840000Y-81280000D01*
X99060000Y-68580000D02*
X101600000Y-68580000D01*
D27*
X101620000Y-68600000D02*
X101600000Y-68580000D01*
X103980000Y-68580000D02*
X104000000Y-68600000D01*
X101600000Y-68580000D02*
X103980000Y-68580000D01*
D25*
X114300000Y-83820000D02*
X116840000Y-83820000D01*
X99060000Y-66040000D02*
X101600000Y-66040000D01*
D27*
X102960000Y-67400000D02*
X103781513Y-67400000D01*
X101600000Y-66040000D02*
X102960000Y-67400000D01*
X103781513Y-67400000D02*
X104029000Y-67400000D01*
D25*
X114300000Y-86360000D02*
X116840000Y-86360000D01*
X114300000Y-88900000D02*
X116840000Y-88900000D01*
X114300000Y-91440000D02*
X116840000Y-91440000D01*
X114300000Y-93980000D02*
X116840000Y-93980000D01*
X114300000Y-96520000D02*
X116840000Y-96520000D01*
X99060000Y-53340000D02*
X101600000Y-53340000D01*
X114300000Y-99060000D02*
X116840000Y-99060000D01*
D27*
X116205000Y-106394000D02*
X116205000Y-105390000D01*
X114884000Y-107715000D02*
X116205000Y-106394000D01*
X113470000Y-107715000D02*
X114884000Y-107715000D01*
X109855000Y-55860000D02*
X109855000Y-59610000D01*
X111200000Y-66154000D02*
X110859000Y-66495000D01*
X111200000Y-60051000D02*
X111200000Y-66154000D01*
X110859000Y-66495000D02*
X109855000Y-66495000D01*
X110759000Y-59610000D02*
X111200000Y-60051000D01*
X109855000Y-59610000D02*
X110759000Y-59610000D01*
X111220000Y-112780000D02*
X109566999Y-114433001D01*
X111220000Y-111565000D02*
X111220000Y-112780000D01*
X109566999Y-117567999D02*
X110744000Y-118745000D01*
X109566999Y-114433001D02*
X109566999Y-117567999D01*
X115000000Y-117200000D02*
X114632001Y-117567999D01*
X114632001Y-117567999D02*
X112106999Y-117567999D01*
X115000000Y-114200000D02*
X115000000Y-117200000D01*
X112106999Y-117567999D02*
X110744000Y-116205000D01*
X113470000Y-112670000D02*
X115000000Y-114200000D01*
X113470000Y-110115000D02*
X113470000Y-112670000D01*
X112020000Y-111565000D02*
X112020000Y-112620000D01*
X112020000Y-112620000D02*
X113284000Y-113884000D01*
X113284000Y-113884000D02*
X113284000Y-116205000D01*
X110800000Y-47950000D02*
X113030000Y-45720000D01*
X110800000Y-48400000D02*
X110800000Y-47950000D01*
D28*
X108400000Y-106600000D02*
X109800000Y-106600000D01*
X107220000Y-107780000D02*
X108400000Y-106600000D01*
X107220000Y-111565000D02*
X107220000Y-107780000D01*
D27*
X110352513Y-106000002D02*
X110600000Y-106000002D01*
X108199998Y-106000002D02*
X110352513Y-106000002D01*
X106420000Y-111565000D02*
X106617999Y-111367001D01*
D28*
X106420000Y-107780000D02*
X107000000Y-107200000D01*
D27*
X107000000Y-107200000D02*
X108199998Y-106000002D01*
D28*
X106420000Y-111565000D02*
X106420000Y-107780000D01*
D27*
X106800000Y-107400000D02*
X107000000Y-107200000D01*
X106485000Y-105315000D02*
X107000000Y-104800000D01*
X104970000Y-105315000D02*
X106485000Y-105315000D01*
X107000000Y-104800000D02*
X112000000Y-104800000D01*
X108000000Y-111600000D02*
X108000000Y-109000000D01*
D28*
X108200000Y-93800000D02*
X108200000Y-96799998D01*
X108200000Y-96799998D02*
X107599998Y-97400000D01*
D27*
X115000000Y-111414000D02*
X115326000Y-111740000D01*
X115000000Y-109981398D02*
X115000000Y-111414000D01*
X114333602Y-109315000D02*
X115000000Y-109981398D01*
X115326000Y-111740000D02*
X116205000Y-111740000D01*
X113470000Y-109315000D02*
X114333602Y-109315000D01*
X103924000Y-108515000D02*
X104970000Y-108515000D01*
X103219000Y-109220000D02*
X103924000Y-108515000D01*
X102215000Y-109220000D02*
X103219000Y-109220000D01*
D26*
X102215000Y-106172000D02*
X102215000Y-109220000D01*
X102108000Y-106065000D02*
X102215000Y-106172000D01*
X102108000Y-102616000D02*
X102108000Y-106065000D01*
X102215000Y-109220000D02*
X102090000Y-109220000D01*
X102215000Y-112041000D02*
X102387000Y-112213000D01*
X102215000Y-109220000D02*
X102215000Y-112041000D01*
D27*
X103338500Y-106915000D02*
X104970000Y-106915000D01*
X102595500Y-106172000D02*
X103338500Y-106915000D01*
X102215000Y-106172000D02*
X102595500Y-106172000D01*
X109605000Y-69395000D02*
X109855000Y-69395000D01*
D26*
X116205000Y-117795000D02*
X115255000Y-118745000D01*
X115255000Y-118745000D02*
X113284000Y-118745000D01*
X116205000Y-111740000D02*
X116205000Y-117795000D01*
D27*
X108851000Y-69395000D02*
X109605000Y-69395000D01*
X108400000Y-68944000D02*
X108851000Y-69395000D01*
X108400000Y-65000000D02*
X108400000Y-68944000D01*
X109855000Y-63545000D02*
X108400000Y-65000000D01*
X109855000Y-62310000D02*
X109855000Y-63545000D01*
X107000000Y-99600000D02*
X109400000Y-97200000D01*
X109400000Y-95242487D02*
X109400000Y-94995000D01*
X109400000Y-97200000D02*
X109400000Y-95242487D01*
X104400000Y-99600000D02*
X107000000Y-99600000D01*
D26*
X102387000Y-112213000D02*
X102442000Y-112268000D01*
D27*
X108800000Y-50800000D02*
X105490000Y-50800000D01*
X105490000Y-50800000D02*
X105410000Y-50720000D01*
X109855000Y-51855000D02*
X108800000Y-50800000D01*
X109855000Y-53360000D02*
X109855000Y-51855000D01*
D28*
X108800000Y-97000000D02*
X107600000Y-98200000D01*
X108800000Y-94400000D02*
X108800000Y-97000000D01*
D27*
G36*
X97976310Y-99388734D02*
G01*
X98061266Y-99593835D01*
X98184602Y-99778421D01*
X98341579Y-99935398D01*
X98526165Y-100058734D01*
X98731266Y-100143690D01*
X98949000Y-100187000D01*
X98987001Y-100187000D01*
X98987000Y-101588645D01*
X98817706Y-101701764D01*
X98653764Y-101865706D01*
X98524956Y-102058481D01*
X98436231Y-102272682D01*
X98391000Y-102500076D01*
X98391000Y-102731924D01*
X98436231Y-102959318D01*
X98524956Y-103173519D01*
X98653764Y-103366294D01*
X98817706Y-103530236D01*
X99010481Y-103659044D01*
X99224682Y-103747769D01*
X99452076Y-103793000D01*
X99683924Y-103793000D01*
X99911318Y-103747769D01*
X100125519Y-103659044D01*
X100318294Y-103530236D01*
X100482236Y-103366294D01*
X100611044Y-103173519D01*
X100699769Y-102959318D01*
X100745000Y-102731924D01*
X100745000Y-102500076D01*
X100699769Y-102272682D01*
X100611044Y-102058481D01*
X100482236Y-101865706D01*
X100318294Y-101701764D01*
X100149000Y-101588645D01*
X100149000Y-100022000D01*
X101011188Y-100022000D01*
X101066165Y-100058734D01*
X101271266Y-100143690D01*
X101489000Y-100187000D01*
X101711000Y-100187000D01*
X101928734Y-100143690D01*
X102133835Y-100058734D01*
X102318421Y-99935398D01*
X102475398Y-99778421D01*
X102598734Y-99593835D01*
X102670000Y-99421784D01*
X102670000Y-100101712D01*
X102667805Y-100124000D01*
X102670000Y-100146288D01*
X102670000Y-100146294D01*
X102676570Y-100212998D01*
X102702530Y-100298578D01*
X102744687Y-100377448D01*
X102801421Y-100446579D01*
X102818742Y-100460794D01*
X104516001Y-102158054D01*
X104516000Y-103911418D01*
X104170000Y-103911418D01*
X104105897Y-103917732D01*
X104044257Y-103936430D01*
X103987450Y-103966794D01*
X103937657Y-104007657D01*
X103896794Y-104057450D01*
X103866430Y-104114257D01*
X103847732Y-104175897D01*
X103841418Y-104240000D01*
X103841418Y-104790000D01*
X103847732Y-104854103D01*
X103866205Y-104915000D01*
X103847732Y-104975897D01*
X103841418Y-105040000D01*
X103841418Y-105448608D01*
X103806920Y-105476920D01*
X103743063Y-105554730D01*
X103695613Y-105643502D01*
X103666393Y-105739826D01*
X103656527Y-105840000D01*
X103659000Y-105860250D01*
X103786750Y-105988000D01*
X104843000Y-105988000D01*
X104843000Y-105968000D01*
X105097000Y-105968000D01*
X105097000Y-105988000D01*
X106153250Y-105988000D01*
X106281000Y-105860250D01*
X106283473Y-105840000D01*
X106276480Y-105769000D01*
X106462712Y-105769000D01*
X106485000Y-105771195D01*
X106507288Y-105769000D01*
X106507295Y-105769000D01*
X106573999Y-105762430D01*
X106659579Y-105736470D01*
X106738449Y-105694313D01*
X106807579Y-105637579D01*
X106821794Y-105620258D01*
X107188053Y-105254000D01*
X111784263Y-105254000D01*
X111853572Y-105282708D01*
X111950557Y-105302000D01*
X112049443Y-105302000D01*
X112146428Y-105282708D01*
X112237786Y-105244867D01*
X112320006Y-105189929D01*
X112341418Y-105168517D01*
X112341418Y-105590000D01*
X112347732Y-105654103D01*
X112366205Y-105715000D01*
X112347732Y-105775897D01*
X112341418Y-105840000D01*
X112341418Y-106248608D01*
X112306920Y-106276920D01*
X112243063Y-106354730D01*
X112195613Y-106443502D01*
X112166393Y-106539826D01*
X112156527Y-106640000D01*
X112159000Y-106660250D01*
X112286750Y-106788000D01*
X113343000Y-106788000D01*
X113343000Y-106768000D01*
X113597000Y-106768000D01*
X113597000Y-106788000D01*
X114653250Y-106788000D01*
X114781000Y-106660250D01*
X114783473Y-106640000D01*
X114773607Y-106539826D01*
X114744387Y-106443502D01*
X114696937Y-106354730D01*
X114633080Y-106276920D01*
X114598582Y-106248608D01*
X114598582Y-105840000D01*
X114592268Y-105775897D01*
X114588903Y-105764803D01*
X114612999Y-105762430D01*
X114698579Y-105736470D01*
X114777449Y-105694313D01*
X114846579Y-105637579D01*
X114860795Y-105620257D01*
X115113259Y-105367793D01*
X115130579Y-105353579D01*
X115187313Y-105284449D01*
X115229470Y-105205579D01*
X115237438Y-105179313D01*
X115251418Y-105133226D01*
X115251418Y-106140000D01*
X115257732Y-106204103D01*
X115276430Y-106265743D01*
X115306794Y-106322550D01*
X115347657Y-106372343D01*
X115397450Y-106413206D01*
X115454257Y-106443570D01*
X115499618Y-106457330D01*
X114781675Y-107175273D01*
X114781000Y-107169750D01*
X114653250Y-107042000D01*
X113597000Y-107042000D01*
X113597000Y-107062000D01*
X113343000Y-107062000D01*
X113343000Y-107042000D01*
X112286750Y-107042000D01*
X112159000Y-107169750D01*
X112156527Y-107190000D01*
X112166393Y-107290174D01*
X112195613Y-107386498D01*
X112243063Y-107475270D01*
X112306920Y-107553080D01*
X112341418Y-107581392D01*
X112341418Y-107990000D01*
X112347732Y-108054103D01*
X112366205Y-108115000D01*
X112347732Y-108175897D01*
X112341418Y-108240000D01*
X112341418Y-108790000D01*
X112347732Y-108854103D01*
X112366205Y-108915000D01*
X112347732Y-108975897D01*
X112341418Y-109040000D01*
X112341418Y-109590000D01*
X112347732Y-109654103D01*
X112366205Y-109715000D01*
X112347732Y-109775897D01*
X112341418Y-109840000D01*
X112341418Y-110390000D01*
X112346490Y-110441490D01*
X112295000Y-110436418D01*
X111745000Y-110436418D01*
X111680897Y-110442732D01*
X111620000Y-110461205D01*
X111559103Y-110442732D01*
X111495000Y-110436418D01*
X110945000Y-110436418D01*
X110880897Y-110442732D01*
X110820000Y-110461205D01*
X110759103Y-110442732D01*
X110695000Y-110436418D01*
X110145000Y-110436418D01*
X110080897Y-110442732D01*
X110020000Y-110461205D01*
X109959103Y-110442732D01*
X109895000Y-110436418D01*
X109345000Y-110436418D01*
X109280897Y-110442732D01*
X109220000Y-110461205D01*
X109159103Y-110442732D01*
X109095000Y-110436418D01*
X108545000Y-110436418D01*
X108480897Y-110442732D01*
X108454000Y-110450891D01*
X108454000Y-109215737D01*
X108482708Y-109146428D01*
X108502000Y-109049443D01*
X108502000Y-108950557D01*
X108482708Y-108853572D01*
X108444867Y-108762214D01*
X108389929Y-108679994D01*
X108320006Y-108610071D01*
X108237786Y-108555133D01*
X108146428Y-108517292D01*
X108049443Y-108498000D01*
X107950557Y-108498000D01*
X107853572Y-108517292D01*
X107762214Y-108555133D01*
X107679994Y-108610071D01*
X107672000Y-108618065D01*
X107672000Y-107967223D01*
X108587224Y-107052000D01*
X109579435Y-107052000D01*
X109653572Y-107082708D01*
X109750557Y-107102000D01*
X109849443Y-107102000D01*
X109946428Y-107082708D01*
X110037786Y-107044867D01*
X110120006Y-106989929D01*
X110189929Y-106920006D01*
X110244867Y-106837786D01*
X110282708Y-106746428D01*
X110302000Y-106649443D01*
X110302000Y-106550557D01*
X110282794Y-106454002D01*
X110384263Y-106454002D01*
X110453572Y-106482710D01*
X110550557Y-106502002D01*
X110649443Y-106502002D01*
X110746428Y-106482710D01*
X110837786Y-106444869D01*
X110920006Y-106389931D01*
X110989929Y-106320008D01*
X111044867Y-106237788D01*
X111082708Y-106146430D01*
X111102000Y-106049445D01*
X111102000Y-105950559D01*
X111082708Y-105853574D01*
X111044867Y-105762216D01*
X110989929Y-105679996D01*
X110920006Y-105610073D01*
X110837786Y-105555135D01*
X110746428Y-105517294D01*
X110649443Y-105498002D01*
X110550557Y-105498002D01*
X110453572Y-105517294D01*
X110384263Y-105546002D01*
X108222282Y-105546002D01*
X108199997Y-105543807D01*
X108177712Y-105546002D01*
X108177703Y-105546002D01*
X108110999Y-105552572D01*
X108025419Y-105578532D01*
X107946549Y-105620689D01*
X107946547Y-105620690D01*
X107946548Y-105620690D01*
X107908173Y-105652184D01*
X107877419Y-105677423D01*
X107863208Y-105694739D01*
X106694739Y-106863209D01*
X106463209Y-107094739D01*
X106450266Y-107110510D01*
X106261351Y-107299425D01*
X106244387Y-107243502D01*
X106196937Y-107154730D01*
X106133080Y-107076920D01*
X106098582Y-107048608D01*
X106098582Y-106781392D01*
X106133080Y-106753080D01*
X106196937Y-106675270D01*
X106244387Y-106586498D01*
X106273607Y-106490174D01*
X106283473Y-106390000D01*
X106281000Y-106369750D01*
X106153250Y-106242000D01*
X105097000Y-106242000D01*
X105097000Y-106262000D01*
X104843000Y-106262000D01*
X104843000Y-106242000D01*
X103786750Y-106242000D01*
X103659000Y-106369750D01*
X103656527Y-106390000D01*
X103663520Y-106461000D01*
X103526553Y-106461000D01*
X103293582Y-106228029D01*
X103293582Y-105547000D01*
X103287268Y-105482897D01*
X103268570Y-105421257D01*
X103238206Y-105364450D01*
X103197343Y-105314657D01*
X103147550Y-105273794D01*
X103090743Y-105243430D01*
X103029103Y-105224732D01*
X102965000Y-105218418D01*
X102689000Y-105218418D01*
X102689000Y-103794582D01*
X102958000Y-103794582D01*
X103022103Y-103788268D01*
X103083743Y-103769570D01*
X103140550Y-103739206D01*
X103190343Y-103698343D01*
X103231206Y-103648550D01*
X103261570Y-103591743D01*
X103280268Y-103530103D01*
X103286582Y-103466000D01*
X103286582Y-101766000D01*
X103280268Y-101701897D01*
X103261570Y-101640257D01*
X103231206Y-101583450D01*
X103190343Y-101533657D01*
X103140550Y-101492794D01*
X103083743Y-101462430D01*
X103022103Y-101443732D01*
X102958000Y-101437418D01*
X101258000Y-101437418D01*
X101193897Y-101443732D01*
X101132257Y-101462430D01*
X101075450Y-101492794D01*
X101025657Y-101533657D01*
X100984794Y-101583450D01*
X100954430Y-101640257D01*
X100935732Y-101701897D01*
X100929418Y-101766000D01*
X100929418Y-103466000D01*
X100935732Y-103530103D01*
X100954430Y-103591743D01*
X100984794Y-103648550D01*
X101025657Y-103698343D01*
X101075450Y-103739206D01*
X101132257Y-103769570D01*
X101193897Y-103788268D01*
X101258000Y-103794582D01*
X101527000Y-103794582D01*
X101527001Y-105218418D01*
X101465000Y-105218418D01*
X101400897Y-105224732D01*
X101339257Y-105243430D01*
X101282450Y-105273794D01*
X101232657Y-105314657D01*
X101191794Y-105364450D01*
X101161430Y-105421257D01*
X101142732Y-105482897D01*
X101136418Y-105547000D01*
X101136418Y-106797000D01*
X101142732Y-106861103D01*
X101161430Y-106922743D01*
X101191794Y-106979550D01*
X101232657Y-107029343D01*
X101282450Y-107070206D01*
X101339257Y-107100570D01*
X101400897Y-107119268D01*
X101465000Y-107125582D01*
X101634000Y-107125582D01*
X101634001Y-108266418D01*
X101465000Y-108266418D01*
X101400897Y-108272732D01*
X101339257Y-108291430D01*
X101282450Y-108321794D01*
X101232657Y-108362657D01*
X101191794Y-108412450D01*
X101161430Y-108469257D01*
X101142732Y-108530897D01*
X101136418Y-108595000D01*
X101136418Y-109845000D01*
X101142732Y-109909103D01*
X101161430Y-109970743D01*
X101191794Y-110027550D01*
X101232657Y-110077343D01*
X101282450Y-110118206D01*
X101339257Y-110148570D01*
X101400897Y-110167268D01*
X101465000Y-110173582D01*
X101634000Y-110173582D01*
X101634001Y-111295131D01*
X101627897Y-111295732D01*
X101566257Y-111314430D01*
X101509450Y-111344794D01*
X101459657Y-111385657D01*
X101418794Y-111435450D01*
X101388430Y-111492257D01*
X101369732Y-111553897D01*
X101363418Y-111618000D01*
X101363418Y-112918000D01*
X101369732Y-112982103D01*
X101388430Y-113043743D01*
X101418794Y-113100550D01*
X101459657Y-113150343D01*
X101509450Y-113191206D01*
X101566257Y-113221570D01*
X101627897Y-113240268D01*
X101692000Y-113246582D01*
X103192000Y-113246582D01*
X103256103Y-113240268D01*
X103317743Y-113221570D01*
X103374550Y-113191206D01*
X103424343Y-113150343D01*
X103465206Y-113100550D01*
X103495570Y-113043743D01*
X103514268Y-112982103D01*
X103520582Y-112918000D01*
X103520582Y-111618000D01*
X103514268Y-111553897D01*
X103495570Y-111492257D01*
X103465206Y-111435450D01*
X103424343Y-111385657D01*
X103374550Y-111344794D01*
X103317743Y-111314430D01*
X103256103Y-111295732D01*
X103192000Y-111289418D01*
X102796000Y-111289418D01*
X102796000Y-110173582D01*
X102965000Y-110173582D01*
X103029103Y-110167268D01*
X103090743Y-110148570D01*
X103147550Y-110118206D01*
X103197343Y-110077343D01*
X103238206Y-110027550D01*
X103268570Y-109970743D01*
X103287268Y-109909103D01*
X103293582Y-109845000D01*
X103293582Y-109668850D01*
X103307999Y-109667430D01*
X103393579Y-109641470D01*
X103472449Y-109599313D01*
X103541579Y-109542579D01*
X103555794Y-109525258D01*
X103841418Y-109239634D01*
X103841418Y-109590000D01*
X103847732Y-109654103D01*
X103866205Y-109715000D01*
X103847732Y-109775897D01*
X103841418Y-109840000D01*
X103841418Y-110390000D01*
X103847732Y-110454103D01*
X103866430Y-110515743D01*
X103896794Y-110572550D01*
X103937657Y-110622343D01*
X103987450Y-110663206D01*
X104044257Y-110693570D01*
X104105897Y-110712268D01*
X104170000Y-110718582D01*
X105770000Y-110718582D01*
X105821490Y-110713510D01*
X105816418Y-110765000D01*
X105816418Y-112365000D01*
X105822732Y-112429103D01*
X105841430Y-112490743D01*
X105871794Y-112547550D01*
X105912657Y-112597343D01*
X105962450Y-112638206D01*
X106019257Y-112668570D01*
X106080897Y-112687268D01*
X106145000Y-112693582D01*
X106695000Y-112693582D01*
X106759103Y-112687268D01*
X106820000Y-112668795D01*
X106880897Y-112687268D01*
X106945000Y-112693582D01*
X107495000Y-112693582D01*
X107559103Y-112687268D01*
X107620000Y-112668795D01*
X107680897Y-112687268D01*
X107745000Y-112693582D01*
X108103366Y-112693582D01*
X108050948Y-112746000D01*
X105822287Y-112746000D01*
X105799999Y-112743805D01*
X105777711Y-112746000D01*
X105777705Y-112746000D01*
X105720301Y-112751654D01*
X105711000Y-112752570D01*
X105675938Y-112763206D01*
X105625421Y-112778530D01*
X105546551Y-112820687D01*
X105477421Y-112877421D01*
X105463210Y-112894737D01*
X103241948Y-115116000D01*
X103051781Y-115116000D01*
X103050738Y-115110755D01*
X103032041Y-115049117D01*
X102994532Y-114958561D01*
X102964167Y-114901751D01*
X102909711Y-114820252D01*
X102868848Y-114770460D01*
X102799540Y-114701152D01*
X102749748Y-114660289D01*
X102668249Y-114605833D01*
X102611439Y-114575468D01*
X102520883Y-114537959D01*
X102459245Y-114519262D01*
X102363112Y-114500140D01*
X102299009Y-114493826D01*
X102274447Y-114493826D01*
X102250000Y-114491418D01*
X101750000Y-114491418D01*
X101685897Y-114497732D01*
X101624257Y-114516430D01*
X101567450Y-114546794D01*
X101517657Y-114587657D01*
X101476794Y-114637450D01*
X101446430Y-114694257D01*
X101427732Y-114755897D01*
X101421418Y-114820000D01*
X101421418Y-116320000D01*
X101427732Y-116384103D01*
X101446430Y-116445743D01*
X101476794Y-116502550D01*
X101517657Y-116552343D01*
X101567450Y-116593206D01*
X101624257Y-116623570D01*
X101685897Y-116642268D01*
X101750000Y-116648582D01*
X102250000Y-116648582D01*
X102274447Y-116646174D01*
X102299009Y-116646174D01*
X102363112Y-116639860D01*
X102459245Y-116620738D01*
X102520883Y-116602041D01*
X102611439Y-116564532D01*
X102668249Y-116534167D01*
X102749748Y-116479711D01*
X102799540Y-116438848D01*
X102868848Y-116369540D01*
X102909711Y-116319748D01*
X102964167Y-116238249D01*
X102994532Y-116181439D01*
X103032041Y-116090883D01*
X103050738Y-116029245D01*
X103051781Y-116024000D01*
X103407712Y-116024000D01*
X103430000Y-116026195D01*
X103452288Y-116024000D01*
X103452295Y-116024000D01*
X103518999Y-116017430D01*
X103604579Y-115991470D01*
X103683449Y-115949313D01*
X103752579Y-115892579D01*
X103766794Y-115875258D01*
X105988053Y-113654000D01*
X108216712Y-113654000D01*
X108239000Y-113656195D01*
X108261288Y-113654000D01*
X108261295Y-113654000D01*
X108327999Y-113647430D01*
X108413579Y-113621470D01*
X108492449Y-113579313D01*
X108561579Y-113522579D01*
X108575794Y-113505258D01*
X109125263Y-112955790D01*
X109142579Y-112941579D01*
X109199313Y-112872449D01*
X109241470Y-112793579D01*
X109241473Y-112793570D01*
X109267430Y-112708000D01*
X109269803Y-112683903D01*
X109280897Y-112687268D01*
X109345000Y-112693582D01*
X109895000Y-112693582D01*
X109959103Y-112687268D01*
X110020000Y-112668795D01*
X110080897Y-112687268D01*
X110145000Y-112693582D01*
X110664365Y-112693582D01*
X109261741Y-114096207D01*
X109244420Y-114110422D01*
X109187686Y-114179553D01*
X109145529Y-114258423D01*
X109119569Y-114344003D01*
X109112999Y-114410707D01*
X109112999Y-114410713D01*
X109110804Y-114433001D01*
X109112999Y-114455289D01*
X109112999Y-115449469D01*
X108954294Y-115290764D01*
X108761519Y-115161956D01*
X108547318Y-115073231D01*
X108319924Y-115028000D01*
X108088076Y-115028000D01*
X107860682Y-115073231D01*
X107646481Y-115161956D01*
X107453706Y-115290764D01*
X107289764Y-115454706D01*
X107160956Y-115647481D01*
X107072231Y-115861682D01*
X107027000Y-116089076D01*
X107027000Y-116320924D01*
X107072231Y-116548318D01*
X107160956Y-116762519D01*
X107289764Y-116955294D01*
X107453706Y-117119236D01*
X107646481Y-117248044D01*
X107860682Y-117336769D01*
X108088076Y-117382000D01*
X108319924Y-117382000D01*
X108547318Y-117336769D01*
X108761519Y-117248044D01*
X108954294Y-117119236D01*
X109113000Y-116960530D01*
X109113000Y-117545701D01*
X109110804Y-117567999D01*
X109119569Y-117656998D01*
X109145529Y-117742577D01*
X109145530Y-117742578D01*
X109177675Y-117802717D01*
X109112848Y-117731919D01*
X108897742Y-117574078D01*
X108655976Y-117461235D01*
X108541415Y-117426488D01*
X108331000Y-117518307D01*
X108331000Y-118618000D01*
X109431317Y-118618000D01*
X109522517Y-118407584D01*
X109431355Y-118156837D01*
X109304402Y-117947455D01*
X109655110Y-118298163D01*
X109612231Y-118401682D01*
X109567000Y-118629076D01*
X109567000Y-118860924D01*
X109612231Y-119088318D01*
X109700956Y-119302519D01*
X109829764Y-119495294D01*
X109993706Y-119659236D01*
X110186481Y-119788044D01*
X110400682Y-119876769D01*
X110628076Y-119922000D01*
X110859924Y-119922000D01*
X111087318Y-119876769D01*
X111301519Y-119788044D01*
X111494294Y-119659236D01*
X111658236Y-119495294D01*
X111787044Y-119302519D01*
X111875769Y-119088318D01*
X111921000Y-118860924D01*
X111921000Y-118629076D01*
X111875769Y-118401682D01*
X111787044Y-118187481D01*
X111658236Y-117994706D01*
X111494294Y-117830764D01*
X111301519Y-117701956D01*
X111087318Y-117613231D01*
X110859924Y-117568000D01*
X110628076Y-117568000D01*
X110400682Y-117613231D01*
X110297163Y-117656110D01*
X110020999Y-117379947D01*
X110020999Y-117137473D01*
X110186481Y-117248044D01*
X110400682Y-117336769D01*
X110628076Y-117382000D01*
X110859924Y-117382000D01*
X111087318Y-117336769D01*
X111190837Y-117293890D01*
X111770207Y-117873260D01*
X111784420Y-117890578D01*
X111853550Y-117947312D01*
X111932420Y-117989469D01*
X112017999Y-118015429D01*
X112026420Y-118016258D01*
X112084704Y-118021999D01*
X112084711Y-118021999D01*
X112106999Y-118024194D01*
X112129287Y-118021999D01*
X112351527Y-118021999D01*
X112240956Y-118187481D01*
X112152231Y-118401682D01*
X112107000Y-118629076D01*
X112107000Y-118860924D01*
X112152231Y-119088318D01*
X112240956Y-119302519D01*
X112369764Y-119495294D01*
X112533706Y-119659236D01*
X112726481Y-119788044D01*
X112940682Y-119876769D01*
X113168076Y-119922000D01*
X113399924Y-119922000D01*
X113627318Y-119876769D01*
X113841519Y-119788044D01*
X114034294Y-119659236D01*
X114198236Y-119495294D01*
X114311355Y-119326000D01*
X115226460Y-119326000D01*
X115255000Y-119328811D01*
X115283540Y-119326000D01*
X115368896Y-119317593D01*
X115478415Y-119284371D01*
X115579348Y-119230421D01*
X115667817Y-119157817D01*
X115686017Y-119135640D01*
X116595645Y-118226013D01*
X116617817Y-118207817D01*
X116690421Y-118119348D01*
X116744371Y-118018415D01*
X116777593Y-117908896D01*
X116786000Y-117823540D01*
X116788811Y-117795000D01*
X116786000Y-117766460D01*
X116786000Y-112818582D01*
X116830000Y-112818582D01*
X116894103Y-112812268D01*
X116955743Y-112793570D01*
X117012550Y-112763206D01*
X117062343Y-112722343D01*
X117103206Y-112672550D01*
X117133570Y-112615743D01*
X117152268Y-112554103D01*
X117158582Y-112490000D01*
X117158582Y-110990000D01*
X117152268Y-110925897D01*
X117133570Y-110864257D01*
X117103206Y-110807450D01*
X117062343Y-110757657D01*
X117012550Y-110716794D01*
X116955743Y-110686430D01*
X116894103Y-110667732D01*
X116830000Y-110661418D01*
X115580000Y-110661418D01*
X115515897Y-110667732D01*
X115454257Y-110686430D01*
X115454000Y-110686567D01*
X115454000Y-110485773D01*
X115479826Y-110493607D01*
X115580000Y-110503473D01*
X115950250Y-110501000D01*
X116078000Y-110373250D01*
X116078000Y-109367000D01*
X116332000Y-109367000D01*
X116332000Y-110373250D01*
X116459750Y-110501000D01*
X116830000Y-110503473D01*
X116930174Y-110493607D01*
X117026498Y-110464387D01*
X117115270Y-110416937D01*
X117193080Y-110353080D01*
X117256937Y-110275270D01*
X117304387Y-110186498D01*
X117333607Y-110090174D01*
X117343473Y-109990000D01*
X117341000Y-109494750D01*
X117213250Y-109367000D01*
X116332000Y-109367000D01*
X116078000Y-109367000D01*
X115196750Y-109367000D01*
X115112202Y-109451548D01*
X114670396Y-109009742D01*
X114656181Y-108992421D01*
X114587051Y-108935687D01*
X114578720Y-108931234D01*
X114573795Y-108915000D01*
X114592268Y-108854103D01*
X114598582Y-108790000D01*
X114598582Y-108490000D01*
X115066527Y-108490000D01*
X115069000Y-108985250D01*
X115196750Y-109113000D01*
X116078000Y-109113000D01*
X116078000Y-108106750D01*
X116332000Y-108106750D01*
X116332000Y-109113000D01*
X117213250Y-109113000D01*
X117341000Y-108985250D01*
X117343473Y-108490000D01*
X117333607Y-108389826D01*
X117304387Y-108293502D01*
X117256937Y-108204730D01*
X117193080Y-108126920D01*
X117115270Y-108063063D01*
X117026498Y-108015613D01*
X116930174Y-107986393D01*
X116830000Y-107976527D01*
X116459750Y-107979000D01*
X116332000Y-108106750D01*
X116078000Y-108106750D01*
X115950250Y-107979000D01*
X115580000Y-107976527D01*
X115479826Y-107986393D01*
X115383502Y-108015613D01*
X115294730Y-108063063D01*
X115216920Y-108126920D01*
X115153063Y-108204730D01*
X115105613Y-108293502D01*
X115076393Y-108389826D01*
X115066527Y-108490000D01*
X114598582Y-108490000D01*
X114598582Y-108240000D01*
X114592268Y-108175897D01*
X114590176Y-108169000D01*
X114861712Y-108169000D01*
X114884000Y-108171195D01*
X114906288Y-108169000D01*
X114906295Y-108169000D01*
X114972999Y-108162430D01*
X115058579Y-108136470D01*
X115137449Y-108094313D01*
X115206579Y-108037579D01*
X115220794Y-108020258D01*
X116510264Y-106730789D01*
X116527579Y-106716579D01*
X116550535Y-106688608D01*
X116576129Y-106657421D01*
X116584313Y-106647449D01*
X116626470Y-106568579D01*
X116636448Y-106535687D01*
X116652430Y-106483000D01*
X116653850Y-106468582D01*
X116830000Y-106468582D01*
X116894103Y-106462268D01*
X116955743Y-106443570D01*
X117012550Y-106413206D01*
X117062343Y-106372343D01*
X117103206Y-106322550D01*
X117133570Y-106265743D01*
X117152268Y-106204103D01*
X117158582Y-106140000D01*
X117158582Y-104640000D01*
X117152268Y-104575897D01*
X117133570Y-104514257D01*
X117103206Y-104457450D01*
X117062343Y-104407657D01*
X117012550Y-104366794D01*
X116955743Y-104336430D01*
X116894103Y-104317732D01*
X116830000Y-104311418D01*
X115580000Y-104311418D01*
X115515897Y-104317732D01*
X115454257Y-104336430D01*
X115397450Y-104366794D01*
X115347657Y-104407657D01*
X115306794Y-104457450D01*
X115276430Y-104514257D01*
X115262000Y-104561827D01*
X115262000Y-104040076D01*
X115294730Y-104066937D01*
X115383502Y-104114387D01*
X115479826Y-104143607D01*
X115580000Y-104153473D01*
X115950250Y-104151000D01*
X116078000Y-104023250D01*
X116078000Y-103017000D01*
X116332000Y-103017000D01*
X116332000Y-104023250D01*
X116459750Y-104151000D01*
X116830000Y-104153473D01*
X116930174Y-104143607D01*
X117026498Y-104114387D01*
X117115270Y-104066937D01*
X117193080Y-104003080D01*
X117256937Y-103925270D01*
X117304387Y-103836498D01*
X117333607Y-103740174D01*
X117343473Y-103640000D01*
X117341000Y-103144750D01*
X117213250Y-103017000D01*
X116332000Y-103017000D01*
X116078000Y-103017000D01*
X116058000Y-103017000D01*
X116058000Y-102763000D01*
X116078000Y-102763000D01*
X116078000Y-101756750D01*
X116332000Y-101756750D01*
X116332000Y-102763000D01*
X117213250Y-102763000D01*
X117341000Y-102635250D01*
X117343473Y-102140000D01*
X117333607Y-102039826D01*
X117304387Y-101943502D01*
X117256937Y-101854730D01*
X117193080Y-101776920D01*
X117115270Y-101713063D01*
X117026498Y-101665613D01*
X116930174Y-101636393D01*
X116830000Y-101626527D01*
X116459750Y-101629000D01*
X116332000Y-101756750D01*
X116078000Y-101756750D01*
X115950250Y-101629000D01*
X115580000Y-101626527D01*
X115479826Y-101636393D01*
X115383502Y-101665613D01*
X115294730Y-101713063D01*
X115216920Y-101776920D01*
X115153063Y-101854730D01*
X115105613Y-101943502D01*
X115076393Y-102039826D01*
X115066527Y-102140000D01*
X115068266Y-102488213D01*
X113223000Y-100642948D01*
X113223000Y-99404885D01*
X113301266Y-99593835D01*
X113424602Y-99778421D01*
X113581579Y-99935398D01*
X113766165Y-100058734D01*
X113971266Y-100143690D01*
X114189000Y-100187000D01*
X114411000Y-100187000D01*
X114628734Y-100143690D01*
X114833835Y-100058734D01*
X114888812Y-100022000D01*
X116251188Y-100022000D01*
X116306165Y-100058734D01*
X116511266Y-100143690D01*
X116729000Y-100187000D01*
X116951000Y-100187000D01*
X117168734Y-100143690D01*
X117373835Y-100058734D01*
X117558421Y-99935398D01*
X117715398Y-99778421D01*
X117838734Y-99593835D01*
X117848001Y-99571463D01*
X117848001Y-120848000D01*
X97952000Y-120848000D01*
X97952000Y-119082416D01*
X106885483Y-119082416D01*
X106976645Y-119333163D01*
X107114973Y-119561307D01*
X107295152Y-119758081D01*
X107510258Y-119915922D01*
X107752024Y-120028765D01*
X107866585Y-120063512D01*
X108077000Y-119971693D01*
X108077000Y-118872000D01*
X108331000Y-118872000D01*
X108331000Y-119971693D01*
X108541415Y-120063512D01*
X108655976Y-120028765D01*
X108897742Y-119915922D01*
X109112848Y-119758081D01*
X109293027Y-119561307D01*
X109431355Y-119333163D01*
X109522517Y-119082416D01*
X109431317Y-118872000D01*
X108331000Y-118872000D01*
X108077000Y-118872000D01*
X106976683Y-118872000D01*
X106885483Y-119082416D01*
X97952000Y-119082416D01*
X97952000Y-118407584D01*
X106885483Y-118407584D01*
X106976683Y-118618000D01*
X108077000Y-118618000D01*
X108077000Y-117518307D01*
X107866585Y-117426488D01*
X107752024Y-117461235D01*
X107510258Y-117574078D01*
X107295152Y-117731919D01*
X107114973Y-117928693D01*
X106976645Y-118156837D01*
X106885483Y-118407584D01*
X97952000Y-118407584D01*
X97952000Y-112918000D01*
X98478527Y-112918000D01*
X98488393Y-113018174D01*
X98517613Y-113114498D01*
X98565063Y-113203270D01*
X98628920Y-113281080D01*
X98706730Y-113344937D01*
X98795502Y-113392387D01*
X98891826Y-113421607D01*
X98992000Y-113431473D01*
X99487250Y-113429000D01*
X99615000Y-113301250D01*
X99615000Y-112395000D01*
X99869000Y-112395000D01*
X99869000Y-113301250D01*
X99996750Y-113429000D01*
X100492000Y-113431473D01*
X100592174Y-113421607D01*
X100688498Y-113392387D01*
X100777270Y-113344937D01*
X100855080Y-113281080D01*
X100918937Y-113203270D01*
X100966387Y-113114498D01*
X100995607Y-113018174D01*
X101005473Y-112918000D01*
X101003000Y-112522750D01*
X100875250Y-112395000D01*
X99869000Y-112395000D01*
X99615000Y-112395000D01*
X98608750Y-112395000D01*
X98481000Y-112522750D01*
X98478527Y-112918000D01*
X97952000Y-112918000D01*
X97952000Y-111618000D01*
X98478527Y-111618000D01*
X98481000Y-112013250D01*
X98608750Y-112141000D01*
X99615000Y-112141000D01*
X99615000Y-111234750D01*
X99869000Y-111234750D01*
X99869000Y-112141000D01*
X100875250Y-112141000D01*
X101003000Y-112013250D01*
X101005473Y-111618000D01*
X100995607Y-111517826D01*
X100966387Y-111421502D01*
X100918937Y-111332730D01*
X100855080Y-111254920D01*
X100777270Y-111191063D01*
X100688498Y-111143613D01*
X100592174Y-111114393D01*
X100492000Y-111104527D01*
X99996750Y-111107000D01*
X99869000Y-111234750D01*
X99615000Y-111234750D01*
X99487250Y-111107000D01*
X98992000Y-111104527D01*
X98891826Y-111114393D01*
X98795502Y-111143613D01*
X98706730Y-111191063D01*
X98628920Y-111254920D01*
X98565063Y-111332730D01*
X98517613Y-111421502D01*
X98488393Y-111517826D01*
X98478527Y-111618000D01*
X97952000Y-111618000D01*
X97952000Y-109845000D01*
X98451527Y-109845000D01*
X98461393Y-109945174D01*
X98490613Y-110041498D01*
X98538063Y-110130270D01*
X98601920Y-110208080D01*
X98679730Y-110271937D01*
X98768502Y-110319387D01*
X98864826Y-110348607D01*
X98965000Y-110358473D01*
X99460250Y-110356000D01*
X99588000Y-110228250D01*
X99588000Y-109347000D01*
X99842000Y-109347000D01*
X99842000Y-110228250D01*
X99969750Y-110356000D01*
X100465000Y-110358473D01*
X100565174Y-110348607D01*
X100661498Y-110319387D01*
X100750270Y-110271937D01*
X100828080Y-110208080D01*
X100891937Y-110130270D01*
X100939387Y-110041498D01*
X100968607Y-109945174D01*
X100978473Y-109845000D01*
X100976000Y-109474750D01*
X100848250Y-109347000D01*
X99842000Y-109347000D01*
X99588000Y-109347000D01*
X98581750Y-109347000D01*
X98454000Y-109474750D01*
X98451527Y-109845000D01*
X97952000Y-109845000D01*
X97952000Y-108595000D01*
X98451527Y-108595000D01*
X98454000Y-108965250D01*
X98581750Y-109093000D01*
X99588000Y-109093000D01*
X99588000Y-108211750D01*
X99842000Y-108211750D01*
X99842000Y-109093000D01*
X100848250Y-109093000D01*
X100976000Y-108965250D01*
X100978473Y-108595000D01*
X100968607Y-108494826D01*
X100939387Y-108398502D01*
X100891937Y-108309730D01*
X100828080Y-108231920D01*
X100750270Y-108168063D01*
X100661498Y-108120613D01*
X100565174Y-108091393D01*
X100465000Y-108081527D01*
X99969750Y-108084000D01*
X99842000Y-108211750D01*
X99588000Y-108211750D01*
X99460250Y-108084000D01*
X98965000Y-108081527D01*
X98864826Y-108091393D01*
X98768502Y-108120613D01*
X98679730Y-108168063D01*
X98601920Y-108231920D01*
X98538063Y-108309730D01*
X98490613Y-108398502D01*
X98461393Y-108494826D01*
X98451527Y-108595000D01*
X97952000Y-108595000D01*
X97952000Y-106797000D01*
X98451527Y-106797000D01*
X98461393Y-106897174D01*
X98490613Y-106993498D01*
X98538063Y-107082270D01*
X98601920Y-107160080D01*
X98679730Y-107223937D01*
X98768502Y-107271387D01*
X98864826Y-107300607D01*
X98965000Y-107310473D01*
X99460250Y-107308000D01*
X99588000Y-107180250D01*
X99588000Y-106299000D01*
X99842000Y-106299000D01*
X99842000Y-107180250D01*
X99969750Y-107308000D01*
X100465000Y-107310473D01*
X100565174Y-107300607D01*
X100661498Y-107271387D01*
X100750270Y-107223937D01*
X100828080Y-107160080D01*
X100891937Y-107082270D01*
X100939387Y-106993498D01*
X100968607Y-106897174D01*
X100978473Y-106797000D01*
X100976000Y-106426750D01*
X100848250Y-106299000D01*
X99842000Y-106299000D01*
X99588000Y-106299000D01*
X98581750Y-106299000D01*
X98454000Y-106426750D01*
X98451527Y-106797000D01*
X97952000Y-106797000D01*
X97952000Y-105547000D01*
X98451527Y-105547000D01*
X98454000Y-105917250D01*
X98581750Y-106045000D01*
X99588000Y-106045000D01*
X99588000Y-105163750D01*
X99842000Y-105163750D01*
X99842000Y-106045000D01*
X100848250Y-106045000D01*
X100976000Y-105917250D01*
X100978473Y-105547000D01*
X100968607Y-105446826D01*
X100939387Y-105350502D01*
X100891937Y-105261730D01*
X100828080Y-105183920D01*
X100750270Y-105120063D01*
X100661498Y-105072613D01*
X100565174Y-105043393D01*
X100465000Y-105033527D01*
X99969750Y-105036000D01*
X99842000Y-105163750D01*
X99588000Y-105163750D01*
X99460250Y-105036000D01*
X98965000Y-105033527D01*
X98864826Y-105043393D01*
X98768502Y-105072613D01*
X98679730Y-105120063D01*
X98601920Y-105183920D01*
X98538063Y-105261730D01*
X98490613Y-105350502D01*
X98461393Y-105446826D01*
X98451527Y-105547000D01*
X97952000Y-105547000D01*
X97952000Y-99266519D01*
X97976310Y-99388734D01*
G37*
X97976310Y-99388734D02*
X98061266Y-99593835D01*
X98184602Y-99778421D01*
X98341579Y-99935398D01*
X98526165Y-100058734D01*
X98731266Y-100143690D01*
X98949000Y-100187000D01*
X98987001Y-100187000D01*
X98987000Y-101588645D01*
X98817706Y-101701764D01*
X98653764Y-101865706D01*
X98524956Y-102058481D01*
X98436231Y-102272682D01*
X98391000Y-102500076D01*
X98391000Y-102731924D01*
X98436231Y-102959318D01*
X98524956Y-103173519D01*
X98653764Y-103366294D01*
X98817706Y-103530236D01*
X99010481Y-103659044D01*
X99224682Y-103747769D01*
X99452076Y-103793000D01*
X99683924Y-103793000D01*
X99911318Y-103747769D01*
X100125519Y-103659044D01*
X100318294Y-103530236D01*
X100482236Y-103366294D01*
X100611044Y-103173519D01*
X100699769Y-102959318D01*
X100745000Y-102731924D01*
X100745000Y-102500076D01*
X100699769Y-102272682D01*
X100611044Y-102058481D01*
X100482236Y-101865706D01*
X100318294Y-101701764D01*
X100149000Y-101588645D01*
X100149000Y-100022000D01*
X101011188Y-100022000D01*
X101066165Y-100058734D01*
X101271266Y-100143690D01*
X101489000Y-100187000D01*
X101711000Y-100187000D01*
X101928734Y-100143690D01*
X102133835Y-100058734D01*
X102318421Y-99935398D01*
X102475398Y-99778421D01*
X102598734Y-99593835D01*
X102670000Y-99421784D01*
X102670000Y-100101712D01*
X102667805Y-100124000D01*
X102670000Y-100146288D01*
X102670000Y-100146294D01*
X102676570Y-100212998D01*
X102702530Y-100298578D01*
X102744687Y-100377448D01*
X102801421Y-100446579D01*
X102818742Y-100460794D01*
X104516001Y-102158054D01*
X104516000Y-103911418D01*
X104170000Y-103911418D01*
X104105897Y-103917732D01*
X104044257Y-103936430D01*
X103987450Y-103966794D01*
X103937657Y-104007657D01*
X103896794Y-104057450D01*
X103866430Y-104114257D01*
X103847732Y-104175897D01*
X103841418Y-104240000D01*
X103841418Y-104790000D01*
X103847732Y-104854103D01*
X103866205Y-104915000D01*
X103847732Y-104975897D01*
X103841418Y-105040000D01*
X103841418Y-105448608D01*
X103806920Y-105476920D01*
X103743063Y-105554730D01*
X103695613Y-105643502D01*
X103666393Y-105739826D01*
X103656527Y-105840000D01*
X103659000Y-105860250D01*
X103786750Y-105988000D01*
X104843000Y-105988000D01*
X104843000Y-105968000D01*
X105097000Y-105968000D01*
X105097000Y-105988000D01*
X106153250Y-105988000D01*
X106281000Y-105860250D01*
X106283473Y-105840000D01*
X106276480Y-105769000D01*
X106462712Y-105769000D01*
X106485000Y-105771195D01*
X106507288Y-105769000D01*
X106507295Y-105769000D01*
X106573999Y-105762430D01*
X106659579Y-105736470D01*
X106738449Y-105694313D01*
X106807579Y-105637579D01*
X106821794Y-105620258D01*
X107188053Y-105254000D01*
X111784263Y-105254000D01*
X111853572Y-105282708D01*
X111950557Y-105302000D01*
X112049443Y-105302000D01*
X112146428Y-105282708D01*
X112237786Y-105244867D01*
X112320006Y-105189929D01*
X112341418Y-105168517D01*
X112341418Y-105590000D01*
X112347732Y-105654103D01*
X112366205Y-105715000D01*
X112347732Y-105775897D01*
X112341418Y-105840000D01*
X112341418Y-106248608D01*
X112306920Y-106276920D01*
X112243063Y-106354730D01*
X112195613Y-106443502D01*
X112166393Y-106539826D01*
X112156527Y-106640000D01*
X112159000Y-106660250D01*
X112286750Y-106788000D01*
X113343000Y-106788000D01*
X113343000Y-106768000D01*
X113597000Y-106768000D01*
X113597000Y-106788000D01*
X114653250Y-106788000D01*
X114781000Y-106660250D01*
X114783473Y-106640000D01*
X114773607Y-106539826D01*
X114744387Y-106443502D01*
X114696937Y-106354730D01*
X114633080Y-106276920D01*
X114598582Y-106248608D01*
X114598582Y-105840000D01*
X114592268Y-105775897D01*
X114588903Y-105764803D01*
X114612999Y-105762430D01*
X114698579Y-105736470D01*
X114777449Y-105694313D01*
X114846579Y-105637579D01*
X114860795Y-105620257D01*
X115113259Y-105367793D01*
X115130579Y-105353579D01*
X115187313Y-105284449D01*
X115229470Y-105205579D01*
X115237438Y-105179313D01*
X115251418Y-105133226D01*
X115251418Y-106140000D01*
X115257732Y-106204103D01*
X115276430Y-106265743D01*
X115306794Y-106322550D01*
X115347657Y-106372343D01*
X115397450Y-106413206D01*
X115454257Y-106443570D01*
X115499618Y-106457330D01*
X114781675Y-107175273D01*
X114781000Y-107169750D01*
X114653250Y-107042000D01*
X113597000Y-107042000D01*
X113597000Y-107062000D01*
X113343000Y-107062000D01*
X113343000Y-107042000D01*
X112286750Y-107042000D01*
X112159000Y-107169750D01*
X112156527Y-107190000D01*
X112166393Y-107290174D01*
X112195613Y-107386498D01*
X112243063Y-107475270D01*
X112306920Y-107553080D01*
X112341418Y-107581392D01*
X112341418Y-107990000D01*
X112347732Y-108054103D01*
X112366205Y-108115000D01*
X112347732Y-108175897D01*
X112341418Y-108240000D01*
X112341418Y-108790000D01*
X112347732Y-108854103D01*
X112366205Y-108915000D01*
X112347732Y-108975897D01*
X112341418Y-109040000D01*
X112341418Y-109590000D01*
X112347732Y-109654103D01*
X112366205Y-109715000D01*
X112347732Y-109775897D01*
X112341418Y-109840000D01*
X112341418Y-110390000D01*
X112346490Y-110441490D01*
X112295000Y-110436418D01*
X111745000Y-110436418D01*
X111680897Y-110442732D01*
X111620000Y-110461205D01*
X111559103Y-110442732D01*
X111495000Y-110436418D01*
X110945000Y-110436418D01*
X110880897Y-110442732D01*
X110820000Y-110461205D01*
X110759103Y-110442732D01*
X110695000Y-110436418D01*
X110145000Y-110436418D01*
X110080897Y-110442732D01*
X110020000Y-110461205D01*
X109959103Y-110442732D01*
X109895000Y-110436418D01*
X109345000Y-110436418D01*
X109280897Y-110442732D01*
X109220000Y-110461205D01*
X109159103Y-110442732D01*
X109095000Y-110436418D01*
X108545000Y-110436418D01*
X108480897Y-110442732D01*
X108454000Y-110450891D01*
X108454000Y-109215737D01*
X108482708Y-109146428D01*
X108502000Y-109049443D01*
X108502000Y-108950557D01*
X108482708Y-108853572D01*
X108444867Y-108762214D01*
X108389929Y-108679994D01*
X108320006Y-108610071D01*
X108237786Y-108555133D01*
X108146428Y-108517292D01*
X108049443Y-108498000D01*
X107950557Y-108498000D01*
X107853572Y-108517292D01*
X107762214Y-108555133D01*
X107679994Y-108610071D01*
X107672000Y-108618065D01*
X107672000Y-107967223D01*
X108587224Y-107052000D01*
X109579435Y-107052000D01*
X109653572Y-107082708D01*
X109750557Y-107102000D01*
X109849443Y-107102000D01*
X109946428Y-107082708D01*
X110037786Y-107044867D01*
X110120006Y-106989929D01*
X110189929Y-106920006D01*
X110244867Y-106837786D01*
X110282708Y-106746428D01*
X110302000Y-106649443D01*
X110302000Y-106550557D01*
X110282794Y-106454002D01*
X110384263Y-106454002D01*
X110453572Y-106482710D01*
X110550557Y-106502002D01*
X110649443Y-106502002D01*
X110746428Y-106482710D01*
X110837786Y-106444869D01*
X110920006Y-106389931D01*
X110989929Y-106320008D01*
X111044867Y-106237788D01*
X111082708Y-106146430D01*
X111102000Y-106049445D01*
X111102000Y-105950559D01*
X111082708Y-105853574D01*
X111044867Y-105762216D01*
X110989929Y-105679996D01*
X110920006Y-105610073D01*
X110837786Y-105555135D01*
X110746428Y-105517294D01*
X110649443Y-105498002D01*
X110550557Y-105498002D01*
X110453572Y-105517294D01*
X110384263Y-105546002D01*
X108222282Y-105546002D01*
X108199997Y-105543807D01*
X108177712Y-105546002D01*
X108177703Y-105546002D01*
X108110999Y-105552572D01*
X108025419Y-105578532D01*
X107946549Y-105620689D01*
X107946547Y-105620690D01*
X107946548Y-105620690D01*
X107908173Y-105652184D01*
X107877419Y-105677423D01*
X107863208Y-105694739D01*
X106694739Y-106863209D01*
X106463209Y-107094739D01*
X106450266Y-107110510D01*
X106261351Y-107299425D01*
X106244387Y-107243502D01*
X106196937Y-107154730D01*
X106133080Y-107076920D01*
X106098582Y-107048608D01*
X106098582Y-106781392D01*
X106133080Y-106753080D01*
X106196937Y-106675270D01*
X106244387Y-106586498D01*
X106273607Y-106490174D01*
X106283473Y-106390000D01*
X106281000Y-106369750D01*
X106153250Y-106242000D01*
X105097000Y-106242000D01*
X105097000Y-106262000D01*
X104843000Y-106262000D01*
X104843000Y-106242000D01*
X103786750Y-106242000D01*
X103659000Y-106369750D01*
X103656527Y-106390000D01*
X103663520Y-106461000D01*
X103526553Y-106461000D01*
X103293582Y-106228029D01*
X103293582Y-105547000D01*
X103287268Y-105482897D01*
X103268570Y-105421257D01*
X103238206Y-105364450D01*
X103197343Y-105314657D01*
X103147550Y-105273794D01*
X103090743Y-105243430D01*
X103029103Y-105224732D01*
X102965000Y-105218418D01*
X102689000Y-105218418D01*
X102689000Y-103794582D01*
X102958000Y-103794582D01*
X103022103Y-103788268D01*
X103083743Y-103769570D01*
X103140550Y-103739206D01*
X103190343Y-103698343D01*
X103231206Y-103648550D01*
X103261570Y-103591743D01*
X103280268Y-103530103D01*
X103286582Y-103466000D01*
X103286582Y-101766000D01*
X103280268Y-101701897D01*
X103261570Y-101640257D01*
X103231206Y-101583450D01*
X103190343Y-101533657D01*
X103140550Y-101492794D01*
X103083743Y-101462430D01*
X103022103Y-101443732D01*
X102958000Y-101437418D01*
X101258000Y-101437418D01*
X101193897Y-101443732D01*
X101132257Y-101462430D01*
X101075450Y-101492794D01*
X101025657Y-101533657D01*
X100984794Y-101583450D01*
X100954430Y-101640257D01*
X100935732Y-101701897D01*
X100929418Y-101766000D01*
X100929418Y-103466000D01*
X100935732Y-103530103D01*
X100954430Y-103591743D01*
X100984794Y-103648550D01*
X101025657Y-103698343D01*
X101075450Y-103739206D01*
X101132257Y-103769570D01*
X101193897Y-103788268D01*
X101258000Y-103794582D01*
X101527000Y-103794582D01*
X101527001Y-105218418D01*
X101465000Y-105218418D01*
X101400897Y-105224732D01*
X101339257Y-105243430D01*
X101282450Y-105273794D01*
X101232657Y-105314657D01*
X101191794Y-105364450D01*
X101161430Y-105421257D01*
X101142732Y-105482897D01*
X101136418Y-105547000D01*
X101136418Y-106797000D01*
X101142732Y-106861103D01*
X101161430Y-106922743D01*
X101191794Y-106979550D01*
X101232657Y-107029343D01*
X101282450Y-107070206D01*
X101339257Y-107100570D01*
X101400897Y-107119268D01*
X101465000Y-107125582D01*
X101634000Y-107125582D01*
X101634001Y-108266418D01*
X101465000Y-108266418D01*
X101400897Y-108272732D01*
X101339257Y-108291430D01*
X101282450Y-108321794D01*
X101232657Y-108362657D01*
X101191794Y-108412450D01*
X101161430Y-108469257D01*
X101142732Y-108530897D01*
X101136418Y-108595000D01*
X101136418Y-109845000D01*
X101142732Y-109909103D01*
X101161430Y-109970743D01*
X101191794Y-110027550D01*
X101232657Y-110077343D01*
X101282450Y-110118206D01*
X101339257Y-110148570D01*
X101400897Y-110167268D01*
X101465000Y-110173582D01*
X101634000Y-110173582D01*
X101634001Y-111295131D01*
X101627897Y-111295732D01*
X101566257Y-111314430D01*
X101509450Y-111344794D01*
X101459657Y-111385657D01*
X101418794Y-111435450D01*
X101388430Y-111492257D01*
X101369732Y-111553897D01*
X101363418Y-111618000D01*
X101363418Y-112918000D01*
X101369732Y-112982103D01*
X101388430Y-113043743D01*
X101418794Y-113100550D01*
X101459657Y-113150343D01*
X101509450Y-113191206D01*
X101566257Y-113221570D01*
X101627897Y-113240268D01*
X101692000Y-113246582D01*
X103192000Y-113246582D01*
X103256103Y-113240268D01*
X103317743Y-113221570D01*
X103374550Y-113191206D01*
X103424343Y-113150343D01*
X103465206Y-113100550D01*
X103495570Y-113043743D01*
X103514268Y-112982103D01*
X103520582Y-112918000D01*
X103520582Y-111618000D01*
X103514268Y-111553897D01*
X103495570Y-111492257D01*
X103465206Y-111435450D01*
X103424343Y-111385657D01*
X103374550Y-111344794D01*
X103317743Y-111314430D01*
X103256103Y-111295732D01*
X103192000Y-111289418D01*
X102796000Y-111289418D01*
X102796000Y-110173582D01*
X102965000Y-110173582D01*
X103029103Y-110167268D01*
X103090743Y-110148570D01*
X103147550Y-110118206D01*
X103197343Y-110077343D01*
X103238206Y-110027550D01*
X103268570Y-109970743D01*
X103287268Y-109909103D01*
X103293582Y-109845000D01*
X103293582Y-109668850D01*
X103307999Y-109667430D01*
X103393579Y-109641470D01*
X103472449Y-109599313D01*
X103541579Y-109542579D01*
X103555794Y-109525258D01*
X103841418Y-109239634D01*
X103841418Y-109590000D01*
X103847732Y-109654103D01*
X103866205Y-109715000D01*
X103847732Y-109775897D01*
X103841418Y-109840000D01*
X103841418Y-110390000D01*
X103847732Y-110454103D01*
X103866430Y-110515743D01*
X103896794Y-110572550D01*
X103937657Y-110622343D01*
X103987450Y-110663206D01*
X104044257Y-110693570D01*
X104105897Y-110712268D01*
X104170000Y-110718582D01*
X105770000Y-110718582D01*
X105821490Y-110713510D01*
X105816418Y-110765000D01*
X105816418Y-112365000D01*
X105822732Y-112429103D01*
X105841430Y-112490743D01*
X105871794Y-112547550D01*
X105912657Y-112597343D01*
X105962450Y-112638206D01*
X106019257Y-112668570D01*
X106080897Y-112687268D01*
X106145000Y-112693582D01*
X106695000Y-112693582D01*
X106759103Y-112687268D01*
X106820000Y-112668795D01*
X106880897Y-112687268D01*
X106945000Y-112693582D01*
X107495000Y-112693582D01*
X107559103Y-112687268D01*
X107620000Y-112668795D01*
X107680897Y-112687268D01*
X107745000Y-112693582D01*
X108103366Y-112693582D01*
X108050948Y-112746000D01*
X105822287Y-112746000D01*
X105799999Y-112743805D01*
X105777711Y-112746000D01*
X105777705Y-112746000D01*
X105720301Y-112751654D01*
X105711000Y-112752570D01*
X105675938Y-112763206D01*
X105625421Y-112778530D01*
X105546551Y-112820687D01*
X105477421Y-112877421D01*
X105463210Y-112894737D01*
X103241948Y-115116000D01*
X103051781Y-115116000D01*
X103050738Y-115110755D01*
X103032041Y-115049117D01*
X102994532Y-114958561D01*
X102964167Y-114901751D01*
X102909711Y-114820252D01*
X102868848Y-114770460D01*
X102799540Y-114701152D01*
X102749748Y-114660289D01*
X102668249Y-114605833D01*
X102611439Y-114575468D01*
X102520883Y-114537959D01*
X102459245Y-114519262D01*
X102363112Y-114500140D01*
X102299009Y-114493826D01*
X102274447Y-114493826D01*
X102250000Y-114491418D01*
X101750000Y-114491418D01*
X101685897Y-114497732D01*
X101624257Y-114516430D01*
X101567450Y-114546794D01*
X101517657Y-114587657D01*
X101476794Y-114637450D01*
X101446430Y-114694257D01*
X101427732Y-114755897D01*
X101421418Y-114820000D01*
X101421418Y-116320000D01*
X101427732Y-116384103D01*
X101446430Y-116445743D01*
X101476794Y-116502550D01*
X101517657Y-116552343D01*
X101567450Y-116593206D01*
X101624257Y-116623570D01*
X101685897Y-116642268D01*
X101750000Y-116648582D01*
X102250000Y-116648582D01*
X102274447Y-116646174D01*
X102299009Y-116646174D01*
X102363112Y-116639860D01*
X102459245Y-116620738D01*
X102520883Y-116602041D01*
X102611439Y-116564532D01*
X102668249Y-116534167D01*
X102749748Y-116479711D01*
X102799540Y-116438848D01*
X102868848Y-116369540D01*
X102909711Y-116319748D01*
X102964167Y-116238249D01*
X102994532Y-116181439D01*
X103032041Y-116090883D01*
X103050738Y-116029245D01*
X103051781Y-116024000D01*
X103407712Y-116024000D01*
X103430000Y-116026195D01*
X103452288Y-116024000D01*
X103452295Y-116024000D01*
X103518999Y-116017430D01*
X103604579Y-115991470D01*
X103683449Y-115949313D01*
X103752579Y-115892579D01*
X103766794Y-115875258D01*
X105988053Y-113654000D01*
X108216712Y-113654000D01*
X108239000Y-113656195D01*
X108261288Y-113654000D01*
X108261295Y-113654000D01*
X108327999Y-113647430D01*
X108413579Y-113621470D01*
X108492449Y-113579313D01*
X108561579Y-113522579D01*
X108575794Y-113505258D01*
X109125263Y-112955790D01*
X109142579Y-112941579D01*
X109199313Y-112872449D01*
X109241470Y-112793579D01*
X109241473Y-112793570D01*
X109267430Y-112708000D01*
X109269803Y-112683903D01*
X109280897Y-112687268D01*
X109345000Y-112693582D01*
X109895000Y-112693582D01*
X109959103Y-112687268D01*
X110020000Y-112668795D01*
X110080897Y-112687268D01*
X110145000Y-112693582D01*
X110664365Y-112693582D01*
X109261741Y-114096207D01*
X109244420Y-114110422D01*
X109187686Y-114179553D01*
X109145529Y-114258423D01*
X109119569Y-114344003D01*
X109112999Y-114410707D01*
X109112999Y-114410713D01*
X109110804Y-114433001D01*
X109112999Y-114455289D01*
X109112999Y-115449469D01*
X108954294Y-115290764D01*
X108761519Y-115161956D01*
X108547318Y-115073231D01*
X108319924Y-115028000D01*
X108088076Y-115028000D01*
X107860682Y-115073231D01*
X107646481Y-115161956D01*
X107453706Y-115290764D01*
X107289764Y-115454706D01*
X107160956Y-115647481D01*
X107072231Y-115861682D01*
X107027000Y-116089076D01*
X107027000Y-116320924D01*
X107072231Y-116548318D01*
X107160956Y-116762519D01*
X107289764Y-116955294D01*
X107453706Y-117119236D01*
X107646481Y-117248044D01*
X107860682Y-117336769D01*
X108088076Y-117382000D01*
X108319924Y-117382000D01*
X108547318Y-117336769D01*
X108761519Y-117248044D01*
X108954294Y-117119236D01*
X109113000Y-116960530D01*
X109113000Y-117545701D01*
X109110804Y-117567999D01*
X109119569Y-117656998D01*
X109145529Y-117742577D01*
X109145530Y-117742578D01*
X109177675Y-117802717D01*
X109112848Y-117731919D01*
X108897742Y-117574078D01*
X108655976Y-117461235D01*
X108541415Y-117426488D01*
X108331000Y-117518307D01*
X108331000Y-118618000D01*
X109431317Y-118618000D01*
X109522517Y-118407584D01*
X109431355Y-118156837D01*
X109304402Y-117947455D01*
X109655110Y-118298163D01*
X109612231Y-118401682D01*
X109567000Y-118629076D01*
X109567000Y-118860924D01*
X109612231Y-119088318D01*
X109700956Y-119302519D01*
X109829764Y-119495294D01*
X109993706Y-119659236D01*
X110186481Y-119788044D01*
X110400682Y-119876769D01*
X110628076Y-119922000D01*
X110859924Y-119922000D01*
X111087318Y-119876769D01*
X111301519Y-119788044D01*
X111494294Y-119659236D01*
X111658236Y-119495294D01*
X111787044Y-119302519D01*
X111875769Y-119088318D01*
X111921000Y-118860924D01*
X111921000Y-118629076D01*
X111875769Y-118401682D01*
X111787044Y-118187481D01*
X111658236Y-117994706D01*
X111494294Y-117830764D01*
X111301519Y-117701956D01*
X111087318Y-117613231D01*
X110859924Y-117568000D01*
X110628076Y-117568000D01*
X110400682Y-117613231D01*
X110297163Y-117656110D01*
X110020999Y-117379947D01*
X110020999Y-117137473D01*
X110186481Y-117248044D01*
X110400682Y-117336769D01*
X110628076Y-117382000D01*
X110859924Y-117382000D01*
X111087318Y-117336769D01*
X111190837Y-117293890D01*
X111770207Y-117873260D01*
X111784420Y-117890578D01*
X111853550Y-117947312D01*
X111932420Y-117989469D01*
X112017999Y-118015429D01*
X112026420Y-118016258D01*
X112084704Y-118021999D01*
X112084711Y-118021999D01*
X112106999Y-118024194D01*
X112129287Y-118021999D01*
X112351527Y-118021999D01*
X112240956Y-118187481D01*
X112152231Y-118401682D01*
X112107000Y-118629076D01*
X112107000Y-118860924D01*
X112152231Y-119088318D01*
X112240956Y-119302519D01*
X112369764Y-119495294D01*
X112533706Y-119659236D01*
X112726481Y-119788044D01*
X112940682Y-119876769D01*
X113168076Y-119922000D01*
X113399924Y-119922000D01*
X113627318Y-119876769D01*
X113841519Y-119788044D01*
X114034294Y-119659236D01*
X114198236Y-119495294D01*
X114311355Y-119326000D01*
X115226460Y-119326000D01*
X115255000Y-119328811D01*
X115283540Y-119326000D01*
X115368896Y-119317593D01*
X115478415Y-119284371D01*
X115579348Y-119230421D01*
X115667817Y-119157817D01*
X115686017Y-119135640D01*
X116595645Y-118226013D01*
X116617817Y-118207817D01*
X116690421Y-118119348D01*
X116744371Y-118018415D01*
X116777593Y-117908896D01*
X116786000Y-117823540D01*
X116788811Y-117795000D01*
X116786000Y-117766460D01*
X116786000Y-112818582D01*
X116830000Y-112818582D01*
X116894103Y-112812268D01*
X116955743Y-112793570D01*
X117012550Y-112763206D01*
X117062343Y-112722343D01*
X117103206Y-112672550D01*
X117133570Y-112615743D01*
X117152268Y-112554103D01*
X117158582Y-112490000D01*
X117158582Y-110990000D01*
X117152268Y-110925897D01*
X117133570Y-110864257D01*
X117103206Y-110807450D01*
X117062343Y-110757657D01*
X117012550Y-110716794D01*
X116955743Y-110686430D01*
X116894103Y-110667732D01*
X116830000Y-110661418D01*
X115580000Y-110661418D01*
X115515897Y-110667732D01*
X115454257Y-110686430D01*
X115454000Y-110686567D01*
X115454000Y-110485773D01*
X115479826Y-110493607D01*
X115580000Y-110503473D01*
X115950250Y-110501000D01*
X116078000Y-110373250D01*
X116078000Y-109367000D01*
X116332000Y-109367000D01*
X116332000Y-110373250D01*
X116459750Y-110501000D01*
X116830000Y-110503473D01*
X116930174Y-110493607D01*
X117026498Y-110464387D01*
X117115270Y-110416937D01*
X117193080Y-110353080D01*
X117256937Y-110275270D01*
X117304387Y-110186498D01*
X117333607Y-110090174D01*
X117343473Y-109990000D01*
X117341000Y-109494750D01*
X117213250Y-109367000D01*
X116332000Y-109367000D01*
X116078000Y-109367000D01*
X115196750Y-109367000D01*
X115112202Y-109451548D01*
X114670396Y-109009742D01*
X114656181Y-108992421D01*
X114587051Y-108935687D01*
X114578720Y-108931234D01*
X114573795Y-108915000D01*
X114592268Y-108854103D01*
X114598582Y-108790000D01*
X114598582Y-108490000D01*
X115066527Y-108490000D01*
X115069000Y-108985250D01*
X115196750Y-109113000D01*
X116078000Y-109113000D01*
X116078000Y-108106750D01*
X116332000Y-108106750D01*
X116332000Y-109113000D01*
X117213250Y-109113000D01*
X117341000Y-108985250D01*
X117343473Y-108490000D01*
X117333607Y-108389826D01*
X117304387Y-108293502D01*
X117256937Y-108204730D01*
X117193080Y-108126920D01*
X117115270Y-108063063D01*
X117026498Y-108015613D01*
X116930174Y-107986393D01*
X116830000Y-107976527D01*
X116459750Y-107979000D01*
X116332000Y-108106750D01*
X116078000Y-108106750D01*
X115950250Y-107979000D01*
X115580000Y-107976527D01*
X115479826Y-107986393D01*
X115383502Y-108015613D01*
X115294730Y-108063063D01*
X115216920Y-108126920D01*
X115153063Y-108204730D01*
X115105613Y-108293502D01*
X115076393Y-108389826D01*
X115066527Y-108490000D01*
X114598582Y-108490000D01*
X114598582Y-108240000D01*
X114592268Y-108175897D01*
X114590176Y-108169000D01*
X114861712Y-108169000D01*
X114884000Y-108171195D01*
X114906288Y-108169000D01*
X114906295Y-108169000D01*
X114972999Y-108162430D01*
X115058579Y-108136470D01*
X115137449Y-108094313D01*
X115206579Y-108037579D01*
X115220794Y-108020258D01*
X116510264Y-106730789D01*
X116527579Y-106716579D01*
X116550535Y-106688608D01*
X116576129Y-106657421D01*
X116584313Y-106647449D01*
X116626470Y-106568579D01*
X116636448Y-106535687D01*
X116652430Y-106483000D01*
X116653850Y-106468582D01*
X116830000Y-106468582D01*
X116894103Y-106462268D01*
X116955743Y-106443570D01*
X117012550Y-106413206D01*
X117062343Y-106372343D01*
X117103206Y-106322550D01*
X117133570Y-106265743D01*
X117152268Y-106204103D01*
X117158582Y-106140000D01*
X117158582Y-104640000D01*
X117152268Y-104575897D01*
X117133570Y-104514257D01*
X117103206Y-104457450D01*
X117062343Y-104407657D01*
X117012550Y-104366794D01*
X116955743Y-104336430D01*
X116894103Y-104317732D01*
X116830000Y-104311418D01*
X115580000Y-104311418D01*
X115515897Y-104317732D01*
X115454257Y-104336430D01*
X115397450Y-104366794D01*
X115347657Y-104407657D01*
X115306794Y-104457450D01*
X115276430Y-104514257D01*
X115262000Y-104561827D01*
X115262000Y-104040076D01*
X115294730Y-104066937D01*
X115383502Y-104114387D01*
X115479826Y-104143607D01*
X115580000Y-104153473D01*
X115950250Y-104151000D01*
X116078000Y-104023250D01*
X116078000Y-103017000D01*
X116332000Y-103017000D01*
X116332000Y-104023250D01*
X116459750Y-104151000D01*
X116830000Y-104153473D01*
X116930174Y-104143607D01*
X117026498Y-104114387D01*
X117115270Y-104066937D01*
X117193080Y-104003080D01*
X117256937Y-103925270D01*
X117304387Y-103836498D01*
X117333607Y-103740174D01*
X117343473Y-103640000D01*
X117341000Y-103144750D01*
X117213250Y-103017000D01*
X116332000Y-103017000D01*
X116078000Y-103017000D01*
X116058000Y-103017000D01*
X116058000Y-102763000D01*
X116078000Y-102763000D01*
X116078000Y-101756750D01*
X116332000Y-101756750D01*
X116332000Y-102763000D01*
X117213250Y-102763000D01*
X117341000Y-102635250D01*
X117343473Y-102140000D01*
X117333607Y-102039826D01*
X117304387Y-101943502D01*
X117256937Y-101854730D01*
X117193080Y-101776920D01*
X117115270Y-101713063D01*
X117026498Y-101665613D01*
X116930174Y-101636393D01*
X116830000Y-101626527D01*
X116459750Y-101629000D01*
X116332000Y-101756750D01*
X116078000Y-101756750D01*
X115950250Y-101629000D01*
X115580000Y-101626527D01*
X115479826Y-101636393D01*
X115383502Y-101665613D01*
X115294730Y-101713063D01*
X115216920Y-101776920D01*
X115153063Y-101854730D01*
X115105613Y-101943502D01*
X115076393Y-102039826D01*
X115066527Y-102140000D01*
X115068266Y-102488213D01*
X113223000Y-100642948D01*
X113223000Y-99404885D01*
X113301266Y-99593835D01*
X113424602Y-99778421D01*
X113581579Y-99935398D01*
X113766165Y-100058734D01*
X113971266Y-100143690D01*
X114189000Y-100187000D01*
X114411000Y-100187000D01*
X114628734Y-100143690D01*
X114833835Y-100058734D01*
X114888812Y-100022000D01*
X116251188Y-100022000D01*
X116306165Y-100058734D01*
X116511266Y-100143690D01*
X116729000Y-100187000D01*
X116951000Y-100187000D01*
X117168734Y-100143690D01*
X117373835Y-100058734D01*
X117558421Y-99935398D01*
X117715398Y-99778421D01*
X117838734Y-99593835D01*
X117848001Y-99571463D01*
X117848001Y-120848000D01*
X97952000Y-120848000D01*
X97952000Y-119082416D01*
X106885483Y-119082416D01*
X106976645Y-119333163D01*
X107114973Y-119561307D01*
X107295152Y-119758081D01*
X107510258Y-119915922D01*
X107752024Y-120028765D01*
X107866585Y-120063512D01*
X108077000Y-119971693D01*
X108077000Y-118872000D01*
X108331000Y-118872000D01*
X108331000Y-119971693D01*
X108541415Y-120063512D01*
X108655976Y-120028765D01*
X108897742Y-119915922D01*
X109112848Y-119758081D01*
X109293027Y-119561307D01*
X109431355Y-119333163D01*
X109522517Y-119082416D01*
X109431317Y-118872000D01*
X108331000Y-118872000D01*
X108077000Y-118872000D01*
X106976683Y-118872000D01*
X106885483Y-119082416D01*
X97952000Y-119082416D01*
X97952000Y-118407584D01*
X106885483Y-118407584D01*
X106976683Y-118618000D01*
X108077000Y-118618000D01*
X108077000Y-117518307D01*
X107866585Y-117426488D01*
X107752024Y-117461235D01*
X107510258Y-117574078D01*
X107295152Y-117731919D01*
X107114973Y-117928693D01*
X106976645Y-118156837D01*
X106885483Y-118407584D01*
X97952000Y-118407584D01*
X97952000Y-112918000D01*
X98478527Y-112918000D01*
X98488393Y-113018174D01*
X98517613Y-113114498D01*
X98565063Y-113203270D01*
X98628920Y-113281080D01*
X98706730Y-113344937D01*
X98795502Y-113392387D01*
X98891826Y-113421607D01*
X98992000Y-113431473D01*
X99487250Y-113429000D01*
X99615000Y-113301250D01*
X99615000Y-112395000D01*
X99869000Y-112395000D01*
X99869000Y-113301250D01*
X99996750Y-113429000D01*
X100492000Y-113431473D01*
X100592174Y-113421607D01*
X100688498Y-113392387D01*
X100777270Y-113344937D01*
X100855080Y-113281080D01*
X100918937Y-113203270D01*
X100966387Y-113114498D01*
X100995607Y-113018174D01*
X101005473Y-112918000D01*
X101003000Y-112522750D01*
X100875250Y-112395000D01*
X99869000Y-112395000D01*
X99615000Y-112395000D01*
X98608750Y-112395000D01*
X98481000Y-112522750D01*
X98478527Y-112918000D01*
X97952000Y-112918000D01*
X97952000Y-111618000D01*
X98478527Y-111618000D01*
X98481000Y-112013250D01*
X98608750Y-112141000D01*
X99615000Y-112141000D01*
X99615000Y-111234750D01*
X99869000Y-111234750D01*
X99869000Y-112141000D01*
X100875250Y-112141000D01*
X101003000Y-112013250D01*
X101005473Y-111618000D01*
X100995607Y-111517826D01*
X100966387Y-111421502D01*
X100918937Y-111332730D01*
X100855080Y-111254920D01*
X100777270Y-111191063D01*
X100688498Y-111143613D01*
X100592174Y-111114393D01*
X100492000Y-111104527D01*
X99996750Y-111107000D01*
X99869000Y-111234750D01*
X99615000Y-111234750D01*
X99487250Y-111107000D01*
X98992000Y-111104527D01*
X98891826Y-111114393D01*
X98795502Y-111143613D01*
X98706730Y-111191063D01*
X98628920Y-111254920D01*
X98565063Y-111332730D01*
X98517613Y-111421502D01*
X98488393Y-111517826D01*
X98478527Y-111618000D01*
X97952000Y-111618000D01*
X97952000Y-109845000D01*
X98451527Y-109845000D01*
X98461393Y-109945174D01*
X98490613Y-110041498D01*
X98538063Y-110130270D01*
X98601920Y-110208080D01*
X98679730Y-110271937D01*
X98768502Y-110319387D01*
X98864826Y-110348607D01*
X98965000Y-110358473D01*
X99460250Y-110356000D01*
X99588000Y-110228250D01*
X99588000Y-109347000D01*
X99842000Y-109347000D01*
X99842000Y-110228250D01*
X99969750Y-110356000D01*
X100465000Y-110358473D01*
X100565174Y-110348607D01*
X100661498Y-110319387D01*
X100750270Y-110271937D01*
X100828080Y-110208080D01*
X100891937Y-110130270D01*
X100939387Y-110041498D01*
X100968607Y-109945174D01*
X100978473Y-109845000D01*
X100976000Y-109474750D01*
X100848250Y-109347000D01*
X99842000Y-109347000D01*
X99588000Y-109347000D01*
X98581750Y-109347000D01*
X98454000Y-109474750D01*
X98451527Y-109845000D01*
X97952000Y-109845000D01*
X97952000Y-108595000D01*
X98451527Y-108595000D01*
X98454000Y-108965250D01*
X98581750Y-109093000D01*
X99588000Y-109093000D01*
X99588000Y-108211750D01*
X99842000Y-108211750D01*
X99842000Y-109093000D01*
X100848250Y-109093000D01*
X100976000Y-108965250D01*
X100978473Y-108595000D01*
X100968607Y-108494826D01*
X100939387Y-108398502D01*
X100891937Y-108309730D01*
X100828080Y-108231920D01*
X100750270Y-108168063D01*
X100661498Y-108120613D01*
X100565174Y-108091393D01*
X100465000Y-108081527D01*
X99969750Y-108084000D01*
X99842000Y-108211750D01*
X99588000Y-108211750D01*
X99460250Y-108084000D01*
X98965000Y-108081527D01*
X98864826Y-108091393D01*
X98768502Y-108120613D01*
X98679730Y-108168063D01*
X98601920Y-108231920D01*
X98538063Y-108309730D01*
X98490613Y-108398502D01*
X98461393Y-108494826D01*
X98451527Y-108595000D01*
X97952000Y-108595000D01*
X97952000Y-106797000D01*
X98451527Y-106797000D01*
X98461393Y-106897174D01*
X98490613Y-106993498D01*
X98538063Y-107082270D01*
X98601920Y-107160080D01*
X98679730Y-107223937D01*
X98768502Y-107271387D01*
X98864826Y-107300607D01*
X98965000Y-107310473D01*
X99460250Y-107308000D01*
X99588000Y-107180250D01*
X99588000Y-106299000D01*
X99842000Y-106299000D01*
X99842000Y-107180250D01*
X99969750Y-107308000D01*
X100465000Y-107310473D01*
X100565174Y-107300607D01*
X100661498Y-107271387D01*
X100750270Y-107223937D01*
X100828080Y-107160080D01*
X100891937Y-107082270D01*
X100939387Y-106993498D01*
X100968607Y-106897174D01*
X100978473Y-106797000D01*
X100976000Y-106426750D01*
X100848250Y-106299000D01*
X99842000Y-106299000D01*
X99588000Y-106299000D01*
X98581750Y-106299000D01*
X98454000Y-106426750D01*
X98451527Y-106797000D01*
X97952000Y-106797000D01*
X97952000Y-105547000D01*
X98451527Y-105547000D01*
X98454000Y-105917250D01*
X98581750Y-106045000D01*
X99588000Y-106045000D01*
X99588000Y-105163750D01*
X99842000Y-105163750D01*
X99842000Y-106045000D01*
X100848250Y-106045000D01*
X100976000Y-105917250D01*
X100978473Y-105547000D01*
X100968607Y-105446826D01*
X100939387Y-105350502D01*
X100891937Y-105261730D01*
X100828080Y-105183920D01*
X100750270Y-105120063D01*
X100661498Y-105072613D01*
X100565174Y-105043393D01*
X100465000Y-105033527D01*
X99969750Y-105036000D01*
X99842000Y-105163750D01*
X99588000Y-105163750D01*
X99460250Y-105036000D01*
X98965000Y-105033527D01*
X98864826Y-105043393D01*
X98768502Y-105072613D01*
X98679730Y-105120063D01*
X98601920Y-105183920D01*
X98538063Y-105261730D01*
X98490613Y-105350502D01*
X98461393Y-105446826D01*
X98451527Y-105547000D01*
X97952000Y-105547000D01*
X97952000Y-99266519D01*
X97976310Y-99388734D01*
G36*
X114546001Y-111391702D02*
G01*
X114543805Y-111414000D01*
X114552570Y-111502999D01*
X114578530Y-111588578D01*
X114578531Y-111588579D01*
X114620688Y-111667449D01*
X114677422Y-111736579D01*
X114694737Y-111750790D01*
X114989210Y-112045263D01*
X115003421Y-112062579D01*
X115072551Y-112119313D01*
X115137642Y-112154105D01*
X115151421Y-112161470D01*
X115237000Y-112187430D01*
X115245421Y-112188259D01*
X115251418Y-112188850D01*
X115251418Y-112490000D01*
X115257732Y-112554103D01*
X115276430Y-112615743D01*
X115306794Y-112672550D01*
X115347657Y-112722343D01*
X115397450Y-112763206D01*
X115454257Y-112793570D01*
X115515897Y-112812268D01*
X115580000Y-112818582D01*
X115624000Y-112818582D01*
X115624001Y-117554341D01*
X115014343Y-118164000D01*
X114311355Y-118164000D01*
X114216473Y-118021999D01*
X114609713Y-118021999D01*
X114632001Y-118024194D01*
X114654289Y-118021999D01*
X114654296Y-118021999D01*
X114721000Y-118015429D01*
X114806580Y-117989469D01*
X114885450Y-117947312D01*
X114954580Y-117890578D01*
X114968795Y-117873257D01*
X115305263Y-117536790D01*
X115322579Y-117522579D01*
X115379313Y-117453449D01*
X115421470Y-117374579D01*
X115439679Y-117314551D01*
X115447430Y-117289000D01*
X115448346Y-117279699D01*
X115454000Y-117222295D01*
X115454000Y-117222289D01*
X115456195Y-117200001D01*
X115454000Y-117177713D01*
X115454000Y-114222288D01*
X115456195Y-114200000D01*
X115454000Y-114177712D01*
X115454000Y-114177705D01*
X115447430Y-114111001D01*
X115447255Y-114110422D01*
X115421470Y-114025421D01*
X115379313Y-113946551D01*
X115322579Y-113877421D01*
X115305264Y-113863211D01*
X113924000Y-112481948D01*
X113924000Y-110718582D01*
X114270000Y-110718582D01*
X114334103Y-110712268D01*
X114395743Y-110693570D01*
X114452550Y-110663206D01*
X114502343Y-110622343D01*
X114543206Y-110572550D01*
X114546000Y-110567322D01*
X114546001Y-111391702D01*
G37*
X114546001Y-111391702D02*
X114543805Y-111414000D01*
X114552570Y-111502999D01*
X114578530Y-111588578D01*
X114578531Y-111588579D01*
X114620688Y-111667449D01*
X114677422Y-111736579D01*
X114694737Y-111750790D01*
X114989210Y-112045263D01*
X115003421Y-112062579D01*
X115072551Y-112119313D01*
X115137642Y-112154105D01*
X115151421Y-112161470D01*
X115237000Y-112187430D01*
X115245421Y-112188259D01*
X115251418Y-112188850D01*
X115251418Y-112490000D01*
X115257732Y-112554103D01*
X115276430Y-112615743D01*
X115306794Y-112672550D01*
X115347657Y-112722343D01*
X115397450Y-112763206D01*
X115454257Y-112793570D01*
X115515897Y-112812268D01*
X115580000Y-112818582D01*
X115624000Y-112818582D01*
X115624001Y-117554341D01*
X115014343Y-118164000D01*
X114311355Y-118164000D01*
X114216473Y-118021999D01*
X114609713Y-118021999D01*
X114632001Y-118024194D01*
X114654289Y-118021999D01*
X114654296Y-118021999D01*
X114721000Y-118015429D01*
X114806580Y-117989469D01*
X114885450Y-117947312D01*
X114954580Y-117890578D01*
X114968795Y-117873257D01*
X115305263Y-117536790D01*
X115322579Y-117522579D01*
X115379313Y-117453449D01*
X115421470Y-117374579D01*
X115439679Y-117314551D01*
X115447430Y-117289000D01*
X115448346Y-117279699D01*
X115454000Y-117222295D01*
X115454000Y-117222289D01*
X115456195Y-117200001D01*
X115454000Y-117177713D01*
X115454000Y-114222288D01*
X115456195Y-114200000D01*
X115454000Y-114177712D01*
X115454000Y-114177705D01*
X115447430Y-114111001D01*
X115447255Y-114110422D01*
X115421470Y-114025421D01*
X115379313Y-113946551D01*
X115322579Y-113877421D01*
X115305264Y-113863211D01*
X113924000Y-112481948D01*
X113924000Y-110718582D01*
X114270000Y-110718582D01*
X114334103Y-110712268D01*
X114395743Y-110693570D01*
X114452550Y-110663206D01*
X114502343Y-110622343D01*
X114543206Y-110572550D01*
X114546000Y-110567322D01*
X114546001Y-111391702D01*
G36*
X111670103Y-112909291D02*
G01*
X111682390Y-112924262D01*
X111697422Y-112942579D01*
X111714738Y-112956790D01*
X112830000Y-114072053D01*
X112830000Y-115026418D01*
X112434000Y-115026418D01*
X112369897Y-115032732D01*
X112308257Y-115051430D01*
X112251450Y-115081794D01*
X112201657Y-115122657D01*
X112160794Y-115172450D01*
X112130430Y-115229257D01*
X112111732Y-115290897D01*
X112105418Y-115355000D01*
X112105418Y-116924365D01*
X111832890Y-116651837D01*
X111875769Y-116548318D01*
X111921000Y-116320924D01*
X111921000Y-116089076D01*
X111875769Y-115861682D01*
X111787044Y-115647481D01*
X111658236Y-115454706D01*
X111494294Y-115290764D01*
X111301519Y-115161956D01*
X111087318Y-115073231D01*
X110859924Y-115028000D01*
X110628076Y-115028000D01*
X110400682Y-115073231D01*
X110186481Y-115161956D01*
X110020999Y-115272527D01*
X110020999Y-114621053D01*
X111525263Y-113116790D01*
X111542579Y-113102579D01*
X111599313Y-113033449D01*
X111641470Y-112954579D01*
X111659228Y-112896039D01*
X111670103Y-112909291D01*
G37*
X111670103Y-112909291D02*
X111682390Y-112924262D01*
X111697422Y-112942579D01*
X111714738Y-112956790D01*
X112830000Y-114072053D01*
X112830000Y-115026418D01*
X112434000Y-115026418D01*
X112369897Y-115032732D01*
X112308257Y-115051430D01*
X112251450Y-115081794D01*
X112201657Y-115122657D01*
X112160794Y-115172450D01*
X112130430Y-115229257D01*
X112111732Y-115290897D01*
X112105418Y-115355000D01*
X112105418Y-116924365D01*
X111832890Y-116651837D01*
X111875769Y-116548318D01*
X111921000Y-116320924D01*
X111921000Y-116089076D01*
X111875769Y-115861682D01*
X111787044Y-115647481D01*
X111658236Y-115454706D01*
X111494294Y-115290764D01*
X111301519Y-115161956D01*
X111087318Y-115073231D01*
X110859924Y-115028000D01*
X110628076Y-115028000D01*
X110400682Y-115073231D01*
X110186481Y-115161956D01*
X110020999Y-115272527D01*
X110020999Y-114621053D01*
X111525263Y-113116790D01*
X111542579Y-113102579D01*
X111599313Y-113033449D01*
X111641470Y-112954579D01*
X111659228Y-112896039D01*
X111670103Y-112909291D01*
G36*
X103001710Y-107220263D02*
G01*
X103015921Y-107237579D01*
X103085051Y-107294313D01*
X103160310Y-107334540D01*
X103163921Y-107336470D01*
X103249500Y-107362430D01*
X103257921Y-107363259D01*
X103316205Y-107369000D01*
X103316212Y-107369000D01*
X103338500Y-107371195D01*
X103360788Y-107369000D01*
X103663520Y-107369000D01*
X103656527Y-107440000D01*
X103659000Y-107460250D01*
X103786750Y-107588000D01*
X104843000Y-107588000D01*
X104843000Y-107568000D01*
X105097000Y-107568000D01*
X105097000Y-107588000D01*
X105117000Y-107588000D01*
X105117000Y-107842000D01*
X105097000Y-107842000D01*
X105097000Y-107862000D01*
X104843000Y-107862000D01*
X104843000Y-107842000D01*
X103786750Y-107842000D01*
X103659000Y-107969750D01*
X103656527Y-107990000D01*
X103666393Y-108090174D01*
X103678853Y-108131249D01*
X103670551Y-108135687D01*
X103601421Y-108192421D01*
X103587210Y-108209737D01*
X103282330Y-108514618D01*
X103268570Y-108469257D01*
X103238206Y-108412450D01*
X103197343Y-108362657D01*
X103147550Y-108321794D01*
X103090743Y-108291430D01*
X103029103Y-108272732D01*
X102965000Y-108266418D01*
X102796000Y-108266418D01*
X102796000Y-107125582D01*
X102907029Y-107125582D01*
X103001710Y-107220263D01*
G37*
X103001710Y-107220263D02*
X103015921Y-107237579D01*
X103085051Y-107294313D01*
X103160310Y-107334540D01*
X103163921Y-107336470D01*
X103249500Y-107362430D01*
X103257921Y-107363259D01*
X103316205Y-107369000D01*
X103316212Y-107369000D01*
X103338500Y-107371195D01*
X103360788Y-107369000D01*
X103663520Y-107369000D01*
X103656527Y-107440000D01*
X103659000Y-107460250D01*
X103786750Y-107588000D01*
X104843000Y-107588000D01*
X104843000Y-107568000D01*
X105097000Y-107568000D01*
X105097000Y-107588000D01*
X105117000Y-107588000D01*
X105117000Y-107842000D01*
X105097000Y-107842000D01*
X105097000Y-107862000D01*
X104843000Y-107862000D01*
X104843000Y-107842000D01*
X103786750Y-107842000D01*
X103659000Y-107969750D01*
X103656527Y-107990000D01*
X103666393Y-108090174D01*
X103678853Y-108131249D01*
X103670551Y-108135687D01*
X103601421Y-108192421D01*
X103587210Y-108209737D01*
X103282330Y-108514618D01*
X103268570Y-108469257D01*
X103238206Y-108412450D01*
X103197343Y-108362657D01*
X103147550Y-108321794D01*
X103090743Y-108291430D01*
X103029103Y-108272732D01*
X102965000Y-108266418D01*
X102796000Y-108266418D01*
X102796000Y-107125582D01*
X102907029Y-107125582D01*
X103001710Y-107220263D01*
G36*
X109966001Y-91450120D02*
G01*
X109966000Y-101944824D01*
X109959103Y-101942732D01*
X109895000Y-101936418D01*
X109345000Y-101936418D01*
X109280897Y-101942732D01*
X109220000Y-101961205D01*
X109159103Y-101942732D01*
X109095000Y-101936418D01*
X108545000Y-101936418D01*
X108480897Y-101942732D01*
X108420000Y-101961205D01*
X108359103Y-101942732D01*
X108295000Y-101936418D01*
X107745000Y-101936418D01*
X107680897Y-101942732D01*
X107620000Y-101961205D01*
X107559103Y-101942732D01*
X107495000Y-101936418D01*
X106945000Y-101936418D01*
X106880897Y-101942732D01*
X106820000Y-101961205D01*
X106759103Y-101942732D01*
X106695000Y-101936418D01*
X106378471Y-101936418D01*
X104528355Y-100086303D01*
X104546428Y-100082708D01*
X104615737Y-100054000D01*
X106977712Y-100054000D01*
X107000000Y-100056195D01*
X107022288Y-100054000D01*
X107022295Y-100054000D01*
X107088999Y-100047430D01*
X107174579Y-100021470D01*
X107253449Y-99979313D01*
X107322579Y-99922579D01*
X107336794Y-99905258D01*
X109705264Y-97536789D01*
X109722579Y-97522579D01*
X109779313Y-97453449D01*
X109821470Y-97374579D01*
X109847430Y-97288999D01*
X109854000Y-97222295D01*
X109854000Y-97222288D01*
X109856195Y-97200000D01*
X109854000Y-97177712D01*
X109854000Y-95210737D01*
X109882708Y-95141428D01*
X109902000Y-95044443D01*
X109902000Y-94945557D01*
X109882708Y-94848572D01*
X109844867Y-94757214D01*
X109789929Y-94674994D01*
X109720006Y-94605071D01*
X109637786Y-94550133D01*
X109546428Y-94512292D01*
X109449443Y-94493000D01*
X109350557Y-94493000D01*
X109290978Y-94504851D01*
X109302000Y-94449443D01*
X109302000Y-94350557D01*
X109282708Y-94253572D01*
X109244867Y-94162214D01*
X109189929Y-94079994D01*
X109120006Y-94010071D01*
X109037786Y-93955133D01*
X108946428Y-93917292D01*
X108849443Y-93898000D01*
X108750557Y-93898000D01*
X108689943Y-93910057D01*
X108702000Y-93849443D01*
X108702000Y-93750557D01*
X108682708Y-93653572D01*
X108644867Y-93562214D01*
X108589929Y-93479994D01*
X108520006Y-93410071D01*
X108437786Y-93355133D01*
X108346428Y-93317292D01*
X108249443Y-93298000D01*
X108150557Y-93298000D01*
X108089943Y-93310057D01*
X108102000Y-93249443D01*
X108102000Y-93150557D01*
X108082708Y-93053572D01*
X108044867Y-92962214D01*
X107989929Y-92879994D01*
X107920006Y-92810071D01*
X107837786Y-92755133D01*
X107746428Y-92717292D01*
X107649443Y-92698000D01*
X107550557Y-92698000D01*
X107453572Y-92717292D01*
X107362214Y-92755133D01*
X107279994Y-92810071D01*
X107210071Y-92879994D01*
X107155133Y-92962214D01*
X107117292Y-93053572D01*
X107098000Y-93150557D01*
X107098000Y-93249443D01*
X107117292Y-93346428D01*
X107148001Y-93420567D01*
X107148000Y-96379435D01*
X107117292Y-96453572D01*
X107098000Y-96550557D01*
X107098000Y-96649443D01*
X107117292Y-96746428D01*
X107155133Y-96837786D01*
X107210071Y-96920006D01*
X107279994Y-96989929D01*
X107295065Y-96999999D01*
X107279992Y-97010071D01*
X107210069Y-97079994D01*
X107155131Y-97162214D01*
X107117290Y-97253572D01*
X107097998Y-97350557D01*
X107097998Y-97449443D01*
X107117290Y-97546428D01*
X107155131Y-97637786D01*
X107210069Y-97720006D01*
X107279992Y-97789929D01*
X107295065Y-97800001D01*
X107279994Y-97810071D01*
X107210071Y-97879994D01*
X107155133Y-97962214D01*
X107117292Y-98053572D01*
X107098000Y-98150557D01*
X107098000Y-98249443D01*
X107117292Y-98346428D01*
X107155133Y-98437786D01*
X107210071Y-98520006D01*
X107279994Y-98589929D01*
X107332761Y-98625187D01*
X106811948Y-99146000D01*
X104615737Y-99146000D01*
X104546428Y-99117292D01*
X104449443Y-99098000D01*
X104350557Y-99098000D01*
X104253572Y-99117292D01*
X104162214Y-99155133D01*
X104086000Y-99206058D01*
X104086000Y-85570118D01*
X109966001Y-91450120D01*
G37*
X109966001Y-91450120D02*
X109966000Y-101944824D01*
X109959103Y-101942732D01*
X109895000Y-101936418D01*
X109345000Y-101936418D01*
X109280897Y-101942732D01*
X109220000Y-101961205D01*
X109159103Y-101942732D01*
X109095000Y-101936418D01*
X108545000Y-101936418D01*
X108480897Y-101942732D01*
X108420000Y-101961205D01*
X108359103Y-101942732D01*
X108295000Y-101936418D01*
X107745000Y-101936418D01*
X107680897Y-101942732D01*
X107620000Y-101961205D01*
X107559103Y-101942732D01*
X107495000Y-101936418D01*
X106945000Y-101936418D01*
X106880897Y-101942732D01*
X106820000Y-101961205D01*
X106759103Y-101942732D01*
X106695000Y-101936418D01*
X106378471Y-101936418D01*
X104528355Y-100086303D01*
X104546428Y-100082708D01*
X104615737Y-100054000D01*
X106977712Y-100054000D01*
X107000000Y-100056195D01*
X107022288Y-100054000D01*
X107022295Y-100054000D01*
X107088999Y-100047430D01*
X107174579Y-100021470D01*
X107253449Y-99979313D01*
X107322579Y-99922579D01*
X107336794Y-99905258D01*
X109705264Y-97536789D01*
X109722579Y-97522579D01*
X109779313Y-97453449D01*
X109821470Y-97374579D01*
X109847430Y-97288999D01*
X109854000Y-97222295D01*
X109854000Y-97222288D01*
X109856195Y-97200000D01*
X109854000Y-97177712D01*
X109854000Y-95210737D01*
X109882708Y-95141428D01*
X109902000Y-95044443D01*
X109902000Y-94945557D01*
X109882708Y-94848572D01*
X109844867Y-94757214D01*
X109789929Y-94674994D01*
X109720006Y-94605071D01*
X109637786Y-94550133D01*
X109546428Y-94512292D01*
X109449443Y-94493000D01*
X109350557Y-94493000D01*
X109290978Y-94504851D01*
X109302000Y-94449443D01*
X109302000Y-94350557D01*
X109282708Y-94253572D01*
X109244867Y-94162214D01*
X109189929Y-94079994D01*
X109120006Y-94010071D01*
X109037786Y-93955133D01*
X108946428Y-93917292D01*
X108849443Y-93898000D01*
X108750557Y-93898000D01*
X108689943Y-93910057D01*
X108702000Y-93849443D01*
X108702000Y-93750557D01*
X108682708Y-93653572D01*
X108644867Y-93562214D01*
X108589929Y-93479994D01*
X108520006Y-93410071D01*
X108437786Y-93355133D01*
X108346428Y-93317292D01*
X108249443Y-93298000D01*
X108150557Y-93298000D01*
X108089943Y-93310057D01*
X108102000Y-93249443D01*
X108102000Y-93150557D01*
X108082708Y-93053572D01*
X108044867Y-92962214D01*
X107989929Y-92879994D01*
X107920006Y-92810071D01*
X107837786Y-92755133D01*
X107746428Y-92717292D01*
X107649443Y-92698000D01*
X107550557Y-92698000D01*
X107453572Y-92717292D01*
X107362214Y-92755133D01*
X107279994Y-92810071D01*
X107210071Y-92879994D01*
X107155133Y-92962214D01*
X107117292Y-93053572D01*
X107098000Y-93150557D01*
X107098000Y-93249443D01*
X107117292Y-93346428D01*
X107148001Y-93420567D01*
X107148000Y-96379435D01*
X107117292Y-96453572D01*
X107098000Y-96550557D01*
X107098000Y-96649443D01*
X107117292Y-96746428D01*
X107155133Y-96837786D01*
X107210071Y-96920006D01*
X107279994Y-96989929D01*
X107295065Y-96999999D01*
X107279992Y-97010071D01*
X107210069Y-97079994D01*
X107155131Y-97162214D01*
X107117290Y-97253572D01*
X107097998Y-97350557D01*
X107097998Y-97449443D01*
X107117290Y-97546428D01*
X107155131Y-97637786D01*
X107210069Y-97720006D01*
X107279992Y-97789929D01*
X107295065Y-97800001D01*
X107279994Y-97810071D01*
X107210071Y-97879994D01*
X107155133Y-97962214D01*
X107117292Y-98053572D01*
X107098000Y-98150557D01*
X107098000Y-98249443D01*
X107117292Y-98346428D01*
X107155133Y-98437786D01*
X107210071Y-98520006D01*
X107279994Y-98589929D01*
X107332761Y-98625187D01*
X106811948Y-99146000D01*
X104615737Y-99146000D01*
X104546428Y-99117292D01*
X104449443Y-99098000D01*
X104350557Y-99098000D01*
X104253572Y-99117292D01*
X104162214Y-99155133D01*
X104086000Y-99206058D01*
X104086000Y-85570118D01*
X109966001Y-91450120D01*
G36*
X117848000Y-50288535D02*
G01*
X117838734Y-50266165D01*
X117715398Y-50081579D01*
X117558421Y-49924602D01*
X117373835Y-49801266D01*
X117168734Y-49716310D01*
X116951000Y-49673000D01*
X116729000Y-49673000D01*
X116511266Y-49716310D01*
X116306165Y-49801266D01*
X116251188Y-49838000D01*
X114888812Y-49838000D01*
X114833835Y-49801266D01*
X114628734Y-49716310D01*
X114411000Y-49673000D01*
X114189000Y-49673000D01*
X113971266Y-49716310D01*
X113766165Y-49801266D01*
X113581579Y-49924602D01*
X113424602Y-50081579D01*
X113301266Y-50266165D01*
X113216310Y-50471266D01*
X113173000Y-50689000D01*
X113173000Y-50911000D01*
X113216310Y-51128734D01*
X113301266Y-51333835D01*
X113424602Y-51518421D01*
X113581579Y-51675398D01*
X113766165Y-51798734D01*
X113971266Y-51883690D01*
X114189000Y-51927000D01*
X114411000Y-51927000D01*
X114628734Y-51883690D01*
X114833835Y-51798734D01*
X114888812Y-51762000D01*
X116251188Y-51762000D01*
X116306165Y-51798734D01*
X116511266Y-51883690D01*
X116729000Y-51927000D01*
X116951000Y-51927000D01*
X117168734Y-51883690D01*
X117373835Y-51798734D01*
X117558421Y-51675398D01*
X117715398Y-51518421D01*
X117838734Y-51333835D01*
X117848000Y-51311465D01*
X117848000Y-52828535D01*
X117838734Y-52806165D01*
X117715398Y-52621579D01*
X117558421Y-52464602D01*
X117373835Y-52341266D01*
X117168734Y-52256310D01*
X116951000Y-52213000D01*
X116729000Y-52213000D01*
X116511266Y-52256310D01*
X116306165Y-52341266D01*
X116251188Y-52378000D01*
X114888812Y-52378000D01*
X114833835Y-52341266D01*
X114628734Y-52256310D01*
X114411000Y-52213000D01*
X114189000Y-52213000D01*
X113971266Y-52256310D01*
X113766165Y-52341266D01*
X113581579Y-52464602D01*
X113424602Y-52621579D01*
X113301266Y-52806165D01*
X113216310Y-53011266D01*
X113173000Y-53229000D01*
X113173000Y-53451000D01*
X113216310Y-53668734D01*
X113301266Y-53873835D01*
X113424602Y-54058421D01*
X113581579Y-54215398D01*
X113766165Y-54338734D01*
X113971266Y-54423690D01*
X114189000Y-54467000D01*
X114411000Y-54467000D01*
X114628734Y-54423690D01*
X114833835Y-54338734D01*
X114888812Y-54302000D01*
X116251188Y-54302000D01*
X116306165Y-54338734D01*
X116511266Y-54423690D01*
X116729000Y-54467000D01*
X116951000Y-54467000D01*
X117168734Y-54423690D01*
X117373835Y-54338734D01*
X117558421Y-54215398D01*
X117715398Y-54058421D01*
X117838734Y-53873835D01*
X117848000Y-53851464D01*
X117848000Y-55368536D01*
X117838734Y-55346165D01*
X117715398Y-55161579D01*
X117558421Y-55004602D01*
X117373835Y-54881266D01*
X117168734Y-54796310D01*
X116951000Y-54753000D01*
X116729000Y-54753000D01*
X116511266Y-54796310D01*
X116306165Y-54881266D01*
X116251188Y-54918000D01*
X114888812Y-54918000D01*
X114833835Y-54881266D01*
X114628734Y-54796310D01*
X114411000Y-54753000D01*
X114189000Y-54753000D01*
X113971266Y-54796310D01*
X113766165Y-54881266D01*
X113581579Y-55004602D01*
X113424602Y-55161579D01*
X113301266Y-55346165D01*
X113216310Y-55551266D01*
X113173000Y-55769000D01*
X113173000Y-55991000D01*
X113216310Y-56208734D01*
X113301266Y-56413835D01*
X113424602Y-56598421D01*
X113581579Y-56755398D01*
X113766165Y-56878734D01*
X113971266Y-56963690D01*
X114189000Y-57007000D01*
X114411000Y-57007000D01*
X114628734Y-56963690D01*
X114833835Y-56878734D01*
X114888812Y-56842000D01*
X116251188Y-56842000D01*
X116306165Y-56878734D01*
X116511266Y-56963690D01*
X116729000Y-57007000D01*
X116951000Y-57007000D01*
X117168734Y-56963690D01*
X117373835Y-56878734D01*
X117558421Y-56755398D01*
X117715398Y-56598421D01*
X117838734Y-56413835D01*
X117848000Y-56391464D01*
X117848000Y-57908536D01*
X117838734Y-57886165D01*
X117715398Y-57701579D01*
X117558421Y-57544602D01*
X117373835Y-57421266D01*
X117168734Y-57336310D01*
X116951000Y-57293000D01*
X116729000Y-57293000D01*
X116511266Y-57336310D01*
X116306165Y-57421266D01*
X116251188Y-57458000D01*
X114888812Y-57458000D01*
X114833835Y-57421266D01*
X114628734Y-57336310D01*
X114411000Y-57293000D01*
X114189000Y-57293000D01*
X113971266Y-57336310D01*
X113766165Y-57421266D01*
X113581579Y-57544602D01*
X113424602Y-57701579D01*
X113301266Y-57886165D01*
X113216310Y-58091266D01*
X113173000Y-58309000D01*
X113173000Y-58531000D01*
X113216310Y-58748734D01*
X113301266Y-58953835D01*
X113424602Y-59138421D01*
X113581579Y-59295398D01*
X113766165Y-59418734D01*
X113971266Y-59503690D01*
X114189000Y-59547000D01*
X114411000Y-59547000D01*
X114628734Y-59503690D01*
X114833835Y-59418734D01*
X114888812Y-59382000D01*
X116251188Y-59382000D01*
X116306165Y-59418734D01*
X116511266Y-59503690D01*
X116729000Y-59547000D01*
X116951000Y-59547000D01*
X117168734Y-59503690D01*
X117373835Y-59418734D01*
X117558421Y-59295398D01*
X117715398Y-59138421D01*
X117838734Y-58953835D01*
X117848000Y-58931464D01*
X117848000Y-60448536D01*
X117838734Y-60426165D01*
X117715398Y-60241579D01*
X117558421Y-60084602D01*
X117373835Y-59961266D01*
X117168734Y-59876310D01*
X116951000Y-59833000D01*
X116729000Y-59833000D01*
X116511266Y-59876310D01*
X116306165Y-59961266D01*
X116251188Y-59998000D01*
X114888812Y-59998000D01*
X114833835Y-59961266D01*
X114628734Y-59876310D01*
X114411000Y-59833000D01*
X114189000Y-59833000D01*
X113971266Y-59876310D01*
X113766165Y-59961266D01*
X113581579Y-60084602D01*
X113424602Y-60241579D01*
X113301266Y-60426165D01*
X113216310Y-60631266D01*
X113173000Y-60849000D01*
X113173000Y-61071000D01*
X113216310Y-61288734D01*
X113301266Y-61493835D01*
X113424602Y-61678421D01*
X113581579Y-61835398D01*
X113766165Y-61958734D01*
X113971266Y-62043690D01*
X114189000Y-62087000D01*
X114411000Y-62087000D01*
X114628734Y-62043690D01*
X114833835Y-61958734D01*
X114888812Y-61922000D01*
X116251188Y-61922000D01*
X116306165Y-61958734D01*
X116511266Y-62043690D01*
X116729000Y-62087000D01*
X116951000Y-62087000D01*
X117168734Y-62043690D01*
X117373835Y-61958734D01*
X117558421Y-61835398D01*
X117715398Y-61678421D01*
X117838734Y-61493835D01*
X117848000Y-61471464D01*
X117848000Y-62988536D01*
X117838734Y-62966165D01*
X117715398Y-62781579D01*
X117558421Y-62624602D01*
X117373835Y-62501266D01*
X117168734Y-62416310D01*
X116951000Y-62373000D01*
X116729000Y-62373000D01*
X116511266Y-62416310D01*
X116306165Y-62501266D01*
X116251188Y-62538000D01*
X114888812Y-62538000D01*
X114833835Y-62501266D01*
X114628734Y-62416310D01*
X114411000Y-62373000D01*
X114189000Y-62373000D01*
X113971266Y-62416310D01*
X113766165Y-62501266D01*
X113581579Y-62624602D01*
X113424602Y-62781579D01*
X113301266Y-62966165D01*
X113216310Y-63171266D01*
X113173000Y-63389000D01*
X113173000Y-63611000D01*
X113216310Y-63828734D01*
X113301266Y-64033835D01*
X113424602Y-64218421D01*
X113581579Y-64375398D01*
X113766165Y-64498734D01*
X113971266Y-64583690D01*
X114189000Y-64627000D01*
X114411000Y-64627000D01*
X114628734Y-64583690D01*
X114833835Y-64498734D01*
X114888812Y-64462000D01*
X116251188Y-64462000D01*
X116306165Y-64498734D01*
X116511266Y-64583690D01*
X116729000Y-64627000D01*
X116951000Y-64627000D01*
X117168734Y-64583690D01*
X117373835Y-64498734D01*
X117558421Y-64375398D01*
X117715398Y-64218421D01*
X117838734Y-64033835D01*
X117848000Y-64011464D01*
X117848000Y-65528536D01*
X117838734Y-65506165D01*
X117715398Y-65321579D01*
X117558421Y-65164602D01*
X117373835Y-65041266D01*
X117168734Y-64956310D01*
X116951000Y-64913000D01*
X116729000Y-64913000D01*
X116511266Y-64956310D01*
X116306165Y-65041266D01*
X116251188Y-65078000D01*
X114888812Y-65078000D01*
X114833835Y-65041266D01*
X114628734Y-64956310D01*
X114411000Y-64913000D01*
X114189000Y-64913000D01*
X113971266Y-64956310D01*
X113766165Y-65041266D01*
X113581579Y-65164602D01*
X113424602Y-65321579D01*
X113301266Y-65506165D01*
X113216310Y-65711266D01*
X113173000Y-65929000D01*
X113173000Y-66151000D01*
X113216310Y-66368734D01*
X113301266Y-66573835D01*
X113424602Y-66758421D01*
X113581579Y-66915398D01*
X113766165Y-67038734D01*
X113971266Y-67123690D01*
X114189000Y-67167000D01*
X114411000Y-67167000D01*
X114628734Y-67123690D01*
X114833835Y-67038734D01*
X114888812Y-67002000D01*
X116251188Y-67002000D01*
X116306165Y-67038734D01*
X116511266Y-67123690D01*
X116729000Y-67167000D01*
X116951000Y-67167000D01*
X117168734Y-67123690D01*
X117373835Y-67038734D01*
X117558421Y-66915398D01*
X117715398Y-66758421D01*
X117838734Y-66573835D01*
X117848000Y-66551464D01*
X117848000Y-68068536D01*
X117838734Y-68046165D01*
X117715398Y-67861579D01*
X117558421Y-67704602D01*
X117373835Y-67581266D01*
X117168734Y-67496310D01*
X116951000Y-67453000D01*
X116729000Y-67453000D01*
X116511266Y-67496310D01*
X116306165Y-67581266D01*
X116251188Y-67618000D01*
X114888812Y-67618000D01*
X114833835Y-67581266D01*
X114628734Y-67496310D01*
X114411000Y-67453000D01*
X114189000Y-67453000D01*
X113971266Y-67496310D01*
X113766165Y-67581266D01*
X113581579Y-67704602D01*
X113424602Y-67861579D01*
X113301266Y-68046165D01*
X113216310Y-68251266D01*
X113173000Y-68469000D01*
X113173000Y-68691000D01*
X113216310Y-68908734D01*
X113301266Y-69113835D01*
X113424602Y-69298421D01*
X113581579Y-69455398D01*
X113766165Y-69578734D01*
X113971266Y-69663690D01*
X114189000Y-69707000D01*
X114411000Y-69707000D01*
X114628734Y-69663690D01*
X114833835Y-69578734D01*
X114888812Y-69542000D01*
X116251188Y-69542000D01*
X116306165Y-69578734D01*
X116511266Y-69663690D01*
X116729000Y-69707000D01*
X116951000Y-69707000D01*
X117168734Y-69663690D01*
X117373835Y-69578734D01*
X117558421Y-69455398D01*
X117715398Y-69298421D01*
X117838734Y-69113835D01*
X117848000Y-69091464D01*
X117848000Y-70608536D01*
X117838734Y-70586165D01*
X117715398Y-70401579D01*
X117558421Y-70244602D01*
X117373835Y-70121266D01*
X117168734Y-70036310D01*
X116951000Y-69993000D01*
X116729000Y-69993000D01*
X116511266Y-70036310D01*
X116306165Y-70121266D01*
X116251188Y-70158000D01*
X114888812Y-70158000D01*
X114833835Y-70121266D01*
X114628734Y-70036310D01*
X114411000Y-69993000D01*
X114189000Y-69993000D01*
X113971266Y-70036310D01*
X113766165Y-70121266D01*
X113581579Y-70244602D01*
X113424602Y-70401579D01*
X113301266Y-70586165D01*
X113216310Y-70791266D01*
X113173000Y-71009000D01*
X113173000Y-71231000D01*
X113216310Y-71448734D01*
X113301266Y-71653835D01*
X113424602Y-71838421D01*
X113581579Y-71995398D01*
X113766165Y-72118734D01*
X113971266Y-72203690D01*
X114189000Y-72247000D01*
X114411000Y-72247000D01*
X114628734Y-72203690D01*
X114833835Y-72118734D01*
X114888812Y-72082000D01*
X116251188Y-72082000D01*
X116306165Y-72118734D01*
X116511266Y-72203690D01*
X116729000Y-72247000D01*
X116951000Y-72247000D01*
X117168734Y-72203690D01*
X117373835Y-72118734D01*
X117558421Y-71995398D01*
X117715398Y-71838421D01*
X117838734Y-71653835D01*
X117848000Y-71631464D01*
X117848000Y-73148536D01*
X117838734Y-73126165D01*
X117715398Y-72941579D01*
X117558421Y-72784602D01*
X117373835Y-72661266D01*
X117168734Y-72576310D01*
X116951000Y-72533000D01*
X116729000Y-72533000D01*
X116511266Y-72576310D01*
X116306165Y-72661266D01*
X116251188Y-72698000D01*
X114888812Y-72698000D01*
X114833835Y-72661266D01*
X114628734Y-72576310D01*
X114411000Y-72533000D01*
X114189000Y-72533000D01*
X113971266Y-72576310D01*
X113766165Y-72661266D01*
X113581579Y-72784602D01*
X113424602Y-72941579D01*
X113301266Y-73126165D01*
X113216310Y-73331266D01*
X113173000Y-73549000D01*
X113173000Y-73771000D01*
X113216310Y-73988734D01*
X113301266Y-74193835D01*
X113424602Y-74378421D01*
X113581579Y-74535398D01*
X113766165Y-74658734D01*
X113971266Y-74743690D01*
X114189000Y-74787000D01*
X114411000Y-74787000D01*
X114628734Y-74743690D01*
X114833835Y-74658734D01*
X114888812Y-74622000D01*
X116251188Y-74622000D01*
X116306165Y-74658734D01*
X116511266Y-74743690D01*
X116729000Y-74787000D01*
X116951000Y-74787000D01*
X117168734Y-74743690D01*
X117373835Y-74658734D01*
X117558421Y-74535398D01*
X117715398Y-74378421D01*
X117838734Y-74193835D01*
X117848000Y-74171464D01*
X117848000Y-75688536D01*
X117838734Y-75666165D01*
X117715398Y-75481579D01*
X117558421Y-75324602D01*
X117373835Y-75201266D01*
X117168734Y-75116310D01*
X116951000Y-75073000D01*
X116729000Y-75073000D01*
X116511266Y-75116310D01*
X116306165Y-75201266D01*
X116251188Y-75238000D01*
X114888812Y-75238000D01*
X114833835Y-75201266D01*
X114628734Y-75116310D01*
X114411000Y-75073000D01*
X114189000Y-75073000D01*
X113971266Y-75116310D01*
X113766165Y-75201266D01*
X113581579Y-75324602D01*
X113424602Y-75481579D01*
X113301266Y-75666165D01*
X113216310Y-75871266D01*
X113173000Y-76089000D01*
X113173000Y-76311000D01*
X113216310Y-76528734D01*
X113301266Y-76733835D01*
X113424602Y-76918421D01*
X113581579Y-77075398D01*
X113766165Y-77198734D01*
X113971266Y-77283690D01*
X114189000Y-77327000D01*
X114411000Y-77327000D01*
X114628734Y-77283690D01*
X114833835Y-77198734D01*
X114888812Y-77162000D01*
X116251188Y-77162000D01*
X116306165Y-77198734D01*
X116511266Y-77283690D01*
X116729000Y-77327000D01*
X116951000Y-77327000D01*
X117168734Y-77283690D01*
X117373835Y-77198734D01*
X117558421Y-77075398D01*
X117715398Y-76918421D01*
X117838734Y-76733835D01*
X117848000Y-76711464D01*
X117848000Y-78228536D01*
X117838734Y-78206165D01*
X117715398Y-78021579D01*
X117558421Y-77864602D01*
X117373835Y-77741266D01*
X117168734Y-77656310D01*
X116951000Y-77613000D01*
X116729000Y-77613000D01*
X116511266Y-77656310D01*
X116306165Y-77741266D01*
X116251188Y-77778000D01*
X114888812Y-77778000D01*
X114833835Y-77741266D01*
X114628734Y-77656310D01*
X114411000Y-77613000D01*
X114189000Y-77613000D01*
X113971266Y-77656310D01*
X113766165Y-77741266D01*
X113581579Y-77864602D01*
X113424602Y-78021579D01*
X113301266Y-78206165D01*
X113216310Y-78411266D01*
X113173000Y-78629000D01*
X113173000Y-78851000D01*
X113216310Y-79068734D01*
X113301266Y-79273835D01*
X113424602Y-79458421D01*
X113581579Y-79615398D01*
X113766165Y-79738734D01*
X113971266Y-79823690D01*
X114189000Y-79867000D01*
X114411000Y-79867000D01*
X114628734Y-79823690D01*
X114833835Y-79738734D01*
X114888812Y-79702000D01*
X116251188Y-79702000D01*
X116306165Y-79738734D01*
X116511266Y-79823690D01*
X116729000Y-79867000D01*
X116951000Y-79867000D01*
X117168734Y-79823690D01*
X117373835Y-79738734D01*
X117558421Y-79615398D01*
X117715398Y-79458421D01*
X117838734Y-79273835D01*
X117848001Y-79251464D01*
X117848001Y-80768536D01*
X117838734Y-80746165D01*
X117715398Y-80561579D01*
X117558421Y-80404602D01*
X117373835Y-80281266D01*
X117168734Y-80196310D01*
X116951000Y-80153000D01*
X116729000Y-80153000D01*
X116511266Y-80196310D01*
X116306165Y-80281266D01*
X116251188Y-80318000D01*
X114888812Y-80318000D01*
X114833835Y-80281266D01*
X114628734Y-80196310D01*
X114411000Y-80153000D01*
X114189000Y-80153000D01*
X113971266Y-80196310D01*
X113766165Y-80281266D01*
X113581579Y-80404602D01*
X113424602Y-80561579D01*
X113301266Y-80746165D01*
X113216310Y-80951266D01*
X113173000Y-81169000D01*
X113173000Y-81391000D01*
X113216310Y-81608734D01*
X113301266Y-81813835D01*
X113424602Y-81998421D01*
X113581579Y-82155398D01*
X113766165Y-82278734D01*
X113971266Y-82363690D01*
X114189000Y-82407000D01*
X114411000Y-82407000D01*
X114628734Y-82363690D01*
X114833835Y-82278734D01*
X114888812Y-82242000D01*
X116251188Y-82242000D01*
X116306165Y-82278734D01*
X116511266Y-82363690D01*
X116729000Y-82407000D01*
X116951000Y-82407000D01*
X117168734Y-82363690D01*
X117373835Y-82278734D01*
X117558421Y-82155398D01*
X117715398Y-81998421D01*
X117838734Y-81813835D01*
X117848001Y-81791464D01*
X117848001Y-83308536D01*
X117838734Y-83286165D01*
X117715398Y-83101579D01*
X117558421Y-82944602D01*
X117373835Y-82821266D01*
X117168734Y-82736310D01*
X116951000Y-82693000D01*
X116729000Y-82693000D01*
X116511266Y-82736310D01*
X116306165Y-82821266D01*
X116251188Y-82858000D01*
X114888812Y-82858000D01*
X114833835Y-82821266D01*
X114628734Y-82736310D01*
X114411000Y-82693000D01*
X114189000Y-82693000D01*
X113971266Y-82736310D01*
X113766165Y-82821266D01*
X113581579Y-82944602D01*
X113424602Y-83101579D01*
X113301266Y-83286165D01*
X113216310Y-83491266D01*
X113173000Y-83709000D01*
X113173000Y-83931000D01*
X113216310Y-84148734D01*
X113301266Y-84353835D01*
X113424602Y-84538421D01*
X113581579Y-84695398D01*
X113766165Y-84818734D01*
X113971266Y-84903690D01*
X114189000Y-84947000D01*
X114411000Y-84947000D01*
X114628734Y-84903690D01*
X114833835Y-84818734D01*
X114888812Y-84782000D01*
X116251188Y-84782000D01*
X116306165Y-84818734D01*
X116511266Y-84903690D01*
X116729000Y-84947000D01*
X116951000Y-84947000D01*
X117168734Y-84903690D01*
X117373835Y-84818734D01*
X117558421Y-84695398D01*
X117715398Y-84538421D01*
X117838734Y-84353835D01*
X117848001Y-84331464D01*
X117848001Y-85848536D01*
X117838734Y-85826165D01*
X117715398Y-85641579D01*
X117558421Y-85484602D01*
X117373835Y-85361266D01*
X117168734Y-85276310D01*
X116951000Y-85233000D01*
X116729000Y-85233000D01*
X116511266Y-85276310D01*
X116306165Y-85361266D01*
X116251188Y-85398000D01*
X114888812Y-85398000D01*
X114833835Y-85361266D01*
X114628734Y-85276310D01*
X114411000Y-85233000D01*
X114189000Y-85233000D01*
X113971266Y-85276310D01*
X113766165Y-85361266D01*
X113581579Y-85484602D01*
X113424602Y-85641579D01*
X113301266Y-85826165D01*
X113216310Y-86031266D01*
X113173000Y-86249000D01*
X113173000Y-86471000D01*
X113216310Y-86688734D01*
X113301266Y-86893835D01*
X113424602Y-87078421D01*
X113581579Y-87235398D01*
X113766165Y-87358734D01*
X113971266Y-87443690D01*
X114189000Y-87487000D01*
X114411000Y-87487000D01*
X114628734Y-87443690D01*
X114833835Y-87358734D01*
X114888812Y-87322000D01*
X116251188Y-87322000D01*
X116306165Y-87358734D01*
X116511266Y-87443690D01*
X116729000Y-87487000D01*
X116951000Y-87487000D01*
X117168734Y-87443690D01*
X117373835Y-87358734D01*
X117558421Y-87235398D01*
X117715398Y-87078421D01*
X117838734Y-86893835D01*
X117848001Y-86871464D01*
X117848001Y-88388536D01*
X117838734Y-88366165D01*
X117715398Y-88181579D01*
X117558421Y-88024602D01*
X117373835Y-87901266D01*
X117168734Y-87816310D01*
X116951000Y-87773000D01*
X116729000Y-87773000D01*
X116511266Y-87816310D01*
X116306165Y-87901266D01*
X116251188Y-87938000D01*
X114888812Y-87938000D01*
X114833835Y-87901266D01*
X114628734Y-87816310D01*
X114411000Y-87773000D01*
X114189000Y-87773000D01*
X113971266Y-87816310D01*
X113766165Y-87901266D01*
X113581579Y-88024602D01*
X113424602Y-88181579D01*
X113301266Y-88366165D01*
X113216310Y-88571266D01*
X113173000Y-88789000D01*
X113173000Y-89011000D01*
X113216310Y-89228734D01*
X113301266Y-89433835D01*
X113424602Y-89618421D01*
X113581579Y-89775398D01*
X113766165Y-89898734D01*
X113971266Y-89983690D01*
X114189000Y-90027000D01*
X114411000Y-90027000D01*
X114628734Y-89983690D01*
X114833835Y-89898734D01*
X114888812Y-89862000D01*
X116251188Y-89862000D01*
X116306165Y-89898734D01*
X116511266Y-89983690D01*
X116729000Y-90027000D01*
X116951000Y-90027000D01*
X117168734Y-89983690D01*
X117373835Y-89898734D01*
X117558421Y-89775398D01*
X117715398Y-89618421D01*
X117838734Y-89433835D01*
X117848001Y-89411463D01*
X117848001Y-90928537D01*
X117838734Y-90906165D01*
X117715398Y-90721579D01*
X117558421Y-90564602D01*
X117373835Y-90441266D01*
X117168734Y-90356310D01*
X116951000Y-90313000D01*
X116729000Y-90313000D01*
X116511266Y-90356310D01*
X116306165Y-90441266D01*
X116251188Y-90478000D01*
X114888812Y-90478000D01*
X114833835Y-90441266D01*
X114628734Y-90356310D01*
X114411000Y-90313000D01*
X114189000Y-90313000D01*
X113971266Y-90356310D01*
X113766165Y-90441266D01*
X113581579Y-90564602D01*
X113424602Y-90721579D01*
X113301266Y-90906165D01*
X113223000Y-91095115D01*
X113223000Y-90591288D01*
X113225195Y-90569000D01*
X113223000Y-90546712D01*
X113223000Y-90546705D01*
X113216430Y-90480001D01*
X113213861Y-90471530D01*
X113190470Y-90394421D01*
X113170099Y-90356310D01*
X113148313Y-90315551D01*
X113091579Y-90246421D01*
X113074263Y-90232210D01*
X107736796Y-84894744D01*
X107736791Y-84894738D01*
X106626000Y-83783948D01*
X106626000Y-65000000D01*
X107943805Y-65000000D01*
X107946000Y-65022288D01*
X107946001Y-68921702D01*
X107943805Y-68944000D01*
X107952570Y-69032999D01*
X107978530Y-69118578D01*
X107978531Y-69118579D01*
X108020688Y-69197449D01*
X108077422Y-69266579D01*
X108094738Y-69280790D01*
X108514210Y-69700263D01*
X108528421Y-69717579D01*
X108597551Y-69774313D01*
X108676421Y-69816470D01*
X108762000Y-69842430D01*
X108771301Y-69843346D01*
X108776418Y-69843850D01*
X108776418Y-70495000D01*
X108782732Y-70559103D01*
X108801430Y-70620743D01*
X108831794Y-70677550D01*
X108872657Y-70727343D01*
X108922450Y-70768206D01*
X108979257Y-70798570D01*
X109040897Y-70817268D01*
X109105000Y-70823582D01*
X110605000Y-70823582D01*
X110669103Y-70817268D01*
X110730743Y-70798570D01*
X110787550Y-70768206D01*
X110837343Y-70727343D01*
X110878206Y-70677550D01*
X110908570Y-70620743D01*
X110927268Y-70559103D01*
X110933582Y-70495000D01*
X110933582Y-68295000D01*
X110927268Y-68230897D01*
X110908570Y-68169257D01*
X110878206Y-68112450D01*
X110837343Y-68062657D01*
X110787550Y-68021794D01*
X110730743Y-67991430D01*
X110669103Y-67972732D01*
X110605000Y-67966418D01*
X109105000Y-67966418D01*
X109040897Y-67972732D01*
X108979257Y-67991430D01*
X108922450Y-68021794D01*
X108872657Y-68062657D01*
X108854000Y-68085391D01*
X108854000Y-67804609D01*
X108872657Y-67827343D01*
X108922450Y-67868206D01*
X108979257Y-67898570D01*
X109040897Y-67917268D01*
X109105000Y-67923582D01*
X110605000Y-67923582D01*
X110669103Y-67917268D01*
X110730743Y-67898570D01*
X110787550Y-67868206D01*
X110837343Y-67827343D01*
X110878206Y-67777550D01*
X110908570Y-67720743D01*
X110927268Y-67659103D01*
X110933582Y-67595000D01*
X110933582Y-66943850D01*
X110947999Y-66942430D01*
X111033579Y-66916470D01*
X111112449Y-66874313D01*
X111181579Y-66817579D01*
X111195794Y-66800258D01*
X111505263Y-66490790D01*
X111522579Y-66476579D01*
X111579313Y-66407449D01*
X111621470Y-66328579D01*
X111647430Y-66242999D01*
X111654000Y-66176295D01*
X111654000Y-66176288D01*
X111656195Y-66154000D01*
X111654000Y-66131712D01*
X111654000Y-60073287D01*
X111656195Y-60050999D01*
X111654000Y-60028711D01*
X111654000Y-60028705D01*
X111647430Y-59962001D01*
X111621470Y-59876421D01*
X111579313Y-59797551D01*
X111522579Y-59728421D01*
X111505264Y-59714211D01*
X111095794Y-59304742D01*
X111081579Y-59287421D01*
X111012449Y-59230687D01*
X110933579Y-59188530D01*
X110847999Y-59162570D01*
X110833582Y-59161150D01*
X110833582Y-58860000D01*
X110827268Y-58795897D01*
X110808570Y-58734257D01*
X110778206Y-58677450D01*
X110737343Y-58627657D01*
X110687550Y-58586794D01*
X110630743Y-58556430D01*
X110569103Y-58537732D01*
X110505000Y-58531418D01*
X110309000Y-58531418D01*
X110309000Y-56938582D01*
X110480000Y-56938582D01*
X110544103Y-56932268D01*
X110605743Y-56913570D01*
X110662550Y-56883206D01*
X110712343Y-56842343D01*
X110753206Y-56792550D01*
X110783570Y-56735743D01*
X110802268Y-56674103D01*
X110808582Y-56610000D01*
X110808582Y-55110000D01*
X110802268Y-55045897D01*
X110783570Y-54984257D01*
X110753206Y-54927450D01*
X110712343Y-54877657D01*
X110662550Y-54836794D01*
X110605743Y-54806430D01*
X110544103Y-54787732D01*
X110480000Y-54781418D01*
X109230000Y-54781418D01*
X109165897Y-54787732D01*
X109104257Y-54806430D01*
X109047450Y-54836794D01*
X108997657Y-54877657D01*
X108956794Y-54927450D01*
X108926430Y-54984257D01*
X108907732Y-55045897D01*
X108901418Y-55110000D01*
X108901418Y-56610000D01*
X108907732Y-56674103D01*
X108926430Y-56735743D01*
X108956794Y-56792550D01*
X108997657Y-56842343D01*
X109047450Y-56883206D01*
X109104257Y-56913570D01*
X109165897Y-56932268D01*
X109230000Y-56938582D01*
X109401000Y-56938582D01*
X109401001Y-58531418D01*
X109205000Y-58531418D01*
X109140897Y-58537732D01*
X109079257Y-58556430D01*
X109022450Y-58586794D01*
X108972657Y-58627657D01*
X108931794Y-58677450D01*
X108901430Y-58734257D01*
X108882732Y-58795897D01*
X108876418Y-58860000D01*
X108876418Y-60360000D01*
X108882732Y-60424103D01*
X108901430Y-60485743D01*
X108931794Y-60542550D01*
X108972657Y-60592343D01*
X109022450Y-60633206D01*
X109079257Y-60663570D01*
X109140897Y-60682268D01*
X109205000Y-60688582D01*
X110505000Y-60688582D01*
X110569103Y-60682268D01*
X110630743Y-60663570D01*
X110687550Y-60633206D01*
X110737343Y-60592343D01*
X110746000Y-60581794D01*
X110746000Y-61338206D01*
X110737343Y-61327657D01*
X110687550Y-61286794D01*
X110630743Y-61256430D01*
X110569103Y-61237732D01*
X110505000Y-61231418D01*
X109205000Y-61231418D01*
X109140897Y-61237732D01*
X109079257Y-61256430D01*
X109022450Y-61286794D01*
X108972657Y-61327657D01*
X108931794Y-61377450D01*
X108901430Y-61434257D01*
X108882732Y-61495897D01*
X108876418Y-61560000D01*
X108876418Y-63060000D01*
X108882732Y-63124103D01*
X108901430Y-63185743D01*
X108931794Y-63242550D01*
X108972657Y-63292343D01*
X109022450Y-63333206D01*
X109079257Y-63363570D01*
X109140897Y-63382268D01*
X109205000Y-63388582D01*
X109369365Y-63388582D01*
X108094742Y-64663206D01*
X108077421Y-64677421D01*
X108020687Y-64746552D01*
X107978530Y-64825422D01*
X107952570Y-64911002D01*
X107946000Y-64977706D01*
X107946000Y-64977712D01*
X107943805Y-65000000D01*
X106626000Y-65000000D01*
X106626000Y-63394288D01*
X106628195Y-63372000D01*
X106626000Y-63349712D01*
X106626000Y-63349705D01*
X106619430Y-63283001D01*
X106608374Y-63246552D01*
X106593470Y-63197421D01*
X106587228Y-63185743D01*
X106551313Y-63118551D01*
X106494579Y-63049421D01*
X106477264Y-63035211D01*
X104014000Y-60571948D01*
X104014000Y-57862288D01*
X104016195Y-57840000D01*
X104014000Y-57817712D01*
X104014000Y-57817705D01*
X104007430Y-57751001D01*
X103981470Y-57665421D01*
X103939313Y-57586551D01*
X103882579Y-57517421D01*
X103865264Y-57503211D01*
X102650621Y-56288569D01*
X102683690Y-56208734D01*
X102727000Y-55991000D01*
X102727000Y-55769000D01*
X102683690Y-55551266D01*
X102598734Y-55346165D01*
X102475398Y-55161579D01*
X102318421Y-55004602D01*
X102133835Y-54881266D01*
X101928734Y-54796310D01*
X101711000Y-54753000D01*
X101489000Y-54753000D01*
X101271266Y-54796310D01*
X101066165Y-54881266D01*
X101011188Y-54918000D01*
X99648812Y-54918000D01*
X99593835Y-54881266D01*
X99388734Y-54796310D01*
X99171000Y-54753000D01*
X98949000Y-54753000D01*
X98731266Y-54796310D01*
X98526165Y-54881266D01*
X98341579Y-55004602D01*
X98184602Y-55161579D01*
X98061266Y-55346165D01*
X97976310Y-55551266D01*
X97952000Y-55673481D01*
X97952000Y-53546519D01*
X97976310Y-53668734D01*
X98061266Y-53873835D01*
X98184602Y-54058421D01*
X98341579Y-54215398D01*
X98526165Y-54338734D01*
X98731266Y-54423690D01*
X98949000Y-54467000D01*
X99171000Y-54467000D01*
X99388734Y-54423690D01*
X99593835Y-54338734D01*
X99648812Y-54302000D01*
X101011188Y-54302000D01*
X101066165Y-54338734D01*
X101271266Y-54423690D01*
X101489000Y-54467000D01*
X101711000Y-54467000D01*
X101928734Y-54423690D01*
X102133835Y-54338734D01*
X102318421Y-54215398D01*
X102475398Y-54058421D01*
X102598734Y-53873835D01*
X102683690Y-53668734D01*
X102727000Y-53451000D01*
X102727000Y-53229000D01*
X102683690Y-53011266D01*
X102598734Y-52806165D01*
X102475398Y-52621579D01*
X102318421Y-52464602D01*
X102133835Y-52341266D01*
X101928734Y-52256310D01*
X101711000Y-52213000D01*
X101489000Y-52213000D01*
X101271266Y-52256310D01*
X101066165Y-52341266D01*
X101011188Y-52378000D01*
X99648812Y-52378000D01*
X99593835Y-52341266D01*
X99388734Y-52256310D01*
X99171000Y-52213000D01*
X98949000Y-52213000D01*
X98731266Y-52256310D01*
X98526165Y-52341266D01*
X98341579Y-52464602D01*
X98184602Y-52621579D01*
X98061266Y-52806165D01*
X97976310Y-53011266D01*
X97952000Y-53133481D01*
X97952000Y-52008283D01*
X97974730Y-52026937D01*
X98063502Y-52074387D01*
X98159826Y-52103607D01*
X98260000Y-52113473D01*
X98805250Y-52111000D01*
X98933000Y-51983250D01*
X98933000Y-50927000D01*
X99187000Y-50927000D01*
X99187000Y-51983250D01*
X99314750Y-52111000D01*
X99860000Y-52113473D01*
X99960174Y-52103607D01*
X100056498Y-52074387D01*
X100145270Y-52026937D01*
X100223080Y-51963080D01*
X100286937Y-51885270D01*
X100330000Y-51804705D01*
X100373063Y-51885270D01*
X100436920Y-51963080D01*
X100514730Y-52026937D01*
X100603502Y-52074387D01*
X100699826Y-52103607D01*
X100800000Y-52113473D01*
X101345250Y-52111000D01*
X101473000Y-51983250D01*
X101473000Y-50927000D01*
X101727000Y-50927000D01*
X101727000Y-51983250D01*
X101854750Y-52111000D01*
X102400000Y-52113473D01*
X102500174Y-52103607D01*
X102596498Y-52074387D01*
X102685270Y-52026937D01*
X102763080Y-51963080D01*
X102826937Y-51885270D01*
X102874387Y-51796498D01*
X102903607Y-51700174D01*
X102913473Y-51600000D01*
X102911000Y-51054750D01*
X102783250Y-50927000D01*
X101727000Y-50927000D01*
X101473000Y-50927000D01*
X100416750Y-50927000D01*
X100330000Y-51013750D01*
X100243250Y-50927000D01*
X99187000Y-50927000D01*
X98933000Y-50927000D01*
X98913000Y-50927000D01*
X98913000Y-50673000D01*
X98933000Y-50673000D01*
X98933000Y-49616750D01*
X99187000Y-49616750D01*
X99187000Y-50673000D01*
X100243250Y-50673000D01*
X100330000Y-50586250D01*
X100416750Y-50673000D01*
X101473000Y-50673000D01*
X101473000Y-49616750D01*
X101727000Y-49616750D01*
X101727000Y-50673000D01*
X102783250Y-50673000D01*
X102785693Y-50670557D01*
X104908000Y-50670557D01*
X104908000Y-50769443D01*
X104927292Y-50866428D01*
X104965133Y-50957786D01*
X105020071Y-51040006D01*
X105089994Y-51109929D01*
X105172214Y-51164867D01*
X105263572Y-51202708D01*
X105290247Y-51208014D01*
X105315421Y-51221470D01*
X105401001Y-51247430D01*
X105467705Y-51254000D01*
X105467711Y-51254000D01*
X105489999Y-51256195D01*
X105512287Y-51254000D01*
X108611948Y-51254000D01*
X109401001Y-52043054D01*
X109401001Y-52281418D01*
X109230000Y-52281418D01*
X109165897Y-52287732D01*
X109104257Y-52306430D01*
X109047450Y-52336794D01*
X108997657Y-52377657D01*
X108956794Y-52427450D01*
X108926430Y-52484257D01*
X108907732Y-52545897D01*
X108901418Y-52610000D01*
X108901418Y-54110000D01*
X108907732Y-54174103D01*
X108926430Y-54235743D01*
X108956794Y-54292550D01*
X108997657Y-54342343D01*
X109047450Y-54383206D01*
X109104257Y-54413570D01*
X109165897Y-54432268D01*
X109230000Y-54438582D01*
X110480000Y-54438582D01*
X110544103Y-54432268D01*
X110605743Y-54413570D01*
X110662550Y-54383206D01*
X110712343Y-54342343D01*
X110753206Y-54292550D01*
X110783570Y-54235743D01*
X110802268Y-54174103D01*
X110808582Y-54110000D01*
X110808582Y-52610000D01*
X110802268Y-52545897D01*
X110783570Y-52484257D01*
X110753206Y-52427450D01*
X110712343Y-52377657D01*
X110662550Y-52336794D01*
X110605743Y-52306430D01*
X110544103Y-52287732D01*
X110480000Y-52281418D01*
X110309000Y-52281418D01*
X110309000Y-51877287D01*
X110311195Y-51854999D01*
X110309000Y-51832711D01*
X110309000Y-51832705D01*
X110302430Y-51766001D01*
X110301217Y-51762000D01*
X110276470Y-51680421D01*
X110273785Y-51675398D01*
X110234313Y-51601551D01*
X110177579Y-51532421D01*
X110160263Y-51518210D01*
X109136794Y-50494742D01*
X109122579Y-50477421D01*
X109053449Y-50420687D01*
X108974579Y-50378530D01*
X108888999Y-50352570D01*
X108822295Y-50346000D01*
X108822288Y-50346000D01*
X108800000Y-50343805D01*
X108777712Y-50346000D01*
X105745935Y-50346000D01*
X105730006Y-50330071D01*
X105647786Y-50275133D01*
X105556428Y-50237292D01*
X105459443Y-50218000D01*
X105360557Y-50218000D01*
X105263572Y-50237292D01*
X105172214Y-50275133D01*
X105089994Y-50330071D01*
X105020071Y-50399994D01*
X104965133Y-50482214D01*
X104927292Y-50573572D01*
X104908000Y-50670557D01*
X102785693Y-50670557D01*
X102911000Y-50545250D01*
X102913473Y-50000000D01*
X102903607Y-49899826D01*
X102874387Y-49803502D01*
X102826937Y-49714730D01*
X102763080Y-49636920D01*
X102685270Y-49573063D01*
X102596498Y-49525613D01*
X102500174Y-49496393D01*
X102400000Y-49486527D01*
X101854750Y-49489000D01*
X101727000Y-49616750D01*
X101473000Y-49616750D01*
X101345250Y-49489000D01*
X100800000Y-49486527D01*
X100699826Y-49496393D01*
X100603502Y-49525613D01*
X100514730Y-49573063D01*
X100436920Y-49636920D01*
X100373063Y-49714730D01*
X100330000Y-49795295D01*
X100286937Y-49714730D01*
X100223080Y-49636920D01*
X100145270Y-49573063D01*
X100056498Y-49525613D01*
X99960174Y-49496393D01*
X99860000Y-49486527D01*
X99314750Y-49489000D01*
X99187000Y-49616750D01*
X98933000Y-49616750D01*
X98805250Y-49489000D01*
X98260000Y-49486527D01*
X98159826Y-49496393D01*
X98063502Y-49525613D01*
X97974730Y-49573063D01*
X97952000Y-49591717D01*
X97952000Y-48350557D01*
X110298000Y-48350557D01*
X110298000Y-48449443D01*
X110317292Y-48546428D01*
X110355133Y-48637786D01*
X110410071Y-48720006D01*
X110479994Y-48789929D01*
X110562214Y-48844867D01*
X110653572Y-48882708D01*
X110750557Y-48902000D01*
X110849443Y-48902000D01*
X110946428Y-48882708D01*
X111037786Y-48844867D01*
X111120006Y-48789929D01*
X111189929Y-48720006D01*
X111244867Y-48637786D01*
X111282708Y-48546428D01*
X111302000Y-48449443D01*
X111302000Y-48350557D01*
X111282708Y-48253572D01*
X111254000Y-48184263D01*
X111254000Y-48138052D01*
X112583163Y-46808890D01*
X112686682Y-46851769D01*
X112914076Y-46897000D01*
X113145924Y-46897000D01*
X113373318Y-46851769D01*
X113587519Y-46763044D01*
X113780294Y-46634236D01*
X113944236Y-46470294D01*
X114073044Y-46277519D01*
X114161769Y-46063318D01*
X114207000Y-45835924D01*
X114207000Y-45604076D01*
X114393000Y-45604076D01*
X114393000Y-45835924D01*
X114438231Y-46063318D01*
X114526956Y-46277519D01*
X114655764Y-46470294D01*
X114819706Y-46634236D01*
X115012481Y-46763044D01*
X115226682Y-46851769D01*
X115454076Y-46897000D01*
X115685924Y-46897000D01*
X115913318Y-46851769D01*
X116127519Y-46763044D01*
X116320294Y-46634236D01*
X116484236Y-46470294D01*
X116613044Y-46277519D01*
X116701769Y-46063318D01*
X116747000Y-45835924D01*
X116747000Y-45604076D01*
X116701769Y-45376682D01*
X116613044Y-45162481D01*
X116484236Y-44969706D01*
X116320294Y-44805764D01*
X116127519Y-44676956D01*
X115913318Y-44588231D01*
X115685924Y-44543000D01*
X115454076Y-44543000D01*
X115226682Y-44588231D01*
X115012481Y-44676956D01*
X114819706Y-44805764D01*
X114655764Y-44969706D01*
X114526956Y-45162481D01*
X114438231Y-45376682D01*
X114393000Y-45604076D01*
X114207000Y-45604076D01*
X114161769Y-45376682D01*
X114073044Y-45162481D01*
X113944236Y-44969706D01*
X113780294Y-44805764D01*
X113587519Y-44676956D01*
X113373318Y-44588231D01*
X113145924Y-44543000D01*
X112914076Y-44543000D01*
X112686682Y-44588231D01*
X112472481Y-44676956D01*
X112279706Y-44805764D01*
X112115764Y-44969706D01*
X111986956Y-45162481D01*
X111898231Y-45376682D01*
X111853000Y-45604076D01*
X111853000Y-45835924D01*
X111898231Y-46063318D01*
X111941110Y-46166837D01*
X110494738Y-47613210D01*
X110477422Y-47627421D01*
X110420688Y-47696551D01*
X110398154Y-47738709D01*
X110378530Y-47775422D01*
X110352570Y-47861001D01*
X110348926Y-47898000D01*
X110346000Y-47927705D01*
X110346000Y-47927712D01*
X110343805Y-47950000D01*
X110346000Y-47972288D01*
X110346000Y-48184263D01*
X110317292Y-48253572D01*
X110298000Y-48350557D01*
X97952000Y-48350557D01*
X97952000Y-48041079D01*
X97977657Y-48072343D01*
X98027450Y-48113206D01*
X98084257Y-48143570D01*
X98145897Y-48162268D01*
X98210000Y-48168582D01*
X99910000Y-48168582D01*
X99974103Y-48162268D01*
X100035743Y-48143570D01*
X100092550Y-48113206D01*
X100142343Y-48072343D01*
X100183206Y-48022550D01*
X100213570Y-47965743D01*
X100232268Y-47904103D01*
X100238582Y-47840000D01*
X100238582Y-47327416D01*
X100281483Y-47327416D01*
X100372645Y-47578163D01*
X100510973Y-47806307D01*
X100691152Y-48003081D01*
X100906258Y-48160922D01*
X101148024Y-48273765D01*
X101262585Y-48308512D01*
X101473000Y-48216693D01*
X101473000Y-47117000D01*
X101727000Y-47117000D01*
X101727000Y-48216693D01*
X101937415Y-48308512D01*
X102051976Y-48273765D01*
X102293742Y-48160922D01*
X102508848Y-48003081D01*
X102689027Y-47806307D01*
X102827355Y-47578163D01*
X102918517Y-47327416D01*
X102827317Y-47117000D01*
X101727000Y-47117000D01*
X101473000Y-47117000D01*
X100372683Y-47117000D01*
X100281483Y-47327416D01*
X100238582Y-47327416D01*
X100238582Y-46652584D01*
X100281483Y-46652584D01*
X100372683Y-46863000D01*
X101473000Y-46863000D01*
X101473000Y-45763307D01*
X101727000Y-45763307D01*
X101727000Y-46863000D01*
X102827317Y-46863000D01*
X102918517Y-46652584D01*
X102827355Y-46401837D01*
X102689027Y-46173693D01*
X102508848Y-45976919D01*
X102293742Y-45819078D01*
X102051976Y-45706235D01*
X101937415Y-45671488D01*
X101727000Y-45763307D01*
X101473000Y-45763307D01*
X101262585Y-45671488D01*
X101148024Y-45706235D01*
X100906258Y-45819078D01*
X100691152Y-45976919D01*
X100510973Y-46173693D01*
X100372645Y-46401837D01*
X100281483Y-46652584D01*
X100238582Y-46652584D01*
X100238582Y-46140000D01*
X100232268Y-46075897D01*
X100213570Y-46014257D01*
X100183206Y-45957450D01*
X100142343Y-45907657D01*
X100092550Y-45866794D01*
X100035743Y-45836430D01*
X99974103Y-45817732D01*
X99910000Y-45811418D01*
X98210000Y-45811418D01*
X98145897Y-45817732D01*
X98084257Y-45836430D01*
X98027450Y-45866794D01*
X97977657Y-45907657D01*
X97952000Y-45938921D01*
X97952000Y-43517415D01*
X111711488Y-43517415D01*
X111746235Y-43631976D01*
X111859078Y-43873742D01*
X112016919Y-44088848D01*
X112213693Y-44269027D01*
X112441837Y-44407355D01*
X112692584Y-44498517D01*
X112903000Y-44407317D01*
X112903000Y-43307000D01*
X113157000Y-43307000D01*
X113157000Y-44407317D01*
X113367416Y-44498517D01*
X113618163Y-44407355D01*
X113846307Y-44269027D01*
X114043081Y-44088848D01*
X114200922Y-43873742D01*
X114313765Y-43631976D01*
X114348512Y-43517415D01*
X114256693Y-43307000D01*
X113157000Y-43307000D01*
X112903000Y-43307000D01*
X111803307Y-43307000D01*
X111711488Y-43517415D01*
X97952000Y-43517415D01*
X97952000Y-43064076D01*
X114393000Y-43064076D01*
X114393000Y-43295924D01*
X114438231Y-43523318D01*
X114526956Y-43737519D01*
X114655764Y-43930294D01*
X114819706Y-44094236D01*
X115012481Y-44223044D01*
X115226682Y-44311769D01*
X115454076Y-44357000D01*
X115685924Y-44357000D01*
X115913318Y-44311769D01*
X116127519Y-44223044D01*
X116320294Y-44094236D01*
X116484236Y-43930294D01*
X116613044Y-43737519D01*
X116701769Y-43523318D01*
X116747000Y-43295924D01*
X116747000Y-43064076D01*
X116701769Y-42836682D01*
X116613044Y-42622481D01*
X116484236Y-42429706D01*
X116320294Y-42265764D01*
X116127519Y-42136956D01*
X115913318Y-42048231D01*
X115685924Y-42003000D01*
X115454076Y-42003000D01*
X115226682Y-42048231D01*
X115012481Y-42136956D01*
X114819706Y-42265764D01*
X114655764Y-42429706D01*
X114526956Y-42622481D01*
X114438231Y-42836682D01*
X114393000Y-43064076D01*
X97952000Y-43064076D01*
X97952000Y-42842585D01*
X111711488Y-42842585D01*
X111803307Y-43053000D01*
X112903000Y-43053000D01*
X112903000Y-41952683D01*
X113157000Y-41952683D01*
X113157000Y-43053000D01*
X114256693Y-43053000D01*
X114348512Y-42842585D01*
X114313765Y-42728024D01*
X114200922Y-42486258D01*
X114043081Y-42271152D01*
X113846307Y-42090973D01*
X113618163Y-41952645D01*
X113367416Y-41861483D01*
X113157000Y-41952683D01*
X112903000Y-41952683D01*
X112692584Y-41861483D01*
X112441837Y-41952645D01*
X112213693Y-42090973D01*
X112016919Y-42271152D01*
X111859078Y-42486258D01*
X111746235Y-42728024D01*
X111711488Y-42842585D01*
X97952000Y-42842585D01*
X97952000Y-40524076D01*
X111853000Y-40524076D01*
X111853000Y-40755924D01*
X111898231Y-40983318D01*
X111986956Y-41197519D01*
X112115764Y-41390294D01*
X112279706Y-41554236D01*
X112472481Y-41683044D01*
X112686682Y-41771769D01*
X112914076Y-41817000D01*
X113145924Y-41817000D01*
X113373318Y-41771769D01*
X113587519Y-41683044D01*
X113780294Y-41554236D01*
X113944236Y-41390294D01*
X114073044Y-41197519D01*
X114161769Y-40983318D01*
X114207000Y-40755924D01*
X114207000Y-40524076D01*
X114393000Y-40524076D01*
X114393000Y-40755924D01*
X114438231Y-40983318D01*
X114526956Y-41197519D01*
X114655764Y-41390294D01*
X114819706Y-41554236D01*
X115012481Y-41683044D01*
X115226682Y-41771769D01*
X115454076Y-41817000D01*
X115685924Y-41817000D01*
X115913318Y-41771769D01*
X116127519Y-41683044D01*
X116320294Y-41554236D01*
X116484236Y-41390294D01*
X116613044Y-41197519D01*
X116701769Y-40983318D01*
X116747000Y-40755924D01*
X116747000Y-40524076D01*
X116701769Y-40296682D01*
X116613044Y-40082481D01*
X116484236Y-39889706D01*
X116320294Y-39725764D01*
X116127519Y-39596956D01*
X115913318Y-39508231D01*
X115685924Y-39463000D01*
X115454076Y-39463000D01*
X115226682Y-39508231D01*
X115012481Y-39596956D01*
X114819706Y-39725764D01*
X114655764Y-39889706D01*
X114526956Y-40082481D01*
X114438231Y-40296682D01*
X114393000Y-40524076D01*
X114207000Y-40524076D01*
X114161769Y-40296682D01*
X114073044Y-40082481D01*
X113944236Y-39889706D01*
X113780294Y-39725764D01*
X113587519Y-39596956D01*
X113373318Y-39508231D01*
X113145924Y-39463000D01*
X112914076Y-39463000D01*
X112686682Y-39508231D01*
X112472481Y-39596956D01*
X112279706Y-39725764D01*
X112115764Y-39889706D01*
X111986956Y-40082481D01*
X111898231Y-40296682D01*
X111853000Y-40524076D01*
X97952000Y-40524076D01*
X97952000Y-37250000D01*
X111851418Y-37250000D01*
X111851418Y-38950000D01*
X111857732Y-39014103D01*
X111876430Y-39075743D01*
X111906794Y-39132550D01*
X111947657Y-39182343D01*
X111997450Y-39223206D01*
X112054257Y-39253570D01*
X112115897Y-39272268D01*
X112180000Y-39278582D01*
X113880000Y-39278582D01*
X113944103Y-39272268D01*
X114005743Y-39253570D01*
X114062550Y-39223206D01*
X114112343Y-39182343D01*
X114153206Y-39132550D01*
X114183570Y-39075743D01*
X114202268Y-39014103D01*
X114208582Y-38950000D01*
X114208582Y-37984076D01*
X114393000Y-37984076D01*
X114393000Y-38215924D01*
X114438231Y-38443318D01*
X114526956Y-38657519D01*
X114655764Y-38850294D01*
X114819706Y-39014236D01*
X115012481Y-39143044D01*
X115226682Y-39231769D01*
X115454076Y-39277000D01*
X115685924Y-39277000D01*
X115913318Y-39231769D01*
X116127519Y-39143044D01*
X116320294Y-39014236D01*
X116484236Y-38850294D01*
X116613044Y-38657519D01*
X116701769Y-38443318D01*
X116747000Y-38215924D01*
X116747000Y-37984076D01*
X116701769Y-37756682D01*
X116613044Y-37542481D01*
X116484236Y-37349706D01*
X116320294Y-37185764D01*
X116127519Y-37056956D01*
X115913318Y-36968231D01*
X115685924Y-36923000D01*
X115454076Y-36923000D01*
X115226682Y-36968231D01*
X115012481Y-37056956D01*
X114819706Y-37185764D01*
X114655764Y-37349706D01*
X114526956Y-37542481D01*
X114438231Y-37756682D01*
X114393000Y-37984076D01*
X114208582Y-37984076D01*
X114208582Y-37250000D01*
X114202268Y-37185897D01*
X114183570Y-37124257D01*
X114153206Y-37067450D01*
X114112343Y-37017657D01*
X114062550Y-36976794D01*
X114005743Y-36946430D01*
X113944103Y-36927732D01*
X113880000Y-36921418D01*
X112180000Y-36921418D01*
X112115897Y-36927732D01*
X112054257Y-36946430D01*
X111997450Y-36976794D01*
X111947657Y-37017657D01*
X111906794Y-37067450D01*
X111876430Y-37124257D01*
X111857732Y-37185897D01*
X111851418Y-37250000D01*
X97952000Y-37250000D01*
X97952000Y-36552000D01*
X117848000Y-36552000D01*
X117848000Y-50288535D01*
G37*
X117848000Y-50288535D02*
X117838734Y-50266165D01*
X117715398Y-50081579D01*
X117558421Y-49924602D01*
X117373835Y-49801266D01*
X117168734Y-49716310D01*
X116951000Y-49673000D01*
X116729000Y-49673000D01*
X116511266Y-49716310D01*
X116306165Y-49801266D01*
X116251188Y-49838000D01*
X114888812Y-49838000D01*
X114833835Y-49801266D01*
X114628734Y-49716310D01*
X114411000Y-49673000D01*
X114189000Y-49673000D01*
X113971266Y-49716310D01*
X113766165Y-49801266D01*
X113581579Y-49924602D01*
X113424602Y-50081579D01*
X113301266Y-50266165D01*
X113216310Y-50471266D01*
X113173000Y-50689000D01*
X113173000Y-50911000D01*
X113216310Y-51128734D01*
X113301266Y-51333835D01*
X113424602Y-51518421D01*
X113581579Y-51675398D01*
X113766165Y-51798734D01*
X113971266Y-51883690D01*
X114189000Y-51927000D01*
X114411000Y-51927000D01*
X114628734Y-51883690D01*
X114833835Y-51798734D01*
X114888812Y-51762000D01*
X116251188Y-51762000D01*
X116306165Y-51798734D01*
X116511266Y-51883690D01*
X116729000Y-51927000D01*
X116951000Y-51927000D01*
X117168734Y-51883690D01*
X117373835Y-51798734D01*
X117558421Y-51675398D01*
X117715398Y-51518421D01*
X117838734Y-51333835D01*
X117848000Y-51311465D01*
X117848000Y-52828535D01*
X117838734Y-52806165D01*
X117715398Y-52621579D01*
X117558421Y-52464602D01*
X117373835Y-52341266D01*
X117168734Y-52256310D01*
X116951000Y-52213000D01*
X116729000Y-52213000D01*
X116511266Y-52256310D01*
X116306165Y-52341266D01*
X116251188Y-52378000D01*
X114888812Y-52378000D01*
X114833835Y-52341266D01*
X114628734Y-52256310D01*
X114411000Y-52213000D01*
X114189000Y-52213000D01*
X113971266Y-52256310D01*
X113766165Y-52341266D01*
X113581579Y-52464602D01*
X113424602Y-52621579D01*
X113301266Y-52806165D01*
X113216310Y-53011266D01*
X113173000Y-53229000D01*
X113173000Y-53451000D01*
X113216310Y-53668734D01*
X113301266Y-53873835D01*
X113424602Y-54058421D01*
X113581579Y-54215398D01*
X113766165Y-54338734D01*
X113971266Y-54423690D01*
X114189000Y-54467000D01*
X114411000Y-54467000D01*
X114628734Y-54423690D01*
X114833835Y-54338734D01*
X114888812Y-54302000D01*
X116251188Y-54302000D01*
X116306165Y-54338734D01*
X116511266Y-54423690D01*
X116729000Y-54467000D01*
X116951000Y-54467000D01*
X117168734Y-54423690D01*
X117373835Y-54338734D01*
X117558421Y-54215398D01*
X117715398Y-54058421D01*
X117838734Y-53873835D01*
X117848000Y-53851464D01*
X117848000Y-55368536D01*
X117838734Y-55346165D01*
X117715398Y-55161579D01*
X117558421Y-55004602D01*
X117373835Y-54881266D01*
X117168734Y-54796310D01*
X116951000Y-54753000D01*
X116729000Y-54753000D01*
X116511266Y-54796310D01*
X116306165Y-54881266D01*
X116251188Y-54918000D01*
X114888812Y-54918000D01*
X114833835Y-54881266D01*
X114628734Y-54796310D01*
X114411000Y-54753000D01*
X114189000Y-54753000D01*
X113971266Y-54796310D01*
X113766165Y-54881266D01*
X113581579Y-55004602D01*
X113424602Y-55161579D01*
X113301266Y-55346165D01*
X113216310Y-55551266D01*
X113173000Y-55769000D01*
X113173000Y-55991000D01*
X113216310Y-56208734D01*
X113301266Y-56413835D01*
X113424602Y-56598421D01*
X113581579Y-56755398D01*
X113766165Y-56878734D01*
X113971266Y-56963690D01*
X114189000Y-57007000D01*
X114411000Y-57007000D01*
X114628734Y-56963690D01*
X114833835Y-56878734D01*
X114888812Y-56842000D01*
X116251188Y-56842000D01*
X116306165Y-56878734D01*
X116511266Y-56963690D01*
X116729000Y-57007000D01*
X116951000Y-57007000D01*
X117168734Y-56963690D01*
X117373835Y-56878734D01*
X117558421Y-56755398D01*
X117715398Y-56598421D01*
X117838734Y-56413835D01*
X117848000Y-56391464D01*
X117848000Y-57908536D01*
X117838734Y-57886165D01*
X117715398Y-57701579D01*
X117558421Y-57544602D01*
X117373835Y-57421266D01*
X117168734Y-57336310D01*
X116951000Y-57293000D01*
X116729000Y-57293000D01*
X116511266Y-57336310D01*
X116306165Y-57421266D01*
X116251188Y-57458000D01*
X114888812Y-57458000D01*
X114833835Y-57421266D01*
X114628734Y-57336310D01*
X114411000Y-57293000D01*
X114189000Y-57293000D01*
X113971266Y-57336310D01*
X113766165Y-57421266D01*
X113581579Y-57544602D01*
X113424602Y-57701579D01*
X113301266Y-57886165D01*
X113216310Y-58091266D01*
X113173000Y-58309000D01*
X113173000Y-58531000D01*
X113216310Y-58748734D01*
X113301266Y-58953835D01*
X113424602Y-59138421D01*
X113581579Y-59295398D01*
X113766165Y-59418734D01*
X113971266Y-59503690D01*
X114189000Y-59547000D01*
X114411000Y-59547000D01*
X114628734Y-59503690D01*
X114833835Y-59418734D01*
X114888812Y-59382000D01*
X116251188Y-59382000D01*
X116306165Y-59418734D01*
X116511266Y-59503690D01*
X116729000Y-59547000D01*
X116951000Y-59547000D01*
X117168734Y-59503690D01*
X117373835Y-59418734D01*
X117558421Y-59295398D01*
X117715398Y-59138421D01*
X117838734Y-58953835D01*
X117848000Y-58931464D01*
X117848000Y-60448536D01*
X117838734Y-60426165D01*
X117715398Y-60241579D01*
X117558421Y-60084602D01*
X117373835Y-59961266D01*
X117168734Y-59876310D01*
X116951000Y-59833000D01*
X116729000Y-59833000D01*
X116511266Y-59876310D01*
X116306165Y-59961266D01*
X116251188Y-59998000D01*
X114888812Y-59998000D01*
X114833835Y-59961266D01*
X114628734Y-59876310D01*
X114411000Y-59833000D01*
X114189000Y-59833000D01*
X113971266Y-59876310D01*
X113766165Y-59961266D01*
X113581579Y-60084602D01*
X113424602Y-60241579D01*
X113301266Y-60426165D01*
X113216310Y-60631266D01*
X113173000Y-60849000D01*
X113173000Y-61071000D01*
X113216310Y-61288734D01*
X113301266Y-61493835D01*
X113424602Y-61678421D01*
X113581579Y-61835398D01*
X113766165Y-61958734D01*
X113971266Y-62043690D01*
X114189000Y-62087000D01*
X114411000Y-62087000D01*
X114628734Y-62043690D01*
X114833835Y-61958734D01*
X114888812Y-61922000D01*
X116251188Y-61922000D01*
X116306165Y-61958734D01*
X116511266Y-62043690D01*
X116729000Y-62087000D01*
X116951000Y-62087000D01*
X117168734Y-62043690D01*
X117373835Y-61958734D01*
X117558421Y-61835398D01*
X117715398Y-61678421D01*
X117838734Y-61493835D01*
X117848000Y-61471464D01*
X117848000Y-62988536D01*
X117838734Y-62966165D01*
X117715398Y-62781579D01*
X117558421Y-62624602D01*
X117373835Y-62501266D01*
X117168734Y-62416310D01*
X116951000Y-62373000D01*
X116729000Y-62373000D01*
X116511266Y-62416310D01*
X116306165Y-62501266D01*
X116251188Y-62538000D01*
X114888812Y-62538000D01*
X114833835Y-62501266D01*
X114628734Y-62416310D01*
X114411000Y-62373000D01*
X114189000Y-62373000D01*
X113971266Y-62416310D01*
X113766165Y-62501266D01*
X113581579Y-62624602D01*
X113424602Y-62781579D01*
X113301266Y-62966165D01*
X113216310Y-63171266D01*
X113173000Y-63389000D01*
X113173000Y-63611000D01*
X113216310Y-63828734D01*
X113301266Y-64033835D01*
X113424602Y-64218421D01*
X113581579Y-64375398D01*
X113766165Y-64498734D01*
X113971266Y-64583690D01*
X114189000Y-64627000D01*
X114411000Y-64627000D01*
X114628734Y-64583690D01*
X114833835Y-64498734D01*
X114888812Y-64462000D01*
X116251188Y-64462000D01*
X116306165Y-64498734D01*
X116511266Y-64583690D01*
X116729000Y-64627000D01*
X116951000Y-64627000D01*
X117168734Y-64583690D01*
X117373835Y-64498734D01*
X117558421Y-64375398D01*
X117715398Y-64218421D01*
X117838734Y-64033835D01*
X117848000Y-64011464D01*
X117848000Y-65528536D01*
X117838734Y-65506165D01*
X117715398Y-65321579D01*
X117558421Y-65164602D01*
X117373835Y-65041266D01*
X117168734Y-64956310D01*
X116951000Y-64913000D01*
X116729000Y-64913000D01*
X116511266Y-64956310D01*
X116306165Y-65041266D01*
X116251188Y-65078000D01*
X114888812Y-65078000D01*
X114833835Y-65041266D01*
X114628734Y-64956310D01*
X114411000Y-64913000D01*
X114189000Y-64913000D01*
X113971266Y-64956310D01*
X113766165Y-65041266D01*
X113581579Y-65164602D01*
X113424602Y-65321579D01*
X113301266Y-65506165D01*
X113216310Y-65711266D01*
X113173000Y-65929000D01*
X113173000Y-66151000D01*
X113216310Y-66368734D01*
X113301266Y-66573835D01*
X113424602Y-66758421D01*
X113581579Y-66915398D01*
X113766165Y-67038734D01*
X113971266Y-67123690D01*
X114189000Y-67167000D01*
X114411000Y-67167000D01*
X114628734Y-67123690D01*
X114833835Y-67038734D01*
X114888812Y-67002000D01*
X116251188Y-67002000D01*
X116306165Y-67038734D01*
X116511266Y-67123690D01*
X116729000Y-67167000D01*
X116951000Y-67167000D01*
X117168734Y-67123690D01*
X117373835Y-67038734D01*
X117558421Y-66915398D01*
X117715398Y-66758421D01*
X117838734Y-66573835D01*
X117848000Y-66551464D01*
X117848000Y-68068536D01*
X117838734Y-68046165D01*
X117715398Y-67861579D01*
X117558421Y-67704602D01*
X117373835Y-67581266D01*
X117168734Y-67496310D01*
X116951000Y-67453000D01*
X116729000Y-67453000D01*
X116511266Y-67496310D01*
X116306165Y-67581266D01*
X116251188Y-67618000D01*
X114888812Y-67618000D01*
X114833835Y-67581266D01*
X114628734Y-67496310D01*
X114411000Y-67453000D01*
X114189000Y-67453000D01*
X113971266Y-67496310D01*
X113766165Y-67581266D01*
X113581579Y-67704602D01*
X113424602Y-67861579D01*
X113301266Y-68046165D01*
X113216310Y-68251266D01*
X113173000Y-68469000D01*
X113173000Y-68691000D01*
X113216310Y-68908734D01*
X113301266Y-69113835D01*
X113424602Y-69298421D01*
X113581579Y-69455398D01*
X113766165Y-69578734D01*
X113971266Y-69663690D01*
X114189000Y-69707000D01*
X114411000Y-69707000D01*
X114628734Y-69663690D01*
X114833835Y-69578734D01*
X114888812Y-69542000D01*
X116251188Y-69542000D01*
X116306165Y-69578734D01*
X116511266Y-69663690D01*
X116729000Y-69707000D01*
X116951000Y-69707000D01*
X117168734Y-69663690D01*
X117373835Y-69578734D01*
X117558421Y-69455398D01*
X117715398Y-69298421D01*
X117838734Y-69113835D01*
X117848000Y-69091464D01*
X117848000Y-70608536D01*
X117838734Y-70586165D01*
X117715398Y-70401579D01*
X117558421Y-70244602D01*
X117373835Y-70121266D01*
X117168734Y-70036310D01*
X116951000Y-69993000D01*
X116729000Y-69993000D01*
X116511266Y-70036310D01*
X116306165Y-70121266D01*
X116251188Y-70158000D01*
X114888812Y-70158000D01*
X114833835Y-70121266D01*
X114628734Y-70036310D01*
X114411000Y-69993000D01*
X114189000Y-69993000D01*
X113971266Y-70036310D01*
X113766165Y-70121266D01*
X113581579Y-70244602D01*
X113424602Y-70401579D01*
X113301266Y-70586165D01*
X113216310Y-70791266D01*
X113173000Y-71009000D01*
X113173000Y-71231000D01*
X113216310Y-71448734D01*
X113301266Y-71653835D01*
X113424602Y-71838421D01*
X113581579Y-71995398D01*
X113766165Y-72118734D01*
X113971266Y-72203690D01*
X114189000Y-72247000D01*
X114411000Y-72247000D01*
X114628734Y-72203690D01*
X114833835Y-72118734D01*
X114888812Y-72082000D01*
X116251188Y-72082000D01*
X116306165Y-72118734D01*
X116511266Y-72203690D01*
X116729000Y-72247000D01*
X116951000Y-72247000D01*
X117168734Y-72203690D01*
X117373835Y-72118734D01*
X117558421Y-71995398D01*
X117715398Y-71838421D01*
X117838734Y-71653835D01*
X117848000Y-71631464D01*
X117848000Y-73148536D01*
X117838734Y-73126165D01*
X117715398Y-72941579D01*
X117558421Y-72784602D01*
X117373835Y-72661266D01*
X117168734Y-72576310D01*
X116951000Y-72533000D01*
X116729000Y-72533000D01*
X116511266Y-72576310D01*
X116306165Y-72661266D01*
X116251188Y-72698000D01*
X114888812Y-72698000D01*
X114833835Y-72661266D01*
X114628734Y-72576310D01*
X114411000Y-72533000D01*
X114189000Y-72533000D01*
X113971266Y-72576310D01*
X113766165Y-72661266D01*
X113581579Y-72784602D01*
X113424602Y-72941579D01*
X113301266Y-73126165D01*
X113216310Y-73331266D01*
X113173000Y-73549000D01*
X113173000Y-73771000D01*
X113216310Y-73988734D01*
X113301266Y-74193835D01*
X113424602Y-74378421D01*
X113581579Y-74535398D01*
X113766165Y-74658734D01*
X113971266Y-74743690D01*
X114189000Y-74787000D01*
X114411000Y-74787000D01*
X114628734Y-74743690D01*
X114833835Y-74658734D01*
X114888812Y-74622000D01*
X116251188Y-74622000D01*
X116306165Y-74658734D01*
X116511266Y-74743690D01*
X116729000Y-74787000D01*
X116951000Y-74787000D01*
X117168734Y-74743690D01*
X117373835Y-74658734D01*
X117558421Y-74535398D01*
X117715398Y-74378421D01*
X117838734Y-74193835D01*
X117848000Y-74171464D01*
X117848000Y-75688536D01*
X117838734Y-75666165D01*
X117715398Y-75481579D01*
X117558421Y-75324602D01*
X117373835Y-75201266D01*
X117168734Y-75116310D01*
X116951000Y-75073000D01*
X116729000Y-75073000D01*
X116511266Y-75116310D01*
X116306165Y-75201266D01*
X116251188Y-75238000D01*
X114888812Y-75238000D01*
X114833835Y-75201266D01*
X114628734Y-75116310D01*
X114411000Y-75073000D01*
X114189000Y-75073000D01*
X113971266Y-75116310D01*
X113766165Y-75201266D01*
X113581579Y-75324602D01*
X113424602Y-75481579D01*
X113301266Y-75666165D01*
X113216310Y-75871266D01*
X113173000Y-76089000D01*
X113173000Y-76311000D01*
X113216310Y-76528734D01*
X113301266Y-76733835D01*
X113424602Y-76918421D01*
X113581579Y-77075398D01*
X113766165Y-77198734D01*
X113971266Y-77283690D01*
X114189000Y-77327000D01*
X114411000Y-77327000D01*
X114628734Y-77283690D01*
X114833835Y-77198734D01*
X114888812Y-77162000D01*
X116251188Y-77162000D01*
X116306165Y-77198734D01*
X116511266Y-77283690D01*
X116729000Y-77327000D01*
X116951000Y-77327000D01*
X117168734Y-77283690D01*
X117373835Y-77198734D01*
X117558421Y-77075398D01*
X117715398Y-76918421D01*
X117838734Y-76733835D01*
X117848000Y-76711464D01*
X117848000Y-78228536D01*
X117838734Y-78206165D01*
X117715398Y-78021579D01*
X117558421Y-77864602D01*
X117373835Y-77741266D01*
X117168734Y-77656310D01*
X116951000Y-77613000D01*
X116729000Y-77613000D01*
X116511266Y-77656310D01*
X116306165Y-77741266D01*
X116251188Y-77778000D01*
X114888812Y-77778000D01*
X114833835Y-77741266D01*
X114628734Y-77656310D01*
X114411000Y-77613000D01*
X114189000Y-77613000D01*
X113971266Y-77656310D01*
X113766165Y-77741266D01*
X113581579Y-77864602D01*
X113424602Y-78021579D01*
X113301266Y-78206165D01*
X113216310Y-78411266D01*
X113173000Y-78629000D01*
X113173000Y-78851000D01*
X113216310Y-79068734D01*
X113301266Y-79273835D01*
X113424602Y-79458421D01*
X113581579Y-79615398D01*
X113766165Y-79738734D01*
X113971266Y-79823690D01*
X114189000Y-79867000D01*
X114411000Y-79867000D01*
X114628734Y-79823690D01*
X114833835Y-79738734D01*
X114888812Y-79702000D01*
X116251188Y-79702000D01*
X116306165Y-79738734D01*
X116511266Y-79823690D01*
X116729000Y-79867000D01*
X116951000Y-79867000D01*
X117168734Y-79823690D01*
X117373835Y-79738734D01*
X117558421Y-79615398D01*
X117715398Y-79458421D01*
X117838734Y-79273835D01*
X117848001Y-79251464D01*
X117848001Y-80768536D01*
X117838734Y-80746165D01*
X117715398Y-80561579D01*
X117558421Y-80404602D01*
X117373835Y-80281266D01*
X117168734Y-80196310D01*
X116951000Y-80153000D01*
X116729000Y-80153000D01*
X116511266Y-80196310D01*
X116306165Y-80281266D01*
X116251188Y-80318000D01*
X114888812Y-80318000D01*
X114833835Y-80281266D01*
X114628734Y-80196310D01*
X114411000Y-80153000D01*
X114189000Y-80153000D01*
X113971266Y-80196310D01*
X113766165Y-80281266D01*
X113581579Y-80404602D01*
X113424602Y-80561579D01*
X113301266Y-80746165D01*
X113216310Y-80951266D01*
X113173000Y-81169000D01*
X113173000Y-81391000D01*
X113216310Y-81608734D01*
X113301266Y-81813835D01*
X113424602Y-81998421D01*
X113581579Y-82155398D01*
X113766165Y-82278734D01*
X113971266Y-82363690D01*
X114189000Y-82407000D01*
X114411000Y-82407000D01*
X114628734Y-82363690D01*
X114833835Y-82278734D01*
X114888812Y-82242000D01*
X116251188Y-82242000D01*
X116306165Y-82278734D01*
X116511266Y-82363690D01*
X116729000Y-82407000D01*
X116951000Y-82407000D01*
X117168734Y-82363690D01*
X117373835Y-82278734D01*
X117558421Y-82155398D01*
X117715398Y-81998421D01*
X117838734Y-81813835D01*
X117848001Y-81791464D01*
X117848001Y-83308536D01*
X117838734Y-83286165D01*
X117715398Y-83101579D01*
X117558421Y-82944602D01*
X117373835Y-82821266D01*
X117168734Y-82736310D01*
X116951000Y-82693000D01*
X116729000Y-82693000D01*
X116511266Y-82736310D01*
X116306165Y-82821266D01*
X116251188Y-82858000D01*
X114888812Y-82858000D01*
X114833835Y-82821266D01*
X114628734Y-82736310D01*
X114411000Y-82693000D01*
X114189000Y-82693000D01*
X113971266Y-82736310D01*
X113766165Y-82821266D01*
X113581579Y-82944602D01*
X113424602Y-83101579D01*
X113301266Y-83286165D01*
X113216310Y-83491266D01*
X113173000Y-83709000D01*
X113173000Y-83931000D01*
X113216310Y-84148734D01*
X113301266Y-84353835D01*
X113424602Y-84538421D01*
X113581579Y-84695398D01*
X113766165Y-84818734D01*
X113971266Y-84903690D01*
X114189000Y-84947000D01*
X114411000Y-84947000D01*
X114628734Y-84903690D01*
X114833835Y-84818734D01*
X114888812Y-84782000D01*
X116251188Y-84782000D01*
X116306165Y-84818734D01*
X116511266Y-84903690D01*
X116729000Y-84947000D01*
X116951000Y-84947000D01*
X117168734Y-84903690D01*
X117373835Y-84818734D01*
X117558421Y-84695398D01*
X117715398Y-84538421D01*
X117838734Y-84353835D01*
X117848001Y-84331464D01*
X117848001Y-85848536D01*
X117838734Y-85826165D01*
X117715398Y-85641579D01*
X117558421Y-85484602D01*
X117373835Y-85361266D01*
X117168734Y-85276310D01*
X116951000Y-85233000D01*
X116729000Y-85233000D01*
X116511266Y-85276310D01*
X116306165Y-85361266D01*
X116251188Y-85398000D01*
X114888812Y-85398000D01*
X114833835Y-85361266D01*
X114628734Y-85276310D01*
X114411000Y-85233000D01*
X114189000Y-85233000D01*
X113971266Y-85276310D01*
X113766165Y-85361266D01*
X113581579Y-85484602D01*
X113424602Y-85641579D01*
X113301266Y-85826165D01*
X113216310Y-86031266D01*
X113173000Y-86249000D01*
X113173000Y-86471000D01*
X113216310Y-86688734D01*
X113301266Y-86893835D01*
X113424602Y-87078421D01*
X113581579Y-87235398D01*
X113766165Y-87358734D01*
X113971266Y-87443690D01*
X114189000Y-87487000D01*
X114411000Y-87487000D01*
X114628734Y-87443690D01*
X114833835Y-87358734D01*
X114888812Y-87322000D01*
X116251188Y-87322000D01*
X116306165Y-87358734D01*
X116511266Y-87443690D01*
X116729000Y-87487000D01*
X116951000Y-87487000D01*
X117168734Y-87443690D01*
X117373835Y-87358734D01*
X117558421Y-87235398D01*
X117715398Y-87078421D01*
X117838734Y-86893835D01*
X117848001Y-86871464D01*
X117848001Y-88388536D01*
X117838734Y-88366165D01*
X117715398Y-88181579D01*
X117558421Y-88024602D01*
X117373835Y-87901266D01*
X117168734Y-87816310D01*
X116951000Y-87773000D01*
X116729000Y-87773000D01*
X116511266Y-87816310D01*
X116306165Y-87901266D01*
X116251188Y-87938000D01*
X114888812Y-87938000D01*
X114833835Y-87901266D01*
X114628734Y-87816310D01*
X114411000Y-87773000D01*
X114189000Y-87773000D01*
X113971266Y-87816310D01*
X113766165Y-87901266D01*
X113581579Y-88024602D01*
X113424602Y-88181579D01*
X113301266Y-88366165D01*
X113216310Y-88571266D01*
X113173000Y-88789000D01*
X113173000Y-89011000D01*
X113216310Y-89228734D01*
X113301266Y-89433835D01*
X113424602Y-89618421D01*
X113581579Y-89775398D01*
X113766165Y-89898734D01*
X113971266Y-89983690D01*
X114189000Y-90027000D01*
X114411000Y-90027000D01*
X114628734Y-89983690D01*
X114833835Y-89898734D01*
X114888812Y-89862000D01*
X116251188Y-89862000D01*
X116306165Y-89898734D01*
X116511266Y-89983690D01*
X116729000Y-90027000D01*
X116951000Y-90027000D01*
X117168734Y-89983690D01*
X117373835Y-89898734D01*
X117558421Y-89775398D01*
X117715398Y-89618421D01*
X117838734Y-89433835D01*
X117848001Y-89411463D01*
X117848001Y-90928537D01*
X117838734Y-90906165D01*
X117715398Y-90721579D01*
X117558421Y-90564602D01*
X117373835Y-90441266D01*
X117168734Y-90356310D01*
X116951000Y-90313000D01*
X116729000Y-90313000D01*
X116511266Y-90356310D01*
X116306165Y-90441266D01*
X116251188Y-90478000D01*
X114888812Y-90478000D01*
X114833835Y-90441266D01*
X114628734Y-90356310D01*
X114411000Y-90313000D01*
X114189000Y-90313000D01*
X113971266Y-90356310D01*
X113766165Y-90441266D01*
X113581579Y-90564602D01*
X113424602Y-90721579D01*
X113301266Y-90906165D01*
X113223000Y-91095115D01*
X113223000Y-90591288D01*
X113225195Y-90569000D01*
X113223000Y-90546712D01*
X113223000Y-90546705D01*
X113216430Y-90480001D01*
X113213861Y-90471530D01*
X113190470Y-90394421D01*
X113170099Y-90356310D01*
X113148313Y-90315551D01*
X113091579Y-90246421D01*
X113074263Y-90232210D01*
X107736796Y-84894744D01*
X107736791Y-84894738D01*
X106626000Y-83783948D01*
X106626000Y-65000000D01*
X107943805Y-65000000D01*
X107946000Y-65022288D01*
X107946001Y-68921702D01*
X107943805Y-68944000D01*
X107952570Y-69032999D01*
X107978530Y-69118578D01*
X107978531Y-69118579D01*
X108020688Y-69197449D01*
X108077422Y-69266579D01*
X108094738Y-69280790D01*
X108514210Y-69700263D01*
X108528421Y-69717579D01*
X108597551Y-69774313D01*
X108676421Y-69816470D01*
X108762000Y-69842430D01*
X108771301Y-69843346D01*
X108776418Y-69843850D01*
X108776418Y-70495000D01*
X108782732Y-70559103D01*
X108801430Y-70620743D01*
X108831794Y-70677550D01*
X108872657Y-70727343D01*
X108922450Y-70768206D01*
X108979257Y-70798570D01*
X109040897Y-70817268D01*
X109105000Y-70823582D01*
X110605000Y-70823582D01*
X110669103Y-70817268D01*
X110730743Y-70798570D01*
X110787550Y-70768206D01*
X110837343Y-70727343D01*
X110878206Y-70677550D01*
X110908570Y-70620743D01*
X110927268Y-70559103D01*
X110933582Y-70495000D01*
X110933582Y-68295000D01*
X110927268Y-68230897D01*
X110908570Y-68169257D01*
X110878206Y-68112450D01*
X110837343Y-68062657D01*
X110787550Y-68021794D01*
X110730743Y-67991430D01*
X110669103Y-67972732D01*
X110605000Y-67966418D01*
X109105000Y-67966418D01*
X109040897Y-67972732D01*
X108979257Y-67991430D01*
X108922450Y-68021794D01*
X108872657Y-68062657D01*
X108854000Y-68085391D01*
X108854000Y-67804609D01*
X108872657Y-67827343D01*
X108922450Y-67868206D01*
X108979257Y-67898570D01*
X109040897Y-67917268D01*
X109105000Y-67923582D01*
X110605000Y-67923582D01*
X110669103Y-67917268D01*
X110730743Y-67898570D01*
X110787550Y-67868206D01*
X110837343Y-67827343D01*
X110878206Y-67777550D01*
X110908570Y-67720743D01*
X110927268Y-67659103D01*
X110933582Y-67595000D01*
X110933582Y-66943850D01*
X110947999Y-66942430D01*
X111033579Y-66916470D01*
X111112449Y-66874313D01*
X111181579Y-66817579D01*
X111195794Y-66800258D01*
X111505263Y-66490790D01*
X111522579Y-66476579D01*
X111579313Y-66407449D01*
X111621470Y-66328579D01*
X111647430Y-66242999D01*
X111654000Y-66176295D01*
X111654000Y-66176288D01*
X111656195Y-66154000D01*
X111654000Y-66131712D01*
X111654000Y-60073287D01*
X111656195Y-60050999D01*
X111654000Y-60028711D01*
X111654000Y-60028705D01*
X111647430Y-59962001D01*
X111621470Y-59876421D01*
X111579313Y-59797551D01*
X111522579Y-59728421D01*
X111505264Y-59714211D01*
X111095794Y-59304742D01*
X111081579Y-59287421D01*
X111012449Y-59230687D01*
X110933579Y-59188530D01*
X110847999Y-59162570D01*
X110833582Y-59161150D01*
X110833582Y-58860000D01*
X110827268Y-58795897D01*
X110808570Y-58734257D01*
X110778206Y-58677450D01*
X110737343Y-58627657D01*
X110687550Y-58586794D01*
X110630743Y-58556430D01*
X110569103Y-58537732D01*
X110505000Y-58531418D01*
X110309000Y-58531418D01*
X110309000Y-56938582D01*
X110480000Y-56938582D01*
X110544103Y-56932268D01*
X110605743Y-56913570D01*
X110662550Y-56883206D01*
X110712343Y-56842343D01*
X110753206Y-56792550D01*
X110783570Y-56735743D01*
X110802268Y-56674103D01*
X110808582Y-56610000D01*
X110808582Y-55110000D01*
X110802268Y-55045897D01*
X110783570Y-54984257D01*
X110753206Y-54927450D01*
X110712343Y-54877657D01*
X110662550Y-54836794D01*
X110605743Y-54806430D01*
X110544103Y-54787732D01*
X110480000Y-54781418D01*
X109230000Y-54781418D01*
X109165897Y-54787732D01*
X109104257Y-54806430D01*
X109047450Y-54836794D01*
X108997657Y-54877657D01*
X108956794Y-54927450D01*
X108926430Y-54984257D01*
X108907732Y-55045897D01*
X108901418Y-55110000D01*
X108901418Y-56610000D01*
X108907732Y-56674103D01*
X108926430Y-56735743D01*
X108956794Y-56792550D01*
X108997657Y-56842343D01*
X109047450Y-56883206D01*
X109104257Y-56913570D01*
X109165897Y-56932268D01*
X109230000Y-56938582D01*
X109401000Y-56938582D01*
X109401001Y-58531418D01*
X109205000Y-58531418D01*
X109140897Y-58537732D01*
X109079257Y-58556430D01*
X109022450Y-58586794D01*
X108972657Y-58627657D01*
X108931794Y-58677450D01*
X108901430Y-58734257D01*
X108882732Y-58795897D01*
X108876418Y-58860000D01*
X108876418Y-60360000D01*
X108882732Y-60424103D01*
X108901430Y-60485743D01*
X108931794Y-60542550D01*
X108972657Y-60592343D01*
X109022450Y-60633206D01*
X109079257Y-60663570D01*
X109140897Y-60682268D01*
X109205000Y-60688582D01*
X110505000Y-60688582D01*
X110569103Y-60682268D01*
X110630743Y-60663570D01*
X110687550Y-60633206D01*
X110737343Y-60592343D01*
X110746000Y-60581794D01*
X110746000Y-61338206D01*
X110737343Y-61327657D01*
X110687550Y-61286794D01*
X110630743Y-61256430D01*
X110569103Y-61237732D01*
X110505000Y-61231418D01*
X109205000Y-61231418D01*
X109140897Y-61237732D01*
X109079257Y-61256430D01*
X109022450Y-61286794D01*
X108972657Y-61327657D01*
X108931794Y-61377450D01*
X108901430Y-61434257D01*
X108882732Y-61495897D01*
X108876418Y-61560000D01*
X108876418Y-63060000D01*
X108882732Y-63124103D01*
X108901430Y-63185743D01*
X108931794Y-63242550D01*
X108972657Y-63292343D01*
X109022450Y-63333206D01*
X109079257Y-63363570D01*
X109140897Y-63382268D01*
X109205000Y-63388582D01*
X109369365Y-63388582D01*
X108094742Y-64663206D01*
X108077421Y-64677421D01*
X108020687Y-64746552D01*
X107978530Y-64825422D01*
X107952570Y-64911002D01*
X107946000Y-64977706D01*
X107946000Y-64977712D01*
X107943805Y-65000000D01*
X106626000Y-65000000D01*
X106626000Y-63394288D01*
X106628195Y-63372000D01*
X106626000Y-63349712D01*
X106626000Y-63349705D01*
X106619430Y-63283001D01*
X106608374Y-63246552D01*
X106593470Y-63197421D01*
X106587228Y-63185743D01*
X106551313Y-63118551D01*
X106494579Y-63049421D01*
X106477264Y-63035211D01*
X104014000Y-60571948D01*
X104014000Y-57862288D01*
X104016195Y-57840000D01*
X104014000Y-57817712D01*
X104014000Y-57817705D01*
X104007430Y-57751001D01*
X103981470Y-57665421D01*
X103939313Y-57586551D01*
X103882579Y-57517421D01*
X103865264Y-57503211D01*
X102650621Y-56288569D01*
X102683690Y-56208734D01*
X102727000Y-55991000D01*
X102727000Y-55769000D01*
X102683690Y-55551266D01*
X102598734Y-55346165D01*
X102475398Y-55161579D01*
X102318421Y-55004602D01*
X102133835Y-54881266D01*
X101928734Y-54796310D01*
X101711000Y-54753000D01*
X101489000Y-54753000D01*
X101271266Y-54796310D01*
X101066165Y-54881266D01*
X101011188Y-54918000D01*
X99648812Y-54918000D01*
X99593835Y-54881266D01*
X99388734Y-54796310D01*
X99171000Y-54753000D01*
X98949000Y-54753000D01*
X98731266Y-54796310D01*
X98526165Y-54881266D01*
X98341579Y-55004602D01*
X98184602Y-55161579D01*
X98061266Y-55346165D01*
X97976310Y-55551266D01*
X97952000Y-55673481D01*
X97952000Y-53546519D01*
X97976310Y-53668734D01*
X98061266Y-53873835D01*
X98184602Y-54058421D01*
X98341579Y-54215398D01*
X98526165Y-54338734D01*
X98731266Y-54423690D01*
X98949000Y-54467000D01*
X99171000Y-54467000D01*
X99388734Y-54423690D01*
X99593835Y-54338734D01*
X99648812Y-54302000D01*
X101011188Y-54302000D01*
X101066165Y-54338734D01*
X101271266Y-54423690D01*
X101489000Y-54467000D01*
X101711000Y-54467000D01*
X101928734Y-54423690D01*
X102133835Y-54338734D01*
X102318421Y-54215398D01*
X102475398Y-54058421D01*
X102598734Y-53873835D01*
X102683690Y-53668734D01*
X102727000Y-53451000D01*
X102727000Y-53229000D01*
X102683690Y-53011266D01*
X102598734Y-52806165D01*
X102475398Y-52621579D01*
X102318421Y-52464602D01*
X102133835Y-52341266D01*
X101928734Y-52256310D01*
X101711000Y-52213000D01*
X101489000Y-52213000D01*
X101271266Y-52256310D01*
X101066165Y-52341266D01*
X101011188Y-52378000D01*
X99648812Y-52378000D01*
X99593835Y-52341266D01*
X99388734Y-52256310D01*
X99171000Y-52213000D01*
X98949000Y-52213000D01*
X98731266Y-52256310D01*
X98526165Y-52341266D01*
X98341579Y-52464602D01*
X98184602Y-52621579D01*
X98061266Y-52806165D01*
X97976310Y-53011266D01*
X97952000Y-53133481D01*
X97952000Y-52008283D01*
X97974730Y-52026937D01*
X98063502Y-52074387D01*
X98159826Y-52103607D01*
X98260000Y-52113473D01*
X98805250Y-52111000D01*
X98933000Y-51983250D01*
X98933000Y-50927000D01*
X99187000Y-50927000D01*
X99187000Y-51983250D01*
X99314750Y-52111000D01*
X99860000Y-52113473D01*
X99960174Y-52103607D01*
X100056498Y-52074387D01*
X100145270Y-52026937D01*
X100223080Y-51963080D01*
X100286937Y-51885270D01*
X100330000Y-51804705D01*
X100373063Y-51885270D01*
X100436920Y-51963080D01*
X100514730Y-52026937D01*
X100603502Y-52074387D01*
X100699826Y-52103607D01*
X100800000Y-52113473D01*
X101345250Y-52111000D01*
X101473000Y-51983250D01*
X101473000Y-50927000D01*
X101727000Y-50927000D01*
X101727000Y-51983250D01*
X101854750Y-52111000D01*
X102400000Y-52113473D01*
X102500174Y-52103607D01*
X102596498Y-52074387D01*
X102685270Y-52026937D01*
X102763080Y-51963080D01*
X102826937Y-51885270D01*
X102874387Y-51796498D01*
X102903607Y-51700174D01*
X102913473Y-51600000D01*
X102911000Y-51054750D01*
X102783250Y-50927000D01*
X101727000Y-50927000D01*
X101473000Y-50927000D01*
X100416750Y-50927000D01*
X100330000Y-51013750D01*
X100243250Y-50927000D01*
X99187000Y-50927000D01*
X98933000Y-50927000D01*
X98913000Y-50927000D01*
X98913000Y-50673000D01*
X98933000Y-50673000D01*
X98933000Y-49616750D01*
X99187000Y-49616750D01*
X99187000Y-50673000D01*
X100243250Y-50673000D01*
X100330000Y-50586250D01*
X100416750Y-50673000D01*
X101473000Y-50673000D01*
X101473000Y-49616750D01*
X101727000Y-49616750D01*
X101727000Y-50673000D01*
X102783250Y-50673000D01*
X102785693Y-50670557D01*
X104908000Y-50670557D01*
X104908000Y-50769443D01*
X104927292Y-50866428D01*
X104965133Y-50957786D01*
X105020071Y-51040006D01*
X105089994Y-51109929D01*
X105172214Y-51164867D01*
X105263572Y-51202708D01*
X105290247Y-51208014D01*
X105315421Y-51221470D01*
X105401001Y-51247430D01*
X105467705Y-51254000D01*
X105467711Y-51254000D01*
X105489999Y-51256195D01*
X105512287Y-51254000D01*
X108611948Y-51254000D01*
X109401001Y-52043054D01*
X109401001Y-52281418D01*
X109230000Y-52281418D01*
X109165897Y-52287732D01*
X109104257Y-52306430D01*
X109047450Y-52336794D01*
X108997657Y-52377657D01*
X108956794Y-52427450D01*
X108926430Y-52484257D01*
X108907732Y-52545897D01*
X108901418Y-52610000D01*
X108901418Y-54110000D01*
X108907732Y-54174103D01*
X108926430Y-54235743D01*
X108956794Y-54292550D01*
X108997657Y-54342343D01*
X109047450Y-54383206D01*
X109104257Y-54413570D01*
X109165897Y-54432268D01*
X109230000Y-54438582D01*
X110480000Y-54438582D01*
X110544103Y-54432268D01*
X110605743Y-54413570D01*
X110662550Y-54383206D01*
X110712343Y-54342343D01*
X110753206Y-54292550D01*
X110783570Y-54235743D01*
X110802268Y-54174103D01*
X110808582Y-54110000D01*
X110808582Y-52610000D01*
X110802268Y-52545897D01*
X110783570Y-52484257D01*
X110753206Y-52427450D01*
X110712343Y-52377657D01*
X110662550Y-52336794D01*
X110605743Y-52306430D01*
X110544103Y-52287732D01*
X110480000Y-52281418D01*
X110309000Y-52281418D01*
X110309000Y-51877287D01*
X110311195Y-51854999D01*
X110309000Y-51832711D01*
X110309000Y-51832705D01*
X110302430Y-51766001D01*
X110301217Y-51762000D01*
X110276470Y-51680421D01*
X110273785Y-51675398D01*
X110234313Y-51601551D01*
X110177579Y-51532421D01*
X110160263Y-51518210D01*
X109136794Y-50494742D01*
X109122579Y-50477421D01*
X109053449Y-50420687D01*
X108974579Y-50378530D01*
X108888999Y-50352570D01*
X108822295Y-50346000D01*
X108822288Y-50346000D01*
X108800000Y-50343805D01*
X108777712Y-50346000D01*
X105745935Y-50346000D01*
X105730006Y-50330071D01*
X105647786Y-50275133D01*
X105556428Y-50237292D01*
X105459443Y-50218000D01*
X105360557Y-50218000D01*
X105263572Y-50237292D01*
X105172214Y-50275133D01*
X105089994Y-50330071D01*
X105020071Y-50399994D01*
X104965133Y-50482214D01*
X104927292Y-50573572D01*
X104908000Y-50670557D01*
X102785693Y-50670557D01*
X102911000Y-50545250D01*
X102913473Y-50000000D01*
X102903607Y-49899826D01*
X102874387Y-49803502D01*
X102826937Y-49714730D01*
X102763080Y-49636920D01*
X102685270Y-49573063D01*
X102596498Y-49525613D01*
X102500174Y-49496393D01*
X102400000Y-49486527D01*
X101854750Y-49489000D01*
X101727000Y-49616750D01*
X101473000Y-49616750D01*
X101345250Y-49489000D01*
X100800000Y-49486527D01*
X100699826Y-49496393D01*
X100603502Y-49525613D01*
X100514730Y-49573063D01*
X100436920Y-49636920D01*
X100373063Y-49714730D01*
X100330000Y-49795295D01*
X100286937Y-49714730D01*
X100223080Y-49636920D01*
X100145270Y-49573063D01*
X100056498Y-49525613D01*
X99960174Y-49496393D01*
X99860000Y-49486527D01*
X99314750Y-49489000D01*
X99187000Y-49616750D01*
X98933000Y-49616750D01*
X98805250Y-49489000D01*
X98260000Y-49486527D01*
X98159826Y-49496393D01*
X98063502Y-49525613D01*
X97974730Y-49573063D01*
X97952000Y-49591717D01*
X97952000Y-48350557D01*
X110298000Y-48350557D01*
X110298000Y-48449443D01*
X110317292Y-48546428D01*
X110355133Y-48637786D01*
X110410071Y-48720006D01*
X110479994Y-48789929D01*
X110562214Y-48844867D01*
X110653572Y-48882708D01*
X110750557Y-48902000D01*
X110849443Y-48902000D01*
X110946428Y-48882708D01*
X111037786Y-48844867D01*
X111120006Y-48789929D01*
X111189929Y-48720006D01*
X111244867Y-48637786D01*
X111282708Y-48546428D01*
X111302000Y-48449443D01*
X111302000Y-48350557D01*
X111282708Y-48253572D01*
X111254000Y-48184263D01*
X111254000Y-48138052D01*
X112583163Y-46808890D01*
X112686682Y-46851769D01*
X112914076Y-46897000D01*
X113145924Y-46897000D01*
X113373318Y-46851769D01*
X113587519Y-46763044D01*
X113780294Y-46634236D01*
X113944236Y-46470294D01*
X114073044Y-46277519D01*
X114161769Y-46063318D01*
X114207000Y-45835924D01*
X114207000Y-45604076D01*
X114393000Y-45604076D01*
X114393000Y-45835924D01*
X114438231Y-46063318D01*
X114526956Y-46277519D01*
X114655764Y-46470294D01*
X114819706Y-46634236D01*
X115012481Y-46763044D01*
X115226682Y-46851769D01*
X115454076Y-46897000D01*
X115685924Y-46897000D01*
X115913318Y-46851769D01*
X116127519Y-46763044D01*
X116320294Y-46634236D01*
X116484236Y-46470294D01*
X116613044Y-46277519D01*
X116701769Y-46063318D01*
X116747000Y-45835924D01*
X116747000Y-45604076D01*
X116701769Y-45376682D01*
X116613044Y-45162481D01*
X116484236Y-44969706D01*
X116320294Y-44805764D01*
X116127519Y-44676956D01*
X115913318Y-44588231D01*
X115685924Y-44543000D01*
X115454076Y-44543000D01*
X115226682Y-44588231D01*
X115012481Y-44676956D01*
X114819706Y-44805764D01*
X114655764Y-44969706D01*
X114526956Y-45162481D01*
X114438231Y-45376682D01*
X114393000Y-45604076D01*
X114207000Y-45604076D01*
X114161769Y-45376682D01*
X114073044Y-45162481D01*
X113944236Y-44969706D01*
X113780294Y-44805764D01*
X113587519Y-44676956D01*
X113373318Y-44588231D01*
X113145924Y-44543000D01*
X112914076Y-44543000D01*
X112686682Y-44588231D01*
X112472481Y-44676956D01*
X112279706Y-44805764D01*
X112115764Y-44969706D01*
X111986956Y-45162481D01*
X111898231Y-45376682D01*
X111853000Y-45604076D01*
X111853000Y-45835924D01*
X111898231Y-46063318D01*
X111941110Y-46166837D01*
X110494738Y-47613210D01*
X110477422Y-47627421D01*
X110420688Y-47696551D01*
X110398154Y-47738709D01*
X110378530Y-47775422D01*
X110352570Y-47861001D01*
X110348926Y-47898000D01*
X110346000Y-47927705D01*
X110346000Y-47927712D01*
X110343805Y-47950000D01*
X110346000Y-47972288D01*
X110346000Y-48184263D01*
X110317292Y-48253572D01*
X110298000Y-48350557D01*
X97952000Y-48350557D01*
X97952000Y-48041079D01*
X97977657Y-48072343D01*
X98027450Y-48113206D01*
X98084257Y-48143570D01*
X98145897Y-48162268D01*
X98210000Y-48168582D01*
X99910000Y-48168582D01*
X99974103Y-48162268D01*
X100035743Y-48143570D01*
X100092550Y-48113206D01*
X100142343Y-48072343D01*
X100183206Y-48022550D01*
X100213570Y-47965743D01*
X100232268Y-47904103D01*
X100238582Y-47840000D01*
X100238582Y-47327416D01*
X100281483Y-47327416D01*
X100372645Y-47578163D01*
X100510973Y-47806307D01*
X100691152Y-48003081D01*
X100906258Y-48160922D01*
X101148024Y-48273765D01*
X101262585Y-48308512D01*
X101473000Y-48216693D01*
X101473000Y-47117000D01*
X101727000Y-47117000D01*
X101727000Y-48216693D01*
X101937415Y-48308512D01*
X102051976Y-48273765D01*
X102293742Y-48160922D01*
X102508848Y-48003081D01*
X102689027Y-47806307D01*
X102827355Y-47578163D01*
X102918517Y-47327416D01*
X102827317Y-47117000D01*
X101727000Y-47117000D01*
X101473000Y-47117000D01*
X100372683Y-47117000D01*
X100281483Y-47327416D01*
X100238582Y-47327416D01*
X100238582Y-46652584D01*
X100281483Y-46652584D01*
X100372683Y-46863000D01*
X101473000Y-46863000D01*
X101473000Y-45763307D01*
X101727000Y-45763307D01*
X101727000Y-46863000D01*
X102827317Y-46863000D01*
X102918517Y-46652584D01*
X102827355Y-46401837D01*
X102689027Y-46173693D01*
X102508848Y-45976919D01*
X102293742Y-45819078D01*
X102051976Y-45706235D01*
X101937415Y-45671488D01*
X101727000Y-45763307D01*
X101473000Y-45763307D01*
X101262585Y-45671488D01*
X101148024Y-45706235D01*
X100906258Y-45819078D01*
X100691152Y-45976919D01*
X100510973Y-46173693D01*
X100372645Y-46401837D01*
X100281483Y-46652584D01*
X100238582Y-46652584D01*
X100238582Y-46140000D01*
X100232268Y-46075897D01*
X100213570Y-46014257D01*
X100183206Y-45957450D01*
X100142343Y-45907657D01*
X100092550Y-45866794D01*
X100035743Y-45836430D01*
X99974103Y-45817732D01*
X99910000Y-45811418D01*
X98210000Y-45811418D01*
X98145897Y-45817732D01*
X98084257Y-45836430D01*
X98027450Y-45866794D01*
X97977657Y-45907657D01*
X97952000Y-45938921D01*
X97952000Y-43517415D01*
X111711488Y-43517415D01*
X111746235Y-43631976D01*
X111859078Y-43873742D01*
X112016919Y-44088848D01*
X112213693Y-44269027D01*
X112441837Y-44407355D01*
X112692584Y-44498517D01*
X112903000Y-44407317D01*
X112903000Y-43307000D01*
X113157000Y-43307000D01*
X113157000Y-44407317D01*
X113367416Y-44498517D01*
X113618163Y-44407355D01*
X113846307Y-44269027D01*
X114043081Y-44088848D01*
X114200922Y-43873742D01*
X114313765Y-43631976D01*
X114348512Y-43517415D01*
X114256693Y-43307000D01*
X113157000Y-43307000D01*
X112903000Y-43307000D01*
X111803307Y-43307000D01*
X111711488Y-43517415D01*
X97952000Y-43517415D01*
X97952000Y-43064076D01*
X114393000Y-43064076D01*
X114393000Y-43295924D01*
X114438231Y-43523318D01*
X114526956Y-43737519D01*
X114655764Y-43930294D01*
X114819706Y-44094236D01*
X115012481Y-44223044D01*
X115226682Y-44311769D01*
X115454076Y-44357000D01*
X115685924Y-44357000D01*
X115913318Y-44311769D01*
X116127519Y-44223044D01*
X116320294Y-44094236D01*
X116484236Y-43930294D01*
X116613044Y-43737519D01*
X116701769Y-43523318D01*
X116747000Y-43295924D01*
X116747000Y-43064076D01*
X116701769Y-42836682D01*
X116613044Y-42622481D01*
X116484236Y-42429706D01*
X116320294Y-42265764D01*
X116127519Y-42136956D01*
X115913318Y-42048231D01*
X115685924Y-42003000D01*
X115454076Y-42003000D01*
X115226682Y-42048231D01*
X115012481Y-42136956D01*
X114819706Y-42265764D01*
X114655764Y-42429706D01*
X114526956Y-42622481D01*
X114438231Y-42836682D01*
X114393000Y-43064076D01*
X97952000Y-43064076D01*
X97952000Y-42842585D01*
X111711488Y-42842585D01*
X111803307Y-43053000D01*
X112903000Y-43053000D01*
X112903000Y-41952683D01*
X113157000Y-41952683D01*
X113157000Y-43053000D01*
X114256693Y-43053000D01*
X114348512Y-42842585D01*
X114313765Y-42728024D01*
X114200922Y-42486258D01*
X114043081Y-42271152D01*
X113846307Y-42090973D01*
X113618163Y-41952645D01*
X113367416Y-41861483D01*
X113157000Y-41952683D01*
X112903000Y-41952683D01*
X112692584Y-41861483D01*
X112441837Y-41952645D01*
X112213693Y-42090973D01*
X112016919Y-42271152D01*
X111859078Y-42486258D01*
X111746235Y-42728024D01*
X111711488Y-42842585D01*
X97952000Y-42842585D01*
X97952000Y-40524076D01*
X111853000Y-40524076D01*
X111853000Y-40755924D01*
X111898231Y-40983318D01*
X111986956Y-41197519D01*
X112115764Y-41390294D01*
X112279706Y-41554236D01*
X112472481Y-41683044D01*
X112686682Y-41771769D01*
X112914076Y-41817000D01*
X113145924Y-41817000D01*
X113373318Y-41771769D01*
X113587519Y-41683044D01*
X113780294Y-41554236D01*
X113944236Y-41390294D01*
X114073044Y-41197519D01*
X114161769Y-40983318D01*
X114207000Y-40755924D01*
X114207000Y-40524076D01*
X114393000Y-40524076D01*
X114393000Y-40755924D01*
X114438231Y-40983318D01*
X114526956Y-41197519D01*
X114655764Y-41390294D01*
X114819706Y-41554236D01*
X115012481Y-41683044D01*
X115226682Y-41771769D01*
X115454076Y-41817000D01*
X115685924Y-41817000D01*
X115913318Y-41771769D01*
X116127519Y-41683044D01*
X116320294Y-41554236D01*
X116484236Y-41390294D01*
X116613044Y-41197519D01*
X116701769Y-40983318D01*
X116747000Y-40755924D01*
X116747000Y-40524076D01*
X116701769Y-40296682D01*
X116613044Y-40082481D01*
X116484236Y-39889706D01*
X116320294Y-39725764D01*
X116127519Y-39596956D01*
X115913318Y-39508231D01*
X115685924Y-39463000D01*
X115454076Y-39463000D01*
X115226682Y-39508231D01*
X115012481Y-39596956D01*
X114819706Y-39725764D01*
X114655764Y-39889706D01*
X114526956Y-40082481D01*
X114438231Y-40296682D01*
X114393000Y-40524076D01*
X114207000Y-40524076D01*
X114161769Y-40296682D01*
X114073044Y-40082481D01*
X113944236Y-39889706D01*
X113780294Y-39725764D01*
X113587519Y-39596956D01*
X113373318Y-39508231D01*
X113145924Y-39463000D01*
X112914076Y-39463000D01*
X112686682Y-39508231D01*
X112472481Y-39596956D01*
X112279706Y-39725764D01*
X112115764Y-39889706D01*
X111986956Y-40082481D01*
X111898231Y-40296682D01*
X111853000Y-40524076D01*
X97952000Y-40524076D01*
X97952000Y-37250000D01*
X111851418Y-37250000D01*
X111851418Y-38950000D01*
X111857732Y-39014103D01*
X111876430Y-39075743D01*
X111906794Y-39132550D01*
X111947657Y-39182343D01*
X111997450Y-39223206D01*
X112054257Y-39253570D01*
X112115897Y-39272268D01*
X112180000Y-39278582D01*
X113880000Y-39278582D01*
X113944103Y-39272268D01*
X114005743Y-39253570D01*
X114062550Y-39223206D01*
X114112343Y-39182343D01*
X114153206Y-39132550D01*
X114183570Y-39075743D01*
X114202268Y-39014103D01*
X114208582Y-38950000D01*
X114208582Y-37984076D01*
X114393000Y-37984076D01*
X114393000Y-38215924D01*
X114438231Y-38443318D01*
X114526956Y-38657519D01*
X114655764Y-38850294D01*
X114819706Y-39014236D01*
X115012481Y-39143044D01*
X115226682Y-39231769D01*
X115454076Y-39277000D01*
X115685924Y-39277000D01*
X115913318Y-39231769D01*
X116127519Y-39143044D01*
X116320294Y-39014236D01*
X116484236Y-38850294D01*
X116613044Y-38657519D01*
X116701769Y-38443318D01*
X116747000Y-38215924D01*
X116747000Y-37984076D01*
X116701769Y-37756682D01*
X116613044Y-37542481D01*
X116484236Y-37349706D01*
X116320294Y-37185764D01*
X116127519Y-37056956D01*
X115913318Y-36968231D01*
X115685924Y-36923000D01*
X115454076Y-36923000D01*
X115226682Y-36968231D01*
X115012481Y-37056956D01*
X114819706Y-37185764D01*
X114655764Y-37349706D01*
X114526956Y-37542481D01*
X114438231Y-37756682D01*
X114393000Y-37984076D01*
X114208582Y-37984076D01*
X114208582Y-37250000D01*
X114202268Y-37185897D01*
X114183570Y-37124257D01*
X114153206Y-37067450D01*
X114112343Y-37017657D01*
X114062550Y-36976794D01*
X114005743Y-36946430D01*
X113944103Y-36927732D01*
X113880000Y-36921418D01*
X112180000Y-36921418D01*
X112115897Y-36927732D01*
X112054257Y-36946430D01*
X111997450Y-36976794D01*
X111947657Y-37017657D01*
X111906794Y-37067450D01*
X111876430Y-37124257D01*
X111857732Y-37185897D01*
X111851418Y-37250000D01*
X97952000Y-37250000D01*
X97952000Y-36552000D01*
X117848000Y-36552000D01*
X117848000Y-50288535D01*
M02*
